solid CATIA STL
  facet normal  1.762166e-016  1.898110e-017 -9.999999e-001
    outer loop
      vertex  1.159677e+001 -2.737204e-001  1.776357e-015
      vertex  1.535279e+000 -4.504632e-001  0.000000e+000
      vertex  1.404132e+000  7.670808e-001  0.000000e+000
    endloop
  endfacet
  facet normal  1.790841e-016 -1.442557e-016 -1.000000e+000
    outer loop
      vertex  7.670808e-001 -1.404132e+000  0.000000e+000
      vertex  1.535279e+000 -4.504632e-001  0.000000e+000
      vertex  1.159677e+001 -2.737204e-001  1.776357e-015
    endloop
  endfacet
  facet normal  1.675375e-016 -3.363579e-017 -1.000000e+000
    outer loop
      vertex  7.670808e-001 -1.404132e+000  0.000000e+000
      vertex  1.159677e+001 -2.737204e-001  1.776357e-015
      vertex  1.080378e+001 -4.223542e+000  1.776357e-015
    endloop
  endfacet
  facet normal  1.511222e-016 -9.207209e-017 -1.000000e+000
    outer loop
      vertex  7.670808e-001 -1.404132e+000  0.000000e+000
      vertex  1.080378e+001 -4.223542e+000  1.776357e-015
      vertex  8.707697e+000 -7.663942e+000  1.776357e-015
    endloop
  endfacet
  facet normal -2.748598e-017 -3.186378e-016 -1.000000e+000
    outer loop
      vertex  7.670808e-001 -1.404132e+000  0.000000e+000
      vertex  8.707697e+000 -7.663942e+000  1.776357e-015
      vertex  5.561336e+000 -1.017996e+001  2.664535e-015
    endloop
  endfacet
  facet normal  2.829752e-016 -1.490321e-016 -1.000000e+000
    outer loop
      vertex  7.670808e-001 -1.404132e+000  0.000000e+000
      vertex  5.561336e+000 -1.017996e+001  2.664535e-015
      vertex  1.744196e+000 -1.146812e+001  1.776357e-015
    endloop
  endfacet
  facet normal  4.243248e-018  1.797743e-016 -1.000000e+000
    outer loop
      vertex  4.504632e-001  1.535279e+000  0.000000e+000
      vertex -1.744196e+000  1.146812e+001  1.776357e-015
      vertex  2.283320e+000  1.137306e+001  1.776357e-015
    endloop
  endfacet
  facet normal  6.579634e-017  1.683064e-016 -1.000000e+000
    outer loop
      vertex  4.504632e-001  1.535279e+000  0.000000e+000
      vertex  2.283320e+000  1.137306e+001  1.776357e-015
      vertex  6.035434e+000  9.906238e+000  1.776357e-015
    endloop
  endfacet
  facet normal  1.176709e-016  1.336966e-016 -1.000000e+000
    outer loop
      vertex  4.504632e-001  1.535279e+000  0.000000e+000
      vertex  6.035434e+000  9.906238e+000  1.776357e-015
      vertex  9.059586e+000  7.244578e+000  1.776357e-015
    endloop
  endfacet
  facet normal  1.514613e-016  8.274366e-017 -1.000000e+000
    outer loop
      vertex  4.504632e-001  1.535279e+000  0.000000e+000
      vertex  9.059586e+000  7.244578e+000  1.776357e-015
      vertex  1.099102e+001  3.709116e+000  1.776357e-015
    endloop
  endfacet
  facet normal  1.634006e-016  2.485174e-017 -1.000000e+000
    outer loop
      vertex  4.504632e-001  1.535279e+000  0.000000e+000
      vertex  1.099102e+001  3.709116e+000  1.776357e-015
      vertex  1.159677e+001 -2.737204e-001  1.776357e-015
    endloop
  endfacet
  facet normal  1.995783e-016  2.477635e-016 -1.000000e+000
    outer loop
      vertex  4.504632e-001  1.535279e+000  0.000000e+000
      vertex  1.159677e+001 -2.737204e-001  1.776357e-015
      vertex  1.404132e+000  7.670808e-001  0.000000e+000
    endloop
  endfacet
  facet normal  0.000000e+000  0.000000e+000 -1.000000e+000
    outer loop
      vertex -9.059586e+000 -7.244578e+000  1.776357e-015
      vertex -1.099102e+001 -3.709116e+000  1.776357e-015
      vertex -6.035434e+000 -9.906238e+000  1.776357e-015
    endloop
  endfacet
  facet normal -1.446676e-016 -1.156848e-016 -1.000000e+000
    outer loop
      vertex -6.035434e+000 -9.906238e+000  1.776357e-015
      vertex -1.099102e+001 -3.709116e+000  1.776357e-015
      vertex -4.504632e-001 -1.535279e+000  0.000000e+000
    endloop
  endfacet
  facet normal -6.579634e-017 -1.683064e-016 -1.000000e+000
    outer loop
      vertex -6.035434e+000 -9.906238e+000  1.776357e-015
      vertex -4.504632e-001 -1.535279e+000  0.000000e+000
      vertex -2.283320e+000 -1.137306e+001  1.776357e-015
    endloop
  endfacet
  facet normal  1.984779e-017 -1.842626e-016 -1.000000e+000
    outer loop
      vertex -2.283320e+000 -1.137306e+001  1.776357e-015
      vertex -4.504632e-001 -1.535279e+000  0.000000e+000
      vertex  7.670808e-001 -1.404132e+000  0.000000e+000
    endloop
  endfacet
  facet normal -4.175681e-018 -1.769117e-016 -1.000000e+000
    outer loop
      vertex -2.283320e+000 -1.137306e+001  1.776357e-015
      vertex  7.670808e-001 -1.404132e+000  0.000000e+000
      vertex  1.744196e+000 -1.146812e+001  1.776357e-015
    endloop
  endfacet
  facet normal -4.905497e-017  4.554168e-016 -1.000000e+000
    outer loop
      vertex -7.670808e-001  1.404132e+000  0.000000e+000
      vertex -1.080378e+001  4.223542e+000  1.776357e-015
      vertex  4.504632e-001  1.535279e+000  0.000000e+000
    endloop
  endfacet
  facet normal -1.215350e-016  1.519836e-016 -1.000000e+000
    outer loop
      vertex  4.504632e-001  1.535279e+000  0.000000e+000
      vertex -1.080378e+001  4.223542e+000  1.776357e-015
      vertex -1.744196e+000  1.146812e+001  1.776357e-015
    endloop
  endfacet
  facet normal  0.000000e+000  -0.000000e+000 -1.000000e+000
    outer loop
      vertex -1.080378e+001  4.223542e+000  1.776357e-015
      vertex -8.707697e+000  7.663942e+000  1.776357e-015
      vertex -1.744196e+000  1.146812e+001  1.776357e-015
    endloop
  endfacet
  facet normal -6.086860e-016  1.114192e-015 -1.000000e+000
    outer loop
      vertex -1.744196e+000  1.146812e+001  1.776357e-015
      vertex -8.707697e+000  7.663942e+000  1.776357e-015
      vertex -5.561336e+000  1.017996e+001  2.664535e-015
    endloop
  endfacet
  facet normal -1.341737e-016 -1.665680e-016 -1.000000e+000
    outer loop
      vertex -4.504632e-001 -1.535279e+000  0.000000e+000
      vertex -1.099102e+001 -3.709116e+000  1.776357e-015
      vertex -1.404132e+000 -7.670808e-001  0.000000e+000
    endloop
  endfacet
  facet normal -1.770277e-016 -2.692430e-017 -1.000000e+000
    outer loop
      vertex -1.404132e+000 -7.670808e-001  0.000000e+000
      vertex -1.099102e+001 -3.709116e+000  1.776357e-015
      vertex -1.159677e+001  2.737204e-001  1.776357e-015
    endloop
  endfacet
  facet normal -1.762166e-016 -1.898112e-017 -1.000000e+000
    outer loop
      vertex -1.404132e+000 -7.670808e-001  0.000000e+000
      vertex -1.159677e+001  2.737204e-001  1.776357e-015
      vertex -1.535279e+000  4.504632e-001  0.000000e+000
    endloop
  endfacet
  facet normal -1.771749e-016  3.557065e-017 -1.000000e+000
    outer loop
      vertex -1.535279e+000  4.504632e-001  0.000000e+000
      vertex -1.159677e+001  2.737204e-001  1.776357e-015
      vertex -1.080378e+001  4.223542e+000  1.776357e-015
    endloop
  endfacet
  facet normal -1.443279e-016  1.162588e-016 -1.000000e+000
    outer loop
      vertex -1.535279e+000  4.504632e-001  0.000000e+000
      vertex -1.080378e+001  4.223542e+000  1.776357e-015
      vertex -7.670808e-001  1.404132e+000  0.000000e+000
    endloop
  endfacet
  facet normal -6.273123e-001 -7.787678e-001  -0.000000e+000
    outer loop
      vertex  1.404132e+000  7.670808e-001  0.000000e+000
      vertex  4.504632e-001  1.535279e+000  1.500000e+001
      vertex  4.504632e-001  1.535279e+000  0.000000e+000
    endloop
  endfacet
  facet normal  1.070951e-001 -9.942487e-001  0.000000e+000
    outer loop
      vertex  4.504632e-001  1.535279e+000  0.000000e+000
      vertex  4.504632e-001  1.535279e+000  1.500000e+001
      vertex -7.670808e-001  1.404132e+000  1.500000e+001
    endloop
  endfacet
  facet normal  1.070951e-001 -9.942487e-001  0.000000e+000
    outer loop
      vertex  4.504632e-001  1.535279e+000  0.000000e+000
      vertex -7.670808e-001  1.404132e+000  1.500000e+001
      vertex -7.670808e-001  1.404132e+000  0.000000e+000
    endloop
  endfacet
  facet normal -6.273123e-001 -7.787678e-001  0.000000e+000
    outer loop
      vertex  4.504632e-001  1.535279e+000  1.500000e+001
      vertex  1.404132e+000  7.670808e-001  0.000000e+000
      vertex  1.404132e+000  7.670808e-001  1.500000e+001
    endloop
  endfacet
  facet normal -9.942487e-001 -1.070951e-001  -0.000000e+000
    outer loop
      vertex  1.404132e+000  7.670808e-001  1.500000e+001
      vertex  1.404132e+000  7.670808e-001  0.000000e+000
      vertex  1.535279e+000 -4.504632e-001  0.000000e+000
    endloop
  endfacet
  facet normal -9.942487e-001 -1.070951e-001  0.000000e+000
    outer loop
      vertex  1.404132e+000  7.670808e-001  1.500000e+001
      vertex  1.535279e+000 -4.504632e-001  0.000000e+000
      vertex  1.535279e+000 -4.504632e-001  1.500000e+001
    endloop
  endfacet
  facet normal -7.787678e-001  6.273123e-001  0.000000e+000
    outer loop
      vertex  1.535279e+000 -4.504632e-001  1.500000e+001
      vertex  1.535279e+000 -4.504632e-001  0.000000e+000
      vertex  7.670808e-001 -1.404132e+000  0.000000e+000
    endloop
  endfacet
  facet normal -7.787678e-001  6.273123e-001  0.000000e+000
    outer loop
      vertex  1.535279e+000 -4.504632e-001  1.500000e+001
      vertex  7.670808e-001 -1.404132e+000  0.000000e+000
      vertex  7.670808e-001 -1.404132e+000  1.500000e+001
    endloop
  endfacet
  facet normal  6.147302e-001 -4.951771e-001  6.139271e-001
    outer loop
      vertex  7.670808e-001 -1.404132e+000  1.500000e+001
      vertex  8.707697e+000 -7.663942e+000  2.000000e+000
      vertex  1.535279e+000 -4.504632e-001  1.500000e+001
    endloop
  endfacet
  facet normal  4.978175e-001 -6.225374e-001  6.038418e-001
    outer loop
      vertex  7.670808e-001 -1.404132e+000  1.500000e+001
      vertex  5.561336e+000 -1.017996e+001  2.000000e+000
      vertex  8.707697e+000 -7.663942e+000  2.000000e+000
    endloop
  endfacet
  facet normal  2.904202e-001  7.428921e-001  6.031314e-001
    outer loop
      vertex  4.504632e-001  1.535279e+000  1.500000e+001
      vertex  6.035434e+000  9.906238e+000  2.000000e+000
      vertex  2.283320e+000  1.137306e+001  2.000000e+000
    endloop
  endfacet
  facet normal  7.001544e-001  3.824960e-001  6.028936e-001
    outer loop
      vertex  1.404132e+000  7.670808e-001  1.500000e+001
      vertex  1.099102e+001  3.709116e+000  2.000000e+000
      vertex  9.059586e+000  7.244578e+000  2.000000e+000
    endloop
  endfacet
  facet normal  5.000565e-001  6.207877e-001  6.037931e-001
    outer loop
      vertex  1.404132e+000  7.670808e-001  1.500000e+001
      vertex  9.059586e+000  7.244578e+000  2.000000e+000
      vertex  4.504632e-001  1.535279e+000  1.500000e+001
    endloop
  endfacet
  facet normal  5.241870e-001  5.955763e-001  6.087010e-001
    outer loop
      vertex  4.504632e-001  1.535279e+000  1.500000e+001
      vertex  9.059586e+000  7.244578e+000  2.000000e+000
      vertex  6.035434e+000  9.906238e+000  2.000000e+000
    endloop
  endfacet
  facet normal  7.820369e-001 -1.570062e-001  6.031314e-001
    outer loop
      vertex  1.535279e+000 -4.504632e-001  1.500000e+001
      vertex  1.080378e+001 -4.223542e+000  2.000000e+000
      vertex  1.159677e+001 -2.737204e-001  2.000000e+000
    endloop
  endfacet
  facet normal  7.874047e-001  8.481506e-002  6.105736e-001
    outer loop
      vertex  1.535279e+000 -4.504632e-001  1.500000e+001
      vertex  1.159677e+001 -2.737204e-001  2.000000e+000
      vertex  1.404132e+000  7.670808e-001  1.500000e+001
    endloop
  endfacet
  facet normal  7.859365e-001  1.195337e-001  6.066427e-001
    outer loop
      vertex  1.404132e+000  7.670808e-001  1.500000e+001
      vertex  1.159677e+001 -2.737204e-001  2.000000e+000
      vertex  1.099102e+001  3.709116e+000  2.000000e+000
    endloop
  endfacet
  facet normal  6.799544e-001 -4.142663e-001  6.050168e-001
    outer loop
      vertex  1.535279e+000 -4.504632e-001  1.500000e+001
      vertex  8.707697e+000 -7.663942e+000  2.000000e+000
      vertex  1.080378e+001 -4.223542e+000  2.000000e+000
    endloop
  endfacet
  facet normal -8.619865e-002  8.002504e-001  5.934382e-001
    outer loop
      vertex -7.670808e-001  1.404132e+000  1.500000e+001
      vertex  4.504632e-001  1.535279e+000  1.500000e+001
      vertex  2.283320e+000  1.137306e+001  2.000000e+000
    endloop
  endfacet
  facet normal  1.867675e-002  7.912803e-001  6.111682e-001
    outer loop
      vertex -7.670808e-001  1.404132e+000  1.500000e+001
      vertex  2.283320e+000  1.137306e+001  2.000000e+000
      vertex -1.744196e+000  1.146812e+001  2.000000e+000
    endloop
  endfacet
  facet normal -2.548753e-001  7.552574e-001  6.038419e-001
    outer loop
      vertex -7.670808e-001  1.404132e+000  1.500000e+001
      vertex -1.744196e+000  1.146812e+001  2.000000e+000
      vertex -5.561336e+000  1.017996e+001  2.000000e+000
    endloop
  endfacet
  facet normal -3.197516e-001  9.475014e-001  0.000000e+000
    outer loop
      vertex -5.561336e+000  1.017996e+001  2.664535e-015
      vertex -5.561336e+000  1.017996e+001  2.000000e+000
      vertex -1.744196e+000  1.146812e+001  1.776357e-015
    endloop
  endfacet
  facet normal -3.197516e-001  9.475014e-001  0.000000e+000
    outer loop
      vertex -1.744196e+000  1.146812e+001  1.776357e-015
      vertex -5.561336e+000  1.017996e+001  2.000000e+000
      vertex -1.744196e+000  1.146812e+001  2.000000e+000
    endloop
  endfacet
  facet normal  2.359662e-002  9.997215e-001  0.000000e+000
    outer loop
      vertex -1.744196e+000  1.146812e+001  1.776357e-015
      vertex -1.744196e+000  1.146812e+001  2.000000e+000
      vertex  2.283320e+000  1.137306e+001  1.776357e-015
    endloop
  endfacet
  facet normal  2.359662e-002  9.997215e-001  -0.000000e+000
    outer loop
      vertex  2.283320e+000  1.137306e+001  1.776357e-015
      vertex -1.744196e+000  1.146812e+001  2.000000e+000
      vertex  2.283320e+000  1.137306e+001  2.000000e+000
    endloop
  endfacet
  facet normal  3.640984e-001  9.313604e-001  0.000000e+000
    outer loop
      vertex  2.283320e+000  1.137306e+001  1.776357e-015
      vertex  2.283320e+000  1.137306e+001  2.000000e+000
      vertex  6.035434e+000  9.906238e+000  1.776357e-015
    endloop
  endfacet
  facet normal  3.640984e-001  9.313604e-001  -0.000000e+000
    outer loop
      vertex  6.035434e+000  9.906238e+000  1.776357e-015
      vertex  2.283320e+000  1.137306e+001  2.000000e+000
      vertex  6.035434e+000  9.906238e+000  2.000000e+000
    endloop
  endfacet
  facet normal  6.606846e-001  7.506636e-001  0.000000e+000
    outer loop
      vertex  6.035434e+000  9.906238e+000  1.776357e-015
      vertex  6.035434e+000  9.906238e+000  2.000000e+000
      vertex  9.059586e+000  7.244578e+000  1.776357e-015
    endloop
  endfacet
  facet normal  6.606846e-001  7.506636e-001  -0.000000e+000
    outer loop
      vertex  9.059586e+000  7.244578e+000  1.776357e-015
      vertex  6.035434e+000  9.906238e+000  2.000000e+000
      vertex  9.059586e+000  7.244578e+000  2.000000e+000
    endloop
  endfacet
  facet normal  8.775826e-001  4.794255e-001  0.000000e+000
    outer loop
      vertex  9.059586e+000  7.244578e+000  1.776357e-015
      vertex  9.059586e+000  7.244578e+000  2.000000e+000
      vertex  1.099102e+001  3.709116e+000  1.776357e-015
    endloop
  endfacet
  facet normal  8.775826e-001  4.794255e-001  -0.000000e+000
    outer loop
      vertex  1.099102e+001  3.709116e+000  1.776357e-015
      vertex  9.059586e+000  7.244578e+000  2.000000e+000
      vertex  1.099102e+001  3.709116e+000  2.000000e+000
    endloop
  endfacet
  facet normal  9.886310e-001  1.503617e-001  0.000000e+000
    outer loop
      vertex  1.099102e+001  3.709116e+000  1.776357e-015
      vertex  1.099102e+001  3.709116e+000  2.000000e+000
      vertex  1.159677e+001 -2.737204e-001  1.776357e-015
    endloop
  endfacet
  facet normal  9.886310e-001  1.503617e-001  -0.000000e+000
    outer loop
      vertex  1.159677e+001 -2.737204e-001  1.776357e-015
      vertex  1.099102e+001  3.709116e+000  2.000000e+000
      vertex  1.159677e+001 -2.737204e-001  2.000000e+000
    endloop
  endfacet
  facet normal  9.804360e-001 -1.968379e-001  0.000000e+000
    outer loop
      vertex  1.159677e+001 -2.737204e-001  1.776357e-015
      vertex  1.159677e+001 -2.737204e-001  2.000000e+000
      vertex  1.080378e+001 -4.223542e+000  1.776357e-015
    endloop
  endfacet
  facet normal  9.804360e-001 -1.968379e-001  0.000000e+000
    outer loop
      vertex  1.080378e+001 -4.223542e+000  1.776357e-015
      vertex  1.159677e+001 -2.737204e-001  2.000000e+000
      vertex  1.080378e+001 -4.223542e+000  2.000000e+000
    endloop
  endfacet
  facet normal  8.539860e-001 -5.202961e-001  0.000000e+000
    outer loop
      vertex  1.080378e+001 -4.223542e+000  1.776357e-015
      vertex  1.080378e+001 -4.223542e+000  2.000000e+000
      vertex  8.707697e+000 -7.663942e+000  1.776357e-015
    endloop
  endfacet
  facet normal  8.539860e-001 -5.202961e-001  0.000000e+000
    outer loop
      vertex  8.707697e+000 -7.663942e+000  1.776357e-015
      vertex  1.080378e+001 -4.223542e+000  2.000000e+000
      vertex  8.707697e+000 -7.663942e+000  2.000000e+000
    endloop
  endfacet
  facet normal  6.245325e-001 -7.809988e-001  0.000000e+000
    outer loop
      vertex  8.707697e+000 -7.663942e+000  1.776357e-015
      vertex  8.707697e+000 -7.663942e+000  2.000000e+000
      vertex  5.561336e+000 -1.017996e+001  2.664535e-015
    endloop
  endfacet
  facet normal  6.245325e-001 -7.809988e-001  0.000000e+000
    outer loop
      vertex  5.561336e+000 -1.017996e+001  2.664535e-015
      vertex  8.707697e+000 -7.663942e+000  2.000000e+000
      vertex  5.561336e+000 -1.017996e+001  2.000000e+000
    endloop
  endfacet
  facet normal  6.273123e-001  7.787678e-001  0.000000e+000
    outer loop
      vertex -1.404132e+000 -7.670808e-001  0.000000e+000
      vertex -4.504632e-001 -1.535279e+000  1.500000e+001
      vertex -4.504632e-001 -1.535279e+000  0.000000e+000
    endloop
  endfacet
  facet normal -1.070951e-001  9.942487e-001  0.000000e+000
    outer loop
      vertex -4.504632e-001 -1.535279e+000  0.000000e+000
      vertex -4.504632e-001 -1.535279e+000  1.500000e+001
      vertex  7.670808e-001 -1.404132e+000  1.500000e+001
    endloop
  endfacet
  facet normal -1.070951e-001  9.942487e-001  0.000000e+000
    outer loop
      vertex -4.504632e-001 -1.535279e+000  0.000000e+000
      vertex  7.670808e-001 -1.404132e+000  1.500000e+001
      vertex  7.670808e-001 -1.404132e+000  0.000000e+000
    endloop
  endfacet
  facet normal  6.273123e-001  7.787678e-001  -0.000000e+000
    outer loop
      vertex -4.504632e-001 -1.535279e+000  1.500000e+001
      vertex -1.404132e+000 -7.670808e-001  0.000000e+000
      vertex -1.404132e+000 -7.670808e-001  1.500000e+001
    endloop
  endfacet
  facet normal  9.942487e-001  1.070951e-001  0.000000e+000
    outer loop
      vertex -1.404132e+000 -7.670808e-001  1.500000e+001
      vertex -1.404132e+000 -7.670808e-001  0.000000e+000
      vertex -1.535279e+000  4.504632e-001  0.000000e+000
    endloop
  endfacet
  facet normal  9.942487e-001  1.070951e-001  -0.000000e+000
    outer loop
      vertex -1.404132e+000 -7.670808e-001  1.500000e+001
      vertex -1.535279e+000  4.504632e-001  0.000000e+000
      vertex -1.535279e+000  4.504632e-001  1.500000e+001
    endloop
  endfacet
  facet normal  7.787678e-001 -6.273123e-001  0.000000e+000
    outer loop
      vertex -1.535279e+000  4.504632e-001  1.500000e+001
      vertex -1.535279e+000  4.504632e-001  0.000000e+000
      vertex -7.670808e-001  1.404132e+000  0.000000e+000
    endloop
  endfacet
  facet normal  7.787678e-001 -6.273123e-001  0.000000e+000
    outer loop
      vertex -1.535279e+000  4.504632e-001  1.500000e+001
      vertex -7.670808e-001  1.404132e+000  0.000000e+000
      vertex -7.670808e-001  1.404132e+000  1.500000e+001
    endloop
  endfacet
  facet normal -6.147302e-001  4.951771e-001  6.139271e-001
    outer loop
      vertex -7.670808e-001  1.404132e+000  1.500000e+001
      vertex -8.707697e+000  7.663942e+000  2.000000e+000
      vertex -1.535279e+000  4.504632e-001  1.500000e+001
    endloop
  endfacet
  facet normal -4.978175e-001  6.225374e-001  6.038418e-001
    outer loop
      vertex -7.670808e-001  1.404132e+000  1.500000e+001
      vertex -5.561336e+000  1.017996e+001  2.000000e+000
      vertex -8.707697e+000  7.663942e+000  2.000000e+000
    endloop
  endfacet
  facet normal -2.904202e-001 -7.428921e-001  6.031314e-001
    outer loop
      vertex -4.504632e-001 -1.535279e+000  1.500000e+001
      vertex -6.035434e+000 -9.906238e+000  2.000000e+000
      vertex -2.283320e+000 -1.137306e+001  2.000000e+000
    endloop
  endfacet
  facet normal -7.001544e-001 -3.824960e-001  6.028936e-001
    outer loop
      vertex -1.404132e+000 -7.670808e-001  1.500000e+001
      vertex -1.099102e+001 -3.709116e+000  2.000000e+000
      vertex -9.059586e+000 -7.244578e+000  2.000000e+000
    endloop
  endfacet
  facet normal -5.000565e-001 -6.207877e-001  6.037931e-001
    outer loop
      vertex -1.404132e+000 -7.670808e-001  1.500000e+001
      vertex -9.059586e+000 -7.244578e+000  2.000000e+000
      vertex -4.504632e-001 -1.535279e+000  1.500000e+001
    endloop
  endfacet
  facet normal -5.241870e-001 -5.955763e-001  6.087010e-001
    outer loop
      vertex -4.504632e-001 -1.535279e+000  1.500000e+001
      vertex -9.059586e+000 -7.244578e+000  2.000000e+000
      vertex -6.035434e+000 -9.906238e+000  2.000000e+000
    endloop
  endfacet
  facet normal -7.820369e-001  1.570062e-001  6.031314e-001
    outer loop
      vertex -1.535279e+000  4.504632e-001  1.500000e+001
      vertex -1.080378e+001  4.223542e+000  2.000000e+000
      vertex -1.159677e+001  2.737204e-001  2.000000e+000
    endloop
  endfacet
  facet normal -7.874047e-001 -8.481506e-002  6.105736e-001
    outer loop
      vertex -1.535279e+000  4.504632e-001  1.500000e+001
      vertex -1.159677e+001  2.737204e-001  2.000000e+000
      vertex -1.404132e+000 -7.670808e-001  1.500000e+001
    endloop
  endfacet
  facet normal -7.859365e-001 -1.195337e-001  6.066427e-001
    outer loop
      vertex -1.404132e+000 -7.670808e-001  1.500000e+001
      vertex -1.159677e+001  2.737204e-001  2.000000e+000
      vertex -1.099102e+001 -3.709116e+000  2.000000e+000
    endloop
  endfacet
  facet normal -6.799544e-001  4.142663e-001  6.050168e-001
    outer loop
      vertex -1.535279e+000  4.504632e-001  1.500000e+001
      vertex -8.707697e+000  7.663942e+000  2.000000e+000
      vertex -1.080378e+001  4.223542e+000  2.000000e+000
    endloop
  endfacet
  facet normal  8.619865e-002 -8.002504e-001  5.934382e-001
    outer loop
      vertex  7.670808e-001 -1.404132e+000  1.500000e+001
      vertex -4.504632e-001 -1.535279e+000  1.500000e+001
      vertex -2.283320e+000 -1.137306e+001  2.000000e+000
    endloop
  endfacet
  facet normal -1.867675e-002 -7.912803e-001  6.111682e-001
    outer loop
      vertex  7.670808e-001 -1.404132e+000  1.500000e+001
      vertex -2.283320e+000 -1.137306e+001  2.000000e+000
      vertex  1.744196e+000 -1.146812e+001  2.000000e+000
    endloop
  endfacet
  facet normal  2.548753e-001 -7.552574e-001  6.038419e-001
    outer loop
      vertex  7.670808e-001 -1.404132e+000  1.500000e+001
      vertex  1.744196e+000 -1.146812e+001  2.000000e+000
      vertex  5.561336e+000 -1.017996e+001  2.000000e+000
    endloop
  endfacet
  facet normal  3.197516e-001 -9.475014e-001  0.000000e+000
    outer loop
      vertex  5.561336e+000 -1.017996e+001  2.664535e-015
      vertex  5.561336e+000 -1.017996e+001  2.000000e+000
      vertex  1.744196e+000 -1.146812e+001  1.776357e-015
    endloop
  endfacet
  facet normal  3.197516e-001 -9.475014e-001  0.000000e+000
    outer loop
      vertex  1.744196e+000 -1.146812e+001  1.776357e-015
      vertex  5.561336e+000 -1.017996e+001  2.000000e+000
      vertex  1.744196e+000 -1.146812e+001  2.000000e+000
    endloop
  endfacet
  facet normal -2.359662e-002 -9.997215e-001  -0.000000e+000
    outer loop
      vertex  1.744196e+000 -1.146812e+001  1.776357e-015
      vertex  1.744196e+000 -1.146812e+001  2.000000e+000
      vertex -2.283320e+000 -1.137306e+001  1.776357e-015
    endloop
  endfacet
  facet normal -2.359662e-002 -9.997215e-001  0.000000e+000
    outer loop
      vertex -2.283320e+000 -1.137306e+001  1.776357e-015
      vertex  1.744196e+000 -1.146812e+001  2.000000e+000
      vertex -2.283320e+000 -1.137306e+001  2.000000e+000
    endloop
  endfacet
  facet normal -3.640984e-001 -9.313604e-001  -0.000000e+000
    outer loop
      vertex -2.283320e+000 -1.137306e+001  1.776357e-015
      vertex -2.283320e+000 -1.137306e+001  2.000000e+000
      vertex -6.035434e+000 -9.906238e+000  1.776357e-015
    endloop
  endfacet
  facet normal -3.640984e-001 -9.313604e-001  0.000000e+000
    outer loop
      vertex -6.035434e+000 -9.906238e+000  1.776357e-015
      vertex -2.283320e+000 -1.137306e+001  2.000000e+000
      vertex -6.035434e+000 -9.906238e+000  2.000000e+000
    endloop
  endfacet
  facet normal -6.606846e-001 -7.506636e-001  -0.000000e+000
    outer loop
      vertex -6.035434e+000 -9.906238e+000  1.776357e-015
      vertex -6.035434e+000 -9.906238e+000  2.000000e+000
      vertex -9.059586e+000 -7.244578e+000  1.776357e-015
    endloop
  endfacet
  facet normal -6.606846e-001 -7.506636e-001  0.000000e+000
    outer loop
      vertex -9.059586e+000 -7.244578e+000  1.776357e-015
      vertex -6.035434e+000 -9.906238e+000  2.000000e+000
      vertex -9.059586e+000 -7.244578e+000  2.000000e+000
    endloop
  endfacet
  facet normal -8.775826e-001 -4.794255e-001  -0.000000e+000
    outer loop
      vertex -9.059586e+000 -7.244578e+000  1.776357e-015
      vertex -9.059586e+000 -7.244578e+000  2.000000e+000
      vertex -1.099102e+001 -3.709116e+000  1.776357e-015
    endloop
  endfacet
  facet normal -8.775826e-001 -4.794255e-001  0.000000e+000
    outer loop
      vertex -1.099102e+001 -3.709116e+000  1.776357e-015
      vertex -9.059586e+000 -7.244578e+000  2.000000e+000
      vertex -1.099102e+001 -3.709116e+000  2.000000e+000
    endloop
  endfacet
  facet normal -9.886310e-001 -1.503617e-001  -0.000000e+000
    outer loop
      vertex -1.099102e+001 -3.709116e+000  1.776357e-015
      vertex -1.099102e+001 -3.709116e+000  2.000000e+000
      vertex -1.159677e+001  2.737204e-001  1.776357e-015
    endloop
  endfacet
  facet normal -9.886310e-001 -1.503617e-001  0.000000e+000
    outer loop
      vertex -1.159677e+001  2.737204e-001  1.776357e-015
      vertex -1.099102e+001 -3.709116e+000  2.000000e+000
      vertex -1.159677e+001  2.737204e-001  2.000000e+000
    endloop
  endfacet
  facet normal -9.804360e-001  1.968379e-001  0.000000e+000
    outer loop
      vertex -1.159677e+001  2.737204e-001  1.776357e-015
      vertex -1.159677e+001  2.737204e-001  2.000000e+000
      vertex -1.080378e+001  4.223542e+000  1.776357e-015
    endloop
  endfacet
  facet normal -9.804360e-001  1.968379e-001  0.000000e+000
    outer loop
      vertex -1.080378e+001  4.223542e+000  1.776357e-015
      vertex -1.159677e+001  2.737204e-001  2.000000e+000
      vertex -1.080378e+001  4.223542e+000  2.000000e+000
    endloop
  endfacet
  facet normal -8.539860e-001  5.202961e-001  0.000000e+000
    outer loop
      vertex -1.080378e+001  4.223542e+000  1.776357e-015
      vertex -1.080378e+001  4.223542e+000  2.000000e+000
      vertex -8.707697e+000  7.663942e+000  1.776357e-015
    endloop
  endfacet
  facet normal -8.539860e-001  5.202961e-001  0.000000e+000
    outer loop
      vertex -8.707697e+000  7.663942e+000  1.776357e-015
      vertex -1.080378e+001  4.223542e+000  2.000000e+000
      vertex -8.707697e+000  7.663942e+000  2.000000e+000
    endloop
  endfacet
  facet normal -6.245325e-001  7.809988e-001  0.000000e+000
    outer loop
      vertex -8.707697e+000  7.663942e+000  1.776357e-015
      vertex -8.707697e+000  7.663942e+000  2.000000e+000
      vertex -5.561336e+000  1.017996e+001  2.664535e-015
    endloop
  endfacet
  facet normal -6.245325e-001  7.809988e-001  0.000000e+000
    outer loop
      vertex -5.561336e+000  1.017996e+001  2.664535e-015
      vertex -8.707697e+000  7.663942e+000  2.000000e+000
      vertex -5.561336e+000  1.017996e+001  2.000000e+000
    endloop
  endfacet
endsolid CATIA STL
