solid CATIA STL
  facet normal  9.838046e-001  1.734657e-001  4.514316e-002
    outer loop
      vertex  8.199524e+001 -5.189726e+000  1.327048e+001
      vertex  8.212438e+001 -5.851765e+000  1.300000e+001
      vertex  8.202959e+001 -5.314137e+000  1.300000e+001
    endloop
  endfacet
  facet normal  9.626597e-001  8.243603e-002  2.578578e-001
    outer loop
      vertex  8.172857e+001 -5.921558e+000  1.450000e+001
      vertex  8.212438e+001 -5.851765e+000  1.300000e+001
      vertex  8.199524e+001 -5.189726e+000  1.327048e+001
    endloop
  endfacet
  facet normal  9.515620e-001  1.251098e-001  2.808510e-001
    outer loop
      vertex  8.172857e+001 -5.921558e+000  1.450000e+001
      vertex  8.199524e+001 -5.189726e+000  1.327048e+001
      vertex  8.162383e+001 -4.416887e+000  1.418461e+001
    endloop
  endfacet
  facet normal  8.716313e-001  1.579396e-001  4.640195e-001
    outer loop
      vertex  8.172857e+001 -5.921558e+000  1.450000e+001
      vertex  8.162383e+001 -4.416887e+000  1.418461e+001
      vertex  8.114404e+001 -3.124843e+000  1.464607e+001
    endloop
  endfacet
  facet normal  7.420179e-001  1.206435e-001  6.594350e-001
    outer loop
      vertex  8.172857e+001 -5.921558e+000  1.450000e+001
      vertex  8.114404e+001 -3.124843e+000  1.464607e+001
      vertex  8.085510e+001 -5.209785e+000  1.535263e+001
    endloop
  endfacet
  facet normal  2.548873e-001  4.494341e-002  9.659258e-001
    outer loop
      vertex  7.795442e+001  5.209445e-001  1.600000e+001
      vertex  7.890948e+001 -4.895498e+000  1.600000e+001
      vertex  7.943163e+001  7.814168e-001  1.559808e+001
    endloop
  endfacet
  facet normal  1.535008e-001  5.573069e-002  9.865757e-001
    outer loop
      vertex  7.943163e+001  7.814168e-001  1.559808e+001
      vertex  7.890948e+001 -4.895498e+000  1.600000e+001
      vertex  7.984863e+001 -4.879212e+000  1.585296e+001
    endloop
  endfacet
  facet normal  4.632770e-001  7.389246e-002  8.831276e-001
    outer loop
      vertex  7.943163e+001  7.814168e-001  1.559808e+001
      vertex  7.984863e+001 -4.879212e+000  1.585296e+001
      vertex  8.085510e+001 -5.209785e+000  1.535263e+001
    endloop
  endfacet
  facet normal  6.939833e-001  1.359203e-001  7.070451e-001
    outer loop
      vertex  7.943163e+001  7.814168e-001  1.559808e+001
      vertex  8.085510e+001 -5.209785e+000  1.535263e+001
      vertex  8.051303e+001  9.720957e-001  1.450000e+001
    endloop
  endfacet
  facet normal  7.130838e-001  1.343619e-001  6.880832e-001
    outer loop
      vertex  8.051303e+001  9.720957e-001  1.450000e+001
      vertex  8.085510e+001 -5.209785e+000  1.535263e+001
      vertex  8.114404e+001 -3.124843e+000  1.464607e+001
    endloop
  endfacet
  facet normal  8.633224e-001  1.501469e-001  4.817989e-001
    outer loop
      vertex  8.051303e+001  9.720957e-001  1.450000e+001
      vertex  8.114404e+001 -3.124843e+000  1.464607e+001
      vertex  8.108727e+001 -1.609156e+000  1.427545e+001
    endloop
  endfacet
  facet normal  9.474187e-001  1.882584e-001  2.587599e-001
    outer loop
      vertex  8.051303e+001  9.720957e-001  1.450000e+001
      vertex  8.108727e+001 -1.609156e+000  1.427545e+001
      vertex  8.090884e+001  1.041889e+000  1.300000e+001
    endloop
  endfacet
  facet normal  7.812291e-001  3.125548e-001  5.403615e-001
    outer loop
      vertex  8.090884e+001  1.041889e+000  1.300000e+001
      vertex  8.108727e+001 -1.609156e+000  1.427545e+001
      vertex  8.114888e+001 -1.083306e+000  1.388222e+001
    endloop
  endfacet
  facet normal  9.738607e-001  1.717188e-001  1.486869e-001
    outer loop
      vertex  8.090884e+001  1.041889e+000  1.300000e+001
      vertex  8.114888e+001 -1.083306e+000  1.388222e+001
      vertex  8.117729e+001 -4.805467e-001  1.300000e+001
    endloop
  endfacet
  facet normal  9.961947e-001 -8.715577e-002  0.000000e+000
    outer loop
      vertex  8.212438e+001 -5.851765e+000  0.000000e+000
      vertex  8.212438e+001 -5.851765e+000  1.300000e+001
      vertex  8.198904e+001 -7.398770e+000  0.000000e+000
    endloop
  endfacet
  facet normal  9.961947e-001 -8.715577e-002  0.000000e+000
    outer loop
      vertex  8.198904e+001 -7.398770e+000  0.000000e+000
      vertex  8.212438e+001 -5.851765e+000  1.300000e+001
      vertex  8.198904e+001 -7.398770e+000  1.300000e+001
    endloop
  endfacet
  facet normal  8.191515e-001 -5.735772e-001  0.000000e+000
    outer loop
      vertex  8.198904e+001 -7.398770e+000  0.000000e+000
      vertex  8.198904e+001 -7.398770e+000  1.300000e+001
      vertex  8.109832e+001 -8.670843e+000  0.000000e+000
    endloop
  endfacet
  facet normal  8.495613e-001 -5.274488e-001 -6.597314e-003
    outer loop
      vertex  8.109832e+001 -8.670843e+000  0.000000e+000
      vertex  8.198904e+001 -7.398770e+000  1.300000e+001
      vertex  8.131963e+001 -8.465294e+000  1.206592e+001
    endloop
  endfacet
  facet normal  4.226061e-001 -9.062809e-001  7.687513e-003
    outer loop
      vertex  8.109832e+001 -8.670843e+000  0.000000e+000
      vertex  8.131963e+001 -8.465294e+000  1.206592e+001
      vertex  7.969090e+001 -9.327133e+000  0.000000e+000
    endloop
  endfacet
  facet normal  6.093464e-001 -7.924892e-001 -2.564768e-002
    outer loop
      vertex  7.969090e+001 -9.327133e+000  0.000000e+000
      vertex  8.131963e+001 -8.465294e+000  1.206592e+001
      vertex  8.057897e+001 -9.021234e+000  1.164704e+001
    endloop
  endfacet
  facet normal  3.256756e-001 -9.454815e-001  0.000000e+000
    outer loop
      vertex  7.969090e+001 -9.327133e+000  0.000000e+000
      vertex  8.057897e+001 -9.021234e+000  1.164704e+001
      vertex  7.969090e+001 -9.327133e+000  1.150000e+001
    endloop
  endfacet
  facet normal  1.227903e-001 -6.963639e-001  7.071066e-001
    outer loop
      vertex  8.208055e+001 -6.754417e+000  1.361867e+001
      vertex  8.172857e+001 -5.921558e+000  1.450000e+001
      vertex  8.198904e+001 -7.398770e+000  1.300000e+001
    endloop
  endfacet
  facet normal  1.227867e-001 -6.963646e-001  7.071066e-001
    outer loop
      vertex  8.198904e+001 -7.398770e+000  1.300000e+001
      vertex  8.172857e+001 -5.921558e+000  1.450000e+001
      vertex  8.085510e+001 -5.209785e+000  1.535263e+001
    endloop
  endfacet
  facet normal  1.227882e-001 -6.963641e-001  7.071069e-001
    outer loop
      vertex  8.198904e+001 -7.398770e+000  1.300000e+001
      vertex  8.085510e+001 -5.209785e+000  1.535263e+001
      vertex  8.131963e+001 -8.465294e+000  1.206592e+001
    endloop
  endfacet
  facet normal  1.227885e-001 -6.963640e-001  7.071069e-001
    outer loop
      vertex  8.131963e+001 -8.465294e+000  1.206592e+001
      vertex  8.085510e+001 -5.209785e+000  1.535263e+001
      vertex  7.984863e+001 -4.879212e+000  1.585296e+001
    endloop
  endfacet
  facet normal  1.227868e-001 -6.963645e-001  7.071067e-001
    outer loop
      vertex  8.131963e+001 -8.465294e+000  1.206592e+001
      vertex  7.984863e+001 -4.879212e+000  1.585296e+001
      vertex  8.057897e+001 -9.021234e+000  1.164704e+001
    endloop
  endfacet
  facet normal  1.227873e-001 -6.963644e-001  7.071067e-001
    outer loop
      vertex  8.057897e+001 -9.021234e+000  1.164704e+001
      vertex  7.984863e+001 -4.879212e+000  1.585296e+001
      vertex  7.890948e+001 -4.895498e+000  1.600000e+001
    endloop
  endfacet
  facet normal  1.227881e-001 -6.963642e-001  7.071068e-001
    outer loop
      vertex  8.057897e+001 -9.021234e+000  1.164704e+001
      vertex  7.890948e+001 -4.895498e+000  1.600000e+001
      vertex  7.969090e+001 -9.327133e+000  1.150000e+001
    endloop
  endfacet
  facet normal  1.227879e-001 -6.963642e-001  7.071068e-001
    outer loop
      vertex  7.969090e+001 -9.327133e+000  1.150000e+001
      vertex  7.890948e+001 -4.895498e+000  1.600000e+001
      vertex  7.595506e+001 -5.416443e+000  1.600000e+001
    endloop
  endfacet
  facet normal  1.227879e-001 -6.963642e-001  7.071068e-001
    outer loop
      vertex  7.969090e+001 -9.327133e+000  1.150000e+001
      vertex  7.595506e+001 -5.416443e+000  1.600000e+001
      vertex  7.673648e+001 -9.848078e+000  1.150000e+001
    endloop
  endfacet
  facet normal  9.848087e-001  1.736428e-001 -1.466994e-006
    outer loop
      vertex  8.212438e+001 -5.851765e+000  1.300000e+001
      vertex  8.203243e+001 -5.330294e+000  1.104125e+001
      vertex  8.202959e+001 -5.314137e+000  1.300000e+001
    endloop
  endfacet
  facet normal  9.848076e-001  1.736490e-001 -3.910033e-007
    outer loop
      vertex  8.117729e+001 -4.805467e-001  1.300000e+001
      vertex  8.114400e+001 -2.917700e-001  1.185028e+001
      vertex  8.090884e+001  1.041889e+000  1.300000e+001
    endloop
  endfacet
  facet normal  9.848098e-001  1.736366e-001  0.000000e+000
    outer loop
      vertex  8.084761e+001  1.389185e+000  0.000000e+000
      vertex  8.084761e+001  1.389185e+000  8.000000e+000
      vertex  8.090884e+001  1.041889e+000  8.000000e+000
    endloop
  endfacet
  facet normal  9.848074e-001  1.736497e-001  5.829563e-007
    outer loop
      vertex  8.084761e+001  1.389185e+000  0.000000e+000
      vertex  8.090884e+001  1.041889e+000  8.000000e+000
      vertex  8.114706e+001 -3.090575e-001  4.339112e+000
    endloop
  endfacet
  facet normal  9.848073e-001  1.736503e-001  8.292759e-007
    outer loop
      vertex  8.084761e+001  1.389185e+000  0.000000e+000
      vertex  8.114706e+001 -3.090575e-001  4.339112e+000
      vertex  8.119961e+001 -6.070791e-001  2.729522e+000
    endloop
  endfacet
  facet normal  9.848082e-001  1.736458e-001 -2.541015e-006
    outer loop
      vertex  8.084761e+001  1.389185e+000  0.000000e+000
      vertex  8.119961e+001 -6.070791e-001  2.729522e+000
      vertex  8.140640e+001 -1.779903e+000  1.605212e+000
    endloop
  endfacet
  facet normal  9.848074e-001  1.736505e-001  6.932984e-006
    outer loop
      vertex  8.084761e+001  1.389185e+000  0.000000e+000
      vertex  8.140640e+001 -1.779903e+000  1.605212e+000
      vertex  8.168847e+001 -3.379551e+000  1.395630e+000
    endloop
  endfacet
  facet normal  9.848078e-001  1.736477e-001 -2.636004e-006
    outer loop
      vertex  8.212438e+001 -5.851765e+000  0.000000e+000
      vertex  8.084761e+001  1.389185e+000  0.000000e+000
      vertex  8.168847e+001 -3.379551e+000  1.395630e+000
    endloop
  endfacet
  facet normal  9.848081e-001  1.736460e-001  3.959620e-007
    outer loop
      vertex  8.212438e+001 -5.851765e+000  0.000000e+000
      vertex  8.168847e+001 -3.379551e+000  1.395630e+000
      vertex  8.193805e+001 -4.795012e+000  2.180828e+000
    endloop
  endfacet
  facet normal  9.848080e-001  1.736466e-001  9.312078e-008
    outer loop
      vertex  8.212438e+001 -5.851765e+000  0.000000e+000
      vertex  8.193805e+001 -4.795012e+000  2.180828e+000
      vertex  8.205982e+001 -5.485626e+000  3.660888e+000
    endloop
  endfacet
  facet normal  9.848080e-001  1.736471e-001  5.144734e-008
    outer loop
      vertex  8.212438e+001 -5.851765e+000  0.000000e+000
      vertex  8.205982e+001 -5.485626e+000  3.660888e+000
      vertex  8.203243e+001 -5.330294e+000  1.104125e+001
    endloop
  endfacet
  facet normal  9.848077e-001  1.736481e-001  0.000000e+000
    outer loop
      vertex  8.212438e+001 -5.851765e+000  0.000000e+000
      vertex  8.203243e+001 -5.330294e+000  1.104125e+001
      vertex  8.212438e+001 -5.851765e+000  1.300000e+001
    endloop
  endfacet
  facet normal  9.848064e-001  1.736555e-001 -1.317462e-007
    outer loop
      vertex  8.205982e+001 -5.485626e+000  3.660888e+000
      vertex  8.200727e+001 -5.187605e+000  5.270478e+000
      vertex  8.203243e+001 -5.330294e+000  1.104125e+001
    endloop
  endfacet
  facet normal  9.848085e-001  1.736438e-001 -4.296644e-007
    outer loop
      vertex  8.203243e+001 -5.330294e+000  1.104125e+001
      vertex  8.200727e+001 -5.187605e+000  5.270478e+000
      vertex  8.180048e+001 -4.014781e+000  6.394788e+000
    endloop
  endfacet
  facet normal  9.848080e-001  1.736463e-001  3.083356e-007
    outer loop
      vertex  8.203243e+001 -5.330294e+000  1.104125e+001
      vertex  8.180048e+001 -4.014781e+000  6.394788e+000
      vertex  8.180089e+001 -4.017123e+000  9.606340e+000
    endloop
  endfacet
  facet normal  9.848073e-001  1.736513e-001  3.120558e-007
    outer loop
      vertex  8.180089e+001 -4.017123e+000  9.606340e+000
      vertex  8.180048e+001 -4.014781e+000  6.394788e+000
      vertex  8.151841e+001 -2.415133e+000  6.604370e+000
    endloop
  endfacet
  facet normal  9.848076e-001  1.736491e-001 -9.005914e-007
    outer loop
      vertex  8.180089e+001 -4.017123e+000  9.606340e+000
      vertex  8.151841e+001 -2.415133e+000  6.604370e+000
      vertex  8.146146e+001 -2.092121e+000  9.479294e+000
    endloop
  endfacet
  facet normal  9.848083e-001  1.736456e-001 -4.932078e-007
    outer loop
      vertex  8.146146e+001 -2.092121e+000  9.479294e+000
      vertex  8.151841e+001 -2.415133e+000  6.604370e+000
      vertex  8.126883e+001 -9.996725e-001  5.819172e+000
    endloop
  endfacet
  facet normal  9.848082e-001  1.736457e-001 -4.567111e-007
    outer loop
      vertex  8.146146e+001 -2.092121e+000  9.479294e+000
      vertex  8.126883e+001 -9.996725e-001  5.819172e+000
      vertex  8.119961e+001 -6.070791e-001  1.072952e+001
    endloop
  endfacet
  facet normal  9.848082e-001  1.736455e-001 -4.391463e-007
    outer loop
      vertex  8.119961e+001 -6.070791e-001  1.072952e+001
      vertex  8.126883e+001 -9.996725e-001  5.819172e+000
      vertex  8.114706e+001 -3.090575e-001  4.339112e+000
    endloop
  endfacet
  facet normal  9.848051e-001  1.736635e-001  4.242178e-007
    outer loop
      vertex  8.119961e+001 -6.070791e-001  1.072952e+001
      vertex  8.114706e+001 -3.090575e-001  4.339112e+000
      vertex  8.114400e+001 -2.917700e-001  1.185028e+001
    endloop
  endfacet
  facet normal  9.848074e-001  1.736500e-001  4.561118e-007
    outer loop
      vertex  8.114400e+001 -2.917700e-001  1.185028e+001
      vertex  8.114706e+001 -3.090575e-001  4.339112e+000
      vertex  8.090884e+001  1.041889e+000  8.000000e+000
    endloop
  endfacet
  facet normal  9.848077e-001  1.736487e-001  -0.000000e+000
    outer loop
      vertex  8.114400e+001 -2.917700e-001  1.185028e+001
      vertex  8.090884e+001  1.041889e+000  8.000000e+000
      vertex  8.090884e+001  1.041889e+000  1.300000e+001
    endloop
  endfacet
  facet normal  2.583922e-002  1.343422e-001 -9.905981e-001
    outer loop
      vertex  7.884605e+001 -4.535725e+000  1.439479e+001
      vertex  7.856399e+001 -2.936077e+000  1.460437e+001
      vertex  8.114404e+001 -3.124843e+000  1.464607e+001
    endloop
  endfacet
  facet normal  1.505447e-001 -9.748346e-001 -1.644199e-001
    outer loop
      vertex  8.117729e+001 -4.805467e-001  1.300000e+001
      vertex  7.819263e+001 -8.300020e-001  1.233911e+001
      vertex  8.114400e+001 -2.917700e-001  1.185028e+001
    endloop
  endfacet
  facet normal  2.058397e-001 -9.610063e-001  1.846536e-001
    outer loop
      vertex  8.114400e+001 -2.917700e-001  1.185028e+001
      vertex  7.819263e+001 -8.300020e-001  1.233911e+001
      vertex  7.824518e+001 -1.128024e+000  1.072952e+001
    endloop
  endfacet
  facet normal  1.669682e-001 -9.469255e-001  2.746882e-001
    outer loop
      vertex  8.114400e+001 -2.917700e-001  1.185028e+001
      vertex  7.824518e+001 -1.128024e+000  1.072952e+001
      vertex  8.119961e+001 -6.070791e-001  1.072952e+001
    endloop
  endfacet
  facet normal -1.683108e-003 -2.375845e-001 -9.713654e-001
    outer loop
      vertex  8.114404e+001 -3.124843e+000  1.464607e+001
      vertex  7.856399e+001 -2.936077e+000  1.460437e+001
      vertex  8.108727e+001 -1.609156e+000  1.427545e+001
    endloop
  endfacet
  facet normal  1.294487e-001 -4.634582e-001 -8.766125e-001
    outer loop
      vertex  8.108727e+001 -1.609156e+000  1.427545e+001
      vertex  7.856399e+001 -2.936077e+000  1.460437e+001
      vertex  7.831441e+001 -1.520617e+000  1.381917e+001
    endloop
  endfacet
  facet normal  1.106703e-001 -6.034757e-001 -7.896639e-001
    outer loop
      vertex  8.108727e+001 -1.609156e+000  1.427545e+001
      vertex  7.831441e+001 -1.520617e+000  1.381917e+001
      vertex  8.114888e+001 -1.083306e+000  1.388222e+001
    endloop
  endfacet
  facet normal  1.470903e-001 -8.916528e-001 -4.281585e-001
    outer loop
      vertex  8.114888e+001 -1.083306e+000  1.388222e+001
      vertex  7.831441e+001 -1.520617e+000  1.381917e+001
      vertex  7.819263e+001 -8.300020e-001  1.233911e+001
    endloop
  endfacet
  facet normal  2.156997e-001 -8.094687e-001 -5.461079e-001
    outer loop
      vertex  8.114888e+001 -1.083306e+000  1.388222e+001
      vertex  7.819263e+001 -8.300020e-001  1.233911e+001
      vertex  8.117729e+001 -4.805467e-001  1.300000e+001
    endloop
  endfacet
  facet normal -8.485979e-002  3.070408e-001 -9.479055e-001
    outer loop
      vertex  8.114404e+001 -3.124843e+000  1.464607e+001
      vertex  8.162383e+001 -4.416887e+000  1.418461e+001
      vertex  7.884605e+001 -4.535725e+000  1.439479e+001
    endloop
  endfacet
  facet normal -8.198860e-002  7.444123e-001 -6.626674e-001
    outer loop
      vertex  7.884605e+001 -4.535725e+000  1.439479e+001
      vertex  8.162383e+001 -4.416887e+000  1.418461e+001
      vertex  8.199524e+001 -5.189726e+000  1.327048e+001
    endloop
  endfacet
  facet normal -1.192061e-001  6.760512e-001 -7.271484e-001
    outer loop
      vertex  7.884605e+001 -4.535725e+000  1.439479e+001
      vertex  8.199524e+001 -5.189726e+000  1.327048e+001
      vertex  7.905285e+001 -5.708549e+000  1.327048e+001
    endloop
  endfacet
  facet normal -1.165225e-001  8.963210e-001  4.278215e-001
    outer loop
      vertex  7.898363e+001 -5.315956e+000  1.018083e+001
      vertex  7.910540e+001 -6.006571e+000  1.166089e+001
      vertex  8.203243e+001 -5.330294e+000  1.104125e+001
    endloop
  endfacet
  facet normal -1.884027e-001  7.091657e-001  6.794030e-001
    outer loop
      vertex  8.180089e+001 -4.017123e+000  9.606340e+000
      vertex  7.898363e+001 -5.315956e+000  1.018083e+001
      vertex  8.203243e+001 -5.330294e+000  1.104125e+001
    endloop
  endfacet
  facet normal -4.202743e-002  4.789855e-001  8.768162e-001
    outer loop
      vertex  8.180089e+001 -4.017123e+000  9.606340e+000
      vertex  7.873404e+001 -3.900496e+000  9.395630e+000
      vertex  7.898363e+001 -5.315956e+000  1.018083e+001
    endloop
  endfacet
  facet normal -6.639826e-002  5.404796e-002  9.963283e-001
    outer loop
      vertex  7.873404e+001 -3.900496e+000  9.395630e+000
      vertex  8.180089e+001 -4.017123e+000  9.606340e+000
      vertex  8.146146e+001 -2.092121e+000  9.479294e+000
    endloop
  endfacet
  facet normal -2.267873e-001  9.739085e-001 -8.362480e-003
    outer loop
      vertex  8.203243e+001 -5.330294e+000  1.104125e+001
      vertex  7.910540e+001 -6.006571e+000  1.166089e+001
      vertex  8.202959e+001 -5.314137e+000  1.300000e+001
    endloop
  endfacet
  facet normal -1.455656e-001  9.719526e-001 -1.847132e-001
    outer loop
      vertex  8.202959e+001 -5.314137e+000  1.300000e+001
      vertex  7.910540e+001 -6.006571e+000  1.166089e+001
      vertex  7.905285e+001 -5.708549e+000  1.327048e+001
    endloop
  endfacet
  facet normal -1.568506e-001  8.895436e-001 -4.290805e-001
    outer loop
      vertex  8.202959e+001 -5.314137e+000  1.300000e+001
      vertex  7.905285e+001 -5.708549e+000  1.327048e+001
      vertex  8.199524e+001 -5.189726e+000  1.327048e+001
    endloop
  endfacet
  facet normal  4.987898e-002 -1.210944e-001  9.913870e-001
    outer loop
      vertex  7.873404e+001 -3.900496e+000  9.395630e+000
      vertex  8.146146e+001 -2.092121e+000  9.479294e+000
      vertex  7.845198e+001 -2.300848e+000  9.605212e+000
    endloop
  endfacet
  facet normal  7.618091e-002 -6.342689e-001  7.693500e-001
    outer loop
      vertex  7.845198e+001 -2.300848e+000  9.605212e+000
      vertex  8.146146e+001 -2.092121e+000  9.479294e+000
      vertex  8.119961e+001 -6.070791e-001  1.072952e+001
    endloop
  endfacet
  facet normal  1.192058e-001 -6.760509e-001  7.271487e-001
    outer loop
      vertex  7.845198e+001 -2.300848e+000  9.605212e+000
      vertex  8.119961e+001 -6.070791e-001  1.072952e+001
      vertex  7.824518e+001 -1.128024e+000  1.072952e+001
    endloop
  endfacet
  facet normal -1.736466e-001  9.848080e-001  9.754687e-007
    outer loop
      vertex  8.090884e+001  1.041889e+000  1.300000e+001
      vertex  7.943163e+001  7.814168e-001  1.559808e+001
      vertex  8.051303e+001  9.720957e-001  1.450000e+001
    endloop
  endfacet
  facet normal -1.736482e-001  9.848077e-001 -7.302263e-008
    outer loop
      vertex  7.795442e+001  5.209445e-001  1.600000e+001
      vertex  7.943163e+001  7.814168e-001  1.559808e+001
      vertex  7.500000e+001  8.881784e-016  1.600000e+001
    endloop
  endfacet
  facet normal -1.736482e-001  9.848078e-001  1.588114e-008
    outer loop
      vertex  7.500000e+001  8.881784e-016  1.600000e+001
      vertex  7.943163e+001  7.814168e-001  1.559808e+001
      vertex  8.090884e+001  1.041889e+000  1.300000e+001
    endloop
  endfacet
  facet normal -1.736483e-001  9.848077e-001  0.000000e+000
    outer loop
      vertex  7.500000e+001  8.881784e-016  1.600000e+001
      vertex  8.090884e+001  1.041889e+000  1.300000e+001
      vertex  7.500000e+001  1.749370e-015  8.000000e+000
    endloop
  endfacet
  facet normal -1.736483e-001  9.848077e-001  0.000000e+000
    outer loop
      vertex  7.500000e+001  1.749370e-015  8.000000e+000
      vertex  8.090884e+001  1.041889e+000  1.300000e+001
      vertex  8.090884e+001  1.041889e+000  8.000000e+000
    endloop
  endfacet
  facet normal  0.000000e+000  -0.000000e+000  1.000000e+000
    outer loop
      vertex  7.500000e+001  8.881784e-016  1.600000e+001
      vertex  7.595506e+001 -5.416443e+000  1.600000e+001
      vertex  7.795442e+001  5.209445e-001  1.600000e+001
    endloop
  endfacet
  facet normal  0.000000e+000  0.000000e+000  1.000000e+000
    outer loop
      vertex  7.795442e+001  5.209445e-001  1.600000e+001
      vertex  7.595506e+001 -5.416443e+000  1.600000e+001
      vertex  7.890948e+001 -4.895498e+000  1.600000e+001
    endloop
  endfacet
  facet normal  9.946037e-001 -8.701658e-002 -5.649407e-002
    outer loop
      vertex  8.212438e+001 -5.851765e+000  1.300000e+001
      vertex  8.208055e+001 -6.754417e+000  1.361867e+001
      vertex  8.198904e+001 -7.398770e+000  1.300000e+001
    endloop
  endfacet
  facet normal  9.570794e-001  1.307934e-001  2.586353e-001
    outer loop
      vertex  8.212438e+001 -5.851765e+000  1.300000e+001
      vertex  8.172857e+001 -5.921558e+000  1.450000e+001
      vertex  8.208055e+001 -6.754417e+000  1.361867e+001
    endloop
  endfacet
  facet normal  0.000000e+000  0.000000e+000 -1.000000e+000
    outer loop
      vertex  4.000000e+000  0.000000e+000  0.000000e+000
      vertex  4.000000e+000  8.000000e+000  0.000000e+000
      vertex  7.296915e+001  8.000000e+000  0.000000e+000
    endloop
  endfacet
  facet normal  0.000000e+000  -0.000000e+000 -9.999999e-001
    outer loop
      vertex  4.000000e+000  0.000000e+000  0.000000e+000
      vertex  7.296915e+001  8.000000e+000  0.000000e+000
      vertex  7.570531e+001  7.517541e+000  0.000000e+000
    endloop
  endfacet
  facet normal  0.000000e+000  -0.000000e+000 -1.000000e+000
    outer loop
      vertex  4.000000e+000  0.000000e+000  0.000000e+000
      vertex  7.570531e+001  7.517541e+000  0.000000e+000
      vertex  7.811145e+001  6.128356e+000  0.000000e+000
    endloop
  endfacet
  facet normal  0.000000e+000  -0.000000e+000 -9.999999e-001
    outer loop
      vertex  4.000000e+000  0.000000e+000  0.000000e+000
      vertex  7.811145e+001  6.128356e+000  0.000000e+000
      vertex  7.989735e+001  4.000000e+000  0.000000e+000
    endloop
  endfacet
  facet normal  0.000000e+000  -0.000000e+000 -9.999999e-001
    outer loop
      vertex  4.000000e+000  0.000000e+000  0.000000e+000
      vertex  7.989735e+001  4.000000e+000  0.000000e+000
      vertex  8.084761e+001  1.389185e+000  0.000000e+000
    endloop
  endfacet
  facet normal  0.000000e+000  0.000000e+000 -1.000000e+000
    outer loop
      vertex  4.000000e+000  0.000000e+000  0.000000e+000
      vertex  8.084761e+001  1.389185e+000  0.000000e+000
      vertex  7.500000e+001  0.000000e+000  0.000000e+000
    endloop
  endfacet
  facet normal  0.000000e+000  0.000000e+000 -1.000000e+000
    outer loop
      vertex  7.673648e+001 -9.848078e+000  0.000000e+000
      vertex  7.500000e+001  0.000000e+000  0.000000e+000
      vertex  8.084761e+001  1.389185e+000  0.000000e+000
    endloop
  endfacet
  facet normal  0.000000e+000  -0.000000e+000 -1.000000e+000
    outer loop
      vertex  7.673648e+001 -9.848078e+000  0.000000e+000
      vertex  8.084761e+001  1.389185e+000  0.000000e+000
      vertex  8.212438e+001 -5.851765e+000  0.000000e+000
    endloop
  endfacet
  facet normal  0.000000e+000  0.000000e+000 -9.999999e-001
    outer loop
      vertex  7.673648e+001 -9.848078e+000  0.000000e+000
      vertex  8.212438e+001 -5.851765e+000  0.000000e+000
      vertex  8.198904e+001 -7.398770e+000  0.000000e+000
    endloop
  endfacet
  facet normal  0.000000e+000  0.000000e+000 -1.000000e+000
    outer loop
      vertex  7.673648e+001 -9.848078e+000  0.000000e+000
      vertex  8.198904e+001 -7.398770e+000  0.000000e+000
      vertex  8.109832e+001 -8.670843e+000  0.000000e+000
    endloop
  endfacet
  facet normal  0.000000e+000  0.000000e+000 -1.000000e+000
    outer loop
      vertex  7.673648e+001 -9.848078e+000  0.000000e+000
      vertex  8.109832e+001 -8.670843e+000  0.000000e+000
      vertex  7.969090e+001 -9.327133e+000  0.000000e+000
    endloop
  endfacet
  facet normal  1.736483e-001 -9.848078e-001  0.000000e+000
    outer loop
      vertex  7.969090e+001 -9.327133e+000  0.000000e+000
      vertex  7.969090e+001 -9.327133e+000  1.150000e+001
      vertex  7.673648e+001 -9.848078e+000  0.000000e+000
    endloop
  endfacet
  facet normal  1.736483e-001 -9.848078e-001  0.000000e+000
    outer loop
      vertex  7.673648e+001 -9.848078e+000  0.000000e+000
      vertex  7.969090e+001 -9.327133e+000  1.150000e+001
      vertex  7.673648e+001 -9.848078e+000  1.150000e+001
    endloop
  endfacet
  facet normal -9.848077e-001 -1.736486e-001 -4.195022e-007
    outer loop
      vertex  7.545077e+001 -2.556431e+000  3.232919e+000
      vertex  7.500000e+001  0.000000e+000  0.000000e+000
      vertex  7.561637e+001 -3.495611e+000  2.464720e+000
    endloop
  endfacet
  facet normal -9.848077e-001 -1.736483e-001  -0.000000e+000
    outer loop
      vertex  7.673648e+001 -9.848078e+000  0.000000e+000
      vertex  7.673648e+001 -9.848078e+000  1.150000e+001
      vertex  7.596119e+001 -5.451186e+000  1.154954e+001
    endloop
  endfacet
  facet normal -9.848084e-001 -1.736449e-001 -1.369036e-006
    outer loop
      vertex  7.673648e+001 -9.848078e+000  0.000000e+000
      vertex  7.596119e+001 -5.451186e+000  1.154954e+001
      vertex  7.582780e+001 -4.694658e+000  1.059587e+001
    endloop
  endfacet
  facet normal -9.848076e-001 -1.736492e-001  8.179496e-007
    outer loop
      vertex  7.673648e+001 -9.848078e+000  0.000000e+000
      vertex  7.582780e+001 -4.694658e+000  1.059587e+001
      vertex  7.593842e+001 -5.322031e+000  4.767081e+000
    endloop
  endfacet
  facet normal -9.848077e-001 -1.736482e-001 -1.585683e-007
    outer loop
      vertex  7.673648e+001 -9.848078e+000  0.000000e+000
      vertex  7.593842e+001 -5.322031e+000  4.767081e+000
      vertex  7.596119e+001 -5.451186e+000  3.549537e+000
    endloop
  endfacet
  facet normal -9.848081e-001 -1.736463e-001 -2.573617e-006
    outer loop
      vertex  7.673648e+001 -9.848078e+000  0.000000e+000
      vertex  7.596119e+001 -5.451186e+000  3.549537e+000
      vertex  7.582780e+001 -4.694658e+000  2.595868e+000
    endloop
  endfacet
  facet normal -9.848076e-001 -1.736490e-001  2.943249e-006
    outer loop
      vertex  7.673648e+001 -9.848078e+000  0.000000e+000
      vertex  7.582780e+001 -4.694658e+000  2.595868e+000
      vertex  7.561637e+001 -3.495611e+000  2.464720e+000
    endloop
  endfacet
  facet normal -9.848077e-001 -1.736480e-001  3.809911e-007
    outer loop
      vertex  7.673648e+001 -9.848078e+000  0.000000e+000
      vertex  7.561637e+001 -3.495611e+000  2.464720e+000
      vertex  7.500000e+001  0.000000e+000  0.000000e+000
    endloop
  endfacet
  facet normal -9.848078e-001 -1.736481e-001  3.797185e-017
    outer loop
      vertex  7.500000e+001  1.749370e-015  8.000000e+000
      vertex  7.500000e+001  0.000000e+000  0.000000e+000
      vertex  7.545077e+001 -2.556431e+000  3.232919e+000
    endloop
  endfacet
  facet normal -9.848078e-001 -1.736476e-001 -2.582313e-007
    outer loop
      vertex  7.500000e+001  1.749370e-015  8.000000e+000
      vertex  7.545077e+001 -2.556431e+000  3.232919e+000
      vertex  7.542799e+001 -2.427276e+000  4.450463e+000
    endloop
  endfacet
  facet normal -9.848073e-001 -1.736506e-001  1.828535e-006
    outer loop
      vertex  7.500000e+001  1.749370e-015  8.000000e+000
      vertex  7.542799e+001 -2.427276e+000  4.450463e+000
      vertex  7.556139e+001 -3.183804e+000  5.404132e+000
    endloop
  endfacet
  facet normal -9.848086e-001 -1.736440e-001 -6.549863e-006
    outer loop
      vertex  7.500000e+001  1.749370e-015  8.000000e+000
      vertex  7.556139e+001 -3.183804e+000  5.404132e+000
      vertex  7.577281e+001 -4.382851e+000  5.535279e+000
    endloop
  endfacet
  facet normal -9.848078e-001 -1.736479e-001  6.410684e-007
    outer loop
      vertex  7.500000e+001  1.749370e-015  8.000000e+000
      vertex  7.577281e+001 -4.382851e+000  5.535279e+000
      vertex  7.561637e+001 -3.495611e+000  1.046472e+001
    endloop
  endfacet
  facet normal -9.848077e-001 -1.736486e-001 -4.195024e-007
    outer loop
      vertex  7.500000e+001  1.749370e-015  8.000000e+000
      vertex  7.561637e+001 -3.495611e+000  1.046472e+001
      vertex  7.545077e+001 -2.556431e+000  1.123292e+001
    endloop
  endfacet
  facet normal -9.848077e-001 -1.736483e-001 -1.826488e-007
    outer loop
      vertex  7.500000e+001  1.749370e-015  8.000000e+000
      vertex  7.545077e+001 -2.556431e+000  1.123292e+001
      vertex  7.542799e+001 -2.427276e+000  1.245046e+001
    endloop
  endfacet
  facet normal -9.848077e-001 -1.736480e-001  0.000000e+000
    outer loop
      vertex  7.500000e+001  1.749370e-015  8.000000e+000
      vertex  7.542799e+001 -2.427276e+000  1.245046e+001
      vertex  7.500000e+001  8.881784e-016  1.600000e+001
    endloop
  endfacet
  facet normal -9.848073e-001 -1.736506e-001  1.828535e-006
    outer loop
      vertex  7.500000e+001  8.881784e-016  1.600000e+001
      vertex  7.542799e+001 -2.427276e+000  1.245046e+001
      vertex  7.556139e+001 -3.183804e+000  1.340413e+001
    endloop
  endfacet
  facet normal -9.848086e-001 -1.736440e-001 -6.549863e-006
    outer loop
      vertex  7.500000e+001  8.881784e-016  1.600000e+001
      vertex  7.556139e+001 -3.183804e+000  1.340413e+001
      vertex  7.577281e+001 -4.382851e+000  1.353528e+001
    endloop
  endfacet
  facet normal -9.848078e-001 -1.736478e-001  4.758562e-007
    outer loop
      vertex  7.500000e+001  8.881784e-016  1.600000e+001
      vertex  7.577281e+001 -4.382851e+000  1.353528e+001
      vertex  7.595506e+001 -5.416443e+000  1.600000e+001
    endloop
  endfacet
  facet normal -9.848076e-001 -1.736493e-001  8.945127e-007
    outer loop
      vertex  7.561637e+001 -3.495611e+000  1.046472e+001
      vertex  7.577281e+001 -4.382851e+000  5.535279e+000
      vertex  7.582780e+001 -4.694658e+000  1.059587e+001
    endloop
  endfacet
  facet normal -9.848075e-001 -1.736497e-001  8.676145e-007
    outer loop
      vertex  7.582780e+001 -4.694658e+000  1.059587e+001
      vertex  7.577281e+001 -4.382851e+000  5.535279e+000
      vertex  7.593842e+001 -5.322031e+000  4.767081e+000
    endloop
  endfacet
  facet normal -9.848077e-001 -1.736486e-001  1.504167e-007
    outer loop
      vertex  7.595506e+001 -5.416443e+000  1.600000e+001
      vertex  7.577281e+001 -4.382851e+000  1.353528e+001
      vertex  7.673648e+001 -9.848078e+000  1.150000e+001
    endloop
  endfacet
  facet normal -9.848078e-001 -1.736481e-001 -1.139934e-006
    outer loop
      vertex  7.673648e+001 -9.848078e+000  1.150000e+001
      vertex  7.577281e+001 -4.382851e+000  1.353528e+001
      vertex  7.593842e+001 -5.322031e+000  1.276708e+001
    endloop
  endfacet
  facet normal -9.848077e-001 -1.736484e-001 -1.451627e-007
    outer loop
      vertex  7.673648e+001 -9.848078e+000  1.150000e+001
      vertex  7.593842e+001 -5.322031e+000  1.276708e+001
      vertex  7.596119e+001 -5.451186e+000  1.154954e+001
    endloop
  endfacet
  facet normal  1.352316e-001 -7.669362e-001 -6.273127e-001
    outer loop
      vertex  7.851582e+001 -2.662859e+000  1.340413e+001
      vertex  7.542799e+001 -2.427276e+000  1.245046e+001
      vertex  7.838242e+001 -1.906331e+000  1.245046e+001
    endloop
  endfacet
  facet normal  1.726495e-001 -9.791439e-001  1.070952e-001
    outer loop
      vertex  7.838242e+001 -1.906331e+000  1.245046e+001
      vertex  7.542799e+001 -2.427276e+000  1.245046e+001
      vertex  7.545077e+001 -2.556431e+000  1.123292e+001
    endloop
  endfacet
  facet normal  1.726496e-001 -9.791439e-001  1.070951e-001
    outer loop
      vertex  7.838242e+001 -1.906331e+000  1.245046e+001
      vertex  7.545077e+001 -2.556431e+000  1.123292e+001
      vertex  7.840519e+001 -2.035486e+000  1.123292e+001
    endloop
  endfacet
  facet normal  1.352316e-001 -7.669361e-001 -6.273128e-001
    outer loop
      vertex  7.542799e+001 -2.427276e+000  1.245046e+001
      vertex  7.851582e+001 -2.662859e+000  1.340413e+001
      vertex  7.556139e+001 -3.183804e+000  1.340413e+001
    endloop
  endfacet
  facet normal  1.859689e-002 -1.054681e-001 -9.942487e-001
    outer loop
      vertex  7.556139e+001 -3.183804e+000  1.340413e+001
      vertex  7.851582e+001 -2.662859e+000  1.340413e+001
      vertex  7.872724e+001 -3.861906e+000  1.353528e+001
    endloop
  endfacet
  facet normal  1.859686e-002 -1.054683e-001 -9.942488e-001
    outer loop
      vertex  7.556139e+001 -3.183804e+000  1.340413e+001
      vertex  7.872724e+001 -3.861906e+000  1.353528e+001
      vertex  7.577281e+001 -4.382851e+000  1.353528e+001
    endloop
  endfacet
  facet normal -1.089314e-001  6.177825e-001 -7.787674e-001
    outer loop
      vertex  7.577281e+001 -4.382851e+000  1.353528e+001
      vertex  7.872724e+001 -3.861906e+000  1.353528e+001
      vertex  7.889284e+001 -4.801086e+000  1.276708e+001
    endloop
  endfacet
  facet normal -1.089317e-001  6.177818e-001 -7.787680e-001
    outer loop
      vertex  7.577281e+001 -4.382851e+000  1.353528e+001
      vertex  7.889284e+001 -4.801086e+000  1.276708e+001
      vertex  7.593842e+001 -5.322031e+000  1.276708e+001
    endloop
  endfacet
  facet normal -1.352317e-001  7.669367e-001  6.273121e-001
    outer loop
      vertex  7.878222e+001 -4.173714e+000  1.059587e+001
      vertex  7.596119e+001 -5.451186e+000  1.154954e+001
      vertex  7.891561e+001 -4.930242e+000  1.154954e+001
    endloop
  endfacet
  facet normal -1.726496e-001  9.791439e-001 -1.070954e-001
    outer loop
      vertex  7.891561e+001 -4.930242e+000  1.154954e+001
      vertex  7.596119e+001 -5.451186e+000  1.154954e+001
      vertex  7.593842e+001 -5.322031e+000  1.276708e+001
    endloop
  endfacet
  facet normal -1.726496e-001  9.791439e-001 -1.070954e-001
    outer loop
      vertex  7.891561e+001 -4.930242e+000  1.154954e+001
      vertex  7.593842e+001 -5.322031e+000  1.276708e+001
      vertex  7.889284e+001 -4.801086e+000  1.276708e+001
    endloop
  endfacet
  facet normal -1.352317e-001  7.669367e-001  6.273121e-001
    outer loop
      vertex  7.596119e+001 -5.451186e+000  1.154954e+001
      vertex  7.878222e+001 -4.173714e+000  1.059587e+001
      vertex  7.582780e+001 -4.694658e+000  1.059587e+001
    endloop
  endfacet
  facet normal -1.859689e-002  1.054682e-001  9.942487e-001
    outer loop
      vertex  7.582780e+001 -4.694658e+000  1.059587e+001
      vertex  7.878222e+001 -4.173714e+000  1.059587e+001
      vertex  7.857079e+001 -2.974667e+000  1.046472e+001
    endloop
  endfacet
  facet normal -1.859689e-002  1.054682e-001  9.942487e-001
    outer loop
      vertex  7.582780e+001 -4.694658e+000  1.059587e+001
      vertex  7.857079e+001 -2.974667e+000  1.046472e+001
      vertex  7.561637e+001 -3.495611e+000  1.046472e+001
    endloop
  endfacet
  facet normal  1.089316e-001 -6.177817e-001  7.787681e-001
    outer loop
      vertex  7.561637e+001 -3.495611e+000  1.046472e+001
      vertex  7.857079e+001 -2.974667e+000  1.046472e+001
      vertex  7.840519e+001 -2.035486e+000  1.123292e+001
    endloop
  endfacet
  facet normal  1.089316e-001 -6.177817e-001  7.787681e-001
    outer loop
      vertex  7.561637e+001 -3.495611e+000  1.046472e+001
      vertex  7.840519e+001 -2.035486e+000  1.123292e+001
      vertex  7.545077e+001 -2.556431e+000  1.123292e+001
    endloop
  endfacet
  facet normal  9.848085e-001  1.736437e-001 -2.593969e-006
    outer loop
      vertex  7.824518e+001 -1.128024e+000  1.072952e+001
      vertex  7.819263e+001 -8.300020e-001  1.233911e+001
      vertex  7.838242e+001 -1.906331e+000  1.245046e+001
    endloop
  endfacet
  facet normal  9.848076e-001  1.736495e-001  7.608447e-008
    outer loop
      vertex  7.824518e+001 -1.128024e+000  1.072952e+001
      vertex  7.838242e+001 -1.906331e+000  1.245046e+001
      vertex  7.840519e+001 -2.035486e+000  1.123292e+001
    endloop
  endfacet
  facet normal  9.848076e-001  1.736492e-001 -3.496775e-007
    outer loop
      vertex  7.824518e+001 -1.128024e+000  1.072952e+001
      vertex  7.840519e+001 -2.035486e+000  1.123292e+001
      vertex  7.857079e+001 -2.974667e+000  1.046472e+001
    endloop
  endfacet
  facet normal  9.848076e-001  1.736491e-001  5.994130e-007
    outer loop
      vertex  7.824518e+001 -1.128024e+000  1.072952e+001
      vertex  7.857079e+001 -2.974667e+000  1.046472e+001
      vertex  7.845198e+001 -2.300848e+000  9.605212e+000
    endloop
  endfacet
  facet normal  9.848073e-001  1.736509e-001  7.552281e-007
    outer loop
      vertex  7.905285e+001 -5.708549e+000  1.327048e+001
      vertex  7.910540e+001 -6.006571e+000  1.166089e+001
      vertex  7.891561e+001 -4.930242e+000  1.154954e+001
    endloop
  endfacet
  facet normal  9.848076e-001  1.736493e-001  3.933991e-008
    outer loop
      vertex  7.905285e+001 -5.708549e+000  1.327048e+001
      vertex  7.891561e+001 -4.930242e+000  1.154954e+001
      vertex  7.889284e+001 -4.801086e+000  1.276708e+001
    endloop
  endfacet
  facet normal  9.848081e-001  1.736460e-001 -6.030435e-006
    outer loop
      vertex  7.905285e+001 -5.708549e+000  1.327048e+001
      vertex  7.889284e+001 -4.801086e+000  1.276708e+001
      vertex  7.872724e+001 -3.861906e+000  1.353528e+001
    endloop
  endfacet
  facet normal  9.848082e-001  1.736455e-001 -2.275859e-006
    outer loop
      vertex  7.905285e+001 -5.708549e+000  1.327048e+001
      vertex  7.872724e+001 -3.861906e+000  1.353528e+001
      vertex  7.884605e+001 -4.535725e+000  1.439479e+001
    endloop
  endfacet
  facet normal  9.848080e-001  1.736469e-001 -1.152449e-006
    outer loop
      vertex  7.845198e+001 -2.300848e+000  9.605212e+000
      vertex  7.857079e+001 -2.974667e+000  1.046472e+001
      vertex  7.873404e+001 -3.900496e+000  9.395630e+000
    endloop
  endfacet
  facet normal  9.848076e-001  1.736490e-001 -3.030201e-006
    outer loop
      vertex  7.873404e+001 -3.900496e+000  9.395630e+000
      vertex  7.857079e+001 -2.974667e+000  1.046472e+001
      vertex  7.878222e+001 -4.173714e+000  1.059587e+001
    endloop
  endfacet
  facet normal  9.848076e-001  1.736494e-001 -2.941792e-006
    outer loop
      vertex  7.873404e+001 -3.900496e+000  9.395630e+000
      vertex  7.878222e+001 -4.173714e+000  1.059587e+001
      vertex  7.898363e+001 -5.315956e+000  1.018083e+001
    endloop
  endfacet
  facet normal  9.848079e-001  1.736472e-001  3.284086e-006
    outer loop
      vertex  7.898363e+001 -5.315956e+000  1.018083e+001
      vertex  7.878222e+001 -4.173714e+000  1.059587e+001
      vertex  7.891561e+001 -4.930242e+000  1.154954e+001
    endloop
  endfacet
  facet normal  9.848073e-001  1.736510e-001  2.182612e-006
    outer loop
      vertex  7.898363e+001 -5.315956e+000  1.018083e+001
      vertex  7.891561e+001 -4.930242e+000  1.154954e+001
      vertex  7.910540e+001 -6.006571e+000  1.166089e+001
    endloop
  endfacet
  facet normal  9.848079e-001  1.736474e-001  2.879457e-006
    outer loop
      vertex  7.831441e+001 -1.520617e+000  1.381917e+001
      vertex  7.856399e+001 -2.936077e+000  1.460437e+001
      vertex  7.851582e+001 -2.662859e+000  1.340413e+001
    endloop
  endfacet
  facet normal  9.848073e-001  1.736509e-001  3.695318e-006
    outer loop
      vertex  7.851582e+001 -2.662859e+000  1.340413e+001
      vertex  7.856399e+001 -2.936077e+000  1.460437e+001
      vertex  7.884605e+001 -4.535725e+000  1.439479e+001
    endloop
  endfacet
  facet normal  9.848075e-001  1.736494e-001  8.533511e-007
    outer loop
      vertex  7.851582e+001 -2.662859e+000  1.340413e+001
      vertex  7.884605e+001 -4.535725e+000  1.439479e+001
      vertex  7.872724e+001 -3.861906e+000  1.353528e+001
    endloop
  endfacet
  facet normal  9.848087e-001  1.736432e-001 -7.935790e-006
    outer loop
      vertex  7.838242e+001 -1.906331e+000  1.245046e+001
      vertex  7.819263e+001 -8.300020e-001  1.233911e+001
      vertex  7.851582e+001 -2.662859e+000  1.340413e+001
    endloop
  endfacet
  facet normal  9.848078e-001  1.736481e-001  8.212678e-007
    outer loop
      vertex  7.851582e+001 -2.662859e+000  1.340413e+001
      vertex  7.819263e+001 -8.300020e-001  1.233911e+001
      vertex  7.831441e+001 -1.520617e+000  1.381917e+001
    endloop
  endfacet
  facet normal  1.352316e-001 -7.669362e-001 -6.273127e-001
    outer loop
      vertex  7.851582e+001 -2.662859e+000  5.404132e+000
      vertex  7.542799e+001 -2.427276e+000  4.450463e+000
      vertex  7.838242e+001 -1.906331e+000  4.450463e+000
    endloop
  endfacet
  facet normal  1.726495e-001 -9.791439e-001  1.070952e-001
    outer loop
      vertex  7.838242e+001 -1.906331e+000  4.450463e+000
      vertex  7.542799e+001 -2.427276e+000  4.450463e+000
      vertex  7.545077e+001 -2.556431e+000  3.232919e+000
    endloop
  endfacet
  facet normal  1.726496e-001 -9.791439e-001  1.070951e-001
    outer loop
      vertex  7.838242e+001 -1.906331e+000  4.450463e+000
      vertex  7.545077e+001 -2.556431e+000  3.232919e+000
      vertex  7.840519e+001 -2.035486e+000  3.232919e+000
    endloop
  endfacet
  facet normal  1.352316e-001 -7.669361e-001 -6.273128e-001
    outer loop
      vertex  7.542799e+001 -2.427276e+000  4.450463e+000
      vertex  7.851582e+001 -2.662859e+000  5.404132e+000
      vertex  7.556139e+001 -3.183804e+000  5.404132e+000
    endloop
  endfacet
  facet normal  1.859689e-002 -1.054681e-001 -9.942487e-001
    outer loop
      vertex  7.556139e+001 -3.183804e+000  5.404132e+000
      vertex  7.851582e+001 -2.662859e+000  5.404132e+000
      vertex  7.872724e+001 -3.861906e+000  5.535279e+000
    endloop
  endfacet
  facet normal  1.859686e-002 -1.054683e-001 -9.942488e-001
    outer loop
      vertex  7.556139e+001 -3.183804e+000  5.404132e+000
      vertex  7.872724e+001 -3.861906e+000  5.535279e+000
      vertex  7.577281e+001 -4.382851e+000  5.535279e+000
    endloop
  endfacet
  facet normal -1.089315e-001  6.177827e-001 -7.787673e-001
    outer loop
      vertex  7.577281e+001 -4.382851e+000  5.535279e+000
      vertex  7.872724e+001 -3.861906e+000  5.535279e+000
      vertex  7.889284e+001 -4.801086e+000  4.767081e+000
    endloop
  endfacet
  facet normal -1.089317e-001  6.177820e-001 -7.787678e-001
    outer loop
      vertex  7.577281e+001 -4.382851e+000  5.535279e+000
      vertex  7.889284e+001 -4.801086e+000  4.767081e+000
      vertex  7.593842e+001 -5.322031e+000  4.767081e+000
    endloop
  endfacet
  facet normal -1.352317e-001  7.669368e-001  6.273120e-001
    outer loop
      vertex  7.878222e+001 -4.173714e+000  2.595868e+000
      vertex  7.596119e+001 -5.451186e+000  3.549537e+000
      vertex  7.891561e+001 -4.930242e+000  3.549537e+000
    endloop
  endfacet
  facet normal -1.726495e-001  9.791438e-001 -1.070954e-001
    outer loop
      vertex  7.891561e+001 -4.930242e+000  3.549537e+000
      vertex  7.596119e+001 -5.451186e+000  3.549537e+000
      vertex  7.593842e+001 -5.322031e+000  4.767081e+000
    endloop
  endfacet
  facet normal -1.726495e-001  9.791438e-001 -1.070954e-001
    outer loop
      vertex  7.891561e+001 -4.930242e+000  3.549537e+000
      vertex  7.593842e+001 -5.322031e+000  4.767081e+000
      vertex  7.889284e+001 -4.801086e+000  4.767081e+000
    endloop
  endfacet
  facet normal -1.352317e-001  7.669368e-001  6.273120e-001
    outer loop
      vertex  7.596119e+001 -5.451186e+000  3.549537e+000
      vertex  7.878222e+001 -4.173714e+000  2.595868e+000
      vertex  7.582780e+001 -4.694658e+000  2.595868e+000
    endloop
  endfacet
  facet normal -1.859689e-002  1.054682e-001  9.942487e-001
    outer loop
      vertex  7.582780e+001 -4.694658e+000  2.595868e+000
      vertex  7.878222e+001 -4.173714e+000  2.595868e+000
      vertex  7.857079e+001 -2.974667e+000  2.464720e+000
    endloop
  endfacet
  facet normal -1.859689e-002  1.054682e-001  9.942487e-001
    outer loop
      vertex  7.582780e+001 -4.694658e+000  2.595868e+000
      vertex  7.857079e+001 -2.974667e+000  2.464720e+000
      vertex  7.561637e+001 -3.495611e+000  2.464720e+000
    endloop
  endfacet
  facet normal  1.089317e-001 -6.177820e-001  7.787678e-001
    outer loop
      vertex  7.561637e+001 -3.495611e+000  2.464720e+000
      vertex  7.857079e+001 -2.974667e+000  2.464720e+000
      vertex  7.840519e+001 -2.035486e+000  3.232919e+000
    endloop
  endfacet
  facet normal  1.089317e-001 -6.177820e-001  7.787678e-001
    outer loop
      vertex  7.561637e+001 -3.495611e+000  2.464720e+000
      vertex  7.840519e+001 -2.035486e+000  3.232919e+000
      vertex  7.545077e+001 -2.556431e+000  3.232919e+000
    endloop
  endfacet
  facet normal  1.569248e-001 -8.899644e-001 -4.281799e-001
    outer loop
      vertex  8.126883e+001 -9.996725e-001  5.819172e+000
      vertex  7.819263e+001 -8.300020e-001  4.339112e+000
      vertex  8.114706e+001 -3.090575e-001  4.339112e+000
    endloop
  endfacet
  facet normal  1.706583e-001 -9.678507e-001  1.847723e-001
    outer loop
      vertex  8.114706e+001 -3.090575e-001  4.339112e+000
      vertex  7.819263e+001 -8.300020e-001  4.339112e+000
      vertex  7.824518e+001 -1.128024e+000  2.729522e+000
    endloop
  endfacet
  facet normal  1.706578e-001 -9.678506e-001  1.847730e-001
    outer loop
      vertex  8.114706e+001 -3.090575e-001  4.339112e+000
      vertex  7.824518e+001 -1.128024e+000  2.729522e+000
      vertex  8.119961e+001 -6.070791e-001  2.729522e+000
    endloop
  endfacet
  facet normal  1.569248e-001 -8.899644e-001 -4.281799e-001
    outer loop
      vertex  7.819263e+001 -8.300020e-001  4.339112e+000
      vertex  8.126883e+001 -9.996725e-001  5.819172e+000
      vertex  7.831441e+001 -1.520617e+000  5.819172e+000
    endloop
  endfacet
  facet normal  8.325142e-002 -4.721420e-001 -8.775826e-001
    outer loop
      vertex  7.831441e+001 -1.520617e+000  5.819172e+000
      vertex  8.126883e+001 -9.996725e-001  5.819172e+000
      vertex  8.151841e+001 -2.415133e+000  6.604370e+000
    endloop
  endfacet
  facet normal  8.325142e-002 -4.721420e-001 -8.775825e-001
    outer loop
      vertex  7.831441e+001 -1.520617e+000  5.819172e+000
      vertex  8.151841e+001 -2.415133e+000  6.604370e+000
      vertex  7.856399e+001 -2.936077e+000  6.604370e+000
    endloop
  endfacet
  facet normal -2.222116e-002  1.260224e-001 -9.917785e-001
    outer loop
      vertex  7.856399e+001 -2.936077e+000  6.604370e+000
      vertex  8.151841e+001 -2.415133e+000  6.604370e+000
      vertex  8.180048e+001 -4.014781e+000  6.394788e+000
    endloop
  endfacet
  facet normal -2.222116e-002  1.260224e-001 -9.917785e-001
    outer loop
      vertex  7.856399e+001 -2.936077e+000  6.604370e+000
      vertex  8.180048e+001 -4.014781e+000  6.394788e+000
      vertex  7.884605e+001 -4.535725e+000  6.394788e+000
    endloop
  endfacet
  facet normal -1.192061e-001  6.760510e-001 -7.271485e-001
    outer loop
      vertex  7.884605e+001 -4.535725e+000  6.394788e+000
      vertex  8.180048e+001 -4.014781e+000  6.394788e+000
      vertex  8.200727e+001 -5.187605e+000  5.270478e+000
    endloop
  endfacet
  facet normal -1.192061e-001  6.760510e-001 -7.271485e-001
    outer loop
      vertex  7.884605e+001 -4.535725e+000  6.394788e+000
      vertex  8.200727e+001 -5.187605e+000  5.270478e+000
      vertex  7.905285e+001 -5.708549e+000  5.270478e+000
    endloop
  endfacet
  facet normal -1.569248e-001  8.899644e-001  4.281797e-001
    outer loop
      vertex  8.193805e+001 -4.795012e+000  2.180828e+000
      vertex  7.910540e+001 -6.006571e+000  3.660888e+000
      vertex  8.205982e+001 -5.485626e+000  3.660888e+000
    endloop
  endfacet
  facet normal -1.706583e-001  9.678506e-001 -1.847728e-001
    outer loop
      vertex  8.205982e+001 -5.485626e+000  3.660888e+000
      vertex  7.910540e+001 -6.006571e+000  3.660888e+000
      vertex  7.905285e+001 -5.708549e+000  5.270478e+000
    endloop
  endfacet
  facet normal -1.706583e-001  9.678506e-001 -1.847728e-001
    outer loop
      vertex  8.205982e+001 -5.485626e+000  3.660888e+000
      vertex  7.905285e+001 -5.708549e+000  5.270478e+000
      vertex  8.200727e+001 -5.187605e+000  5.270478e+000
    endloop
  endfacet
  facet normal -1.569248e-001  8.899644e-001  4.281797e-001
    outer loop
      vertex  7.910540e+001 -6.006571e+000  3.660888e+000
      vertex  8.193805e+001 -4.795012e+000  2.180828e+000
      vertex  7.898363e+001 -5.315956e+000  2.180828e+000
    endloop
  endfacet
  facet normal -8.325144e-002  4.721421e-001  8.775824e-001
    outer loop
      vertex  7.898363e+001 -5.315956e+000  2.180828e+000
      vertex  8.193805e+001 -4.795012e+000  2.180828e+000
      vertex  8.168847e+001 -3.379551e+000  1.395630e+000
    endloop
  endfacet
  facet normal -8.325117e-002  4.721418e-001  8.775826e-001
    outer loop
      vertex  7.898363e+001 -5.315956e+000  2.180828e+000
      vertex  8.168847e+001 -3.379551e+000  1.395630e+000
      vertex  7.873404e+001 -3.900496e+000  1.395630e+000
    endloop
  endfacet
  facet normal  2.222113e-002 -1.260225e-001  9.917785e-001
    outer loop
      vertex  7.873404e+001 -3.900496e+000  1.395630e+000
      vertex  8.168847e+001 -3.379551e+000  1.395630e+000
      vertex  8.140640e+001 -1.779903e+000  1.605212e+000
    endloop
  endfacet
  facet normal  2.222120e-002 -1.260226e-001  9.917784e-001
    outer loop
      vertex  7.873404e+001 -3.900496e+000  1.395630e+000
      vertex  8.140640e+001 -1.779903e+000  1.605212e+000
      vertex  7.845198e+001 -2.300848e+000  1.605212e+000
    endloop
  endfacet
  facet normal  1.192061e-001 -6.760511e-001  7.271485e-001
    outer loop
      vertex  7.845198e+001 -2.300848e+000  1.605212e+000
      vertex  8.140640e+001 -1.779903e+000  1.605212e+000
      vertex  8.119961e+001 -6.070791e-001  2.729522e+000
    endloop
  endfacet
  facet normal  1.192058e-001 -6.760507e-001  7.271488e-001
    outer loop
      vertex  7.845198e+001 -2.300848e+000  1.605212e+000
      vertex  8.119961e+001 -6.070791e-001  2.729522e+000
      vertex  7.824518e+001 -1.128024e+000  2.729522e+000
    endloop
  endfacet
  facet normal  9.848086e-001  1.736437e-001 -2.593968e-006
    outer loop
      vertex  7.824518e+001 -1.128024e+000  2.729522e+000
      vertex  7.819263e+001 -8.300020e-001  4.339112e+000
      vertex  7.838242e+001 -1.906331e+000  4.450463e+000
    endloop
  endfacet
  facet normal  9.848076e-001  1.736495e-001  7.608449e-008
    outer loop
      vertex  7.824518e+001 -1.128024e+000  2.729522e+000
      vertex  7.838242e+001 -1.906331e+000  4.450463e+000
      vertex  7.840519e+001 -2.035486e+000  3.232919e+000
    endloop
  endfacet
  facet normal  9.848076e-001  1.736492e-001 -3.496771e-007
    outer loop
      vertex  7.824518e+001 -1.128024e+000  2.729522e+000
      vertex  7.840519e+001 -2.035486e+000  3.232919e+000
      vertex  7.857079e+001 -2.974667e+000  2.464720e+000
    endloop
  endfacet
  facet normal  9.848076e-001  1.736491e-001  5.994132e-007
    outer loop
      vertex  7.824518e+001 -1.128024e+000  2.729522e+000
      vertex  7.857079e+001 -2.974667e+000  2.464720e+000
      vertex  7.845198e+001 -2.300848e+000  1.605212e+000
    endloop
  endfacet
  facet normal  9.848073e-001  1.736509e-001  7.552277e-007
    outer loop
      vertex  7.905285e+001 -5.708549e+000  5.270478e+000
      vertex  7.910540e+001 -6.006571e+000  3.660888e+000
      vertex  7.891561e+001 -4.930242e+000  3.549537e+000
    endloop
  endfacet
  facet normal  9.848076e-001  1.736493e-001  3.933992e-008
    outer loop
      vertex  7.905285e+001 -5.708549e+000  5.270478e+000
      vertex  7.891561e+001 -4.930242e+000  3.549537e+000
      vertex  7.889284e+001 -4.801086e+000  4.767081e+000
    endloop
  endfacet
  facet normal  9.848081e-001  1.736461e-001 -6.030429e-006
    outer loop
      vertex  7.905285e+001 -5.708549e+000  5.270478e+000
      vertex  7.889284e+001 -4.801086e+000  4.767081e+000
      vertex  7.872724e+001 -3.861906e+000  5.535279e+000
    endloop
  endfacet
  facet normal  9.848082e-001  1.736455e-001 -2.275860e-006
    outer loop
      vertex  7.905285e+001 -5.708549e+000  5.270478e+000
      vertex  7.872724e+001 -3.861906e+000  5.535279e+000
      vertex  7.884605e+001 -4.535725e+000  6.394788e+000
    endloop
  endfacet
  facet normal  9.848080e-001  1.736469e-001 -1.152449e-006
    outer loop
      vertex  7.845198e+001 -2.300848e+000  1.605212e+000
      vertex  7.857079e+001 -2.974667e+000  2.464720e+000
      vertex  7.873404e+001 -3.900496e+000  1.395630e+000
    endloop
  endfacet
  facet normal  9.848076e-001  1.736490e-001 -3.030201e-006
    outer loop
      vertex  7.873404e+001 -3.900496e+000  1.395630e+000
      vertex  7.857079e+001 -2.974667e+000  2.464720e+000
      vertex  7.878222e+001 -4.173714e+000  2.595868e+000
    endloop
  endfacet
  facet normal  9.848076e-001  1.736494e-001 -2.941792e-006
    outer loop
      vertex  7.873404e+001 -3.900496e+000  1.395630e+000
      vertex  7.878222e+001 -4.173714e+000  2.595868e+000
      vertex  7.898363e+001 -5.315956e+000  2.180828e+000
    endloop
  endfacet
  facet normal  9.848078e-001  1.736472e-001  3.284085e-006
    outer loop
      vertex  7.898363e+001 -5.315956e+000  2.180828e+000
      vertex  7.878222e+001 -4.173714e+000  2.595868e+000
      vertex  7.891561e+001 -4.930242e+000  3.549537e+000
    endloop
  endfacet
  facet normal  9.848072e-001  1.736510e-001  2.182612e-006
    outer loop
      vertex  7.898363e+001 -5.315956e+000  2.180828e+000
      vertex  7.891561e+001 -4.930242e+000  3.549537e+000
      vertex  7.910540e+001 -6.006571e+000  3.660888e+000
    endloop
  endfacet
  facet normal  9.848079e-001  1.736474e-001  2.879457e-006
    outer loop
      vertex  7.831441e+001 -1.520617e+000  5.819172e+000
      vertex  7.856399e+001 -2.936077e+000  6.604370e+000
      vertex  7.851582e+001 -2.662859e+000  5.404132e+000
    endloop
  endfacet
  facet normal  9.848073e-001  1.736509e-001  3.695318e-006
    outer loop
      vertex  7.851582e+001 -2.662859e+000  5.404132e+000
      vertex  7.856399e+001 -2.936077e+000  6.604370e+000
      vertex  7.884605e+001 -4.535725e+000  6.394788e+000
    endloop
  endfacet
  facet normal  9.848075e-001  1.736494e-001  8.533511e-007
    outer loop
      vertex  7.851582e+001 -2.662859e+000  5.404132e+000
      vertex  7.884605e+001 -4.535725e+000  6.394788e+000
      vertex  7.872724e+001 -3.861906e+000  5.535279e+000
    endloop
  endfacet
  facet normal  9.848086e-001  1.736432e-001 -7.935786e-006
    outer loop
      vertex  7.838242e+001 -1.906331e+000  4.450463e+000
      vertex  7.819263e+001 -8.300020e-001  4.339112e+000
      vertex  7.851582e+001 -2.662859e+000  5.404132e+000
    endloop
  endfacet
  facet normal  9.848078e-001  1.736481e-001  8.212680e-007
    outer loop
      vertex  7.851582e+001 -2.662859e+000  5.404132e+000
      vertex  7.819263e+001 -8.300020e-001  4.339112e+000
      vertex  7.831441e+001 -1.520617e+000  5.819172e+000
    endloop
  endfacet
  facet normal  1.736483e-001  9.848078e-001  0.000000e+000
    outer loop
      vertex  7.296915e+001  8.000000e+000  0.000000e+000
      vertex  7.296915e+001  8.000000e+000  8.000000e+000
      vertex  7.570531e+001  7.517541e+000  0.000000e+000
    endloop
  endfacet
  facet normal  1.736483e-001  9.848078e-001  -0.000000e+000
    outer loop
      vertex  7.570531e+001  7.517541e+000  0.000000e+000
      vertex  7.296915e+001  8.000000e+000  8.000000e+000
      vertex  7.570531e+001  7.517541e+000  8.000000e+000
    endloop
  endfacet
  facet normal  4.999995e-001  8.660257e-001  0.000000e+000
    outer loop
      vertex  7.570531e+001  7.517541e+000  0.000000e+000
      vertex  7.570531e+001  7.517541e+000  8.000000e+000
      vertex  7.811145e+001  6.128356e+000  0.000000e+000
    endloop
  endfacet
  facet normal  4.999995e-001  8.660257e-001  -0.000000e+000
    outer loop
      vertex  7.811145e+001  6.128356e+000  0.000000e+000
      vertex  7.570531e+001  7.517541e+000  8.000000e+000
      vertex  7.811145e+001  6.128356e+000  8.000000e+000
    endloop
  endfacet
  facet normal  7.660456e-001  6.427864e-001  0.000000e+000
    outer loop
      vertex  7.811145e+001  6.128356e+000  0.000000e+000
      vertex  7.811145e+001  6.128356e+000  8.000000e+000
      vertex  7.989735e+001  4.000000e+000  0.000000e+000
    endloop
  endfacet
  facet normal  7.660456e-001  6.427864e-001  -0.000000e+000
    outer loop
      vertex  7.989735e+001  4.000000e+000  0.000000e+000
      vertex  7.811145e+001  6.128356e+000  8.000000e+000
      vertex  7.989735e+001  4.000000e+000  8.000000e+000
    endloop
  endfacet
  facet normal  9.396921e-001  3.420218e-001  0.000000e+000
    outer loop
      vertex  7.989735e+001  4.000000e+000  0.000000e+000
      vertex  7.989735e+001  4.000000e+000  8.000000e+000
      vertex  8.084761e+001  1.389185e+000  0.000000e+000
    endloop
  endfacet
  facet normal  9.396921e-001  3.420218e-001  -0.000000e+000
    outer loop
      vertex  8.084761e+001  1.389185e+000  0.000000e+000
      vertex  7.989735e+001  4.000000e+000  8.000000e+000
      vertex  8.084761e+001  1.389185e+000  8.000000e+000
    endloop
  endfacet
  facet normal  0.000000e+000  -0.000000e+000  1.000000e+000
    outer loop
      vertex  4.000000e+000  0.000000e+000  8.000000e+000
      vertex  7.500000e+001  1.749370e-015  8.000000e+000
      vertex  8.090884e+001  1.041889e+000  8.000000e+000
    endloop
  endfacet
  facet normal  0.000000e+000  0.000000e+000  1.000000e+000
    outer loop
      vertex  4.000000e+000  0.000000e+000  8.000000e+000
      vertex  8.090884e+001  1.041889e+000  8.000000e+000
      vertex  8.084761e+001  1.389185e+000  8.000000e+000
    endloop
  endfacet
  facet normal  0.000000e+000  0.000000e+000  9.999999e-001
    outer loop
      vertex  4.000000e+000  0.000000e+000  8.000000e+000
      vertex  8.084761e+001  1.389185e+000  8.000000e+000
      vertex  7.989735e+001  4.000000e+000  8.000000e+000
    endloop
  endfacet
  facet normal  0.000000e+000  0.000000e+000  9.999999e-001
    outer loop
      vertex  4.000000e+000  0.000000e+000  8.000000e+000
      vertex  7.989735e+001  4.000000e+000  8.000000e+000
      vertex  7.811145e+001  6.128356e+000  8.000000e+000
    endloop
  endfacet
  facet normal  0.000000e+000  0.000000e+000  1.000000e+000
    outer loop
      vertex  4.000000e+000  0.000000e+000  8.000000e+000
      vertex  7.811145e+001  6.128356e+000  8.000000e+000
      vertex  7.570531e+001  7.517541e+000  8.000000e+000
    endloop
  endfacet
  facet normal  0.000000e+000  0.000000e+000  9.999999e-001
    outer loop
      vertex  4.000000e+000  0.000000e+000  8.000000e+000
      vertex  7.570531e+001  7.517541e+000  8.000000e+000
      vertex  7.296915e+001  8.000000e+000  8.000000e+000
    endloop
  endfacet
  facet normal  0.000000e+000  0.000000e+000  1.000000e+000
    outer loop
      vertex  4.000000e+000  0.000000e+000  8.000000e+000
      vertex  7.296915e+001  8.000000e+000  8.000000e+000
      vertex  4.000000e+000  8.000000e+000  8.000000e+000
    endloop
  endfacet
  facet normal  1.497824e-017 -1.000000e+000  2.186712e-016
    outer loop
      vertex  7.500000e+001  0.000000e+000  0.000000e+000
      vertex  7.500000e+001  1.749370e-015  8.000000e+000
      vertex  5.404132e+000  0.000000e+000  4.767081e+000
    endloop
  endfacet
  facet normal  2.463901e-017 -1.000000e+000  1.070130e-017
    outer loop
      vertex  5.404132e+000  0.000000e+000  4.767081e+000
      vertex  7.500000e+001  1.749370e-015  8.000000e+000
      vertex  4.000000e+000  0.000000e+000  8.000000e+000
    endloop
  endfacet
  facet normal  0.000000e+000 -1.000000e+000  0.000000e+000
    outer loop
      vertex  5.404132e+000  0.000000e+000  4.767081e+000
      vertex  4.000000e+000  0.000000e+000  8.000000e+000
      vertex  4.450463e+000  0.000000e+000  5.535279e+000
    endloop
  endfacet
  facet normal  0.000000e+000 -1.000000e+000  0.000000e+000
    outer loop
      vertex  2.000000e+000  0.000000e+000  7.464102e+000
      vertex  5.358984e-001  0.000000e+000  6.000000e+000
      vertex  2.464720e+000  0.000000e+000  4.450463e+000
    endloop
  endfacet
  facet normal  -0.000000e+000 -1.000000e+000  0.000000e+000
    outer loop
      vertex  2.464720e+000  0.000000e+000  4.450463e+000
      vertex  5.358984e-001  0.000000e+000  6.000000e+000
      vertex  0.000000e+000  0.000000e+000  4.000000e+000
    endloop
  endfacet
  facet normal  0.000000e+000 -1.000000e+000  0.000000e+000
    outer loop
      vertex  2.464720e+000  0.000000e+000  4.450463e+000
      vertex  0.000000e+000  0.000000e+000  4.000000e+000
      vertex  2.595868e+000  0.000000e+000  3.232919e+000
    endloop
  endfacet
  facet normal  -0.000000e+000 -1.000000e+000  0.000000e+000
    outer loop
      vertex  2.595868e+000  0.000000e+000  3.232919e+000
      vertex  0.000000e+000  0.000000e+000  4.000000e+000
      vertex  5.358984e-001  0.000000e+000  2.000000e+000
    endloop
  endfacet
  facet normal  0.000000e+000 -1.000000e+000  0.000000e+000
    outer loop
      vertex  2.595868e+000  0.000000e+000  3.232919e+000
      vertex  5.358984e-001  0.000000e+000  2.000000e+000
      vertex  2.000000e+000  0.000000e+000  5.358984e-001
    endloop
  endfacet
  facet normal  0.000000e+000 -1.000000e+000  0.000000e+000
    outer loop
      vertex  4.767081e+000  0.000000e+000  2.595868e+000
      vertex  4.000000e+000  0.000000e+000  0.000000e+000
      vertex  5.535279e+000  0.000000e+000  3.549537e+000
    endloop
  endfacet
  facet normal  0.000000e+000 -1.000000e+000  -0.000000e+000
    outer loop
      vertex  5.535279e+000  0.000000e+000  3.549537e+000
      vertex  4.000000e+000  0.000000e+000  0.000000e+000
      vertex  7.500000e+001  0.000000e+000  0.000000e+000
    endloop
  endfacet
  facet normal  0.000000e+000 -1.000000e+000  0.000000e+000
    outer loop
      vertex  5.535279e+000  0.000000e+000  3.549537e+000
      vertex  7.500000e+001  0.000000e+000  0.000000e+000
      vertex  5.404132e+000  0.000000e+000  4.767081e+000
    endloop
  endfacet
  facet normal  0.000000e+000 -9.999999e-001  0.000000e+000
    outer loop
      vertex  2.595868e+000  0.000000e+000  3.232919e+000
      vertex  2.000000e+000  0.000000e+000  5.358984e-001
      vertex  3.549537e+000  0.000000e+000  2.464720e+000
    endloop
  endfacet
  facet normal  0.000000e+000 -1.000000e+000  -0.000000e+000
    outer loop
      vertex  3.549537e+000  0.000000e+000  2.464720e+000
      vertex  2.000000e+000  0.000000e+000  5.358984e-001
      vertex  4.000000e+000  0.000000e+000  0.000000e+000
    endloop
  endfacet
  facet normal  0.000000e+000 -1.000000e+000  0.000000e+000
    outer loop
      vertex  3.549537e+000  0.000000e+000  2.464720e+000
      vertex  4.000000e+000  0.000000e+000  0.000000e+000
      vertex  4.767081e+000  0.000000e+000  2.595868e+000
    endloop
  endfacet
  facet normal  0.000000e+000 -1.000000e+000  -0.000000e+000
    outer loop
      vertex  4.450463e+000  0.000000e+000  5.535279e+000
      vertex  4.000000e+000  0.000000e+000  8.000000e+000
      vertex  3.232919e+000  0.000000e+000  5.404132e+000
    endloop
  endfacet
  facet normal  0.000000e+000 -1.000000e+000  0.000000e+000
    outer loop
      vertex  3.232919e+000  0.000000e+000  5.404132e+000
      vertex  4.000000e+000  0.000000e+000  8.000000e+000
      vertex  2.000000e+000  0.000000e+000  7.464102e+000
    endloop
  endfacet
  facet normal  0.000000e+000 -1.000000e+000  0.000000e+000
    outer loop
      vertex  3.232919e+000  0.000000e+000  5.404132e+000
      vertex  2.000000e+000  0.000000e+000  7.464102e+000
      vertex  2.464720e+000  0.000000e+000  4.450463e+000
    endloop
  endfacet
  facet normal  0.000000e+000  1.000000e+000  0.000000e+000
    outer loop
      vertex  1.674406e+000  8.000000e+000  2.729522e+000
      vertex  2.865323e+000  8.000000e+000  1.605212e+000
      vertex  2.000000e+000  8.000000e+000  5.358984e-001
    endloop
  endfacet
  facet normal  0.000000e+000  1.000000e+000  0.000000e+000
    outer loop
      vertex  1.674406e+000  8.000000e+000  2.729522e+000
      vertex  2.000000e+000  8.000000e+000  5.358984e-001
      vertex  5.358984e-001  8.000000e+000  2.000000e+000
    endloop
  endfacet
  facet normal  0.000000e+000  1.000000e+000  -0.000000e+000
    outer loop
      vertex  1.674406e+000  8.000000e+000  2.729522e+000
      vertex  5.358984e-001  8.000000e+000  2.000000e+000
      vertex  0.000000e+000  8.000000e+000  4.000000e+000
    endloop
  endfacet
  facet normal  -0.000000e+000  1.000000e+000  0.000000e+000
    outer loop
      vertex  1.674406e+000  8.000000e+000  2.729522e+000
      vertex  0.000000e+000  8.000000e+000  4.000000e+000
      vertex  1.371787e+000  8.000000e+000  4.339112e+000
    endloop
  endfacet
  facet normal  0.000000e+000  1.000000e+000  0.000000e+000
    outer loop
      vertex  7.296915e+001  8.000000e+000  0.000000e+000
      vertex  4.000000e+000  8.000000e+000  0.000000e+000
      vertex  4.489648e+000  8.000000e+000  1.395630e+000
    endloop
  endfacet
  facet normal  -0.000000e+000  1.000000e+000  0.000000e+000
    outer loop
      vertex  7.296915e+001  8.000000e+000  0.000000e+000
      vertex  4.489648e+000  8.000000e+000  1.395630e+000
      vertex  5.926944e+000  8.000000e+000  2.180828e+000
    endloop
  endfacet
  facet normal  -0.000000e+000  1.000000e+000  0.000000e+000
    outer loop
      vertex  7.296915e+001  8.000000e+000  0.000000e+000
      vertex  5.926944e+000  8.000000e+000  2.180828e+000
      vertex  6.628213e+000  8.000000e+000  3.660888e+000
    endloop
  endfacet
  facet normal  -0.000000e+000  1.000000e+000  -0.000000e+000
    outer loop
      vertex  7.296915e+001  8.000000e+000  0.000000e+000
      vertex  6.628213e+000  8.000000e+000  3.660888e+000
      vertex  6.325594e+000  8.000000e+000  5.270478e+000
    endloop
  endfacet
  facet normal  -0.000000e+000  1.000000e+000  -0.000000e+000
    outer loop
      vertex  7.296915e+001  8.000000e+000  0.000000e+000
      vertex  6.325594e+000  8.000000e+000  5.270478e+000
      vertex  4.000000e+000  8.000000e+000  8.000000e+000
    endloop
  endfacet
  facet normal  -0.000000e+000  1.000000e+000  0.000000e+000
    outer loop
      vertex  7.296915e+001  8.000000e+000  0.000000e+000
      vertex  4.000000e+000  8.000000e+000  8.000000e+000
      vertex  7.296915e+001  8.000000e+000  8.000000e+000
    endloop
  endfacet
  facet normal  0.000000e+000  1.000000e+000  0.000000e+000
    outer loop
      vertex  4.000000e+000  8.000000e+000  8.000000e+000
      vertex  6.325594e+000  8.000000e+000  5.270478e+000
      vertex  5.134677e+000  8.000000e+000  6.394788e+000
    endloop
  endfacet
  facet normal  0.000000e+000  1.000000e+000  0.000000e+000
    outer loop
      vertex  4.000000e+000  8.000000e+000  8.000000e+000
      vertex  5.134677e+000  8.000000e+000  6.394788e+000
      vertex  3.510352e+000  8.000000e+000  6.604370e+000
    endloop
  endfacet
  facet normal  0.000000e+000  1.000000e+000  -0.000000e+000
    outer loop
      vertex  4.000000e+000  8.000000e+000  8.000000e+000
      vertex  3.510352e+000  8.000000e+000  6.604370e+000
      vertex  2.073056e+000  8.000000e+000  5.819172e+000
    endloop
  endfacet
  facet normal  0.000000e+000  1.000000e+000  -0.000000e+000
    outer loop
      vertex  4.000000e+000  8.000000e+000  8.000000e+000
      vertex  2.073056e+000  8.000000e+000  5.819172e+000
      vertex  2.000000e+000  8.000000e+000  7.464102e+000
    endloop
  endfacet
  facet normal  0.000000e+000  1.000000e+000  0.000000e+000
    outer loop
      vertex  2.865323e+000  8.000000e+000  1.605212e+000
      vertex  4.489648e+000  8.000000e+000  1.395630e+000
      vertex  2.000000e+000  8.000000e+000  5.358984e-001
    endloop
  endfacet
  facet normal  -0.000000e+000  1.000000e+000  0.000000e+000
    outer loop
      vertex  2.000000e+000  8.000000e+000  5.358984e-001
      vertex  4.489648e+000  8.000000e+000  1.395630e+000
      vertex  4.000000e+000  8.000000e+000  0.000000e+000
    endloop
  endfacet
  facet normal  0.000000e+000  1.000000e+000  0.000000e+000
    outer loop
      vertex  0.000000e+000  8.000000e+000  4.000000e+000
      vertex  5.358984e-001  8.000000e+000  6.000000e+000
      vertex  1.371787e+000  8.000000e+000  4.339112e+000
    endloop
  endfacet
  facet normal  0.000000e+000  1.000000e+000  -0.000000e+000
    outer loop
      vertex  1.371787e+000  8.000000e+000  4.339112e+000
      vertex  5.358984e-001  8.000000e+000  6.000000e+000
      vertex  2.000000e+000  8.000000e+000  7.464102e+000
    endloop
  endfacet
  facet normal  0.000000e+000  1.000000e+000  0.000000e+000
    outer loop
      vertex  1.371787e+000  8.000000e+000  4.339112e+000
      vertex  2.000000e+000  8.000000e+000  7.464102e+000
      vertex  2.073056e+000  8.000000e+000  5.819172e+000
    endloop
  endfacet
  facet normal  7.787676e-001  0.000000e+000 -6.273125e-001
    outer loop
      vertex  3.232919e+000  5.800000e+000  5.404132e+000
      vertex  2.464720e+000  0.000000e+000  4.450463e+000
      vertex  2.464720e+000  5.800000e+000  4.450463e+000
    endloop
  endfacet
  facet normal  9.942488e-001  0.000000e+000  1.070952e-001
    outer loop
      vertex  2.464720e+000  5.800000e+000  4.450463e+000
      vertex  2.464720e+000  0.000000e+000  4.450463e+000
      vertex  2.595868e+000  0.000000e+000  3.232919e+000
    endloop
  endfacet
  facet normal  9.942488e-001  -0.000000e+000  1.070952e-001
    outer loop
      vertex  2.464720e+000  5.800000e+000  4.450463e+000
      vertex  2.595868e+000  0.000000e+000  3.232919e+000
      vertex  2.595868e+000  5.800000e+000  3.232919e+000
    endloop
  endfacet
  facet normal  7.787676e-001  0.000000e+000 -6.273125e-001
    outer loop
      vertex  2.464720e+000  0.000000e+000  4.450463e+000
      vertex  3.232919e+000  5.800000e+000  5.404132e+000
      vertex  3.232919e+000  0.000000e+000  5.404132e+000
    endloop
  endfacet
  facet normal  1.070952e-001  0.000000e+000 -9.942488e-001
    outer loop
      vertex  3.232919e+000  0.000000e+000  5.404132e+000
      vertex  3.232919e+000  5.800000e+000  5.404132e+000
      vertex  4.450463e+000  5.800000e+000  5.535279e+000
    endloop
  endfacet
  facet normal  1.070952e-001  0.000000e+000 -9.942488e-001
    outer loop
      vertex  3.232919e+000  0.000000e+000  5.404132e+000
      vertex  4.450463e+000  5.800000e+000  5.535279e+000
      vertex  4.450463e+000  0.000000e+000  5.535279e+000
    endloop
  endfacet
  facet normal -6.273124e-001  0.000000e+000 -7.787676e-001
    outer loop
      vertex  4.450463e+000  0.000000e+000  5.535279e+000
      vertex  4.450463e+000  5.800000e+000  5.535279e+000
      vertex  5.404132e+000  5.800000e+000  4.767081e+000
    endloop
  endfacet
  facet normal -6.273124e-001  -0.000000e+000 -7.787676e-001
    outer loop
      vertex  4.450463e+000  0.000000e+000  5.535279e+000
      vertex  5.404132e+000  5.800000e+000  4.767081e+000
      vertex  5.404132e+000  0.000000e+000  4.767081e+000
    endloop
  endfacet
  facet normal -7.787677e-001  0.000000e+000  6.273123e-001
    outer loop
      vertex  4.767081e+000  5.800000e+000  2.595868e+000
      vertex  5.535279e+000  0.000000e+000  3.549537e+000
      vertex  5.535279e+000  5.800000e+000  3.549537e+000
    endloop
  endfacet
  facet normal -9.942488e-001  -0.000000e+000 -1.070952e-001
    outer loop
      vertex  5.535279e+000  5.800000e+000  3.549537e+000
      vertex  5.535279e+000  0.000000e+000  3.549537e+000
      vertex  5.404132e+000  0.000000e+000  4.767081e+000
    endloop
  endfacet
  facet normal -9.942488e-001  0.000000e+000 -1.070952e-001
    outer loop
      vertex  5.535279e+000  5.800000e+000  3.549537e+000
      vertex  5.404132e+000  0.000000e+000  4.767081e+000
      vertex  5.404132e+000  5.800000e+000  4.767081e+000
    endloop
  endfacet
  facet normal -7.787677e-001  0.000000e+000  6.273123e-001
    outer loop
      vertex  5.535279e+000  0.000000e+000  3.549537e+000
      vertex  4.767081e+000  5.800000e+000  2.595868e+000
      vertex  4.767081e+000  0.000000e+000  2.595868e+000
    endloop
  endfacet
  facet normal -1.070952e-001  0.000000e+000  9.942488e-001
    outer loop
      vertex  4.767081e+000  0.000000e+000  2.595868e+000
      vertex  4.767081e+000  5.800000e+000  2.595868e+000
      vertex  3.549537e+000  5.800000e+000  2.464720e+000
    endloop
  endfacet
  facet normal -1.070952e-001  0.000000e+000  9.942488e-001
    outer loop
      vertex  4.767081e+000  0.000000e+000  2.595868e+000
      vertex  3.549537e+000  5.800000e+000  2.464720e+000
      vertex  3.549537e+000  0.000000e+000  2.464720e+000
    endloop
  endfacet
  facet normal  6.273125e-001  -0.000000e+000  7.787677e-001
    outer loop
      vertex  3.549537e+000  0.000000e+000  2.464720e+000
      vertex  3.549537e+000  5.800000e+000  2.464720e+000
      vertex  2.595868e+000  5.800000e+000  3.232919e+000
    endloop
  endfacet
  facet normal  6.273125e-001  0.000000e+000  7.787677e-001
    outer loop
      vertex  3.549537e+000  0.000000e+000  2.464720e+000
      vertex  2.595868e+000  5.800000e+000  3.232919e+000
      vertex  2.595868e+000  0.000000e+000  3.232919e+000
    endloop
  endfacet
  facet normal  9.036934e-001  0.000000e+000 -4.281800e-001
    outer loop
      vertex  2.073056e+000  8.000000e+000  5.819172e+000
      vertex  1.371787e+000  5.800000e+000  4.339112e+000
      vertex  1.371787e+000  8.000000e+000  4.339112e+000
    endloop
  endfacet
  facet normal  9.827813e-001  0.000000e+000  1.847728e-001
    outer loop
      vertex  1.371787e+000  8.000000e+000  4.339112e+000
      vertex  1.371787e+000  5.800000e+000  4.339112e+000
      vertex  1.674406e+000  5.800000e+000  2.729522e+000
    endloop
  endfacet
  facet normal  9.827813e-001  -0.000000e+000  1.847728e-001
    outer loop
      vertex  1.371787e+000  8.000000e+000  4.339112e+000
      vertex  1.674406e+000  5.800000e+000  2.729522e+000
      vertex  1.674406e+000  8.000000e+000  2.729522e+000
    endloop
  endfacet
  facet normal  9.036934e-001  0.000000e+000 -4.281800e-001
    outer loop
      vertex  1.371787e+000  5.800000e+000  4.339112e+000
      vertex  2.073056e+000  8.000000e+000  5.819172e+000
      vertex  2.073056e+000  5.800000e+000  5.819172e+000
    endloop
  endfacet
  facet normal  4.794255e-001  0.000000e+000 -8.775826e-001
    outer loop
      vertex  2.073056e+000  5.800000e+000  5.819172e+000
      vertex  2.073056e+000  8.000000e+000  5.819172e+000
      vertex  3.510352e+000  8.000000e+000  6.604370e+000
    endloop
  endfacet
  facet normal  4.794255e-001  0.000000e+000 -8.775826e-001
    outer loop
      vertex  2.073056e+000  5.800000e+000  5.819172e+000
      vertex  3.510352e+000  8.000000e+000  6.604370e+000
      vertex  3.510352e+000  5.800000e+000  6.604370e+000
    endloop
  endfacet
  facet normal -1.279665e-001  0.000000e+000 -9.917784e-001
    outer loop
      vertex  3.510352e+000  5.800000e+000  6.604370e+000
      vertex  3.510352e+000  8.000000e+000  6.604370e+000
      vertex  5.134677e+000  8.000000e+000  6.394788e+000
    endloop
  endfacet
  facet normal -1.279665e-001  -0.000000e+000 -9.917784e-001
    outer loop
      vertex  3.510352e+000  5.800000e+000  6.604370e+000
      vertex  5.134677e+000  8.000000e+000  6.394788e+000
      vertex  5.134677e+000  5.800000e+000  6.394788e+000
    endloop
  endfacet
  facet normal -6.864799e-001  0.000000e+000 -7.271487e-001
    outer loop
      vertex  5.134677e+000  5.800000e+000  6.394788e+000
      vertex  5.134677e+000  8.000000e+000  6.394788e+000
      vertex  6.325594e+000  8.000000e+000  5.270478e+000
    endloop
  endfacet
  facet normal -6.864799e-001  -0.000000e+000 -7.271487e-001
    outer loop
      vertex  5.134677e+000  5.800000e+000  6.394788e+000
      vertex  6.325594e+000  8.000000e+000  5.270478e+000
      vertex  6.325594e+000  5.800000e+000  5.270478e+000
    endloop
  endfacet
  facet normal -9.036936e-001  0.000000e+000  4.281799e-001
    outer loop
      vertex  5.926944e+000  8.000000e+000  2.180828e+000
      vertex  6.628213e+000  5.800000e+000  3.660888e+000
      vertex  6.628213e+000  8.000000e+000  3.660888e+000
    endloop
  endfacet
  facet normal -9.827813e-001  -0.000000e+000 -1.847727e-001
    outer loop
      vertex  6.628213e+000  8.000000e+000  3.660888e+000
      vertex  6.628213e+000  5.800000e+000  3.660888e+000
      vertex  6.325594e+000  5.800000e+000  5.270478e+000
    endloop
  endfacet
  facet normal -9.827813e-001  0.000000e+000 -1.847727e-001
    outer loop
      vertex  6.628213e+000  8.000000e+000  3.660888e+000
      vertex  6.325594e+000  5.800000e+000  5.270478e+000
      vertex  6.325594e+000  8.000000e+000  5.270478e+000
    endloop
  endfacet
  facet normal -9.036936e-001  0.000000e+000  4.281799e-001
    outer loop
      vertex  6.628213e+000  5.800000e+000  3.660888e+000
      vertex  5.926944e+000  8.000000e+000  2.180828e+000
      vertex  5.926944e+000  5.800000e+000  2.180828e+000
    endloop
  endfacet
  facet normal -4.794254e-001  0.000000e+000  8.775826e-001
    outer loop
      vertex  5.926944e+000  5.800000e+000  2.180828e+000
      vertex  5.926944e+000  8.000000e+000  2.180828e+000
      vertex  4.489648e+000  8.000000e+000  1.395630e+000
    endloop
  endfacet
  facet normal -4.794254e-001  0.000000e+000  8.775826e-001
    outer loop
      vertex  5.926944e+000  5.800000e+000  2.180828e+000
      vertex  4.489648e+000  8.000000e+000  1.395630e+000
      vertex  4.489648e+000  5.800000e+000  1.395630e+000
    endloop
  endfacet
  facet normal  1.279667e-001  -0.000000e+000  9.917784e-001
    outer loop
      vertex  4.489648e+000  5.800000e+000  1.395630e+000
      vertex  4.489648e+000  8.000000e+000  1.395630e+000
      vertex  2.865323e+000  8.000000e+000  1.605212e+000
    endloop
  endfacet
  facet normal  1.279667e-001  0.000000e+000  9.917784e-001
    outer loop
      vertex  4.489648e+000  5.800000e+000  1.395630e+000
      vertex  2.865323e+000  8.000000e+000  1.605212e+000
      vertex  2.865323e+000  5.800000e+000  1.605212e+000
    endloop
  endfacet
  facet normal  6.864800e-001  -0.000000e+000  7.271488e-001
    outer loop
      vertex  2.865323e+000  5.800000e+000  1.605212e+000
      vertex  2.865323e+000  8.000000e+000  1.605212e+000
      vertex  1.674406e+000  8.000000e+000  2.729522e+000
    endloop
  endfacet
  facet normal  6.864800e-001  0.000000e+000  7.271488e-001
    outer loop
      vertex  2.865323e+000  5.800000e+000  1.605212e+000
      vertex  1.674406e+000  8.000000e+000  2.729522e+000
      vertex  1.674406e+000  5.800000e+000  2.729522e+000
    endloop
  endfacet
  facet normal  -0.000000e+000  1.000000e+000  0.000000e+000
    outer loop
      vertex  1.674406e+000  5.800000e+000  2.729522e+000
      vertex  1.371787e+000  5.800000e+000  4.339112e+000
      vertex  2.464720e+000  5.800000e+000  4.450463e+000
    endloop
  endfacet
  facet normal  0.000000e+000  1.000000e+000  0.000000e+000
    outer loop
      vertex  1.674406e+000  5.800000e+000  2.729522e+000
      vertex  2.464720e+000  5.800000e+000  4.450463e+000
      vertex  2.595868e+000  5.800000e+000  3.232919e+000
    endloop
  endfacet
  facet normal  0.000000e+000  1.000000e+000  0.000000e+000
    outer loop
      vertex  1.674406e+000  5.800000e+000  2.729522e+000
      vertex  2.595868e+000  5.800000e+000  3.232919e+000
      vertex  3.549537e+000  5.800000e+000  2.464720e+000
    endloop
  endfacet
  facet normal  0.000000e+000  1.000000e+000  0.000000e+000
    outer loop
      vertex  1.674406e+000  5.800000e+000  2.729522e+000
      vertex  3.549537e+000  5.800000e+000  2.464720e+000
      vertex  2.865323e+000  5.800000e+000  1.605212e+000
    endloop
  endfacet
  facet normal  0.000000e+000  1.000000e+000  0.000000e+000
    outer loop
      vertex  6.325594e+000  5.800000e+000  5.270478e+000
      vertex  6.628213e+000  5.800000e+000  3.660888e+000
      vertex  5.535279e+000  5.800000e+000  3.549537e+000
    endloop
  endfacet
  facet normal  0.000000e+000  1.000000e+000  -0.000000e+000
    outer loop
      vertex  6.325594e+000  5.800000e+000  5.270478e+000
      vertex  5.535279e+000  5.800000e+000  3.549537e+000
      vertex  5.404132e+000  5.800000e+000  4.767081e+000
    endloop
  endfacet
  facet normal  0.000000e+000  1.000000e+000  -0.000000e+000
    outer loop
      vertex  6.325594e+000  5.800000e+000  5.270478e+000
      vertex  5.404132e+000  5.800000e+000  4.767081e+000
      vertex  4.450463e+000  5.800000e+000  5.535279e+000
    endloop
  endfacet
  facet normal  -0.000000e+000  9.999999e-001  0.000000e+000
    outer loop
      vertex  6.325594e+000  5.800000e+000  5.270478e+000
      vertex  4.450463e+000  5.800000e+000  5.535279e+000
      vertex  5.134677e+000  5.800000e+000  6.394788e+000
    endloop
  endfacet
  facet normal  0.000000e+000  9.999999e-001  0.000000e+000
    outer loop
      vertex  2.865323e+000  5.800000e+000  1.605212e+000
      vertex  3.549537e+000  5.800000e+000  2.464720e+000
      vertex  4.489648e+000  5.800000e+000  1.395630e+000
    endloop
  endfacet
  facet normal  0.000000e+000  1.000000e+000  -0.000000e+000
    outer loop
      vertex  4.489648e+000  5.800000e+000  1.395630e+000
      vertex  3.549537e+000  5.800000e+000  2.464720e+000
      vertex  4.767081e+000  5.800000e+000  2.595868e+000
    endloop
  endfacet
  facet normal  0.000000e+000  9.999999e-001  0.000000e+000
    outer loop
      vertex  4.489648e+000  5.800000e+000  1.395630e+000
      vertex  4.767081e+000  5.800000e+000  2.595868e+000
      vertex  5.926944e+000  5.800000e+000  2.180828e+000
    endloop
  endfacet
  facet normal  0.000000e+000  1.000000e+000  0.000000e+000
    outer loop
      vertex  5.926944e+000  5.800000e+000  2.180828e+000
      vertex  4.767081e+000  5.800000e+000  2.595868e+000
      vertex  5.535279e+000  5.800000e+000  3.549537e+000
    endloop
  endfacet
  facet normal  -0.000000e+000  1.000000e+000  0.000000e+000
    outer loop
      vertex  5.926944e+000  5.800000e+000  2.180828e+000
      vertex  5.535279e+000  5.800000e+000  3.549537e+000
      vertex  6.628213e+000  5.800000e+000  3.660888e+000
    endloop
  endfacet
  facet normal  0.000000e+000  1.000000e+000  0.000000e+000
    outer loop
      vertex  2.073056e+000  5.800000e+000  5.819172e+000
      vertex  3.510352e+000  5.800000e+000  6.604370e+000
      vertex  3.232919e+000  5.800000e+000  5.404132e+000
    endloop
  endfacet
  facet normal  0.000000e+000  1.000000e+000  0.000000e+000
    outer loop
      vertex  3.232919e+000  5.800000e+000  5.404132e+000
      vertex  3.510352e+000  5.800000e+000  6.604370e+000
      vertex  5.134677e+000  5.800000e+000  6.394788e+000
    endloop
  endfacet
  facet normal  0.000000e+000  1.000000e+000  0.000000e+000
    outer loop
      vertex  3.232919e+000  5.800000e+000  5.404132e+000
      vertex  5.134677e+000  5.800000e+000  6.394788e+000
      vertex  4.450463e+000  5.800000e+000  5.535279e+000
    endloop
  endfacet
  facet normal  0.000000e+000  9.999999e-001  0.000000e+000
    outer loop
      vertex  2.464720e+000  5.800000e+000  4.450463e+000
      vertex  1.371787e+000  5.800000e+000  4.339112e+000
      vertex  3.232919e+000  5.800000e+000  5.404132e+000
    endloop
  endfacet
  facet normal  0.000000e+000  1.000000e+000  0.000000e+000
    outer loop
      vertex  3.232919e+000  5.800000e+000  5.404132e+000
      vertex  1.371787e+000  5.800000e+000  4.339112e+000
      vertex  2.073056e+000  5.800000e+000  5.819172e+000
    endloop
  endfacet
  facet normal -2.588190e-001  0.000000e+000  9.659258e-001
    outer loop
      vertex  4.000000e+000  0.000000e+000  8.000000e+000
      vertex  4.000000e+000  8.000000e+000  8.000000e+000
      vertex  2.000000e+000  0.000000e+000  7.464102e+000
    endloop
  endfacet
  facet normal -2.588190e-001  0.000000e+000  9.659258e-001
    outer loop
      vertex  2.000000e+000  0.000000e+000  7.464102e+000
      vertex  4.000000e+000  8.000000e+000  8.000000e+000
      vertex  2.000000e+000  8.000000e+000  7.464102e+000
    endloop
  endfacet
  facet normal -7.071068e-001  0.000000e+000  7.071066e-001
    outer loop
      vertex  2.000000e+000  0.000000e+000  7.464102e+000
      vertex  2.000000e+000  8.000000e+000  7.464102e+000
      vertex  5.358984e-001  0.000000e+000  6.000000e+000
    endloop
  endfacet
  facet normal -7.071068e-001  0.000000e+000  7.071066e-001
    outer loop
      vertex  5.358984e-001  0.000000e+000  6.000000e+000
      vertex  2.000000e+000  8.000000e+000  7.464102e+000
      vertex  5.358984e-001  8.000000e+000  6.000000e+000
    endloop
  endfacet
  facet normal -9.659258e-001  0.000000e+000  2.588190e-001
    outer loop
      vertex  5.358984e-001  0.000000e+000  6.000000e+000
      vertex  5.358984e-001  8.000000e+000  6.000000e+000
      vertex  0.000000e+000  0.000000e+000  4.000000e+000
    endloop
  endfacet
  facet normal -9.659258e-001  0.000000e+000  2.588190e-001
    outer loop
      vertex  0.000000e+000  0.000000e+000  4.000000e+000
      vertex  5.358984e-001  8.000000e+000  6.000000e+000
      vertex  0.000000e+000  8.000000e+000  4.000000e+000
    endloop
  endfacet
  facet normal -9.659258e-001  -0.000000e+000 -2.588190e-001
    outer loop
      vertex  0.000000e+000  0.000000e+000  4.000000e+000
      vertex  0.000000e+000  8.000000e+000  4.000000e+000
      vertex  5.358984e-001  0.000000e+000  2.000000e+000
    endloop
  endfacet
  facet normal -9.659258e-001  0.000000e+000 -2.588190e-001
    outer loop
      vertex  5.358984e-001  0.000000e+000  2.000000e+000
      vertex  0.000000e+000  8.000000e+000  4.000000e+000
      vertex  5.358984e-001  8.000000e+000  2.000000e+000
    endloop
  endfacet
  facet normal -7.071068e-001  -0.000000e+000 -7.071068e-001
    outer loop
      vertex  5.358984e-001  0.000000e+000  2.000000e+000
      vertex  5.358984e-001  8.000000e+000  2.000000e+000
      vertex  2.000000e+000  0.000000e+000  5.358984e-001
    endloop
  endfacet
  facet normal -7.071068e-001  0.000000e+000 -7.071068e-001
    outer loop
      vertex  2.000000e+000  0.000000e+000  5.358984e-001
      vertex  5.358984e-001  8.000000e+000  2.000000e+000
      vertex  2.000000e+000  8.000000e+000  5.358984e-001
    endloop
  endfacet
  facet normal -2.588190e-001  -0.000000e+000 -9.659258e-001
    outer loop
      vertex  2.000000e+000  0.000000e+000  5.358984e-001
      vertex  2.000000e+000  8.000000e+000  5.358984e-001
      vertex  4.000000e+000  0.000000e+000  0.000000e+000
    endloop
  endfacet
  facet normal -2.588190e-001  0.000000e+000 -9.659258e-001
    outer loop
      vertex  4.000000e+000  0.000000e+000  0.000000e+000
      vertex  2.000000e+000  8.000000e+000  5.358984e-001
      vertex  4.000000e+000  8.000000e+000  0.000000e+000
    endloop
  endfacet
endsolid CATIA STL
