solid CATIA STL
  facet normal  -0.000000e+000  7.787677e-001  6.273124e-001
    outer loop
      vertex -1.000000e+000 -1.927216e+001 -1.316374e+000
      vertex -3.000000e+000 -1.999234e+001 -4.223093e-001
      vertex -1.000000e+000 -1.999234e+001 -4.223093e-001
    endloop
  endfacet
  facet normal  0.000000e+000  9.942488e-001 -1.070943e-001
    outer loop
      vertex -1.000000e+000 -1.999234e+001 -4.223093e-001
      vertex -3.000000e+000 -1.999234e+001 -4.223093e-001
      vertex -3.000000e+000 -1.986939e+001  7.191383e-001
    endloop
  endfacet
  facet normal  0.000000e+000  9.942488e-001 -1.070943e-001
    outer loop
      vertex -1.000000e+000 -1.999234e+001 -4.223093e-001
      vertex -3.000000e+000 -1.986939e+001  7.191383e-001
      vertex -1.000000e+000 -1.986939e+001  7.191383e-001
    endloop
  endfacet
  facet normal  0.000000e+000  7.787677e-001  6.273124e-001
    outer loop
      vertex -3.000000e+000 -1.999234e+001 -4.223093e-001
      vertex -1.000000e+000 -1.927216e+001 -1.316374e+000
      vertex -3.000000e+000 -1.927216e+001 -1.316374e+000
    endloop
  endfacet
  facet normal  -0.000000e+000  1.070952e-001  9.942487e-001
    outer loop
      vertex -3.000000e+000 -1.927216e+001 -1.316374e+000
      vertex -1.000000e+000 -1.927216e+001 -1.316374e+000
      vertex -1.000000e+000 -1.813071e+001 -1.439324e+000
    endloop
  endfacet
  facet normal  0.000000e+000  1.070952e-001  9.942487e-001
    outer loop
      vertex -3.000000e+000 -1.927216e+001 -1.316374e+000
      vertex -1.000000e+000 -1.813071e+001 -1.439324e+000
      vertex -3.000000e+000 -1.813071e+001 -1.439324e+000
    endloop
  endfacet
  facet normal  0.000000e+000 -6.273126e-001  7.787675e-001
    outer loop
      vertex -3.000000e+000 -1.813071e+001 -1.439324e+000
      vertex -1.000000e+000 -1.813071e+001 -1.439324e+000
      vertex -1.000000e+000 -1.723664e+001 -7.191383e-001
    endloop
  endfacet
  facet normal  0.000000e+000 -6.273126e-001  7.787675e-001
    outer loop
      vertex -3.000000e+000 -1.813071e+001 -1.439324e+000
      vertex -1.000000e+000 -1.723664e+001 -7.191383e-001
      vertex -3.000000e+000 -1.723664e+001 -7.191383e-001
    endloop
  endfacet
  facet normal  0.000000e+000 -7.787677e-001 -6.273124e-001
    outer loop
      vertex -1.000000e+000 -1.783388e+001  1.316374e+000
      vertex -3.000000e+000 -1.711369e+001  4.223093e-001
      vertex -1.000000e+000 -1.711369e+001  4.223093e-001
    endloop
  endfacet
  facet normal  0.000000e+000 -9.942487e-001  1.070959e-001
    outer loop
      vertex -1.000000e+000 -1.711369e+001  4.223093e-001
      vertex -3.000000e+000 -1.711369e+001  4.223093e-001
      vertex -3.000000e+000 -1.723664e+001 -7.191383e-001
    endloop
  endfacet
  facet normal  0.000000e+000 -9.942487e-001  1.070959e-001
    outer loop
      vertex -1.000000e+000 -1.711369e+001  4.223093e-001
      vertex -3.000000e+000 -1.723664e+001 -7.191383e-001
      vertex -1.000000e+000 -1.723664e+001 -7.191383e-001
    endloop
  endfacet
  facet normal  -0.000000e+000 -7.787677e-001 -6.273124e-001
    outer loop
      vertex -3.000000e+000 -1.711369e+001  4.223093e-001
      vertex -1.000000e+000 -1.783388e+001  1.316374e+000
      vertex -3.000000e+000 -1.783388e+001  1.316374e+000
    endloop
  endfacet
  facet normal  0.000000e+000 -1.070951e-001 -9.942489e-001
    outer loop
      vertex -3.000000e+000 -1.783388e+001  1.316374e+000
      vertex -1.000000e+000 -1.783388e+001  1.316374e+000
      vertex -1.000000e+000 -1.897533e+001  1.439324e+000
    endloop
  endfacet
  facet normal  -0.000000e+000 -1.070951e-001 -9.942489e-001
    outer loop
      vertex -3.000000e+000 -1.783388e+001  1.316374e+000
      vertex -1.000000e+000 -1.897533e+001  1.439324e+000
      vertex -3.000000e+000 -1.897533e+001  1.439324e+000
    endloop
  endfacet
  facet normal  0.000000e+000  6.273126e-001 -7.787675e-001
    outer loop
      vertex -3.000000e+000 -1.897533e+001  1.439324e+000
      vertex -1.000000e+000 -1.897533e+001  1.439324e+000
      vertex -1.000000e+000 -1.986939e+001  7.191383e-001
    endloop
  endfacet
  facet normal  0.000000e+000  6.273126e-001 -7.787675e-001
    outer loop
      vertex -3.000000e+000 -1.897533e+001  1.439324e+000
      vertex -1.000000e+000 -1.986939e+001  7.191383e-001
      vertex -3.000000e+000 -1.986939e+001  7.191383e-001
    endloop
  endfacet
  facet normal -1.000000e+000  -0.000000e+000  0.000000e+000
    outer loop
      vertex -6.000000e+000 -2.343498e+001  6.000000e+000
      vertex -6.000000e+000  2.856502e+001  6.000000e+000
      vertex -6.000000e+000 -1.696531e+001  2.750000e+000
    endloop
  endfacet
  facet normal -1.000000e+000  0.000000e+000  0.000000e+000
    outer loop
      vertex -6.000000e+000 -2.343498e+001  6.000000e+000
      vertex -6.000000e+000 -1.696531e+001  2.750000e+000
      vertex -6.000000e+000 -2.014073e+001  2.750000e+000
    endloop
  endfacet
  facet normal -1.000000e+000  -0.000000e+000  0.000000e+000
    outer loop
      vertex -6.000000e+000 -2.343498e+001  6.000000e+000
      vertex -6.000000e+000 -2.014073e+001  2.750000e+000
      vertex -6.000000e+000 -2.172845e+001 -2.886580e-015
    endloop
  endfacet
  facet normal -1.000000e+000  -0.000000e+000  0.000000e+000
    outer loop
      vertex -6.000000e+000 -2.343498e+001  6.000000e+000
      vertex -6.000000e+000 -2.172845e+001 -2.886580e-015
      vertex -6.000000e+000 -2.343498e+001 -6.000000e+000
    endloop
  endfacet
  facet normal -1.000000e+000  0.000000e+000  -0.000000e+000
    outer loop
      vertex -6.000000e+000 -1.696531e+001 -2.750000e+000
      vertex -6.000000e+000 -1.537759e+001 -7.327472e-015
      vertex -6.000000e+000  2.856502e+001 -6.000000e+000
    endloop
  endfacet
  facet normal -1.000000e+000  0.000000e+000  0.000000e+000
    outer loop
      vertex -6.000000e+000  2.856502e+001 -6.000000e+000
      vertex -6.000000e+000 -1.537759e+001 -7.327472e-015
      vertex -6.000000e+000 -1.696531e+001  2.750000e+000
    endloop
  endfacet
  facet normal -9.999999e-001  0.000000e+000  0.000000e+000
    outer loop
      vertex -6.000000e+000  2.856502e+001 -6.000000e+000
      vertex -6.000000e+000 -1.696531e+001  2.750000e+000
      vertex -6.000000e+000  2.856502e+001  6.000000e+000
    endloop
  endfacet
  facet normal -1.000000e+000  -0.000000e+000  0.000000e+000
    outer loop
      vertex -6.000000e+000 -2.172845e+001 -2.886580e-015
      vertex -6.000000e+000 -2.014073e+001 -2.750000e+000
      vertex -6.000000e+000 -2.343498e+001 -6.000000e+000
    endloop
  endfacet
  facet normal -1.000000e+000  0.000000e+000  0.000000e+000
    outer loop
      vertex -6.000000e+000 -2.343498e+001 -6.000000e+000
      vertex -6.000000e+000 -2.014073e+001 -2.750000e+000
      vertex -6.000000e+000 -1.696531e+001 -2.750000e+000
    endloop
  endfacet
  facet normal -1.000000e+000  0.000000e+000  -0.000000e+000
    outer loop
      vertex -6.000000e+000 -2.343498e+001 -6.000000e+000
      vertex -6.000000e+000 -1.696531e+001 -2.750000e+000
      vertex -6.000000e+000  2.856502e+001 -6.000000e+000
    endloop
  endfacet
  facet normal -1.000000e+000  0.000000e+000  0.000000e+000
    outer loop
      vertex -3.000000e+000 -2.014073e+001 -2.750000e+000
      vertex -3.000000e+000 -2.172845e+001 -5.329071e-015
      vertex -3.000000e+000 -1.999234e+001 -4.223093e-001
    endloop
  endfacet
  facet normal -1.000000e+000  0.000000e+000  -0.000000e+000
    outer loop
      vertex -3.000000e+000 -2.014073e+001 -2.750000e+000
      vertex -3.000000e+000 -1.999234e+001 -4.223093e-001
      vertex -3.000000e+000 -1.927216e+001 -1.316374e+000
    endloop
  endfacet
  facet normal -1.000000e+000  0.000000e+000  -0.000000e+000
    outer loop
      vertex -3.000000e+000 -2.014073e+001 -2.750000e+000
      vertex -3.000000e+000 -1.927216e+001 -1.316374e+000
      vertex -3.000000e+000 -1.813071e+001 -1.439324e+000
    endloop
  endfacet
  facet normal -1.000000e+000  0.000000e+000  -0.000000e+000
    outer loop
      vertex -3.000000e+000 -2.014073e+001 -2.750000e+000
      vertex -3.000000e+000 -1.813071e+001 -1.439324e+000
      vertex -3.000000e+000 -1.696531e+001 -2.750000e+000
    endloop
  endfacet
  facet normal -1.000000e+000  0.000000e+000  0.000000e+000
    outer loop
      vertex -3.000000e+000 -1.696531e+001  2.750000e+000
      vertex -3.000000e+000 -1.537759e+001 -3.552714e-015
      vertex -3.000000e+000 -1.711369e+001  4.223093e-001
    endloop
  endfacet
  facet normal -1.000000e+000  0.000000e+000  0.000000e+000
    outer loop
      vertex -3.000000e+000 -1.696531e+001  2.750000e+000
      vertex -3.000000e+000 -1.711369e+001  4.223093e-001
      vertex -3.000000e+000 -1.783388e+001  1.316374e+000
    endloop
  endfacet
  facet normal -1.000000e+000  0.000000e+000  0.000000e+000
    outer loop
      vertex -3.000000e+000 -1.696531e+001  2.750000e+000
      vertex -3.000000e+000 -1.783388e+001  1.316374e+000
      vertex -3.000000e+000 -1.897533e+001  1.439324e+000
    endloop
  endfacet
  facet normal -1.000000e+000  0.000000e+000  0.000000e+000
    outer loop
      vertex -3.000000e+000 -1.696531e+001  2.750000e+000
      vertex -3.000000e+000 -1.897533e+001  1.439324e+000
      vertex -3.000000e+000 -2.014073e+001  2.750000e+000
    endloop
  endfacet
  facet normal -1.000000e+000  0.000000e+000  -0.000000e+000
    outer loop
      vertex -3.000000e+000 -1.813071e+001 -1.439324e+000
      vertex -3.000000e+000 -1.723664e+001 -7.191383e-001
      vertex -3.000000e+000 -1.696531e+001 -2.750000e+000
    endloop
  endfacet
  facet normal -1.000000e+000  0.000000e+000  0.000000e+000
    outer loop
      vertex -3.000000e+000 -1.696531e+001 -2.750000e+000
      vertex -3.000000e+000 -1.723664e+001 -7.191383e-001
      vertex -3.000000e+000 -1.711369e+001  4.223093e-001
    endloop
  endfacet
  facet normal -1.000000e+000  0.000000e+000  0.000000e+000
    outer loop
      vertex -3.000000e+000 -1.696531e+001 -2.750000e+000
      vertex -3.000000e+000 -1.711369e+001  4.223093e-001
      vertex -3.000000e+000 -1.537759e+001 -3.552714e-015
    endloop
  endfacet
  facet normal -1.000000e+000  0.000000e+000  0.000000e+000
    outer loop
      vertex -3.000000e+000 -1.897533e+001  1.439324e+000
      vertex -3.000000e+000 -1.986939e+001  7.191383e-001
      vertex -3.000000e+000 -2.014073e+001  2.750000e+000
    endloop
  endfacet
  facet normal -9.999999e-001  0.000000e+000  0.000000e+000
    outer loop
      vertex -3.000000e+000 -2.014073e+001  2.750000e+000
      vertex -3.000000e+000 -1.986939e+001  7.191383e-001
      vertex -3.000000e+000 -1.999234e+001 -4.223093e-001
    endloop
  endfacet
  facet normal -1.000000e+000  0.000000e+000  0.000000e+000
    outer loop
      vertex -3.000000e+000 -2.014073e+001  2.750000e+000
      vertex -3.000000e+000 -1.999234e+001 -4.223093e-001
      vertex -3.000000e+000 -2.172845e+001 -5.329071e-015
    endloop
  endfacet
  facet normal  -0.000000e+000  0.000000e+000  1.000000e+000
    outer loop
      vertex -3.000000e+000 -1.696531e+001 -2.750000e+000
      vertex -6.000000e+000 -1.696531e+001 -2.750000e+000
      vertex -3.000000e+000 -2.014073e+001 -2.750000e+000
    endloop
  endfacet
  facet normal  0.000000e+000  0.000000e+000  1.000000e+000
    outer loop
      vertex -3.000000e+000 -2.014073e+001 -2.750000e+000
      vertex -6.000000e+000 -1.696531e+001 -2.750000e+000
      vertex -6.000000e+000 -2.014073e+001 -2.750000e+000
    endloop
  endfacet
  facet normal -6.291264e-016 -8.660254e-001  5.000000e-001
    outer loop
      vertex -3.000000e+000 -1.537759e+001 -3.552714e-015
      vertex -6.000000e+000 -1.537759e+001 -7.327472e-015
      vertex -3.000000e+000 -1.696531e+001 -2.750000e+000
    endloop
  endfacet
  facet normal  0.000000e+000 -8.660254e-001  5.000000e-001
    outer loop
      vertex -3.000000e+000 -1.696531e+001 -2.750000e+000
      vertex -6.000000e+000 -1.537759e+001 -7.327472e-015
      vertex -6.000000e+000 -1.696531e+001 -2.750000e+000
    endloop
  endfacet
  facet normal  0.000000e+000 -8.660254e-001 -5.000000e-001
    outer loop
      vertex -3.000000e+000 -1.696531e+001  2.750000e+000
      vertex -6.000000e+000 -1.696531e+001  2.750000e+000
      vertex -3.000000e+000 -1.537759e+001 -3.552714e-015
    endloop
  endfacet
  facet normal  6.291264e-016 -8.660254e-001 -5.000000e-001
    outer loop
      vertex -3.000000e+000 -1.537759e+001 -3.552714e-015
      vertex -6.000000e+000 -1.696531e+001  2.750000e+000
      vertex -6.000000e+000 -1.537759e+001 -7.327472e-015
    endloop
  endfacet
  facet normal  0.000000e+000  0.000000e+000 -1.000000e+000
    outer loop
      vertex -3.000000e+000 -2.014073e+001  2.750000e+000
      vertex -6.000000e+000 -2.014073e+001  2.750000e+000
      vertex -3.000000e+000 -1.696531e+001  2.750000e+000
    endloop
  endfacet
  facet normal  -0.000000e+000  0.000000e+000 -1.000000e+000
    outer loop
      vertex -3.000000e+000 -1.696531e+001  2.750000e+000
      vertex -6.000000e+000 -2.014073e+001  2.750000e+000
      vertex -6.000000e+000 -1.696531e+001  2.750000e+000
    endloop
  endfacet
  facet normal -4.070818e-016  8.660254e-001 -5.000000e-001
    outer loop
      vertex -3.000000e+000 -2.172845e+001 -5.329071e-015
      vertex -6.000000e+000 -2.172845e+001 -2.886580e-015
      vertex -3.000000e+000 -2.014073e+001  2.750000e+000
    endloop
  endfacet
  facet normal  0.000000e+000  8.660254e-001 -5.000000e-001
    outer loop
      vertex -3.000000e+000 -2.014073e+001  2.750000e+000
      vertex -6.000000e+000 -2.172845e+001 -2.886580e-015
      vertex -6.000000e+000 -2.014073e+001  2.750000e+000
    endloop
  endfacet
  facet normal  -0.000000e+000  8.660254e-001  5.000000e-001
    outer loop
      vertex -3.000000e+000 -2.014073e+001 -2.750000e+000
      vertex -6.000000e+000 -2.014073e+001 -2.750000e+000
      vertex -3.000000e+000 -2.172845e+001 -5.329071e-015
    endloop
  endfacet
  facet normal  4.070818e-016  8.660254e-001  5.000000e-001
    outer loop
      vertex -3.000000e+000 -2.172845e+001 -5.329071e-015
      vertex -6.000000e+000 -2.014073e+001 -2.750000e+000
      vertex -6.000000e+000 -2.172845e+001 -2.886580e-015
    endloop
  endfacet
  facet normal  1.000000e+000  0.000000e+000  0.000000e+000
    outer loop
      vertex -1.000000e+000 -1.367105e+001 -6.000000e+000
      vertex -1.000000e+000 -1.367105e+001  6.000000e+000
      vertex -1.000000e+000 -1.711369e+001  4.223093e-001
    endloop
  endfacet
  facet normal  1.000000e+000  0.000000e+000  0.000000e+000
    outer loop
      vertex -1.000000e+000 -1.367105e+001 -6.000000e+000
      vertex -1.000000e+000 -1.711369e+001  4.223093e-001
      vertex -1.000000e+000 -1.723664e+001 -7.191383e-001
    endloop
  endfacet
  facet normal  9.999999e-001  0.000000e+000  0.000000e+000
    outer loop
      vertex -1.000000e+000 -1.367105e+001 -6.000000e+000
      vertex -1.000000e+000 -1.723664e+001 -7.191383e-001
      vertex -1.000000e+000 -1.813071e+001 -1.439324e+000
    endloop
  endfacet
  facet normal  1.000000e+000  0.000000e+000  0.000000e+000
    outer loop
      vertex -1.000000e+000 -1.367105e+001 -6.000000e+000
      vertex -1.000000e+000 -1.813071e+001 -1.439324e+000
      vertex -1.000000e+000 -1.927216e+001 -1.316374e+000
    endloop
  endfacet
  facet normal  1.000000e+000  0.000000e+000  0.000000e+000
    outer loop
      vertex -1.000000e+000 -1.367105e+001 -6.000000e+000
      vertex -1.000000e+000 -1.927216e+001 -1.316374e+000
      vertex -1.000000e+000 -2.343498e+001 -6.000000e+000
    endloop
  endfacet
  facet normal  9.999999e-001  -0.000000e+000  0.000000e+000
    outer loop
      vertex -1.000000e+000 -1.367105e+001  6.000000e+000
      vertex -1.000000e+000 -2.343498e+001  6.000000e+000
      vertex -1.000000e+000 -1.986939e+001  7.191383e-001
    endloop
  endfacet
  facet normal  1.000000e+000  0.000000e+000  0.000000e+000
    outer loop
      vertex -1.000000e+000 -1.367105e+001  6.000000e+000
      vertex -1.000000e+000 -1.986939e+001  7.191383e-001
      vertex -1.000000e+000 -1.897533e+001  1.439324e+000
    endloop
  endfacet
  facet normal  1.000000e+000  -0.000000e+000  0.000000e+000
    outer loop
      vertex -1.000000e+000 -1.367105e+001  6.000000e+000
      vertex -1.000000e+000 -1.897533e+001  1.439324e+000
      vertex -1.000000e+000 -1.783388e+001  1.316374e+000
    endloop
  endfacet
  facet normal  1.000000e+000  -0.000000e+000  0.000000e+000
    outer loop
      vertex -1.000000e+000 -1.367105e+001  6.000000e+000
      vertex -1.000000e+000 -1.783388e+001  1.316374e+000
      vertex -1.000000e+000 -1.711369e+001  4.223093e-001
    endloop
  endfacet
  facet normal  1.000000e+000  0.000000e+000  0.000000e+000
    outer loop
      vertex -1.000000e+000 -1.927216e+001 -1.316374e+000
      vertex -1.000000e+000 -1.999234e+001 -4.223093e-001
      vertex -1.000000e+000 -2.343498e+001 -6.000000e+000
    endloop
  endfacet
  facet normal  1.000000e+000  0.000000e+000  0.000000e+000
    outer loop
      vertex -1.000000e+000 -2.343498e+001 -6.000000e+000
      vertex -1.000000e+000 -1.999234e+001 -4.223093e-001
      vertex -1.000000e+000 -1.986939e+001  7.191383e-001
    endloop
  endfacet
  facet normal  1.000000e+000  0.000000e+000  0.000000e+000
    outer loop
      vertex -1.000000e+000 -2.343498e+001 -6.000000e+000
      vertex -1.000000e+000 -1.986939e+001  7.191383e-001
      vertex -1.000000e+000 -2.343498e+001  6.000000e+000
    endloop
  endfacet
  facet normal -1.000000e+000  0.000000e+000  0.000000e+000
    outer loop
      vertex  1.000000e+000 -1.367105e+001 -6.000000e+000
      vertex  1.000000e+000 -2.343498e+001 -6.000000e+000
      vertex  1.000000e+000 -1.927216e+001 -1.316374e+000
    endloop
  endfacet
  facet normal -1.000000e+000  0.000000e+000  0.000000e+000
    outer loop
      vertex  1.000000e+000 -1.367105e+001 -6.000000e+000
      vertex  1.000000e+000 -1.927216e+001 -1.316374e+000
      vertex  1.000000e+000 -1.813071e+001 -1.439324e+000
    endloop
  endfacet
  facet normal -1.000000e+000  0.000000e+000  0.000000e+000
    outer loop
      vertex  1.000000e+000 -1.367105e+001 -6.000000e+000
      vertex  1.000000e+000 -1.813071e+001 -1.439324e+000
      vertex  1.000000e+000 -1.723664e+001 -7.191383e-001
    endloop
  endfacet
  facet normal -1.000000e+000  0.000000e+000  0.000000e+000
    outer loop
      vertex  1.000000e+000 -1.367105e+001 -6.000000e+000
      vertex  1.000000e+000 -1.723664e+001 -7.191383e-001
      vertex  1.000000e+000 -1.711369e+001  4.223093e-001
    endloop
  endfacet
  facet normal -1.000000e+000  0.000000e+000  0.000000e+000
    outer loop
      vertex  1.000000e+000 -1.367105e+001 -6.000000e+000
      vertex  1.000000e+000 -1.711369e+001  4.223093e-001
      vertex  1.000000e+000 -1.367105e+001  6.000000e+000
    endloop
  endfacet
  facet normal -1.000000e+000  0.000000e+000  0.000000e+000
    outer loop
      vertex  1.000000e+000 -1.367105e+001  6.000000e+000
      vertex  1.000000e+000 -1.711369e+001  4.223093e-001
      vertex  1.000000e+000 -1.783388e+001  1.316374e+000
    endloop
  endfacet
  facet normal -1.000000e+000  0.000000e+000  0.000000e+000
    outer loop
      vertex  1.000000e+000 -1.367105e+001  6.000000e+000
      vertex  1.000000e+000 -1.783388e+001  1.316374e+000
      vertex  1.000000e+000 -1.897533e+001  1.439324e+000
    endloop
  endfacet
  facet normal -1.000000e+000  -0.000000e+000  0.000000e+000
    outer loop
      vertex  1.000000e+000 -1.367105e+001  6.000000e+000
      vertex  1.000000e+000 -1.897533e+001  1.439324e+000
      vertex  1.000000e+000 -1.986939e+001  7.191383e-001
    endloop
  endfacet
  facet normal -9.999999e-001  0.000000e+000  0.000000e+000
    outer loop
      vertex  1.000000e+000 -1.367105e+001  6.000000e+000
      vertex  1.000000e+000 -1.986939e+001  7.191383e-001
      vertex  1.000000e+000 -2.343498e+001  6.000000e+000
    endloop
  endfacet
  facet normal -1.000000e+000  -0.000000e+000  0.000000e+000
    outer loop
      vertex  1.000000e+000 -2.343498e+001  6.000000e+000
      vertex  1.000000e+000 -1.986939e+001  7.191383e-001
      vertex  1.000000e+000 -2.343498e+001 -6.000000e+000
    endloop
  endfacet
  facet normal -1.000000e+000  0.000000e+000  0.000000e+000
    outer loop
      vertex  1.000000e+000 -2.343498e+001 -6.000000e+000
      vertex  1.000000e+000 -1.986939e+001  7.191383e-001
      vertex  1.000000e+000 -1.999234e+001 -4.223093e-001
    endloop
  endfacet
  facet normal -1.000000e+000  0.000000e+000  -0.000000e+000
    outer loop
      vertex  1.000000e+000 -2.343498e+001 -6.000000e+000
      vertex  1.000000e+000 -1.999234e+001 -4.223093e-001
      vertex  1.000000e+000 -1.927216e+001 -1.316374e+000
    endloop
  endfacet
  facet normal  9.999999e-001  0.000000e+000  0.000000e+000
    outer loop
      vertex  6.000000e+000 -2.343498e+001  6.000000e+000
      vertex  6.000000e+000 -2.343498e+001 -6.000000e+000
      vertex  6.000000e+000 -2.152835e+001 -3.839000e-001
    endloop
  endfacet
  facet normal  1.000000e+000  0.000000e+000  -0.000000e+000
    outer loop
      vertex  6.000000e+000 -2.343498e+001  6.000000e+000
      vertex  6.000000e+000 -2.152835e+001 -3.839000e-001
      vertex  6.000000e+000 -2.118577e+001  1.438277e+000
    endloop
  endfacet
  facet normal  1.000000e+000  0.000000e+000  -0.000000e+000
    outer loop
      vertex  6.000000e+000 -2.343498e+001  6.000000e+000
      vertex  6.000000e+000 -2.118577e+001  1.438277e+000
      vertex  6.000000e+000 -1.983756e+001  2.711081e+000
    endloop
  endfacet
  facet normal  1.000000e+000  0.000000e+000  -0.000000e+000
    outer loop
      vertex  6.000000e+000 -2.343498e+001  6.000000e+000
      vertex  6.000000e+000 -1.983756e+001  2.711081e+000
      vertex  6.000000e+000 -1.799870e+001  2.948344e+000
    endloop
  endfacet
  facet normal  1.000000e+000  0.000000e+000  0.000000e+000
    outer loop
      vertex  6.000000e+000  2.856502e+001 -6.000000e+000
      vertex  6.000000e+000 -1.557768e+001  3.839000e-001
      vertex  6.000000e+000 -1.592027e+001 -1.438277e+000
    endloop
  endfacet
  facet normal  1.000000e+000  0.000000e+000  0.000000e+000
    outer loop
      vertex  6.000000e+000  2.856502e+001 -6.000000e+000
      vertex  6.000000e+000 -1.592027e+001 -1.438277e+000
      vertex  6.000000e+000 -1.726848e+001 -2.711081e+000
    endloop
  endfacet
  facet normal  1.000000e+000  0.000000e+000  0.000000e+000
    outer loop
      vertex  6.000000e+000  2.856502e+001 -6.000000e+000
      vertex  6.000000e+000 -1.726848e+001 -2.711081e+000
      vertex  6.000000e+000 -1.910734e+001 -2.948344e+000
    endloop
  endfacet
  facet normal  1.000000e+000  -0.000000e+000  0.000000e+000
    outer loop
      vertex  6.000000e+000  2.856502e+001  6.000000e+000
      vertex  6.000000e+000 -2.343498e+001  6.000000e+000
      vertex  6.000000e+000 -1.799870e+001  2.948344e+000
    endloop
  endfacet
  facet normal  1.000000e+000  -0.000000e+000  0.000000e+000
    outer loop
      vertex  6.000000e+000  2.856502e+001  6.000000e+000
      vertex  6.000000e+000 -1.799870e+001  2.948344e+000
      vertex  6.000000e+000 -1.637157e+001  2.059440e+000
    endloop
  endfacet
  facet normal  1.000000e+000  -0.000000e+000  0.000000e+000
    outer loop
      vertex  6.000000e+000  2.856502e+001  6.000000e+000
      vertex  6.000000e+000 -1.637157e+001  2.059440e+000
      vertex  6.000000e+000 -1.557768e+001  3.839000e-001
    endloop
  endfacet
  facet normal  1.000000e+000  -0.000000e+000  0.000000e+000
    outer loop
      vertex  6.000000e+000  2.856502e+001  6.000000e+000
      vertex  6.000000e+000 -1.557768e+001  3.839000e-001
      vertex  6.000000e+000  2.856502e+001 -6.000000e+000
    endloop
  endfacet
  facet normal  1.000000e+000  0.000000e+000  0.000000e+000
    outer loop
      vertex  6.000000e+000 -2.343498e+001 -6.000000e+000
      vertex  6.000000e+000  2.856502e+001 -6.000000e+000
      vertex  6.000000e+000 -1.910734e+001 -2.948344e+000
    endloop
  endfacet
  facet normal  1.000000e+000  0.000000e+000  0.000000e+000
    outer loop
      vertex  6.000000e+000 -2.343498e+001 -6.000000e+000
      vertex  6.000000e+000 -1.910734e+001 -2.948344e+000
      vertex  6.000000e+000 -2.073446e+001 -2.059440e+000
    endloop
  endfacet
  facet normal  1.000000e+000  0.000000e+000  0.000000e+000
    outer loop
      vertex  6.000000e+000 -2.343498e+001 -6.000000e+000
      vertex  6.000000e+000 -2.073446e+001 -2.059440e+000
      vertex  6.000000e+000 -2.152835e+001 -3.839000e-001
    endloop
  endfacet
  facet normal  -0.000000e+000  7.787678e-001  6.273124e-001
    outer loop
      vertex  4.000000e+000 -1.927216e+001 -1.316374e+000
      vertex  1.000000e+000 -1.999234e+001 -4.223093e-001
      vertex  4.000000e+000 -1.999234e+001 -4.223093e-001
    endloop
  endfacet
  facet normal  0.000000e+000  9.942488e-001 -1.070943e-001
    outer loop
      vertex  4.000000e+000 -1.999234e+001 -4.223093e-001
      vertex  1.000000e+000 -1.999234e+001 -4.223093e-001
      vertex  1.000000e+000 -1.986939e+001  7.191383e-001
    endloop
  endfacet
  facet normal  0.000000e+000  9.942488e-001 -1.070943e-001
    outer loop
      vertex  4.000000e+000 -1.999234e+001 -4.223093e-001
      vertex  1.000000e+000 -1.986939e+001  7.191383e-001
      vertex  4.000000e+000 -1.986939e+001  7.191383e-001
    endloop
  endfacet
  facet normal  0.000000e+000  7.787678e-001  6.273124e-001
    outer loop
      vertex  1.000000e+000 -1.999234e+001 -4.223093e-001
      vertex  4.000000e+000 -1.927216e+001 -1.316374e+000
      vertex  1.000000e+000 -1.927216e+001 -1.316374e+000
    endloop
  endfacet
  facet normal  -0.000000e+000  1.070952e-001  9.942487e-001
    outer loop
      vertex  1.000000e+000 -1.927216e+001 -1.316374e+000
      vertex  4.000000e+000 -1.927216e+001 -1.316374e+000
      vertex  4.000000e+000 -1.813071e+001 -1.439324e+000
    endloop
  endfacet
  facet normal  0.000000e+000  1.070952e-001  9.942487e-001
    outer loop
      vertex  1.000000e+000 -1.927216e+001 -1.316374e+000
      vertex  4.000000e+000 -1.813071e+001 -1.439324e+000
      vertex  1.000000e+000 -1.813071e+001 -1.439324e+000
    endloop
  endfacet
  facet normal  0.000000e+000 -6.273127e-001  7.787676e-001
    outer loop
      vertex  1.000000e+000 -1.813071e+001 -1.439324e+000
      vertex  4.000000e+000 -1.813071e+001 -1.439324e+000
      vertex  4.000000e+000 -1.723664e+001 -7.191383e-001
    endloop
  endfacet
  facet normal  0.000000e+000 -6.273127e-001  7.787676e-001
    outer loop
      vertex  1.000000e+000 -1.813071e+001 -1.439324e+000
      vertex  4.000000e+000 -1.723664e+001 -7.191383e-001
      vertex  1.000000e+000 -1.723664e+001 -7.191383e-001
    endloop
  endfacet
  facet normal  0.000000e+000 -7.787678e-001 -6.273124e-001
    outer loop
      vertex  4.000000e+000 -1.783388e+001  1.316374e+000
      vertex  1.000000e+000 -1.711369e+001  4.223093e-001
      vertex  4.000000e+000 -1.711369e+001  4.223093e-001
    endloop
  endfacet
  facet normal  0.000000e+000 -9.942486e-001  1.070959e-001
    outer loop
      vertex  4.000000e+000 -1.711369e+001  4.223093e-001
      vertex  1.000000e+000 -1.711369e+001  4.223093e-001
      vertex  1.000000e+000 -1.723664e+001 -7.191383e-001
    endloop
  endfacet
  facet normal  0.000000e+000 -9.942486e-001  1.070959e-001
    outer loop
      vertex  4.000000e+000 -1.711369e+001  4.223093e-001
      vertex  1.000000e+000 -1.723664e+001 -7.191383e-001
      vertex  4.000000e+000 -1.723664e+001 -7.191383e-001
    endloop
  endfacet
  facet normal  -0.000000e+000 -7.787678e-001 -6.273124e-001
    outer loop
      vertex  1.000000e+000 -1.711369e+001  4.223093e-001
      vertex  4.000000e+000 -1.783388e+001  1.316374e+000
      vertex  1.000000e+000 -1.783388e+001  1.316374e+000
    endloop
  endfacet
  facet normal  0.000000e+000 -1.070951e-001 -9.942488e-001
    outer loop
      vertex  1.000000e+000 -1.783388e+001  1.316374e+000
      vertex  4.000000e+000 -1.783388e+001  1.316374e+000
      vertex  4.000000e+000 -1.897533e+001  1.439324e+000
    endloop
  endfacet
  facet normal  -0.000000e+000 -1.070951e-001 -9.942488e-001
    outer loop
      vertex  1.000000e+000 -1.783388e+001  1.316374e+000
      vertex  4.000000e+000 -1.897533e+001  1.439324e+000
      vertex  1.000000e+000 -1.897533e+001  1.439324e+000
    endloop
  endfacet
  facet normal  0.000000e+000  6.273127e-001 -7.787676e-001
    outer loop
      vertex  1.000000e+000 -1.897533e+001  1.439324e+000
      vertex  4.000000e+000 -1.897533e+001  1.439324e+000
      vertex  4.000000e+000 -1.986939e+001  7.191383e-001
    endloop
  endfacet
  facet normal  0.000000e+000  6.273127e-001 -7.787676e-001
    outer loop
      vertex  1.000000e+000 -1.897533e+001  1.439324e+000
      vertex  4.000000e+000 -1.986939e+001  7.191383e-001
      vertex  1.000000e+000 -1.986939e+001  7.191383e-001
    endloop
  endfacet
  facet normal  -0.000000e+000  9.036938e-001  4.281794e-001
    outer loop
      vertex  6.000000e+000 -2.073446e+001 -2.059440e+000
      vertex  4.000000e+000 -2.152835e+001 -3.839000e-001
      vertex  6.000000e+000 -2.152835e+001 -3.839000e-001
    endloop
  endfacet
  facet normal  0.000000e+000  9.827814e-001 -1.847722e-001
    outer loop
      vertex  6.000000e+000 -2.152835e+001 -3.839000e-001
      vertex  4.000000e+000 -2.152835e+001 -3.839000e-001
      vertex  4.000000e+000 -2.118577e+001  1.438277e+000
    endloop
  endfacet
  facet normal  0.000000e+000  9.827814e-001 -1.847722e-001
    outer loop
      vertex  6.000000e+000 -2.152835e+001 -3.839000e-001
      vertex  4.000000e+000 -2.118577e+001  1.438277e+000
      vertex  6.000000e+000 -2.118577e+001  1.438277e+000
    endloop
  endfacet
  facet normal  0.000000e+000  9.036938e-001  4.281794e-001
    outer loop
      vertex  4.000000e+000 -2.152835e+001 -3.839000e-001
      vertex  6.000000e+000 -2.073446e+001 -2.059440e+000
      vertex  4.000000e+000 -2.073446e+001 -2.059440e+000
    endloop
  endfacet
  facet normal  -0.000000e+000  4.794253e-001  8.775827e-001
    outer loop
      vertex  4.000000e+000 -2.073446e+001 -2.059440e+000
      vertex  6.000000e+000 -2.073446e+001 -2.059440e+000
      vertex  6.000000e+000 -1.910734e+001 -2.948344e+000
    endloop
  endfacet
  facet normal  0.000000e+000  4.794253e-001  8.775827e-001
    outer loop
      vertex  4.000000e+000 -2.073446e+001 -2.059440e+000
      vertex  6.000000e+000 -1.910734e+001 -2.948344e+000
      vertex  4.000000e+000 -1.910734e+001 -2.948344e+000
    endloop
  endfacet
  facet normal  0.000000e+000 -1.279667e-001  9.917785e-001
    outer loop
      vertex  4.000000e+000 -1.910734e+001 -2.948344e+000
      vertex  6.000000e+000 -1.910734e+001 -2.948344e+000
      vertex  6.000000e+000 -1.726848e+001 -2.711081e+000
    endloop
  endfacet
  facet normal  0.000000e+000 -1.279667e-001  9.917785e-001
    outer loop
      vertex  4.000000e+000 -1.910734e+001 -2.948344e+000
      vertex  6.000000e+000 -1.726848e+001 -2.711081e+000
      vertex  4.000000e+000 -1.726848e+001 -2.711081e+000
    endloop
  endfacet
  facet normal  0.000000e+000 -6.864800e-001  7.271486e-001
    outer loop
      vertex  4.000000e+000 -1.726848e+001 -2.711081e+000
      vertex  6.000000e+000 -1.726848e+001 -2.711081e+000
      vertex  6.000000e+000 -1.592027e+001 -1.438277e+000
    endloop
  endfacet
  facet normal  0.000000e+000 -6.864800e-001  7.271486e-001
    outer loop
      vertex  4.000000e+000 -1.726848e+001 -2.711081e+000
      vertex  6.000000e+000 -1.592027e+001 -1.438277e+000
      vertex  4.000000e+000 -1.592027e+001 -1.438277e+000
    endloop
  endfacet
  facet normal  0.000000e+000 -9.036934e-001 -4.281803e-001
    outer loop
      vertex  6.000000e+000 -1.637157e+001  2.059440e+000
      vertex  4.000000e+000 -1.557768e+001  3.839000e-001
      vertex  6.000000e+000 -1.557768e+001  3.839000e-001
    endloop
  endfacet
  facet normal  0.000000e+000 -9.827812e-001  1.847732e-001
    outer loop
      vertex  6.000000e+000 -1.557768e+001  3.839000e-001
      vertex  4.000000e+000 -1.557768e+001  3.839000e-001
      vertex  4.000000e+000 -1.592027e+001 -1.438277e+000
    endloop
  endfacet
  facet normal  0.000000e+000 -9.827812e-001  1.847732e-001
    outer loop
      vertex  6.000000e+000 -1.557768e+001  3.839000e-001
      vertex  4.000000e+000 -1.592027e+001 -1.438277e+000
      vertex  6.000000e+000 -1.592027e+001 -1.438277e+000
    endloop
  endfacet
  facet normal  -0.000000e+000 -9.036934e-001 -4.281803e-001
    outer loop
      vertex  4.000000e+000 -1.557768e+001  3.839000e-001
      vertex  6.000000e+000 -1.637157e+001  2.059440e+000
      vertex  4.000000e+000 -1.637157e+001  2.059440e+000
    endloop
  endfacet
  facet normal  0.000000e+000 -4.794257e-001 -8.775824e-001
    outer loop
      vertex  4.000000e+000 -1.637157e+001  2.059440e+000
      vertex  6.000000e+000 -1.637157e+001  2.059440e+000
      vertex  6.000000e+000 -1.799870e+001  2.948344e+000
    endloop
  endfacet
  facet normal  -0.000000e+000 -4.794257e-001 -8.775824e-001
    outer loop
      vertex  4.000000e+000 -1.637157e+001  2.059440e+000
      vertex  6.000000e+000 -1.799870e+001  2.948344e+000
      vertex  4.000000e+000 -1.799870e+001  2.948344e+000
    endloop
  endfacet
  facet normal  0.000000e+000  1.279666e-001 -9.917784e-001
    outer loop
      vertex  4.000000e+000 -1.799870e+001  2.948344e+000
      vertex  6.000000e+000 -1.799870e+001  2.948344e+000
      vertex  6.000000e+000 -1.983756e+001  2.711081e+000
    endloop
  endfacet
  facet normal  0.000000e+000  1.279666e-001 -9.917784e-001
    outer loop
      vertex  4.000000e+000 -1.799870e+001  2.948344e+000
      vertex  6.000000e+000 -1.983756e+001  2.711081e+000
      vertex  4.000000e+000 -1.983756e+001  2.711081e+000
    endloop
  endfacet
  facet normal  0.000000e+000  6.864800e-001 -7.271486e-001
    outer loop
      vertex  4.000000e+000 -1.983756e+001  2.711081e+000
      vertex  6.000000e+000 -1.983756e+001  2.711081e+000
      vertex  6.000000e+000 -2.118577e+001  1.438277e+000
    endloop
  endfacet
  facet normal  0.000000e+000  6.864800e-001 -7.271486e-001
    outer loop
      vertex  4.000000e+000 -1.983756e+001  2.711081e+000
      vertex  6.000000e+000 -2.118577e+001  1.438277e+000
      vertex  4.000000e+000 -2.118577e+001  1.438277e+000
    endloop
  endfacet
  facet normal  1.000000e+000  -0.000000e+000  0.000000e+000
    outer loop
      vertex  4.000000e+000 -2.118577e+001  1.438277e+000
      vertex  4.000000e+000 -2.152835e+001 -3.839000e-001
      vertex  4.000000e+000 -1.999234e+001 -4.223093e-001
    endloop
  endfacet
  facet normal  1.000000e+000  0.000000e+000  -0.000000e+000
    outer loop
      vertex  4.000000e+000 -2.118577e+001  1.438277e+000
      vertex  4.000000e+000 -1.999234e+001 -4.223093e-001
      vertex  4.000000e+000 -1.986939e+001  7.191383e-001
    endloop
  endfacet
  facet normal  9.999999e-001  0.000000e+000  -0.000000e+000
    outer loop
      vertex  4.000000e+000 -2.118577e+001  1.438277e+000
      vertex  4.000000e+000 -1.986939e+001  7.191383e-001
      vertex  4.000000e+000 -1.897533e+001  1.439324e+000
    endloop
  endfacet
  facet normal  1.000000e+000  0.000000e+000  0.000000e+000
    outer loop
      vertex  4.000000e+000 -2.118577e+001  1.438277e+000
      vertex  4.000000e+000 -1.897533e+001  1.439324e+000
      vertex  4.000000e+000 -1.983756e+001  2.711081e+000
    endloop
  endfacet
  facet normal  9.999999e-001  0.000000e+000  -0.000000e+000
    outer loop
      vertex  4.000000e+000 -1.983756e+001  2.711081e+000
      vertex  4.000000e+000 -1.897533e+001  1.439324e+000
      vertex  4.000000e+000 -1.799870e+001  2.948344e+000
    endloop
  endfacet
  facet normal  1.000000e+000  0.000000e+000  0.000000e+000
    outer loop
      vertex  4.000000e+000 -1.799870e+001  2.948344e+000
      vertex  4.000000e+000 -1.897533e+001  1.439324e+000
      vertex  4.000000e+000 -1.783388e+001  1.316374e+000
    endloop
  endfacet
  facet normal  1.000000e+000  0.000000e+000  -0.000000e+000
    outer loop
      vertex  4.000000e+000 -1.799870e+001  2.948344e+000
      vertex  4.000000e+000 -1.783388e+001  1.316374e+000
      vertex  4.000000e+000 -1.637157e+001  2.059440e+000
    endloop
  endfacet
  facet normal  1.000000e+000  0.000000e+000  0.000000e+000
    outer loop
      vertex  4.000000e+000 -1.637157e+001  2.059440e+000
      vertex  4.000000e+000 -1.783388e+001  1.316374e+000
      vertex  4.000000e+000 -1.711369e+001  4.223093e-001
    endloop
  endfacet
  facet normal  1.000000e+000  -0.000000e+000  0.000000e+000
    outer loop
      vertex  4.000000e+000 -1.637157e+001  2.059440e+000
      vertex  4.000000e+000 -1.711369e+001  4.223093e-001
      vertex  4.000000e+000 -1.557768e+001  3.839000e-001
    endloop
  endfacet
  facet normal  1.000000e+000  0.000000e+000  -0.000000e+000
    outer loop
      vertex  4.000000e+000 -1.813071e+001 -1.439324e+000
      vertex  4.000000e+000 -1.726848e+001 -2.711081e+000
      vertex  4.000000e+000 -1.592027e+001 -1.438277e+000
    endloop
  endfacet
  facet normal  1.000000e+000  0.000000e+000  0.000000e+000
    outer loop
      vertex  4.000000e+000 -1.726848e+001 -2.711081e+000
      vertex  4.000000e+000 -1.813071e+001 -1.439324e+000
      vertex  4.000000e+000 -1.910734e+001 -2.948344e+000
    endloop
  endfacet
  facet normal  1.000000e+000  0.000000e+000  -0.000000e+000
    outer loop
      vertex  4.000000e+000 -1.910734e+001 -2.948344e+000
      vertex  4.000000e+000 -1.813071e+001 -1.439324e+000
      vertex  4.000000e+000 -1.927216e+001 -1.316374e+000
    endloop
  endfacet
  facet normal  1.000000e+000  0.000000e+000  0.000000e+000
    outer loop
      vertex  4.000000e+000 -1.910734e+001 -2.948344e+000
      vertex  4.000000e+000 -1.927216e+001 -1.316374e+000
      vertex  4.000000e+000 -2.073446e+001 -2.059440e+000
    endloop
  endfacet
  facet normal  1.000000e+000  0.000000e+000  0.000000e+000
    outer loop
      vertex  4.000000e+000 -2.073446e+001 -2.059440e+000
      vertex  4.000000e+000 -1.927216e+001 -1.316374e+000
      vertex  4.000000e+000 -1.999234e+001 -4.223093e-001
    endloop
  endfacet
  facet normal  1.000000e+000  0.000000e+000  0.000000e+000
    outer loop
      vertex  4.000000e+000 -2.073446e+001 -2.059440e+000
      vertex  4.000000e+000 -1.999234e+001 -4.223093e-001
      vertex  4.000000e+000 -2.152835e+001 -3.839000e-001
    endloop
  endfacet
  facet normal  1.000000e+000  0.000000e+000  0.000000e+000
    outer loop
      vertex  4.000000e+000 -1.711369e+001  4.223093e-001
      vertex  4.000000e+000 -1.723664e+001 -7.191383e-001
      vertex  4.000000e+000 -1.557768e+001  3.839000e-001
    endloop
  endfacet
  facet normal  1.000000e+000  0.000000e+000  0.000000e+000
    outer loop
      vertex  4.000000e+000 -1.557768e+001  3.839000e-001
      vertex  4.000000e+000 -1.723664e+001 -7.191383e-001
      vertex  4.000000e+000 -1.813071e+001 -1.439324e+000
    endloop
  endfacet
  facet normal  1.000000e+000  0.000000e+000  0.000000e+000
    outer loop
      vertex  4.000000e+000 -1.557768e+001  3.839000e-001
      vertex  4.000000e+000 -1.813071e+001 -1.439324e+000
      vertex  4.000000e+000 -1.592027e+001 -1.438277e+000
    endloop
  endfacet
  facet normal  0.000000e+000  -0.000000e+000  1.000000e+000
    outer loop
      vertex -3.000000e+000 -2.343498e+001  6.000000e+000
      vertex -1.000000e+000 -2.343498e+001  6.000000e+000
      vertex -1.000000e+000 -1.367105e+001  6.000000e+000
    endloop
  endfacet
  facet normal  0.000000e+000  0.000000e+000  1.000000e+000
    outer loop
      vertex -3.521151e+000  4.355582e+001  6.000000e+000
      vertex  3.521151e+000  4.355582e+001  6.000000e+000
      vertex -1.323185e-014  4.427322e+001  6.000000e+000
    endloop
  endfacet
  facet normal  0.000000e+000  -0.000000e+000  1.000000e+000
    outer loop
      vertex -8.407551e+000  3.848462e+001  6.000000e+000
      vertex -3.971933e+000  3.907766e+001  6.000000e+000
      vertex -1.461605e+000  4.057545e+001  6.000000e+000
    endloop
  endfacet
  facet normal  0.000000e+000  0.000000e+000  1.000000e+000
    outer loop
      vertex  3.000000e+000 -2.343498e+001  6.000000e+000
      vertex  1.000000e+000 -1.367105e+001  6.000000e+000
      vertex  1.000000e+000 -2.343498e+001  6.000000e+000
    endloop
  endfacet
  facet normal  0.000000e+000  -0.000000e+000  1.000000e+000
    outer loop
      vertex -6.000000e+000 -2.343498e+001  6.000000e+000
      vertex -3.000000e+000 -2.343498e+001  6.000000e+000
      vertex -1.000000e+000 -1.367105e+001  6.000000e+000
    endloop
  endfacet
  facet normal  0.000000e+000  0.000000e+000  1.000000e+000
    outer loop
      vertex -6.000000e+000 -2.343498e+001  6.000000e+000
      vertex -1.000000e+000 -1.367105e+001  6.000000e+000
      vertex -3.000000e+000 -1.367105e+001  6.000000e+000
    endloop
  endfacet
  facet normal  0.000000e+000  -0.000000e+000  1.000000e+000
    outer loop
      vertex -6.000000e+000 -2.343498e+001  6.000000e+000
      vertex -3.000000e+000 -1.367105e+001  6.000000e+000
      vertex -3.000000e+000  2.678794e+001  6.000000e+000
    endloop
  endfacet
  facet normal  0.000000e+000  0.000000e+000  1.000000e+000
    outer loop
      vertex -6.000000e+000 -2.343498e+001  6.000000e+000
      vertex -3.000000e+000  2.678794e+001  6.000000e+000
      vertex -6.000000e+000  2.856502e+001  6.000000e+000
    endloop
  endfacet
  facet normal  0.000000e+000  0.000000e+000  1.000000e+000
    outer loop
      vertex -6.480954e+000  4.151800e+001  6.000000e+000
      vertex -8.407551e+000  3.848462e+001  6.000000e+000
      vertex -1.461605e+000  4.057545e+001  6.000000e+000
    endloop
  endfacet
  facet normal  0.000000e+000  -0.000000e+000  1.000000e+000
    outer loop
      vertex -6.480954e+000  4.151800e+001  6.000000e+000
      vertex -1.461605e+000  4.057545e+001  6.000000e+000
      vertex  1.461605e+000  4.057545e+001  6.000000e+000
    endloop
  endfacet
  facet normal  0.000000e+000  -0.000000e+000  1.000000e+000
    outer loop
      vertex -6.480954e+000  4.151800e+001  6.000000e+000
      vertex  1.461605e+000  4.057545e+001  6.000000e+000
      vertex  6.480954e+000  4.151800e+001  6.000000e+000
    endloop
  endfacet
  facet normal  0.000000e+000  0.000000e+000  9.999999e-001
    outer loop
      vertex -6.480954e+000  4.151800e+001  6.000000e+000
      vertex  6.480954e+000  4.151800e+001  6.000000e+000
      vertex  3.521151e+000  4.355582e+001  6.000000e+000
    endloop
  endfacet
  facet normal  0.000000e+000  0.000000e+000  9.999999e-001
    outer loop
      vertex -6.480954e+000  4.151800e+001  6.000000e+000
      vertex  3.521151e+000  4.355582e+001  6.000000e+000
      vertex -3.521151e+000  4.355582e+001  6.000000e+000
    endloop
  endfacet
  facet normal  0.000000e+000  0.000000e+000  1.000000e+000
    outer loop
      vertex  6.000000e+000 -2.343498e+001  6.000000e+000
      vertex  6.000000e+000  2.856502e+001  6.000000e+000
      vertex  3.000000e+000  2.678794e+001  6.000000e+000
    endloop
  endfacet
  facet normal  0.000000e+000  0.000000e+000  1.000000e+000
    outer loop
      vertex  6.000000e+000 -2.343498e+001  6.000000e+000
      vertex  3.000000e+000  2.678794e+001  6.000000e+000
      vertex  3.000000e+000 -1.367105e+001  6.000000e+000
    endloop
  endfacet
  facet normal  0.000000e+000  0.000000e+000  1.000000e+000
    outer loop
      vertex  6.000000e+000 -2.343498e+001  6.000000e+000
      vertex  3.000000e+000 -1.367105e+001  6.000000e+000
      vertex  1.000000e+000 -1.367105e+001  6.000000e+000
    endloop
  endfacet
  facet normal  0.000000e+000  0.000000e+000  1.000000e+000
    outer loop
      vertex  6.000000e+000 -2.343498e+001  6.000000e+000
      vertex  1.000000e+000 -1.367105e+001  6.000000e+000
      vertex  3.000000e+000 -2.343498e+001  6.000000e+000
    endloop
  endfacet
  facet normal  -0.000000e+000  0.000000e+000  1.000000e+000
    outer loop
      vertex -3.971933e+000  3.907766e+001  6.000000e+000
      vertex -8.407551e+000  3.848462e+001  6.000000e+000
      vertex -5.360253e+000  3.650517e+001  6.000000e+000
    endloop
  endfacet
  facet normal  0.000000e+000  0.000000e+000  9.999999e-001
    outer loop
      vertex -5.360253e+000  3.650517e+001  6.000000e+000
      vertex -8.407551e+000  3.848462e+001  6.000000e+000
      vertex -8.993802e+000  3.493927e+001  6.000000e+000
    endloop
  endfacet
  facet normal  -0.000000e+000  0.000000e+000  1.000000e+000
    outer loop
      vertex -5.360253e+000  3.650517e+001  6.000000e+000
      vertex -8.993802e+000  3.493927e+001  6.000000e+000
      vertex -5.234385e+000  3.358467e+001  6.000000e+000
    endloop
  endfacet
  facet normal  0.000000e+000  0.000000e+000  1.000000e+000
    outer loop
      vertex -5.234385e+000  3.358467e+001  6.000000e+000
      vertex -8.993802e+000  3.493927e+001  6.000000e+000
      vertex -3.629885e+000  3.114116e+001  6.000000e+000
    endloop
  endfacet
  facet normal  0.000000e+000  0.000000e+000  9.999999e-001
    outer loop
      vertex -3.629885e+000  3.114116e+001  6.000000e+000
      vertex -8.993802e+000  3.493927e+001  6.000000e+000
      vertex -8.146246e+000  3.144717e+001  6.000000e+000
    endloop
  endfacet
  facet normal  0.000000e+000  0.000000e+000  9.999999e-001
    outer loop
      vertex -3.629885e+000  3.114116e+001  6.000000e+000
      vertex -8.146246e+000  3.144717e+001  6.000000e+000
      vertex -1.000000e+000  2.986489e+001  6.000000e+000
    endloop
  endfacet
  facet normal  0.000000e+000  0.000000e+000  1.000000e+000
    outer loop
      vertex -1.000000e+000  2.986489e+001  6.000000e+000
      vertex -8.146246e+000  3.144717e+001  6.000000e+000
      vertex -6.000000e+000  2.856502e+001  6.000000e+000
    endloop
  endfacet
  facet normal  -0.000000e+000  0.000000e+000  1.000000e+000
    outer loop
      vertex -1.000000e+000  2.986489e+001  6.000000e+000
      vertex -6.000000e+000  2.856502e+001  6.000000e+000
      vertex -1.000000e+000  2.632895e+001  6.000000e+000
    endloop
  endfacet
  facet normal  0.000000e+000  0.000000e+000  1.000000e+000
    outer loop
      vertex -1.000000e+000  2.632895e+001  6.000000e+000
      vertex -6.000000e+000  2.856502e+001  6.000000e+000
      vertex -3.000000e+000  2.678794e+001  6.000000e+000
    endloop
  endfacet
  facet normal  -0.000000e+000  0.000000e+000  1.000000e+000
    outer loop
      vertex  6.480954e+000  4.151800e+001  6.000000e+000
      vertex  1.461605e+000  4.057545e+001  6.000000e+000
      vertex  8.407551e+000  3.848462e+001  6.000000e+000
    endloop
  endfacet
  facet normal  0.000000e+000  0.000000e+000  1.000000e+000
    outer loop
      vertex  8.407551e+000  3.848462e+001  6.000000e+000
      vertex  1.461605e+000  4.057545e+001  6.000000e+000
      vertex  3.971933e+000  3.907766e+001  6.000000e+000
    endloop
  endfacet
  facet normal  0.000000e+000  0.000000e+000  1.000000e+000
    outer loop
      vertex  8.407551e+000  3.848462e+001  6.000000e+000
      vertex  3.971933e+000  3.907766e+001  6.000000e+000
      vertex  8.993802e+000  3.493927e+001  6.000000e+000
    endloop
  endfacet
  facet normal  0.000000e+000  0.000000e+000  1.000000e+000
    outer loop
      vertex  8.993802e+000  3.493927e+001  6.000000e+000
      vertex  3.971933e+000  3.907766e+001  6.000000e+000
      vertex  5.360253e+000  3.650517e+001  6.000000e+000
    endloop
  endfacet
  facet normal  0.000000e+000  0.000000e+000  1.000000e+000
    outer loop
      vertex  8.993802e+000  3.493927e+001  6.000000e+000
      vertex  5.360253e+000  3.650517e+001  6.000000e+000
      vertex  5.234385e+000  3.358467e+001  6.000000e+000
    endloop
  endfacet
  facet normal  -0.000000e+000  0.000000e+000  1.000000e+000
    outer loop
      vertex  8.993802e+000  3.493927e+001  6.000000e+000
      vertex  5.234385e+000  3.358467e+001  6.000000e+000
      vertex  8.146246e+000  3.144717e+001  6.000000e+000
    endloop
  endfacet
  facet normal  0.000000e+000  0.000000e+000  1.000000e+000
    outer loop
      vertex  8.146246e+000  3.144717e+001  6.000000e+000
      vertex  5.234385e+000  3.358467e+001  6.000000e+000
      vertex  3.629885e+000  3.114116e+001  6.000000e+000
    endloop
  endfacet
  facet normal  -0.000000e+000  0.000000e+000  1.000000e+000
    outer loop
      vertex  8.146246e+000  3.144717e+001  6.000000e+000
      vertex  3.629885e+000  3.114116e+001  6.000000e+000
      vertex  6.000000e+000  2.856502e+001  6.000000e+000
    endloop
  endfacet
  facet normal  0.000000e+000  0.000000e+000  1.000000e+000
    outer loop
      vertex  6.000000e+000  2.856502e+001  6.000000e+000
      vertex  3.629885e+000  3.114116e+001  6.000000e+000
      vertex  1.000000e+000  2.986489e+001  6.000000e+000
    endloop
  endfacet
  facet normal  0.000000e+000  0.000000e+000  1.000000e+000
    outer loop
      vertex  6.000000e+000  2.856502e+001  6.000000e+000
      vertex  1.000000e+000  2.986489e+001  6.000000e+000
      vertex  3.000000e+000  2.678794e+001  6.000000e+000
    endloop
  endfacet
  facet normal  0.000000e+000  0.000000e+000  1.000000e+000
    outer loop
      vertex  3.000000e+000  2.678794e+001  6.000000e+000
      vertex  1.000000e+000  2.986489e+001  6.000000e+000
      vertex  1.000000e+000  2.632895e+001  6.000000e+000
    endloop
  endfacet
  facet normal  0.000000e+000  0.000000e+000 -1.000000e+000
    outer loop
      vertex -1.000000e+000 -1.367105e+001 -6.000000e+000
      vertex -1.000000e+000 -2.343498e+001 -6.000000e+000
      vertex -3.000000e+000 -2.343498e+001 -6.000000e+000
    endloop
  endfacet
  facet normal  0.000000e+000  0.000000e+000 -1.000000e+000
    outer loop
      vertex -1.323185e-014  4.427322e+001 -6.000000e+000
      vertex  3.521151e+000  4.355582e+001 -6.000000e+000
      vertex -3.521151e+000  4.355582e+001 -6.000000e+000
    endloop
  endfacet
  facet normal  -0.000000e+000  0.000000e+000 -1.000000e+000
    outer loop
      vertex -1.461605e+000  4.057545e+001 -6.000000e+000
      vertex -3.971933e+000  3.907766e+001 -6.000000e+000
      vertex -8.407551e+000  3.848462e+001 -6.000000e+000
    endloop
  endfacet
  facet normal  0.000000e+000  0.000000e+000 -1.000000e+000
    outer loop
      vertex  1.000000e+000 -2.343498e+001 -6.000000e+000
      vertex  1.000000e+000 -1.367105e+001 -6.000000e+000
      vertex  3.000000e+000 -2.343498e+001 -6.000000e+000
    endloop
  endfacet
  facet normal  0.000000e+000  0.000000e+000 -1.000000e+000
    outer loop
      vertex -6.000000e+000 -2.343498e+001 -6.000000e+000
      vertex -6.000000e+000  2.856502e+001 -6.000000e+000
      vertex -3.000000e+000  2.678794e+001 -6.000000e+000
    endloop
  endfacet
  facet normal  0.000000e+000  -0.000000e+000 -1.000000e+000
    outer loop
      vertex -6.000000e+000 -2.343498e+001 -6.000000e+000
      vertex -3.000000e+000  2.678794e+001 -6.000000e+000
      vertex -3.000000e+000 -1.367105e+001 -6.000000e+000
    endloop
  endfacet
  facet normal  0.000000e+000  -0.000000e+000 -1.000000e+000
    outer loop
      vertex -6.000000e+000 -2.343498e+001 -6.000000e+000
      vertex -3.000000e+000 -1.367105e+001 -6.000000e+000
      vertex -1.000000e+000 -1.367105e+001 -6.000000e+000
    endloop
  endfacet
  facet normal  0.000000e+000  0.000000e+000 -1.000000e+000
    outer loop
      vertex -6.000000e+000 -2.343498e+001 -6.000000e+000
      vertex -1.000000e+000 -1.367105e+001 -6.000000e+000
      vertex -3.000000e+000 -2.343498e+001 -6.000000e+000
    endloop
  endfacet
  facet normal  0.000000e+000  -0.000000e+000 -9.999999e-001
    outer loop
      vertex -6.480954e+000  4.151800e+001 -6.000000e+000
      vertex -3.521151e+000  4.355582e+001 -6.000000e+000
      vertex  3.521151e+000  4.355582e+001 -6.000000e+000
    endloop
  endfacet
  facet normal  0.000000e+000  -0.000000e+000 -9.999999e-001
    outer loop
      vertex -6.480954e+000  4.151800e+001 -6.000000e+000
      vertex  3.521151e+000  4.355582e+001 -6.000000e+000
      vertex  6.480954e+000  4.151800e+001 -6.000000e+000
    endloop
  endfacet
  facet normal  -0.000000e+000  0.000000e+000 -1.000000e+000
    outer loop
      vertex -6.480954e+000  4.151800e+001 -6.000000e+000
      vertex  6.480954e+000  4.151800e+001 -6.000000e+000
      vertex  1.461605e+000  4.057545e+001 -6.000000e+000
    endloop
  endfacet
  facet normal  0.000000e+000  0.000000e+000 -1.000000e+000
    outer loop
      vertex -6.480954e+000  4.151800e+001 -6.000000e+000
      vertex  1.461605e+000  4.057545e+001 -6.000000e+000
      vertex -1.461605e+000  4.057545e+001 -6.000000e+000
    endloop
  endfacet
  facet normal  -0.000000e+000  0.000000e+000 -1.000000e+000
    outer loop
      vertex -6.480954e+000  4.151800e+001 -6.000000e+000
      vertex -1.461605e+000  4.057545e+001 -6.000000e+000
      vertex -8.407551e+000  3.848462e+001 -6.000000e+000
    endloop
  endfacet
  facet normal  0.000000e+000  0.000000e+000 -1.000000e+000
    outer loop
      vertex  6.000000e+000 -2.343498e+001 -6.000000e+000
      vertex  3.000000e+000 -2.343498e+001 -6.000000e+000
      vertex  1.000000e+000 -1.367105e+001 -6.000000e+000
    endloop
  endfacet
  facet normal  0.000000e+000  0.000000e+000 -1.000000e+000
    outer loop
      vertex  6.000000e+000 -2.343498e+001 -6.000000e+000
      vertex  1.000000e+000 -1.367105e+001 -6.000000e+000
      vertex  3.000000e+000 -1.367105e+001 -6.000000e+000
    endloop
  endfacet
  facet normal  0.000000e+000  0.000000e+000 -1.000000e+000
    outer loop
      vertex  6.000000e+000 -2.343498e+001 -6.000000e+000
      vertex  3.000000e+000 -1.367105e+001 -6.000000e+000
      vertex  3.000000e+000  2.678794e+001 -6.000000e+000
    endloop
  endfacet
  facet normal  0.000000e+000  0.000000e+000 -1.000000e+000
    outer loop
      vertex  6.000000e+000 -2.343498e+001 -6.000000e+000
      vertex  3.000000e+000  2.678794e+001 -6.000000e+000
      vertex  6.000000e+000  2.856502e+001 -6.000000e+000
    endloop
  endfacet
  facet normal  0.000000e+000  0.000000e+000 -1.000000e+000
    outer loop
      vertex -5.234385e+000  3.358467e+001 -6.000000e+000
      vertex -8.993802e+000  3.493927e+001 -6.000000e+000
      vertex -5.360253e+000  3.650517e+001 -6.000000e+000
    endloop
  endfacet
  facet normal  -0.000000e+000  0.000000e+000 -9.999999e-001
    outer loop
      vertex -5.360253e+000  3.650517e+001 -6.000000e+000
      vertex -8.993802e+000  3.493927e+001 -6.000000e+000
      vertex -8.407551e+000  3.848462e+001 -6.000000e+000
    endloop
  endfacet
  facet normal  0.000000e+000  0.000000e+000 -1.000000e+000
    outer loop
      vertex -5.360253e+000  3.650517e+001 -6.000000e+000
      vertex -8.407551e+000  3.848462e+001 -6.000000e+000
      vertex -3.971933e+000  3.907766e+001 -6.000000e+000
    endloop
  endfacet
  facet normal  0.000000e+000  0.000000e+000 -1.000000e+000
    outer loop
      vertex -3.629885e+000  3.114116e+001 -6.000000e+000
      vertex -8.993802e+000  3.493927e+001 -6.000000e+000
      vertex -5.234385e+000  3.358467e+001 -6.000000e+000
    endloop
  endfacet
  facet normal  0.000000e+000  0.000000e+000 -9.999999e-001
    outer loop
      vertex -8.993802e+000  3.493927e+001 -6.000000e+000
      vertex -3.629885e+000  3.114116e+001 -6.000000e+000
      vertex -8.146246e+000  3.144717e+001 -6.000000e+000
    endloop
  endfacet
  facet normal  0.000000e+000  0.000000e+000 -9.999999e-001
    outer loop
      vertex -8.146246e+000  3.144717e+001 -6.000000e+000
      vertex -3.629885e+000  3.114116e+001 -6.000000e+000
      vertex -1.000000e+000  2.986489e+001 -6.000000e+000
    endloop
  endfacet
  facet normal  -0.000000e+000  0.000000e+000 -1.000000e+000
    outer loop
      vertex -8.146246e+000  3.144717e+001 -6.000000e+000
      vertex -1.000000e+000  2.986489e+001 -6.000000e+000
      vertex -6.000000e+000  2.856502e+001 -6.000000e+000
    endloop
  endfacet
  facet normal  0.000000e+000  0.000000e+000 -1.000000e+000
    outer loop
      vertex -6.000000e+000  2.856502e+001 -6.000000e+000
      vertex -1.000000e+000  2.986489e+001 -6.000000e+000
      vertex -1.000000e+000  2.632895e+001 -6.000000e+000
    endloop
  endfacet
  facet normal  0.000000e+000  0.000000e+000 -1.000000e+000
    outer loop
      vertex -6.000000e+000  2.856502e+001 -6.000000e+000
      vertex -1.000000e+000  2.632895e+001 -6.000000e+000
      vertex -3.000000e+000  2.678794e+001 -6.000000e+000
    endloop
  endfacet
  facet normal  0.000000e+000  -0.000000e+000 -1.000000e+000
    outer loop
      vertex  5.234385e+000  3.358467e+001 -6.000000e+000
      vertex  5.360253e+000  3.650517e+001 -6.000000e+000
      vertex  8.993802e+000  3.493927e+001 -6.000000e+000
    endloop
  endfacet
  facet normal  0.000000e+000  0.000000e+000 -1.000000e+000
    outer loop
      vertex  8.993802e+000  3.493927e+001 -6.000000e+000
      vertex  5.360253e+000  3.650517e+001 -6.000000e+000
      vertex  3.971933e+000  3.907766e+001 -6.000000e+000
    endloop
  endfacet
  facet normal  0.000000e+000  0.000000e+000 -1.000000e+000
    outer loop
      vertex  8.993802e+000  3.493927e+001 -6.000000e+000
      vertex  3.971933e+000  3.907766e+001 -6.000000e+000
      vertex  8.407551e+000  3.848462e+001 -6.000000e+000
    endloop
  endfacet
  facet normal  0.000000e+000  0.000000e+000 -1.000000e+000
    outer loop
      vertex  8.407551e+000  3.848462e+001 -6.000000e+000
      vertex  3.971933e+000  3.907766e+001 -6.000000e+000
      vertex  1.461605e+000  4.057545e+001 -6.000000e+000
    endloop
  endfacet
  facet normal  0.000000e+000  0.000000e+000 -1.000000e+000
    outer loop
      vertex  8.407551e+000  3.848462e+001 -6.000000e+000
      vertex  1.461605e+000  4.057545e+001 -6.000000e+000
      vertex  6.480954e+000  4.151800e+001 -6.000000e+000
    endloop
  endfacet
  facet normal  0.000000e+000  0.000000e+000 -1.000000e+000
    outer loop
      vertex  8.146246e+000  3.144717e+001 -6.000000e+000
      vertex  5.234385e+000  3.358467e+001 -6.000000e+000
      vertex  8.993802e+000  3.493927e+001 -6.000000e+000
    endloop
  endfacet
  facet normal  -0.000000e+000  0.000000e+000 -1.000000e+000
    outer loop
      vertex  5.234385e+000  3.358467e+001 -6.000000e+000
      vertex  8.146246e+000  3.144717e+001 -6.000000e+000
      vertex  3.629885e+000  3.114116e+001 -6.000000e+000
    endloop
  endfacet
  facet normal  0.000000e+000  0.000000e+000 -1.000000e+000
    outer loop
      vertex  3.629885e+000  3.114116e+001 -6.000000e+000
      vertex  8.146246e+000  3.144717e+001 -6.000000e+000
      vertex  6.000000e+000  2.856502e+001 -6.000000e+000
    endloop
  endfacet
  facet normal  0.000000e+000  0.000000e+000 -1.000000e+000
    outer loop
      vertex  3.629885e+000  3.114116e+001 -6.000000e+000
      vertex  6.000000e+000  2.856502e+001 -6.000000e+000
      vertex  1.000000e+000  2.986489e+001 -6.000000e+000
    endloop
  endfacet
  facet normal  0.000000e+000  0.000000e+000 -1.000000e+000
    outer loop
      vertex  1.000000e+000  2.986489e+001 -6.000000e+000
      vertex  6.000000e+000  2.856502e+001 -6.000000e+000
      vertex  3.000000e+000  2.678794e+001 -6.000000e+000
    endloop
  endfacet
  facet normal  -0.000000e+000  0.000000e+000 -1.000000e+000
    outer loop
      vertex  1.000000e+000  2.986489e+001 -6.000000e+000
      vertex  3.000000e+000  2.678794e+001 -6.000000e+000
      vertex  1.000000e+000  2.632895e+001 -6.000000e+000
    endloop
  endfacet
  facet normal  0.000000e+000 -1.000000e+000  -0.000000e+000
    outer loop
      vertex  6.000000e+000 -2.343498e+001 -6.000000e+000
      vertex  6.000000e+000 -2.343498e+001  6.000000e+000
      vertex  3.000000e+000 -2.343498e+001 -6.000000e+000
    endloop
  endfacet
  facet normal  0.000000e+000 -1.000000e+000  0.000000e+000
    outer loop
      vertex  3.000000e+000 -2.343498e+001 -6.000000e+000
      vertex  6.000000e+000 -2.343498e+001  6.000000e+000
      vertex  3.000000e+000 -2.343498e+001  6.000000e+000
    endloop
  endfacet
  facet normal  0.000000e+000 -1.000000e+000  -0.000000e+000
    outer loop
      vertex  3.000000e+000 -2.343498e+001 -6.000000e+000
      vertex  3.000000e+000 -2.343498e+001  6.000000e+000
      vertex  1.000000e+000 -2.343498e+001 -6.000000e+000
    endloop
  endfacet
  facet normal  0.000000e+000 -1.000000e+000  0.000000e+000
    outer loop
      vertex  1.000000e+000 -2.343498e+001 -6.000000e+000
      vertex  3.000000e+000 -2.343498e+001  6.000000e+000
      vertex  1.000000e+000 -2.343498e+001  6.000000e+000
    endloop
  endfacet
  facet normal  0.000000e+000  1.000000e+000  0.000000e+000
    outer loop
      vertex  3.000000e+000 -1.367105e+001 -6.000000e+000
      vertex  1.000000e+000 -1.367105e+001 -6.000000e+000
      vertex  3.000000e+000 -1.367105e+001  6.000000e+000
    endloop
  endfacet
  facet normal  0.000000e+000  1.000000e+000  0.000000e+000
    outer loop
      vertex  3.000000e+000 -1.367105e+001  6.000000e+000
      vertex  1.000000e+000 -1.367105e+001 -6.000000e+000
      vertex  1.000000e+000 -1.367105e+001  6.000000e+000
    endloop
  endfacet
  facet normal -1.000000e+000  0.000000e+000  0.000000e+000
    outer loop
      vertex  3.000000e+000  2.678794e+001  6.000000e+000
      vertex  3.000000e+000  2.678794e+001 -6.000000e+000
      vertex  3.000000e+000 -1.367105e+001  6.000000e+000
    endloop
  endfacet
  facet normal -1.000000e+000  0.000000e+000  0.000000e+000
    outer loop
      vertex  3.000000e+000 -1.367105e+001  6.000000e+000
      vertex  3.000000e+000  2.678794e+001 -6.000000e+000
      vertex  3.000000e+000 -1.367105e+001 -6.000000e+000
    endloop
  endfacet
  facet normal  2.236811e-001 -9.746624e-001  0.000000e+000
    outer loop
      vertex  1.000000e+000  2.632895e+001  6.000000e+000
      vertex  1.000000e+000  2.632895e+001 -6.000000e+000
      vertex  3.000000e+000  2.678794e+001  6.000000e+000
    endloop
  endfacet
  facet normal  2.236811e-001 -9.746624e-001  0.000000e+000
    outer loop
      vertex  3.000000e+000  2.678794e+001  6.000000e+000
      vertex  1.000000e+000  2.632895e+001 -6.000000e+000
      vertex  3.000000e+000  2.678794e+001 -6.000000e+000
    endloop
  endfacet
  facet normal -1.000000e+000  0.000000e+000  0.000000e+000
    outer loop
      vertex  1.000000e+000  2.986489e+001  6.000000e+000
      vertex  1.000000e+000  2.986489e+001 -6.000000e+000
      vertex  1.000000e+000  2.632895e+001  6.000000e+000
    endloop
  endfacet
  facet normal -1.000000e+000  0.000000e+000  0.000000e+000
    outer loop
      vertex  1.000000e+000  2.632895e+001  6.000000e+000
      vertex  1.000000e+000  2.986489e+001 -6.000000e+000
      vertex  1.000000e+000  2.632895e+001 -6.000000e+000
    endloop
  endfacet
  facet normal  5.123817e-001 -8.587578e-001  0.000000e+000
    outer loop
      vertex -1.461605e+000  4.057545e+001 -6.000000e+000
      vertex -3.971933e+000  3.907766e+001  6.000000e+000
      vertex -3.971933e+000  3.907766e+001 -6.000000e+000
    endloop
  endfacet
  facet normal  8.800235e-001 -4.749303e-001  0.000000e+000
    outer loop
      vertex -3.971933e+000  3.907766e+001 -6.000000e+000
      vertex -3.971933e+000  3.907766e+001  6.000000e+000
      vertex -5.360253e+000  3.650517e+001  6.000000e+000
    endloop
  endfacet
  facet normal  8.800235e-001 -4.749303e-001  0.000000e+000
    outer loop
      vertex -3.971933e+000  3.907766e+001 -6.000000e+000
      vertex -5.360253e+000  3.650517e+001  6.000000e+000
      vertex -5.360253e+000  3.650517e+001 -6.000000e+000
    endloop
  endfacet
  facet normal  9.990726e-001  4.305811e-002  -0.000000e+000
    outer loop
      vertex -5.360253e+000  3.650517e+001 -6.000000e+000
      vertex -5.360253e+000  3.650517e+001  6.000000e+000
      vertex -5.234385e+000  3.358467e+001  6.000000e+000
    endloop
  endfacet
  facet normal  9.990726e-001  4.305811e-002  0.000000e+000
    outer loop
      vertex -5.360253e+000  3.650517e+001 -6.000000e+000
      vertex -5.234385e+000  3.358467e+001  6.000000e+000
      vertex -5.234385e+000  3.358467e+001 -6.000000e+000
    endloop
  endfacet
  facet normal  8.358993e-001  5.488830e-001  -0.000000e+000
    outer loop
      vertex -5.234385e+000  3.358467e+001 -6.000000e+000
      vertex -5.234385e+000  3.358467e+001  6.000000e+000
      vertex -3.629885e+000  3.114116e+001  6.000000e+000
    endloop
  endfacet
  facet normal  8.358993e-001  5.488830e-001  0.000000e+000
    outer loop
      vertex -5.234385e+000  3.358467e+001 -6.000000e+000
      vertex -3.629885e+000  3.114116e+001  6.000000e+000
      vertex -3.629885e+000  3.114116e+001 -6.000000e+000
    endloop
  endfacet
  facet normal  4.365976e-001  8.996569e-001  -0.000000e+000
    outer loop
      vertex -3.629885e+000  3.114116e+001 -6.000000e+000
      vertex -3.629885e+000  3.114116e+001  6.000000e+000
      vertex -1.000000e+000  2.986489e+001  6.000000e+000
    endloop
  endfacet
  facet normal  4.365976e-001  8.996569e-001  0.000000e+000
    outer loop
      vertex -3.629885e+000  3.114116e+001 -6.000000e+000
      vertex -1.000000e+000  2.986489e+001  6.000000e+000
      vertex -1.000000e+000  2.986489e+001 -6.000000e+000
    endloop
  endfacet
  facet normal  5.123817e-001 -8.587578e-001  0.000000e+000
    outer loop
      vertex -3.971933e+000  3.907766e+001  6.000000e+000
      vertex -1.461605e+000  4.057545e+001 -6.000000e+000
      vertex -1.461605e+000  4.057545e+001  6.000000e+000
    endloop
  endfacet
  facet normal  0.000000e+000 -1.000000e+000  0.000000e+000
    outer loop
      vertex -1.461605e+000  4.057545e+001  6.000000e+000
      vertex -1.461605e+000  4.057545e+001 -6.000000e+000
      vertex  1.461605e+000  4.057545e+001 -6.000000e+000
    endloop
  endfacet
  facet normal  0.000000e+000 -1.000000e+000  0.000000e+000
    outer loop
      vertex -1.461605e+000  4.057545e+001  6.000000e+000
      vertex  1.461605e+000  4.057545e+001 -6.000000e+000
      vertex  1.461605e+000  4.057545e+001  6.000000e+000
    endloop
  endfacet
  facet normal -5.123817e-001 -8.587578e-001  -0.000000e+000
    outer loop
      vertex  1.461605e+000  4.057545e+001  6.000000e+000
      vertex  1.461605e+000  4.057545e+001 -6.000000e+000
      vertex  3.971933e+000  3.907766e+001 -6.000000e+000
    endloop
  endfacet
  facet normal -5.123817e-001 -8.587578e-001  0.000000e+000
    outer loop
      vertex  1.461605e+000  4.057545e+001  6.000000e+000
      vertex  3.971933e+000  3.907766e+001 -6.000000e+000
      vertex  3.971933e+000  3.907766e+001  6.000000e+000
    endloop
  endfacet
  facet normal -8.800235e-001 -4.749303e-001  -0.000000e+000
    outer loop
      vertex  3.971933e+000  3.907766e+001  6.000000e+000
      vertex  3.971933e+000  3.907766e+001 -6.000000e+000
      vertex  5.360253e+000  3.650517e+001 -6.000000e+000
    endloop
  endfacet
  facet normal -8.800235e-001 -4.749303e-001  0.000000e+000
    outer loop
      vertex  3.971933e+000  3.907766e+001  6.000000e+000
      vertex  5.360253e+000  3.650517e+001 -6.000000e+000
      vertex  5.360253e+000  3.650517e+001  6.000000e+000
    endloop
  endfacet
  facet normal -9.990726e-001  4.305811e-002  0.000000e+000
    outer loop
      vertex  5.360253e+000  3.650517e+001  6.000000e+000
      vertex  5.360253e+000  3.650517e+001 -6.000000e+000
      vertex  5.234385e+000  3.358467e+001 -6.000000e+000
    endloop
  endfacet
  facet normal -9.990726e-001  4.305811e-002  0.000000e+000
    outer loop
      vertex  5.360253e+000  3.650517e+001  6.000000e+000
      vertex  5.234385e+000  3.358467e+001 -6.000000e+000
      vertex  5.234385e+000  3.358467e+001  6.000000e+000
    endloop
  endfacet
  facet normal -8.358993e-001  5.488830e-001  0.000000e+000
    outer loop
      vertex  5.234385e+000  3.358467e+001  6.000000e+000
      vertex  5.234385e+000  3.358467e+001 -6.000000e+000
      vertex  3.629885e+000  3.114116e+001 -6.000000e+000
    endloop
  endfacet
  facet normal -8.358993e-001  5.488830e-001  0.000000e+000
    outer loop
      vertex  5.234385e+000  3.358467e+001  6.000000e+000
      vertex  3.629885e+000  3.114116e+001 -6.000000e+000
      vertex  3.629885e+000  3.114116e+001  6.000000e+000
    endloop
  endfacet
  facet normal -4.365976e-001  8.996569e-001  0.000000e+000
    outer loop
      vertex  3.629885e+000  3.114116e+001  6.000000e+000
      vertex  3.629885e+000  3.114116e+001 -6.000000e+000
      vertex  1.000000e+000  2.986489e+001 -6.000000e+000
    endloop
  endfacet
  facet normal -4.365976e-001  8.996569e-001  0.000000e+000
    outer loop
      vertex  3.629885e+000  3.114116e+001  6.000000e+000
      vertex  1.000000e+000  2.986489e+001 -6.000000e+000
      vertex  1.000000e+000  2.986489e+001  6.000000e+000
    endloop
  endfacet
  facet normal  1.000000e+000  -0.000000e+000  0.000000e+000
    outer loop
      vertex -1.000000e+000  2.986489e+001  6.000000e+000
      vertex -1.000000e+000  2.632895e+001  6.000000e+000
      vertex -1.000000e+000  2.986489e+001 -6.000000e+000
    endloop
  endfacet
  facet normal  1.000000e+000  0.000000e+000  0.000000e+000
    outer loop
      vertex -1.000000e+000  2.986489e+001 -6.000000e+000
      vertex -1.000000e+000  2.632895e+001  6.000000e+000
      vertex -1.000000e+000  2.632895e+001 -6.000000e+000
    endloop
  endfacet
  facet normal -2.236811e-001 -9.746624e-001  0.000000e+000
    outer loop
      vertex -3.000000e+000  2.678794e+001  6.000000e+000
      vertex -3.000000e+000  2.678794e+001 -6.000000e+000
      vertex -1.000000e+000  2.632895e+001  6.000000e+000
    endloop
  endfacet
  facet normal -2.236811e-001 -9.746624e-001  -0.000000e+000
    outer loop
      vertex -1.000000e+000  2.632895e+001  6.000000e+000
      vertex -3.000000e+000  2.678794e+001 -6.000000e+000
      vertex -1.000000e+000  2.632895e+001 -6.000000e+000
    endloop
  endfacet
  facet normal  1.000000e+000  0.000000e+000  0.000000e+000
    outer loop
      vertex -3.000000e+000 -1.367105e+001  6.000000e+000
      vertex -3.000000e+000 -1.367105e+001 -6.000000e+000
      vertex -3.000000e+000  2.678794e+001  6.000000e+000
    endloop
  endfacet
  facet normal  1.000000e+000  0.000000e+000  0.000000e+000
    outer loop
      vertex -3.000000e+000  2.678794e+001  6.000000e+000
      vertex -3.000000e+000 -1.367105e+001 -6.000000e+000
      vertex -3.000000e+000  2.678794e+001 -6.000000e+000
    endloop
  endfacet
  facet normal  0.000000e+000  1.000000e+000  0.000000e+000
    outer loop
      vertex -1.000000e+000 -1.367105e+001 -6.000000e+000
      vertex -3.000000e+000 -1.367105e+001 -6.000000e+000
      vertex -1.000000e+000 -1.367105e+001  6.000000e+000
    endloop
  endfacet
  facet normal  0.000000e+000  1.000000e+000  0.000000e+000
    outer loop
      vertex -1.000000e+000 -1.367105e+001  6.000000e+000
      vertex -3.000000e+000 -1.367105e+001 -6.000000e+000
      vertex -3.000000e+000 -1.367105e+001  6.000000e+000
    endloop
  endfacet
  facet normal  0.000000e+000 -1.000000e+000  -0.000000e+000
    outer loop
      vertex -1.000000e+000 -2.343498e+001 -6.000000e+000
      vertex -1.000000e+000 -2.343498e+001  6.000000e+000
      vertex -3.000000e+000 -2.343498e+001 -6.000000e+000
    endloop
  endfacet
  facet normal  0.000000e+000 -1.000000e+000  0.000000e+000
    outer loop
      vertex -3.000000e+000 -2.343498e+001 -6.000000e+000
      vertex -1.000000e+000 -2.343498e+001  6.000000e+000
      vertex -3.000000e+000 -2.343498e+001  6.000000e+000
    endloop
  endfacet
  facet normal  0.000000e+000 -1.000000e+000  -0.000000e+000
    outer loop
      vertex -3.000000e+000 -2.343498e+001 -6.000000e+000
      vertex -3.000000e+000 -2.343498e+001  6.000000e+000
      vertex -6.000000e+000 -2.343498e+001 -6.000000e+000
    endloop
  endfacet
  facet normal  0.000000e+000 -1.000000e+000  0.000000e+000
    outer loop
      vertex -6.000000e+000 -2.343498e+001 -6.000000e+000
      vertex -3.000000e+000 -2.343498e+001  6.000000e+000
      vertex -6.000000e+000 -2.343498e+001  6.000000e+000
    endloop
  endfacet
  facet normal -8.020480e-001 -5.972596e-001  -0.000000e+000
    outer loop
      vertex -6.000000e+000  2.856502e+001 -6.000000e+000
      vertex -6.000000e+000  2.856502e+001  6.000000e+000
      vertex -8.146246e+000  3.144717e+001 -6.000000e+000
    endloop
  endfacet
  facet normal -8.020480e-001 -5.972596e-001  0.000000e+000
    outer loop
      vertex -8.146246e+000  3.144717e+001 -6.000000e+000
      vertex -6.000000e+000  2.856502e+001  6.000000e+000
      vertex -8.146246e+000  3.144717e+001  6.000000e+000
    endloop
  endfacet
  facet normal -9.717873e-001 -2.358588e-001  -0.000000e+000
    outer loop
      vertex -8.146246e+000  3.144717e+001 -6.000000e+000
      vertex -8.146246e+000  3.144717e+001  6.000000e+000
      vertex -8.993802e+000  3.493927e+001 -6.000000e+000
    endloop
  endfacet
  facet normal -9.717873e-001 -2.358588e-001  0.000000e+000
    outer loop
      vertex -8.993802e+000  3.493927e+001 -6.000000e+000
      vertex -8.146246e+000  3.144717e+001  6.000000e+000
      vertex -8.993802e+000  3.493927e+001  6.000000e+000
    endloop
  endfacet
  facet normal -9.866025e-001  1.631426e-001  0.000000e+000
    outer loop
      vertex -8.993802e+000  3.493927e+001 -6.000000e+000
      vertex -8.993802e+000  3.493927e+001  6.000000e+000
      vertex -8.407551e+000  3.848462e+001 -6.000000e+000
    endloop
  endfacet
  facet normal -9.866025e-001  1.631426e-001  0.000000e+000
    outer loop
      vertex -8.407551e+000  3.848462e+001 -6.000000e+000
      vertex -8.993802e+000  3.493927e+001  6.000000e+000
      vertex -8.407551e+000  3.848462e+001  6.000000e+000
    endloop
  endfacet
  facet normal -8.441319e-001  5.361356e-001  0.000000e+000
    outer loop
      vertex -8.407551e+000  3.848462e+001 -6.000000e+000
      vertex -8.407551e+000  3.848462e+001  6.000000e+000
      vertex -6.480954e+000  4.151800e+001 -6.000000e+000
    endloop
  endfacet
  facet normal -8.441319e-001  5.361356e-001  0.000000e+000
    outer loop
      vertex -6.480954e+000  4.151800e+001 -6.000000e+000
      vertex -8.407551e+000  3.848462e+001  6.000000e+000
      vertex -6.480954e+000  4.151800e+001  6.000000e+000
    endloop
  endfacet
  facet normal -5.670877e-001  8.236575e-001  0.000000e+000
    outer loop
      vertex -6.480954e+000  4.151800e+001 -6.000000e+000
      vertex -6.480954e+000  4.151800e+001  6.000000e+000
      vertex -3.521151e+000  4.355582e+001 -6.000000e+000
    endloop
  endfacet
  facet normal -5.670877e-001  8.236575e-001  0.000000e+000
    outer loop
      vertex -3.521151e+000  4.355582e+001 -6.000000e+000
      vertex -6.480954e+000  4.151800e+001  6.000000e+000
      vertex -3.521151e+000  4.355582e+001  6.000000e+000
    endloop
  endfacet
  facet normal -1.996387e-001  9.798696e-001  0.000000e+000
    outer loop
      vertex -3.521151e+000  4.355582e+001 -6.000000e+000
      vertex -3.521151e+000  4.355582e+001  6.000000e+000
      vertex -1.323185e-014  4.427322e+001 -6.000000e+000
    endloop
  endfacet
  facet normal -1.996387e-001  9.798696e-001  0.000000e+000
    outer loop
      vertex -1.323185e-014  4.427322e+001 -6.000000e+000
      vertex -3.521151e+000  4.355582e+001  6.000000e+000
      vertex -1.323185e-014  4.427322e+001  6.000000e+000
    endloop
  endfacet
  facet normal  1.996387e-001  9.798696e-001  0.000000e+000
    outer loop
      vertex -1.323185e-014  4.427322e+001 -6.000000e+000
      vertex -1.323185e-014  4.427322e+001  6.000000e+000
      vertex  3.521151e+000  4.355582e+001 -6.000000e+000
    endloop
  endfacet
  facet normal  1.996387e-001  9.798696e-001  -0.000000e+000
    outer loop
      vertex  3.521151e+000  4.355582e+001 -6.000000e+000
      vertex -1.323185e-014  4.427322e+001  6.000000e+000
      vertex  3.521151e+000  4.355582e+001  6.000000e+000
    endloop
  endfacet
  facet normal  5.670877e-001  8.236575e-001  0.000000e+000
    outer loop
      vertex  3.521151e+000  4.355582e+001 -6.000000e+000
      vertex  3.521151e+000  4.355582e+001  6.000000e+000
      vertex  6.480954e+000  4.151800e+001 -6.000000e+000
    endloop
  endfacet
  facet normal  5.670877e-001  8.236575e-001  -0.000000e+000
    outer loop
      vertex  6.480954e+000  4.151800e+001 -6.000000e+000
      vertex  3.521151e+000  4.355582e+001  6.000000e+000
      vertex  6.480954e+000  4.151800e+001  6.000000e+000
    endloop
  endfacet
  facet normal  8.441319e-001  5.361356e-001  0.000000e+000
    outer loop
      vertex  6.480954e+000  4.151800e+001 -6.000000e+000
      vertex  6.480954e+000  4.151800e+001  6.000000e+000
      vertex  8.407551e+000  3.848462e+001 -6.000000e+000
    endloop
  endfacet
  facet normal  8.441319e-001  5.361356e-001  -0.000000e+000
    outer loop
      vertex  8.407551e+000  3.848462e+001 -6.000000e+000
      vertex  6.480954e+000  4.151800e+001  6.000000e+000
      vertex  8.407551e+000  3.848462e+001  6.000000e+000
    endloop
  endfacet
  facet normal  9.866025e-001  1.631426e-001  0.000000e+000
    outer loop
      vertex  8.407551e+000  3.848462e+001 -6.000000e+000
      vertex  8.407551e+000  3.848462e+001  6.000000e+000
      vertex  8.993802e+000  3.493927e+001 -6.000000e+000
    endloop
  endfacet
  facet normal  9.866025e-001  1.631426e-001  -0.000000e+000
    outer loop
      vertex  8.993802e+000  3.493927e+001 -6.000000e+000
      vertex  8.407551e+000  3.848462e+001  6.000000e+000
      vertex  8.993802e+000  3.493927e+001  6.000000e+000
    endloop
  endfacet
  facet normal  9.717873e-001 -2.358588e-001  0.000000e+000
    outer loop
      vertex  8.993802e+000  3.493927e+001 -6.000000e+000
      vertex  8.993802e+000  3.493927e+001  6.000000e+000
      vertex  8.146246e+000  3.144717e+001 -6.000000e+000
    endloop
  endfacet
  facet normal  9.717873e-001 -2.358588e-001  0.000000e+000
    outer loop
      vertex  8.146246e+000  3.144717e+001 -6.000000e+000
      vertex  8.993802e+000  3.493927e+001  6.000000e+000
      vertex  8.146246e+000  3.144717e+001  6.000000e+000
    endloop
  endfacet
  facet normal  8.020480e-001 -5.972596e-001  0.000000e+000
    outer loop
      vertex  8.146246e+000  3.144717e+001 -6.000000e+000
      vertex  8.146246e+000  3.144717e+001  6.000000e+000
      vertex  6.000000e+000  2.856502e+001 -6.000000e+000
    endloop
  endfacet
  facet normal  8.020480e-001 -5.972596e-001  0.000000e+000
    outer loop
      vertex  6.000000e+000  2.856502e+001 -6.000000e+000
      vertex  8.146246e+000  3.144717e+001  6.000000e+000
      vertex  6.000000e+000  2.856502e+001  6.000000e+000
    endloop
  endfacet
endsolid CATIA STL
