solid CATIA STL
  facet normal  -0.000000e+000  0.000000e+000  1.000000e+000
    outer loop
      vertex  2.650000e+001  2.050000e+001  1.400000e+001
      vertex  2.557769e+001  1.832672e+001  1.400000e+001
      vertex  2.671914e+001  1.820377e+001  1.400000e+001
    endloop
  endfacet
  facet normal  0.000000e+000  0.000000e+000  1.000000e+000
    outer loop
      vertex -2.650000e+001  1.250000e+001  1.400000e+001
      vertex -2.671914e+001  1.540652e+001  1.400000e+001
      vertex -2.800000e+001  1.290192e+001  1.400000e+001
    endloop
  endfacet
  facet normal  -0.000000e+000  0.000000e+000  1.000000e+000
    outer loop
      vertex -2.671914e+001  1.540652e+001  1.400000e+001
      vertex -2.909808e+001  1.400000e+001  1.400000e+001
      vertex -2.800000e+001  1.290192e+001  1.400000e+001
    endloop
  endfacet
  facet normal  0.000000e+000  0.000000e+000  1.000000e+000
    outer loop
      vertex  2.950000e+001  1.550000e+001  1.400000e+001
      vertex  2.950000e+001  1.750000e+001  1.400000e+001
      vertex  2.743933e+001  1.730971e+001  1.400000e+001
    endloop
  endfacet
  facet normal  0.000000e+000  0.000000e+000  1.000000e+000
    outer loop
      vertex  2.950000e+001  1.550000e+001  1.400000e+001
      vertex  2.743933e+001  1.730971e+001  1.400000e+001
      vertex  2.731637e+001  1.616826e+001  1.400000e+001
    endloop
  endfacet
  facet normal  0.000000e+000  0.000000e+000  1.000000e+000
    outer loop
      vertex  2.950000e+001  1.550000e+001  1.400000e+001
      vertex  2.731637e+001  1.616826e+001  1.400000e+001
      vertex  2.642231e+001  1.544807e+001  1.400000e+001
    endloop
  endfacet
  facet normal  -0.000000e+000  0.000000e+000  1.000000e+000
    outer loop
      vertex  2.950000e+001  1.550000e+001  1.400000e+001
      vertex  2.642231e+001  1.544807e+001  1.400000e+001
      vertex  2.909808e+001  1.400000e+001  1.400000e+001
    endloop
  endfacet
  facet normal  0.000000e+000  0.000000e+000  1.000000e+000
    outer loop
      vertex  1.950000e+001  1.950000e+001  1.400000e+001
      vertex  1.950000e+001  1.200000e+001  1.400000e+001
      vertex  2.050000e+001  1.200000e+001  1.400000e+001
    endloop
  endfacet
  facet normal  0.000000e+000  -0.000000e+000  1.000000e+000
    outer loop
      vertex  1.950000e+001  1.950000e+001  1.400000e+001
      vertex  2.050000e+001  1.200000e+001  1.400000e+001
      vertex  2.050000e+001  1.250000e+001  1.400000e+001
    endloop
  endfacet
  facet normal  0.000000e+000  -0.000000e+000  1.000000e+000
    outer loop
      vertex  1.950000e+001  1.950000e+001  1.400000e+001
      vertex  2.050000e+001  1.250000e+001  1.400000e+001
      vertex  2.456067e+001  1.646509e+001  1.400000e+001
    endloop
  endfacet
  facet normal  0.000000e+000  -0.000000e+000  1.000000e+000
    outer loop
      vertex  1.950000e+001  1.950000e+001  1.400000e+001
      vertex  2.456067e+001  1.646509e+001  1.400000e+001
      vertex  2.468363e+001  1.760653e+001  1.400000e+001
    endloop
  endfacet
  facet normal  0.000000e+000  -0.000000e+000  9.999999e-001
    outer loop
      vertex  1.950000e+001  1.950000e+001  1.400000e+001
      vertex  2.468363e+001  1.760653e+001  1.400000e+001
      vertex  2.557769e+001  1.832672e+001  1.400000e+001
    endloop
  endfacet
  facet normal  0.000000e+000  -0.000000e+000  9.999999e-001
    outer loop
      vertex  1.950000e+001  1.950000e+001  1.400000e+001
      vertex  2.557769e+001  1.832672e+001  1.400000e+001
      vertex  2.650000e+001  2.050000e+001  1.400000e+001
    endloop
  endfacet
  facet normal  0.000000e+000  0.000000e+000  1.000000e+000
    outer loop
      vertex  1.950000e+001  1.950000e+001  1.400000e+001
      vertex  2.650000e+001  2.050000e+001  1.400000e+001
      vertex -2.650000e+001  2.050000e+001  1.400000e+001
    endloop
  endfacet
  facet normal  0.000000e+000  -0.000000e+000  1.000000e+000
    outer loop
      vertex -2.950000e+001  1.550000e+001  1.400000e+001
      vertex -2.909808e+001  1.400000e+001  1.400000e+001
      vertex -2.671914e+001  1.540652e+001  1.400000e+001
    endloop
  endfacet
  facet normal  0.000000e+000  0.000000e+000  1.000000e+000
    outer loop
      vertex -2.950000e+001  1.550000e+001  1.400000e+001
      vertex -2.671914e+001  1.540652e+001  1.400000e+001
      vertex -2.743933e+001  1.630058e+001  1.400000e+001
    endloop
  endfacet
  facet normal  0.000000e+000  -0.000000e+000  1.000000e+000
    outer loop
      vertex -2.950000e+001  1.550000e+001  1.400000e+001
      vertex -2.743933e+001  1.630058e+001  1.400000e+001
      vertex -2.731637e+001  1.744203e+001  1.400000e+001
    endloop
  endfacet
  facet normal  0.000000e+000  0.000000e+000  1.000000e+000
    outer loop
      vertex -2.950000e+001  1.550000e+001  1.400000e+001
      vertex -2.731637e+001  1.744203e+001  1.400000e+001
      vertex -2.950000e+001  1.750000e+001  1.400000e+001
    endloop
  endfacet
  facet normal  -0.000000e+000  0.000000e+000  1.000000e+000
    outer loop
      vertex -2.650000e+001  2.050000e+001  1.400000e+001
      vertex -2.800000e+001  2.009808e+001  1.400000e+001
      vertex -2.642231e+001  1.816222e+001  1.400000e+001
    endloop
  endfacet
  facet normal  -0.000000e+000  -0.000000e+000  1.000000e+000
    outer loop
      vertex -2.650000e+001  2.050000e+001  1.400000e+001
      vertex -2.642231e+001  1.816222e+001  1.400000e+001
      vertex -2.528086e+001  1.803927e+001  1.400000e+001
    endloop
  endfacet
  facet normal  0.000000e+000  -0.000000e+000  1.000000e+000
    outer loop
      vertex -2.650000e+001  2.050000e+001  1.400000e+001
      vertex -2.528086e+001  1.803927e+001  1.400000e+001
      vertex -1.950000e+001  1.950000e+001  1.400000e+001
    endloop
  endfacet
  facet normal  0.000000e+000  -0.000000e+000  1.000000e+000
    outer loop
      vertex -2.650000e+001  2.050000e+001  1.400000e+001
      vertex -1.950000e+001  1.950000e+001  1.400000e+001
      vertex  1.950000e+001  1.950000e+001  1.400000e+001
    endloop
  endfacet
  facet normal  0.000000e+000  0.000000e+000  1.000000e+000
    outer loop
      vertex  1.900000e+001 -2.009808e+001  1.400000e+001
      vertex  2.009808e+001 -1.900000e+001  1.400000e+001
      vertex  1.800000e+001 -1.909808e+001  1.400000e+001
    endloop
  endfacet
  facet normal  0.000000e+000  0.000000e+000  9.999999e-001
    outer loop
      vertex  1.900000e+001 -2.009808e+001  1.400000e+001
      vertex  1.800000e+001 -1.909808e+001  1.400000e+001
      vertex  1.650000e+001 -1.950000e+001  1.400000e+001
    endloop
  endfacet
  facet normal  0.000000e+000  0.000000e+000  1.000000e+000
    outer loop
      vertex  1.900000e+001 -2.009808e+001  1.400000e+001
      vertex  1.650000e+001 -1.950000e+001  1.400000e+001
      vertex -1.650000e+001 -1.950000e+001  1.400000e+001
    endloop
  endfacet
  facet normal  0.000000e+000  0.000000e+000  1.000000e+000
    outer loop
      vertex  1.900000e+001 -2.009808e+001  1.400000e+001
      vertex -1.650000e+001 -1.950000e+001  1.400000e+001
      vertex -1.900000e+001 -2.009808e+001  1.400000e+001
    endloop
  endfacet
  facet normal  -0.000000e+000  0.000000e+000  1.000000e+000
    outer loop
      vertex  1.900000e+001 -2.009808e+001  1.400000e+001
      vertex -1.900000e+001 -2.009808e+001  1.400000e+001
      vertex -1.750000e+001 -2.050000e+001  1.400000e+001
    endloop
  endfacet
  facet normal  0.000000e+000  0.000000e+000  1.000000e+000
    outer loop
      vertex  1.900000e+001 -2.009808e+001  1.400000e+001
      vertex -1.750000e+001 -2.050000e+001  1.400000e+001
      vertex  1.750000e+001 -2.050000e+001  1.400000e+001
    endloop
  endfacet
  facet normal  0.000000e+000  0.000000e+000  1.000000e+000
    outer loop
      vertex -2.050000e+001  1.250000e+001  1.400000e+001
      vertex -2.050000e+001 -1.750000e+001  1.400000e+001
      vertex -1.950000e+001 -1.650000e+001  1.400000e+001
    endloop
  endfacet
  facet normal  0.000000e+000  -0.000000e+000  1.000000e+000
    outer loop
      vertex -2.050000e+001  1.250000e+001  1.400000e+001
      vertex -1.950000e+001 -1.650000e+001  1.400000e+001
      vertex -1.950000e+001  1.950000e+001  1.400000e+001
    endloop
  endfacet
  facet normal  0.000000e+000  0.000000e+000  1.000000e+000
    outer loop
      vertex -2.050000e+001  1.250000e+001  1.400000e+001
      vertex -1.950000e+001  1.950000e+001  1.400000e+001
      vertex -2.528086e+001  1.803927e+001  1.400000e+001
    endloop
  endfacet
  facet normal  0.000000e+000  0.000000e+000  1.000000e+000
    outer loop
      vertex -2.050000e+001  1.250000e+001  1.400000e+001
      vertex -2.528086e+001  1.803927e+001  1.400000e+001
      vertex -2.456067e+001  1.714520e+001  1.400000e+001
    endloop
  endfacet
  facet normal  0.000000e+000  0.000000e+000  1.000000e+000
    outer loop
      vertex -2.050000e+001  1.250000e+001  1.400000e+001
      vertex -2.456067e+001  1.714520e+001  1.400000e+001
      vertex -2.468363e+001  1.600375e+001  1.400000e+001
    endloop
  endfacet
  facet normal  0.000000e+000  0.000000e+000  9.999999e-001
    outer loop
      vertex -2.050000e+001  1.250000e+001  1.400000e+001
      vertex -2.468363e+001  1.600375e+001  1.400000e+001
      vertex -2.557769e+001  1.528357e+001  1.400000e+001
    endloop
  endfacet
  facet normal  0.000000e+000  0.000000e+000  1.000000e+000
    outer loop
      vertex -2.050000e+001  1.250000e+001  1.400000e+001
      vertex -2.557769e+001  1.528357e+001  1.400000e+001
      vertex -2.671914e+001  1.540652e+001  1.400000e+001
    endloop
  endfacet
  facet normal  0.000000e+000  0.000000e+000  1.000000e+000
    outer loop
      vertex -2.050000e+001  1.250000e+001  1.400000e+001
      vertex -2.671914e+001  1.540652e+001  1.400000e+001
      vertex -2.650000e+001  1.250000e+001  1.400000e+001
    endloop
  endfacet
  facet normal  0.000000e+000  0.000000e+000  1.000000e+000
    outer loop
      vertex  2.800000e+001  1.290192e+001  1.400000e+001
      vertex  2.909808e+001  1.400000e+001  1.400000e+001
      vertex  2.650000e+001  1.250000e+001  1.400000e+001
    endloop
  endfacet
  facet normal  0.000000e+000  -0.000000e+000  9.999999e-001
    outer loop
      vertex  2.650000e+001  1.250000e+001  1.400000e+001
      vertex  2.909808e+001  1.400000e+001  1.400000e+001
      vertex  2.642231e+001  1.544807e+001  1.400000e+001
    endloop
  endfacet
  facet normal  0.000000e+000  0.000000e+000  1.000000e+000
    outer loop
      vertex  2.650000e+001  1.250000e+001  1.400000e+001
      vertex  2.642231e+001  1.544807e+001  1.400000e+001
      vertex  2.050000e+001  1.250000e+001  1.400000e+001
    endloop
  endfacet
  facet normal  0.000000e+000  0.000000e+000  1.000000e+000
    outer loop
      vertex  2.050000e+001  1.250000e+001  1.400000e+001
      vertex  2.642231e+001  1.544807e+001  1.400000e+001
      vertex  2.528086e+001  1.557102e+001  1.400000e+001
    endloop
  endfacet
  facet normal  0.000000e+000  0.000000e+000  9.999999e-001
    outer loop
      vertex  2.050000e+001  1.250000e+001  1.400000e+001
      vertex  2.528086e+001  1.557102e+001  1.400000e+001
      vertex  2.456067e+001  1.646509e+001  1.400000e+001
    endloop
  endfacet
  facet normal  0.000000e+000  0.000000e+000  1.000000e+000
    outer loop
      vertex  2.743933e+001  1.730971e+001  1.400000e+001
      vertex  2.950000e+001  1.750000e+001  1.400000e+001
      vertex  2.671914e+001  1.820377e+001  1.400000e+001
    endloop
  endfacet
  facet normal  -0.000000e+000  0.000000e+000  1.000000e+000
    outer loop
      vertex  2.671914e+001  1.820377e+001  1.400000e+001
      vertex  2.950000e+001  1.750000e+001  1.400000e+001
      vertex  2.909808e+001  1.900000e+001  1.400000e+001
    endloop
  endfacet
  facet normal  0.000000e+000  0.000000e+000  1.000000e+000
    outer loop
      vertex  2.671914e+001  1.820377e+001  1.400000e+001
      vertex  2.909808e+001  1.900000e+001  1.400000e+001
      vertex  2.650000e+001  2.050000e+001  1.400000e+001
    endloop
  endfacet
  facet normal  0.000000e+000  0.000000e+000  1.000000e+000
    outer loop
      vertex  2.650000e+001  2.050000e+001  1.400000e+001
      vertex  2.909808e+001  1.900000e+001  1.400000e+001
      vertex  2.800000e+001  2.009808e+001  1.400000e+001
    endloop
  endfacet
  facet normal  0.000000e+000  0.000000e+000  1.000000e+000
    outer loop
      vertex -2.950000e+001  1.750000e+001  1.400000e+001
      vertex -2.731637e+001  1.744203e+001  1.400000e+001
      vertex -2.909808e+001  1.900000e+001  1.400000e+001
    endloop
  endfacet
  facet normal  0.000000e+000  0.000000e+000  9.999999e-001
    outer loop
      vertex -2.909808e+001  1.900000e+001  1.400000e+001
      vertex -2.731637e+001  1.744203e+001  1.400000e+001
      vertex -2.642231e+001  1.816222e+001  1.400000e+001
    endloop
  endfacet
  facet normal  0.000000e+000  0.000000e+000  1.000000e+000
    outer loop
      vertex -2.909808e+001  1.900000e+001  1.400000e+001
      vertex -2.642231e+001  1.816222e+001  1.400000e+001
      vertex -2.800000e+001  2.009808e+001  1.400000e+001
    endloop
  endfacet
  facet normal  -0.000000e+000  0.000000e+000  1.000000e+000
    outer loop
      vertex  2.050000e+001 -1.200000e+001  1.400000e+001
      vertex  1.950000e+001 -1.200000e+001  1.400000e+001
      vertex  2.050000e+001 -1.750000e+001  1.400000e+001
    endloop
  endfacet
  facet normal  0.000000e+000  0.000000e+000  1.000000e+000
    outer loop
      vertex  2.050000e+001 -1.750000e+001  1.400000e+001
      vertex  1.950000e+001 -1.200000e+001  1.400000e+001
      vertex  1.950000e+001 -1.650000e+001  1.400000e+001
    endloop
  endfacet
  facet normal  0.000000e+000  0.000000e+000  9.999999e-001
    outer loop
      vertex  2.050000e+001 -1.750000e+001  1.400000e+001
      vertex  1.950000e+001 -1.650000e+001  1.400000e+001
      vertex  1.909808e+001 -1.800000e+001  1.400000e+001
    endloop
  endfacet
  facet normal  0.000000e+000  0.000000e+000  1.000000e+000
    outer loop
      vertex  1.909808e+001 -1.800000e+001  1.400000e+001
      vertex  1.800000e+001 -1.909808e+001  1.400000e+001
      vertex  2.050000e+001 -1.750000e+001  1.400000e+001
    endloop
  endfacet
  facet normal  0.000000e+000  0.000000e+000  1.000000e+000
    outer loop
      vertex  2.050000e+001 -1.750000e+001  1.400000e+001
      vertex  1.800000e+001 -1.909808e+001  1.400000e+001
      vertex  2.009808e+001 -1.900000e+001  1.400000e+001
    endloop
  endfacet
  facet normal  0.000000e+000  0.000000e+000  1.000000e+000
    outer loop
      vertex -1.900000e+001 -2.009808e+001  1.400000e+001
      vertex -1.650000e+001 -1.950000e+001  1.400000e+001
      vertex -2.009808e+001 -1.900000e+001  1.400000e+001
    endloop
  endfacet
  facet normal  0.000000e+000  0.000000e+000  1.000000e+000
    outer loop
      vertex -2.009808e+001 -1.900000e+001  1.400000e+001
      vertex -1.650000e+001 -1.950000e+001  1.400000e+001
      vertex -1.800000e+001 -1.909808e+001  1.400000e+001
    endloop
  endfacet
  facet normal  0.000000e+000  0.000000e+000  1.000000e+000
    outer loop
      vertex -2.009808e+001 -1.900000e+001  1.400000e+001
      vertex -1.800000e+001 -1.909808e+001  1.400000e+001
      vertex -2.050000e+001 -1.750000e+001  1.400000e+001
    endloop
  endfacet
  facet normal  0.000000e+000  0.000000e+000  1.000000e+000
    outer loop
      vertex -2.050000e+001 -1.750000e+001  1.400000e+001
      vertex -1.800000e+001 -1.909808e+001  1.400000e+001
      vertex -1.909808e+001 -1.800000e+001  1.400000e+001
    endloop
  endfacet
  facet normal  0.000000e+000  0.000000e+000  9.999999e-001
    outer loop
      vertex -2.050000e+001 -1.750000e+001  1.400000e+001
      vertex -1.909808e+001 -1.800000e+001  1.400000e+001
      vertex -1.950000e+001 -1.650000e+001  1.400000e+001
    endloop
  endfacet
  facet normal -9.757848e-001 -1.926802e-002 -2.178826e-001
    outer loop
      vertex -2.110896e+001  1.672050e+001  7.061468e+000
      vertex -2.125985e+001  2.050000e+001  7.402970e+000
      vertex -2.050000e+001  2.050000e+001  4.000000e+000
    endloop
  endfacet
  facet normal  1.294627e-001 -5.753634e-002 -9.899137e-001
    outer loop
      vertex -2.731637e+001  1.744203e+001  1.191195e+001
      vertex -2.749588e+001  1.661180e+001  1.193673e+001
      vertex -2.850000e+001  1.326393e+001  1.200000e+001
    endloop
  endfacet
  facet normal -7.418097e-002  0.000000e+000 -9.972448e-001
    outer loop
      vertex -2.731637e+001  1.744203e+001  1.191195e+001
      vertex -2.850000e+001  1.326393e+001  1.200000e+001
      vertex -2.850000e+001  1.973607e+001  1.200000e+001
    endloop
  endfacet
  facet normal -8.932441e-002 -7.862245e-003 -9.959716e-001
    outer loop
      vertex -2.731637e+001  1.744203e+001  1.191195e+001
      vertex -2.850000e+001  1.973607e+001  1.200000e+001
      vertex -2.701677e+001  2.045516e+001  1.186130e+001
    endloop
  endfacet
  facet normal -1.602862e-001 -6.565577e-004 -9.870704e-001
    outer loop
      vertex -2.731637e+001  1.744203e+001  1.191195e+001
      vertex -2.701677e+001  2.045516e+001  1.186130e+001
      vertex -2.710497e+001  1.773731e+001  1.187743e+001
    endloop
  endfacet
  facet normal -7.901129e-001 -3.398226e-002 -6.120188e-001
    outer loop
      vertex -2.339505e+001  2.050000e+001  1.015950e+001
      vertex -2.125985e+001  2.050000e+001  7.402970e+000
      vertex -2.284315e+001  1.672050e+001  9.656855e+000
    endloop
  endfacet
  facet normal -6.062701e-001  1.720843e-002 -7.950725e-001
    outer loop
      vertex -2.339505e+001  2.050000e+001  1.015950e+001
      vertex -2.284315e+001  1.672050e+001  9.656855e+000
      vertex -2.451651e+001  1.694484e+001  1.093771e+001
    endloop
  endfacet
  facet normal -5.117056e-001 -2.656027e-002 -8.587502e-001
    outer loop
      vertex -2.339505e+001  2.050000e+001  1.015950e+001
      vertex -2.451651e+001  1.694484e+001  1.093771e+001
      vertex -2.494221e+001  1.778642e+001  1.116534e+001
    endloop
  endfacet
  facet normal -4.283487e-001 -8.908454e-002 -8.992116e-001
    outer loop
      vertex -2.339505e+001  2.050000e+001  1.015950e+001
      vertex -2.494221e+001  1.778642e+001  1.116534e+001
      vertex -2.578601e+001  1.820755e+001  1.152557e+001
    endloop
  endfacet
  facet normal -2.959756e-001 -2.419446e-001 -9.240462e-001
    outer loop
      vertex -2.339505e+001  2.050000e+001  1.015950e+001
      vertex -2.578601e+001  1.820755e+001  1.152557e+001
      vertex -2.626890e+001  1.819859e+001  1.168259e+001
    endloop
  endfacet
  facet normal -4.548928e-001 -2.116187e-002 -8.902946e-001
    outer loop
      vertex -2.339505e+001  2.050000e+001  1.015950e+001
      vertex -2.626890e+001  1.819859e+001  1.168259e+001
      vertex -2.650000e+001  2.050000e+001  1.174597e+001
    endloop
  endfacet
  facet normal -4.549431e-001  1.507065e-002 -8.903930e-001
    outer loop
      vertex -2.339505e+001  1.250000e+001  1.015950e+001
      vertex -2.650000e+001  1.250000e+001  1.174597e+001
      vertex -2.630514e+001  1.525426e+001  1.169302e+001
    endloop
  endfacet
  facet normal -2.892478e-001  2.138924e-001 -9.330519e-001
    outer loop
      vertex -2.339505e+001  1.250000e+001  1.015950e+001
      vertex -2.630514e+001  1.525426e+001  1.169302e+001
      vertex -2.582243e+001  1.523344e+001  1.153861e+001
    endloop
  endfacet
  facet normal -4.201255e-001  8.284830e-002 -9.036763e-001
    outer loop
      vertex -2.339505e+001  1.250000e+001  1.015950e+001
      vertex -2.582243e+001  1.523344e+001  1.153861e+001
      vertex -2.496837e+001  1.563398e+001  1.117827e+001
    endloop
  endfacet
  facet normal -4.939848e-001  3.442843e-002 -8.687885e-001
    outer loop
      vertex -2.339505e+001  1.250000e+001  1.015950e+001
      vertex -2.496837e+001  1.563398e+001  1.117827e+001
      vertex -2.468363e+001  1.600375e+001  1.103102e+001
    endloop
  endfacet
  facet normal -5.377779e-001  1.190867e-002 -8.430024e-001
    outer loop
      vertex -2.339505e+001  1.250000e+001  1.015950e+001
      vertex -2.468363e+001  1.600375e+001  1.103102e+001
      vertex -2.451651e+001  1.694484e+001  1.093771e+001
    endloop
  endfacet
  facet normal -6.090005e-001 -1.481023e-002 -7.930315e-001
    outer loop
      vertex -2.339505e+001  1.250000e+001  1.015950e+001
      vertex -2.451651e+001  1.694484e+001  1.093771e+001
      vertex -2.284315e+001  1.672050e+001  9.656855e+000
    endloop
  endfacet
  facet normal -7.902031e-001  3.043501e-002 -6.120888e-001
    outer loop
      vertex -2.339505e+001  1.250000e+001  1.015950e+001
      vertex -2.284315e+001  1.672050e+001  9.656855e+000
      vertex -2.125985e+001  1.250000e+001  7.402970e+000
    endloop
  endfacet
  facet normal -8.313494e-001  1.700307e-002 -5.554900e-001
    outer loop
      vertex -2.125985e+001  2.050000e+001  7.402970e+000
      vertex -2.110896e+001  1.672050e+001  7.061468e+000
      vertex -2.284315e+001  1.672050e+001  9.656855e+000
    endloop
  endfacet
  facet normal -8.313732e-001 -1.522689e-002 -5.555059e-001
    outer loop
      vertex -2.284315e+001  1.672050e+001  9.656855e+000
      vertex -2.110896e+001  1.672050e+001  7.061468e+000
      vertex -2.125985e+001  1.250000e+001  7.402970e+000
    endloop
  endfacet
  facet normal -9.853078e-001  2.151596e-002 -1.694274e-001
    outer loop
      vertex -2.110896e+001  1.672050e+001  7.061468e+000
      vertex -2.050000e+001  2.050000e+001  4.000000e+000
      vertex -2.125985e+001  1.250000e+001  7.402970e+000
    endloop
  endfacet
  facet normal -9.759660e-001  0.000000e+000 -2.179230e-001
    outer loop
      vertex -2.125985e+001  1.250000e+001  7.402970e+000
      vertex -2.050000e+001  2.050000e+001  4.000000e+000
      vertex -2.050000e+001  1.250000e+001  4.000000e+000
    endloop
  endfacet
  facet normal -2.289544e-001  3.815540e-003 -9.734297e-001
    outer loop
      vertex -2.626890e+001  1.819859e+001  1.168259e+001
      vertex -2.710497e+001  1.773731e+001  1.187743e+001
      vertex -2.650000e+001  2.050000e+001  1.174597e+001
    endloop
  endfacet
  facet normal -2.179266e-001  1.280069e-003 -9.759643e-001
    outer loop
      vertex -2.650000e+001  2.050000e+001  1.174597e+001
      vertex -2.710497e+001  1.773731e+001  1.187743e+001
      vertex -2.701677e+001  2.045516e+001  1.186130e+001
    endloop
  endfacet
  facet normal -2.180950e-001 -3.330196e-003 -9.759219e-001
    outer loop
      vertex -2.650000e+001  1.250000e+001  1.174597e+001
      vertex -2.701677e+001  1.254484e+001  1.186130e+001
      vertex -2.630514e+001  1.525426e+001  1.169302e+001
    endloop
  endfacet
  facet normal -2.240755e-001 -1.675510e-003 -9.745704e-001
    outer loop
      vertex -2.630514e+001  1.525426e+001  1.169302e+001
      vertex -2.701677e+001  1.254484e+001  1.186130e+001
      vertex -2.712952e+001  1.573589e+001  1.188174e+001
    endloop
  endfacet
  facet normal -9.159616e-002  3.141619e-003 -9.957913e-001
    outer loop
      vertex -2.701677e+001  1.254484e+001  1.186130e+001
      vertex -2.850000e+001  1.326393e+001  1.200000e+001
      vertex -2.712952e+001  1.573589e+001  1.188174e+001
    endloop
  endfacet
  facet normal -1.129964e-001  1.511668e-002 -9.934804e-001
    outer loop
      vertex -2.712952e+001  1.573589e+001  1.188174e+001
      vertex -2.850000e+001  1.326393e+001  1.200000e+001
      vertex -2.749588e+001  1.661180e+001  1.193673e+001
    endloop
  endfacet
  facet normal  7.776622e-001  6.264223e-001 -5.325888e-002
    outer loop
      vertex -2.671914e+001  1.540652e+001  1.400000e+001
      vertex -2.712952e+001  1.573589e+001  1.188174e+001
      vertex -2.743933e+001  1.630058e+001  1.400000e+001
    endloop
  endfacet
  facet normal  5.100723e-001  8.594267e-001  3.481260e-002
    outer loop
      vertex -2.671914e+001  1.540652e+001  1.400000e+001
      vertex -2.630514e+001  1.525426e+001  1.169302e+001
      vertex -2.712952e+001  1.573589e+001  1.188174e+001
    endloop
  endfacet
  facet normal  9.227906e-001  3.839188e-001  3.261437e-002
    outer loop
      vertex -2.712952e+001  1.573589e+001  1.188174e+001
      vertex -2.749588e+001  1.661180e+001  1.193673e+001
      vertex -2.743933e+001  1.630058e+001  1.400000e+001
    endloop
  endfacet
  facet normal  9.753596e-001 -2.126387e-001 -5.880827e-002
    outer loop
      vertex -2.743933e+001  1.630058e+001  1.400000e+001
      vertex -2.749588e+001  1.661180e+001  1.193673e+001
      vertex -2.731637e+001  1.744203e+001  1.191195e+001
    endloop
  endfacet
  facet normal  9.942487e-001 -1.070958e-001  0.000000e+000
    outer loop
      vertex -2.743933e+001  1.630058e+001  1.400000e+001
      vertex -2.731637e+001  1.744203e+001  1.191195e+001
      vertex -2.731637e+001  1.744203e+001  1.400000e+001
    endloop
  endfacet
  facet normal -4.165553e-001  9.088217e-001  2.290922e-002
    outer loop
      vertex -2.496837e+001  1.563398e+001  1.117827e+001
      vertex -2.582243e+001  1.523344e+001  1.153861e+001
      vertex -2.557769e+001  1.528357e+001  1.400000e+001
    endloop
  endfacet
  facet normal  3.544885e-002  9.990863e-001 -2.387177e-002
    outer loop
      vertex -2.557769e+001  1.528357e+001  1.400000e+001
      vertex -2.582243e+001  1.523344e+001  1.153861e+001
      vertex -2.630514e+001  1.525426e+001  1.169302e+001
    endloop
  endfacet
  facet normal  1.069799e-001  9.931801e-001 -4.635229e-002
    outer loop
      vertex -2.557769e+001  1.528357e+001  1.400000e+001
      vertex -2.630514e+001  1.525426e+001  1.169302e+001
      vertex -2.671914e+001  1.540652e+001  1.400000e+001
    endloop
  endfacet
  facet normal -7.923139e-001  6.101138e-001  0.000000e+000
    outer loop
      vertex -2.468363e+001  1.600375e+001  1.103102e+001
      vertex -2.496837e+001  1.563398e+001  1.117827e+001
      vertex -2.468363e+001  1.600375e+001  1.400000e+001
    endloop
  endfacet
  facet normal -6.268416e-001  7.781838e-001 -3.872277e-002
    outer loop
      vertex -2.468363e+001  1.600375e+001  1.400000e+001
      vertex -2.496837e+001  1.563398e+001  1.117827e+001
      vertex -2.557769e+001  1.528357e+001  1.400000e+001
    endloop
  endfacet
  facet normal -7.782326e-001 -6.268818e-001 -3.705607e-002
    outer loop
      vertex -2.528086e+001  1.803927e+001  1.400000e+001
      vertex -2.494221e+001  1.778642e+001  1.116534e+001
      vertex -2.456067e+001  1.714520e+001  1.400000e+001
    endloop
  endfacet
  facet normal -8.903551e-001 -4.549521e-001  1.692691e-002
    outer loop
      vertex -2.494221e+001  1.778642e+001  1.116534e+001
      vertex -2.451651e+001  1.694484e+001  1.093771e+001
      vertex -2.456067e+001  1.714520e+001  1.400000e+001
    endloop
  endfacet
  facet normal -9.847089e-001  1.723345e-001 -2.547667e-002
    outer loop
      vertex -2.456067e+001  1.714520e+001  1.400000e+001
      vertex -2.451651e+001  1.694484e+001  1.093771e+001
      vertex -2.468363e+001  1.600375e+001  1.103102e+001
    endloop
  endfacet
  facet normal -9.942487e-001  1.070958e-001  0.000000e+000
    outer loop
      vertex -2.456067e+001  1.714520e+001  1.400000e+001
      vertex -2.468363e+001  1.600375e+001  1.103102e+001
      vertex -2.468363e+001  1.600375e+001  1.400000e+001
    endloop
  endfacet
  facet normal -4.367864e-001 -8.991288e-001  2.801958e-002
    outer loop
      vertex -2.494221e+001  1.778642e+001  1.116534e+001
      vertex -2.528086e+001  1.803927e+001  1.400000e+001
      vertex -2.578601e+001  1.820755e+001  1.152557e+001
    endloop
  endfacet
  facet normal -1.069839e-001 -9.932096e-001 -4.570685e-002
    outer loop
      vertex -2.578601e+001  1.820755e+001  1.152557e+001
      vertex -2.528086e+001  1.803927e+001  1.400000e+001
      vertex -2.642231e+001  1.816222e+001  1.400000e+001
    endloop
  endfacet
  facet normal  1.373754e-002 -9.997964e-001 -1.478382e-002
    outer loop
      vertex -2.578601e+001  1.820755e+001  1.152557e+001
      vertex -2.642231e+001  1.816222e+001  1.400000e+001
      vertex -2.626890e+001  1.819859e+001  1.168259e+001
    endloop
  endfacet
  facet normal  4.862969e-001 -8.735982e-001  1.847995e-002
    outer loop
      vertex -2.626890e+001  1.819859e+001  1.168259e+001
      vertex -2.642231e+001  1.816222e+001  1.400000e+001
      vertex -2.710497e+001  1.773731e+001  1.187743e+001
    endloop
  endfacet
  facet normal  6.266541e-001 -7.779499e-001 -4.580941e-002
    outer loop
      vertex -2.710497e+001  1.773731e+001  1.187743e+001
      vertex -2.642231e+001  1.816222e+001  1.400000e+001
      vertex -2.731637e+001  1.744203e+001  1.400000e+001
    endloop
  endfacet
  facet normal  8.130942e-001 -5.821322e-001  0.000000e+000
    outer loop
      vertex -2.710497e+001  1.773731e+001  1.187743e+001
      vertex -2.731637e+001  1.744203e+001  1.400000e+001
      vertex -2.731637e+001  1.744203e+001  1.191195e+001
    endloop
  endfacet
  facet normal  9.757673e-001 -2.017122e-002 -2.178787e-001
    outer loop
      vertex  2.125985e+001  2.050000e+001  7.402970e+000
      vertex  2.110896e+001  1.688979e+001  7.061468e+000
      vertex  2.050000e+001  2.050000e+001  4.000000e+000
    endloop
  endfacet
  facet normal  8.313378e-001  1.780017e-002 -5.554822e-001
    outer loop
      vertex  2.284315e+001  1.688979e+001  9.656855e+000
      vertex  2.110896e+001  1.688979e+001  7.061468e+000
      vertex  2.125985e+001  2.050000e+001  7.402970e+000
    endloop
  endfacet
  facet normal  7.902308e-001  2.926226e-002 -6.121102e-001
    outer loop
      vertex  2.284315e+001  1.688979e+001  9.656855e+000
      vertex  2.339505e+001  1.250000e+001  1.015950e+001
      vertex  2.125985e+001  1.250000e+001  7.402970e+000
    endloop
  endfacet
  facet normal  6.065000e-001 -1.477267e-002 -7.949462e-001
    outer loop
      vertex  2.339505e+001  1.250000e+001  1.015950e+001
      vertex  2.284315e+001  1.688979e+001  9.656855e+000
      vertex  2.451651e+001  1.666545e+001  1.093771e+001
    endloop
  endfacet
  facet normal  2.179689e-001  1.793968e-003 -9.759541e-001
    outer loop
      vertex  2.650000e+001  2.050000e+001  1.174597e+001
      vertex  2.701677e+001  2.045516e+001  1.186130e+001
      vertex  2.712952e+001  1.787440e+001  1.188174e+001
    endloop
  endfacet
  facet normal  2.251413e-001  3.598162e-003 -9.743195e-001
    outer loop
      vertex  2.650000e+001  2.050000e+001  1.174597e+001
      vertex  2.712952e+001  1.787440e+001  1.188174e+001
      vertex  2.630514e+001  1.835603e+001  1.169302e+001
    endloop
  endfacet
  facet normal  3.045135e-001 -4.154659e-003 -9.524989e-001
    outer loop
      vertex  2.650000e+001  2.050000e+001  1.174597e+001
      vertex  2.630514e+001  1.835603e+001  1.169302e+001
      vertex  2.582243e+001  1.837685e+001  1.153861e+001
    endloop
  endfacet
  facet normal  4.041862e-001 -3.974209e-002 -9.138129e-001
    outer loop
      vertex  2.650000e+001  2.050000e+001  1.174597e+001
      vertex  2.582243e+001  1.837685e+001  1.153861e+001
      vertex  2.496837e+001  1.797631e+001  1.117827e+001
    endloop
  endfacet
  facet normal  6.996851e-001 -2.764449e-001 -6.588012e-001
    outer loop
      vertex  2.650000e+001  2.050000e+001  1.174597e+001
      vertex  2.496837e+001  1.797631e+001  1.117827e+001
      vertex  2.468363e+001  1.760653e+001  1.103102e+001
    endloop
  endfacet
  facet normal  4.540191e-001 -6.545104e-002 -8.885847e-001
    outer loop
      vertex  2.650000e+001  2.050000e+001  1.174597e+001
      vertex  2.468363e+001  1.760653e+001  1.103102e+001
      vertex  2.339505e+001  2.050000e+001  1.015950e+001
    endloop
  endfacet
  facet normal  4.545576e-001  4.382550e-002 -8.896385e-001
    outer loop
      vertex  2.650000e+001  1.250000e+001  1.174597e+001
      vertex  2.339505e+001  1.250000e+001  1.015950e+001
      vertex  2.451651e+001  1.666545e+001  1.093771e+001
    endloop
  endfacet
  facet normal  8.732895e-001  3.500959e-001 -3.388190e-001
    outer loop
      vertex  2.650000e+001  1.250000e+001  1.174597e+001
      vertex  2.451651e+001  1.666545e+001  1.093771e+001
      vertex  2.494221e+001  1.582387e+001  1.116534e+001
    endloop
  endfacet
  facet normal  4.052021e-001  3.029272e-002 -9.137251e-001
    outer loop
      vertex  2.650000e+001  1.250000e+001  1.174597e+001
      vertex  2.494221e+001  1.582387e+001  1.116534e+001
      vertex  2.578601e+001  1.540274e+001  1.152557e+001
    endloop
  endfacet
  facet normal  3.091574e-001  3.838014e-003 -9.510031e-001
    outer loop
      vertex  2.650000e+001  1.250000e+001  1.174597e+001
      vertex  2.578601e+001  1.540274e+001  1.152557e+001
      vertex  2.626890e+001  1.541170e+001  1.168259e+001
    endloop
  endfacet
  facet normal  2.285544e-001 -3.049661e-003 -9.735265e-001
    outer loop
      vertex  2.650000e+001  1.250000e+001  1.174597e+001
      vertex  2.626890e+001  1.541170e+001  1.168259e+001
      vertex  2.710497e+001  1.587298e+001  1.187743e+001
    endloop
  endfacet
  facet normal  2.179072e-001 -1.044803e-003 -9.759689e-001
    outer loop
      vertex  2.650000e+001  1.250000e+001  1.174597e+001
      vertex  2.710497e+001  1.587298e+001  1.187743e+001
      vertex  2.701677e+001  1.254484e+001  1.186130e+001
    endloop
  endfacet
  facet normal  8.313805e-001 -1.463978e-002 -5.555108e-001
    outer loop
      vertex  2.284315e+001  1.688979e+001  9.656855e+000
      vertex  2.125985e+001  1.250000e+001  7.402970e+000
      vertex  2.110896e+001  1.688979e+001  7.061468e+000
    endloop
  endfacet
  facet normal  9.758317e-001  1.659009e-002 -2.178930e-001
    outer loop
      vertex  2.110896e+001  1.688979e+001  7.061468e+000
      vertex  2.125985e+001  1.250000e+001  7.402970e+000
      vertex  2.050000e+001  1.250000e+001  4.000000e+000
    endloop
  endfacet
  facet normal  9.807853e-001  0.000000e+000 -1.950901e-001
    outer loop
      vertex  2.110896e+001  1.688979e+001  7.061468e+000
      vertex  2.050000e+001  1.250000e+001  4.000000e+000
      vertex  2.050000e+001  2.050000e+001  4.000000e+000
    endloop
  endfacet
  facet normal  7.900689e-001 -3.557386e-002 -6.119848e-001
    outer loop
      vertex  2.125985e+001  2.050000e+001  7.402970e+000
      vertex  2.339505e+001  2.050000e+001  1.015950e+001
      vertex  2.284315e+001  1.688979e+001  9.656855e+000
    endloop
  endfacet
  facet normal  5.927514e-001  2.147806e-002 -8.050991e-001
    outer loop
      vertex  2.284315e+001  1.688979e+001  9.656855e+000
      vertex  2.339505e+001  2.050000e+001  1.015950e+001
      vertex  2.468363e+001  1.760653e+001  1.103102e+001
    endloop
  endfacet
  facet normal  6.051495e-001 -2.857254e-002 -7.955989e-001
    outer loop
      vertex  2.284315e+001  1.688979e+001  9.656855e+000
      vertex  2.468363e+001  1.760653e+001  1.103102e+001
      vertex  2.451651e+001  1.666545e+001  1.093771e+001
    endloop
  endfacet
  facet normal  1.604563e-001  5.315199e-004 -9.870428e-001
    outer loop
      vertex  2.731637e+001  1.616826e+001  1.191195e+001
      vertex  2.701677e+001  1.254484e+001  1.186130e+001
      vertex  2.710497e+001  1.587298e+001  1.187743e+001
    endloop
  endfacet
  facet normal  8.998871e-002  6.482386e-003 -9.959217e-001
    outer loop
      vertex  2.701677e+001  1.254484e+001  1.186130e+001
      vertex  2.731637e+001  1.616826e+001  1.191195e+001
      vertex  2.850000e+001  1.326393e+001  1.200000e+001
    endloop
  endfacet
  facet normal  9.600154e-002  8.950452e-003 -9.953410e-001
    outer loop
      vertex  2.850000e+001  1.326393e+001  1.200000e+001
      vertex  2.731637e+001  1.616826e+001  1.191195e+001
      vertex  2.749588e+001  1.699849e+001  1.193673e+001
    endloop
  endfacet
  facet normal  6.288154e-002  0.000000e+000 -9.980210e-001
    outer loop
      vertex  2.850000e+001  1.326393e+001  1.200000e+001
      vertex  2.749588e+001  1.699849e+001  1.193673e+001
      vertex  2.850000e+001  1.973607e+001  1.200000e+001
    endloop
  endfacet
  facet normal  1.087524e-001 -1.691970e-002 -9.939248e-001
    outer loop
      vertex  2.850000e+001  1.973607e+001  1.200000e+001
      vertex  2.749588e+001  1.699849e+001  1.193673e+001
      vertex  2.712952e+001  1.787440e+001  1.188174e+001
    endloop
  endfacet
  facet normal  9.123102e-002 -3.900736e-003 -9.958221e-001
    outer loop
      vertex  2.850000e+001  1.973607e+001  1.200000e+001
      vertex  2.712952e+001  1.787440e+001  1.188174e+001
      vertex  2.701677e+001  2.045516e+001  1.186130e+001
    endloop
  endfacet
  facet normal  7.782326e-001  6.268818e-001 -3.705607e-002
    outer loop
      vertex  2.528086e+001  1.557102e+001  1.400000e+001
      vertex  2.494221e+001  1.582387e+001  1.116534e+001
      vertex  2.456067e+001  1.646509e+001  1.400000e+001
    endloop
  endfacet
  facet normal  8.903551e-001  4.549521e-001  1.692691e-002
    outer loop
      vertex  2.494221e+001  1.582387e+001  1.116534e+001
      vertex  2.451651e+001  1.666545e+001  1.093771e+001
      vertex  2.456067e+001  1.646509e+001  1.400000e+001
    endloop
  endfacet
  facet normal  9.847089e-001 -1.723345e-001 -2.547667e-002
    outer loop
      vertex  2.456067e+001  1.646509e+001  1.400000e+001
      vertex  2.451651e+001  1.666545e+001  1.093771e+001
      vertex  2.468363e+001  1.760653e+001  1.103102e+001
    endloop
  endfacet
  facet normal  9.942487e-001 -1.070958e-001  0.000000e+000
    outer loop
      vertex  2.456067e+001  1.646509e+001  1.400000e+001
      vertex  2.468363e+001  1.760653e+001  1.103102e+001
      vertex  2.468363e+001  1.760653e+001  1.400000e+001
    endloop
  endfacet
  facet normal  4.367864e-001  8.991288e-001  2.801958e-002
    outer loop
      vertex  2.494221e+001  1.582387e+001  1.116534e+001
      vertex  2.528086e+001  1.557102e+001  1.400000e+001
      vertex  2.578601e+001  1.540274e+001  1.152557e+001
    endloop
  endfacet
  facet normal  1.069830e-001  9.932096e-001 -4.570702e-002
    outer loop
      vertex  2.578601e+001  1.540274e+001  1.152557e+001
      vertex  2.528086e+001  1.557102e+001  1.400000e+001
      vertex  2.642231e+001  1.544807e+001  1.400000e+001
    endloop
  endfacet
  facet normal -1.373741e-002  9.997964e-001 -1.478424e-002
    outer loop
      vertex  2.578601e+001  1.540274e+001  1.152557e+001
      vertex  2.642231e+001  1.544807e+001  1.400000e+001
      vertex  2.626890e+001  1.541170e+001  1.168259e+001
    endloop
  endfacet
  facet normal -4.862969e-001  8.735982e-001  1.847959e-002
    outer loop
      vertex  2.626890e+001  1.541170e+001  1.168259e+001
      vertex  2.642231e+001  1.544807e+001  1.400000e+001
      vertex  2.710497e+001  1.587298e+001  1.187743e+001
    endloop
  endfacet
  facet normal -6.266536e-001  7.779503e-001 -4.580951e-002
    outer loop
      vertex  2.710497e+001  1.587298e+001  1.187743e+001
      vertex  2.642231e+001  1.544807e+001  1.400000e+001
      vertex  2.731637e+001  1.616826e+001  1.400000e+001
    endloop
  endfacet
  facet normal -8.130942e-001  5.821322e-001  0.000000e+000
    outer loop
      vertex  2.710497e+001  1.587298e+001  1.187743e+001
      vertex  2.731637e+001  1.616826e+001  1.400000e+001
      vertex  2.731637e+001  1.616826e+001  1.191195e+001
    endloop
  endfacet
  facet normal -7.776622e-001 -6.264223e-001 -5.325860e-002
    outer loop
      vertex  2.671914e+001  1.820377e+001  1.400000e+001
      vertex  2.712952e+001  1.787440e+001  1.188174e+001
      vertex  2.743933e+001  1.730971e+001  1.400000e+001
    endloop
  endfacet
  facet normal -5.100731e-001 -8.594263e-001  3.481277e-002
    outer loop
      vertex  2.671914e+001  1.820377e+001  1.400000e+001
      vertex  2.630514e+001  1.835603e+001  1.169302e+001
      vertex  2.712952e+001  1.787440e+001  1.188174e+001
    endloop
  endfacet
  facet normal -9.227905e-001 -3.839191e-001  3.261443e-002
    outer loop
      vertex  2.712952e+001  1.787440e+001  1.188174e+001
      vertex  2.749588e+001  1.699849e+001  1.193673e+001
      vertex  2.743933e+001  1.730971e+001  1.400000e+001
    endloop
  endfacet
  facet normal -9.753596e-001  2.126387e-001 -5.880827e-002
    outer loop
      vertex  2.743933e+001  1.730971e+001  1.400000e+001
      vertex  2.749588e+001  1.699849e+001  1.193673e+001
      vertex  2.731637e+001  1.616826e+001  1.191195e+001
    endloop
  endfacet
  facet normal -9.942487e-001  1.070958e-001  0.000000e+000
    outer loop
      vertex  2.743933e+001  1.730971e+001  1.400000e+001
      vertex  2.731637e+001  1.616826e+001  1.191195e+001
      vertex  2.731637e+001  1.616826e+001  1.400000e+001
    endloop
  endfacet
  facet normal  4.165552e-001 -9.088217e-001  2.290955e-002
    outer loop
      vertex  2.496837e+001  1.797631e+001  1.117827e+001
      vertex  2.582243e+001  1.837685e+001  1.153861e+001
      vertex  2.557769e+001  1.832672e+001  1.400000e+001
    endloop
  endfacet
  facet normal -3.544897e-002 -9.990864e-001 -2.387139e-002
    outer loop
      vertex  2.557769e+001  1.832672e+001  1.400000e+001
      vertex  2.582243e+001  1.837685e+001  1.153861e+001
      vertex  2.630514e+001  1.835603e+001  1.169302e+001
    endloop
  endfacet
  facet normal -1.069807e-001 -9.931800e-001 -4.635213e-002
    outer loop
      vertex  2.557769e+001  1.832672e+001  1.400000e+001
      vertex  2.630514e+001  1.835603e+001  1.169302e+001
      vertex  2.671914e+001  1.820377e+001  1.400000e+001
    endloop
  endfacet
  facet normal  7.923139e-001 -6.101138e-001  0.000000e+000
    outer loop
      vertex  2.468363e+001  1.760653e+001  1.103102e+001
      vertex  2.496837e+001  1.797631e+001  1.117827e+001
      vertex  2.468363e+001  1.760653e+001  1.400000e+001
    endloop
  endfacet
  facet normal  6.268421e-001 -7.781835e-001 -3.872267e-002
    outer loop
      vertex  2.468363e+001  1.760653e+001  1.400000e+001
      vertex  2.496837e+001  1.797631e+001  1.117827e+001
      vertex  2.557769e+001  1.832672e+001  1.400000e+001
    endloop
  endfacet
  facet normal -2.588193e-001  9.659258e-001  0.000000e+000
    outer loop
      vertex -2.650000e+001  2.050000e+001  1.400000e+001
      vertex -2.650000e+001  2.050000e+001  1.174597e+001
      vertex -2.800000e+001  2.009808e+001  1.400000e+001
    endloop
  endfacet
  facet normal -5.455020e-002  9.886494e-001  1.399876e-001
    outer loop
      vertex -2.800000e+001  2.009808e+001  1.400000e+001
      vertex -2.650000e+001  2.050000e+001  1.174597e+001
      vertex -2.701677e+001  2.045516e+001  1.186130e+001
    endloop
  endfacet
  facet normal -4.396096e-001  8.966594e-001 -5.239616e-002
    outer loop
      vertex -2.800000e+001  2.009808e+001  1.400000e+001
      vertex -2.701677e+001  2.045516e+001  1.186130e+001
      vertex -2.850000e+001  1.973607e+001  1.200000e+001
    endloop
  endfacet
  facet normal -7.062666e-001  7.062666e-001  4.872988e-002
    outer loop
      vertex -2.800000e+001  2.009808e+001  1.400000e+001
      vertex -2.850000e+001  1.973607e+001  1.200000e+001
      vertex -2.909808e+001  1.900000e+001  1.400000e+001
    endloop
  endfacet
  facet normal -8.073143e-001  5.896162e-001 -2.441859e-002
    outer loop
      vertex -2.909808e+001  1.900000e+001  1.400000e+001
      vertex -2.850000e+001  1.973607e+001  1.200000e+001
      vertex -2.923861e+001  1.872474e+001  1.200000e+001
    endloop
  endfacet
  facet normal -9.654238e-001  2.586847e-001  3.223684e-002
    outer loop
      vertex -2.909808e+001  1.900000e+001  1.400000e+001
      vertex -2.923861e+001  1.872474e+001  1.200000e+001
      vertex -2.950000e+001  1.750000e+001  1.400000e+001
    endloop
  endfacet
  facet normal -9.779753e-001  2.087210e-001  0.000000e+000
    outer loop
      vertex -2.950000e+001  1.750000e+001  1.400000e+001
      vertex -2.923861e+001  1.872474e+001  1.200000e+001
      vertex -2.950000e+001  1.750000e+001  1.200000e+001
    endloop
  endfacet
  facet normal -9.659258e-001 -2.588193e-001  0.000000e+000
    outer loop
      vertex -2.950000e+001  1.550000e+001  1.400000e+001
      vertex -2.950000e+001  1.550000e+001  1.200000e+001
      vertex -2.909808e+001  1.400000e+001  1.400000e+001
    endloop
  endfacet
  facet normal -9.771940e-001 -2.085542e-001  3.996327e-002
    outer loop
      vertex -2.909808e+001  1.400000e+001  1.400000e+001
      vertex -2.950000e+001  1.550000e+001  1.200000e+001
      vertex -2.923861e+001  1.427526e+001  1.200000e+001
    endloop
  endfacet
  facet normal -7.063060e-001 -7.063060e-001 -4.757605e-002
    outer loop
      vertex -2.909808e+001  1.400000e+001  1.400000e+001
      vertex -2.923861e+001  1.427526e+001  1.200000e+001
      vertex -2.800000e+001  1.290192e+001  1.400000e+001
    endloop
  endfacet
  facet normal -8.039251e-001 -5.871415e-001  9.470630e-002
    outer loop
      vertex -2.800000e+001  1.290192e+001  1.400000e+001
      vertex -2.923861e+001  1.427526e+001  1.200000e+001
      vertex -2.850000e+001  1.326393e+001  1.200000e+001
    endloop
  endfacet
  facet normal -2.572638e-001 -9.601207e-001 -1.094698e-001
    outer loop
      vertex -2.800000e+001  1.290192e+001  1.400000e+001
      vertex -2.850000e+001  1.326393e+001  1.200000e+001
      vertex -2.650000e+001  1.250000e+001  1.400000e+001
    endloop
  endfacet
  facet normal -4.282643e-001 -8.996832e-001  8.461585e-002
    outer loop
      vertex -2.650000e+001  1.250000e+001  1.400000e+001
      vertex -2.850000e+001  1.326393e+001  1.200000e+001
      vertex -2.701677e+001  1.254484e+001  1.186130e+001
    endloop
  endfacet
  facet normal -8.645087e-002 -9.962562e-001  0.000000e+000
    outer loop
      vertex -2.650000e+001  1.250000e+001  1.400000e+001
      vertex -2.701677e+001  1.254484e+001  1.186130e+001
      vertex -2.650000e+001  1.250000e+001  1.174597e+001
    endloop
  endfacet
  facet normal  0.000000e+000  -0.000000e+000 -9.999999e-001
    outer loop
      vertex -2.950000e+001  1.750000e+001  1.200000e+001
      vertex -2.923861e+001  1.872474e+001  1.200000e+001
      vertex -2.850000e+001  1.973607e+001  1.200000e+001
    endloop
  endfacet
  facet normal  0.000000e+000  0.000000e+000 -1.000000e+000
    outer loop
      vertex -2.923861e+001  1.427526e+001  1.200000e+001
      vertex -2.950000e+001  1.550000e+001  1.200000e+001
      vertex -2.850000e+001  1.326393e+001  1.200000e+001
    endloop
  endfacet
  facet normal  0.000000e+000  0.000000e+000 -1.000000e+000
    outer loop
      vertex -2.850000e+001  1.326393e+001  1.200000e+001
      vertex -2.950000e+001  1.550000e+001  1.200000e+001
      vertex -2.950000e+001  1.750000e+001  1.200000e+001
    endloop
  endfacet
  facet normal  0.000000e+000  0.000000e+000 -1.000000e+000
    outer loop
      vertex -2.850000e+001  1.326393e+001  1.200000e+001
      vertex -2.950000e+001  1.750000e+001  1.200000e+001
      vertex -2.850000e+001  1.973607e+001  1.200000e+001
    endloop
  endfacet
  facet normal -1.000000e+000  0.000000e+000  0.000000e+000
    outer loop
      vertex -2.050000e+001  2.050000e+001  0.000000e+000
      vertex -2.050000e+001 -1.750000e+001  0.000000e+000
      vertex -2.050000e+001  2.050000e+001  4.000000e+000
    endloop
  endfacet
  facet normal -1.000000e+000  -0.000000e+000  0.000000e+000
    outer loop
      vertex -2.050000e+001  2.050000e+001  4.000000e+000
      vertex -2.050000e+001 -1.750000e+001  0.000000e+000
      vertex -2.050000e+001  1.250000e+001  4.000000e+000
    endloop
  endfacet
  facet normal -1.000000e+000  0.000000e+000  0.000000e+000
    outer loop
      vertex -2.050000e+001 -1.750000e+001  0.000000e+000
      vertex -2.050000e+001 -1.750000e+001  1.400000e+001
      vertex -2.050000e+001  1.250000e+001  4.000000e+000
    endloop
  endfacet
  facet normal -1.000000e+000  0.000000e+000  0.000000e+000
    outer loop
      vertex -2.050000e+001  1.250000e+001  4.000000e+000
      vertex -2.050000e+001 -1.750000e+001  1.400000e+001
      vertex -2.050000e+001  1.250000e+001  1.400000e+001
    endloop
  endfacet
  facet normal  0.000000e+000 -1.000000e+000  0.000000e+000
    outer loop
      vertex -2.050000e+001  1.250000e+001  1.400000e+001
      vertex -2.650000e+001  1.250000e+001  1.400000e+001
      vertex -2.650000e+001  1.250000e+001  1.174597e+001
    endloop
  endfacet
  facet normal  0.000000e+000 -1.000000e+000  0.000000e+000
    outer loop
      vertex -2.050000e+001  1.250000e+001  1.400000e+001
      vertex -2.650000e+001  1.250000e+001  1.174597e+001
      vertex -2.339505e+001  1.250000e+001  1.015950e+001
    endloop
  endfacet
  facet normal  0.000000e+000 -1.000000e+000  0.000000e+000
    outer loop
      vertex -2.050000e+001  1.250000e+001  1.400000e+001
      vertex -2.339505e+001  1.250000e+001  1.015950e+001
      vertex -2.125985e+001  1.250000e+001  7.402970e+000
    endloop
  endfacet
  facet normal  0.000000e+000 -1.000000e+000  0.000000e+000
    outer loop
      vertex -2.050000e+001  1.250000e+001  1.400000e+001
      vertex -2.125985e+001  1.250000e+001  7.402970e+000
      vertex -2.050000e+001  1.250000e+001  4.000000e+000
    endloop
  endfacet
  facet normal  0.000000e+000  1.000000e+000  0.000000e+000
    outer loop
      vertex -2.125985e+001  2.050000e+001  7.402970e+000
      vertex  2.050000e+001  2.050000e+001  0.000000e+000
      vertex -2.050000e+001  2.050000e+001  4.000000e+000
    endloop
  endfacet
  facet normal  0.000000e+000  9.999999e-001  0.000000e+000
    outer loop
      vertex  2.050000e+001  2.050000e+001  0.000000e+000
      vertex -2.050000e+001  2.050000e+001  0.000000e+000
      vertex -2.050000e+001  2.050000e+001  4.000000e+000
    endloop
  endfacet
  facet normal  0.000000e+000  1.000000e+000  0.000000e+000
    outer loop
      vertex -2.125985e+001  2.050000e+001  7.402970e+000
      vertex -2.339505e+001  2.050000e+001  1.015950e+001
      vertex  2.050000e+001  2.050000e+001  0.000000e+000
    endloop
  endfacet
  facet normal  0.000000e+000  1.000000e+000  0.000000e+000
    outer loop
      vertex -2.650000e+001  2.050000e+001  1.400000e+001
      vertex  2.650000e+001  2.050000e+001  1.400000e+001
      vertex  2.650000e+001  2.050000e+001  1.174597e+001
    endloop
  endfacet
  facet normal  0.000000e+000  9.999999e-001  0.000000e+000
    outer loop
      vertex -2.650000e+001  2.050000e+001  1.400000e+001
      vertex  2.650000e+001  2.050000e+001  1.174597e+001
      vertex  2.339505e+001  2.050000e+001  1.015950e+001
    endloop
  endfacet
  facet normal  0.000000e+000  1.000000e+000  0.000000e+000
    outer loop
      vertex -2.650000e+001  2.050000e+001  1.400000e+001
      vertex  2.339505e+001  2.050000e+001  1.015950e+001
      vertex  2.125985e+001  2.050000e+001  7.402970e+000
    endloop
  endfacet
  facet normal  0.000000e+000  1.000000e+000  0.000000e+000
    outer loop
      vertex -2.650000e+001  2.050000e+001  1.400000e+001
      vertex  2.125985e+001  2.050000e+001  7.402970e+000
      vertex  2.050000e+001  2.050000e+001  4.000000e+000
    endloop
  endfacet
  facet normal  0.000000e+000  9.999999e-001  0.000000e+000
    outer loop
      vertex -2.650000e+001  2.050000e+001  1.400000e+001
      vertex  2.050000e+001  2.050000e+001  4.000000e+000
      vertex  2.050000e+001  2.050000e+001  0.000000e+000
    endloop
  endfacet
  facet normal  0.000000e+000  1.000000e+000  0.000000e+000
    outer loop
      vertex -2.650000e+001  2.050000e+001  1.400000e+001
      vertex  2.050000e+001  2.050000e+001  0.000000e+000
      vertex -2.339505e+001  2.050000e+001  1.015950e+001
    endloop
  endfacet
  facet normal  0.000000e+000  1.000000e+000  0.000000e+000
    outer loop
      vertex -2.650000e+001  2.050000e+001  1.400000e+001
      vertex -2.339505e+001  2.050000e+001  1.015950e+001
      vertex -2.650000e+001  2.050000e+001  1.174597e+001
    endloop
  endfacet
  facet normal -2.588193e-001 -9.659258e-001  -0.000000e+000
    outer loop
      vertex -1.750000e+001 -2.050000e+001  0.000000e+000
      vertex -1.750000e+001 -2.050000e+001  1.400000e+001
      vertex -1.900000e+001 -2.009808e+001  0.000000e+000
    endloop
  endfacet
  facet normal -2.588193e-001 -9.659258e-001  0.000000e+000
    outer loop
      vertex -1.900000e+001 -2.009808e+001  0.000000e+000
      vertex -1.750000e+001 -2.050000e+001  1.400000e+001
      vertex -1.900000e+001 -2.009808e+001  1.400000e+001
    endloop
  endfacet
  facet normal -7.071068e-001 -7.071068e-001  -0.000000e+000
    outer loop
      vertex -1.900000e+001 -2.009808e+001  0.000000e+000
      vertex -1.900000e+001 -2.009808e+001  1.400000e+001
      vertex -2.009808e+001 -1.900000e+001  0.000000e+000
    endloop
  endfacet
  facet normal -7.071068e-001 -7.071068e-001  0.000000e+000
    outer loop
      vertex -2.009808e+001 -1.900000e+001  0.000000e+000
      vertex -1.900000e+001 -2.009808e+001  1.400000e+001
      vertex -2.009808e+001 -1.900000e+001  1.400000e+001
    endloop
  endfacet
  facet normal -9.659258e-001 -2.588193e-001  -0.000000e+000
    outer loop
      vertex -2.009808e+001 -1.900000e+001  0.000000e+000
      vertex -2.009808e+001 -1.900000e+001  1.400000e+001
      vertex -2.050000e+001 -1.750000e+001  0.000000e+000
    endloop
  endfacet
  facet normal -9.659258e-001 -2.588193e-001  0.000000e+000
    outer loop
      vertex -2.050000e+001 -1.750000e+001  0.000000e+000
      vertex -2.009808e+001 -1.900000e+001  1.400000e+001
      vertex -2.050000e+001 -1.750000e+001  1.400000e+001
    endloop
  endfacet
  facet normal  2.588193e-001 -9.659258e-001  0.000000e+000
    outer loop
      vertex  2.650000e+001  1.250000e+001  1.400000e+001
      vertex  2.650000e+001  1.250000e+001  1.174597e+001
      vertex  2.800000e+001  1.290192e+001  1.400000e+001
    endloop
  endfacet
  facet normal  5.454806e-002 -9.886494e-001  1.399891e-001
    outer loop
      vertex  2.800000e+001  1.290192e+001  1.400000e+001
      vertex  2.650000e+001  1.250000e+001  1.174597e+001
      vertex  2.701677e+001  1.254484e+001  1.186130e+001
    endloop
  endfacet
  facet normal  4.396105e-001 -8.966590e-001 -5.239626e-002
    outer loop
      vertex  2.800000e+001  1.290192e+001  1.400000e+001
      vertex  2.701677e+001  1.254484e+001  1.186130e+001
      vertex  2.850000e+001  1.326393e+001  1.200000e+001
    endloop
  endfacet
  facet normal  7.062668e-001 -7.062668e-001  4.872955e-002
    outer loop
      vertex  2.800000e+001  1.290192e+001  1.400000e+001
      vertex  2.850000e+001  1.326393e+001  1.200000e+001
      vertex  2.909808e+001  1.400000e+001  1.400000e+001
    endloop
  endfacet
  facet normal  8.073141e-001 -5.896165e-001 -2.441866e-002
    outer loop
      vertex  2.909808e+001  1.400000e+001  1.400000e+001
      vertex  2.850000e+001  1.326393e+001  1.200000e+001
      vertex  2.923861e+001  1.427526e+001  1.200000e+001
    endloop
  endfacet
  facet normal  9.654238e-001 -2.586847e-001  3.223684e-002
    outer loop
      vertex  2.909808e+001  1.400000e+001  1.400000e+001
      vertex  2.923861e+001  1.427526e+001  1.200000e+001
      vertex  2.950000e+001  1.550000e+001  1.400000e+001
    endloop
  endfacet
  facet normal  9.779753e-001 -2.087210e-001  0.000000e+000
    outer loop
      vertex  2.950000e+001  1.550000e+001  1.400000e+001
      vertex  2.923861e+001  1.427526e+001  1.200000e+001
      vertex  2.950000e+001  1.550000e+001  1.200000e+001
    endloop
  endfacet
  facet normal  9.659258e-001  2.588193e-001  -0.000000e+000
    outer loop
      vertex  2.950000e+001  1.750000e+001  1.400000e+001
      vertex  2.950000e+001  1.750000e+001  1.200000e+001
      vertex  2.909808e+001  1.900000e+001  1.400000e+001
    endloop
  endfacet
  facet normal  9.771940e-001  2.085542e-001  3.996327e-002
    outer loop
      vertex  2.909808e+001  1.900000e+001  1.400000e+001
      vertex  2.950000e+001  1.750000e+001  1.200000e+001
      vertex  2.923861e+001  1.872474e+001  1.200000e+001
    endloop
  endfacet
  facet normal  7.063060e-001  7.063060e-001 -4.757605e-002
    outer loop
      vertex  2.909808e+001  1.900000e+001  1.400000e+001
      vertex  2.923861e+001  1.872474e+001  1.200000e+001
      vertex  2.800000e+001  2.009808e+001  1.400000e+001
    endloop
  endfacet
  facet normal  8.039254e-001  5.871411e-001  9.470671e-002
    outer loop
      vertex  2.800000e+001  2.009808e+001  1.400000e+001
      vertex  2.923861e+001  1.872474e+001  1.200000e+001
      vertex  2.850000e+001  1.973607e+001  1.200000e+001
    endloop
  endfacet
  facet normal  2.572638e-001  9.601207e-001 -1.094693e-001
    outer loop
      vertex  2.800000e+001  2.009808e+001  1.400000e+001
      vertex  2.850000e+001  1.973607e+001  1.200000e+001
      vertex  2.650000e+001  2.050000e+001  1.400000e+001
    endloop
  endfacet
  facet normal  4.282634e-001  8.996836e-001  8.461522e-002
    outer loop
      vertex  2.650000e+001  2.050000e+001  1.400000e+001
      vertex  2.850000e+001  1.973607e+001  1.200000e+001
      vertex  2.701677e+001  2.045516e+001  1.186130e+001
    endloop
  endfacet
  facet normal  8.645269e-002  9.962559e-001  0.000000e+000
    outer loop
      vertex  2.650000e+001  2.050000e+001  1.400000e+001
      vertex  2.701677e+001  2.045516e+001  1.186130e+001
      vertex  2.650000e+001  2.050000e+001  1.174597e+001
    endloop
  endfacet
  facet normal  -0.000000e+000  0.000000e+000 -1.000000e+000
    outer loop
      vertex  2.950000e+001  1.550000e+001  1.200000e+001
      vertex  2.923861e+001  1.427526e+001  1.200000e+001
      vertex  2.850000e+001  1.326393e+001  1.200000e+001
    endloop
  endfacet
  facet normal  0.000000e+000  0.000000e+000 -9.999999e-001
    outer loop
      vertex  2.923861e+001  1.872474e+001  1.200000e+001
      vertex  2.950000e+001  1.750000e+001  1.200000e+001
      vertex  2.850000e+001  1.973607e+001  1.200000e+001
    endloop
  endfacet
  facet normal  0.000000e+000  0.000000e+000 -1.000000e+000
    outer loop
      vertex  2.850000e+001  1.973607e+001  1.200000e+001
      vertex  2.950000e+001  1.750000e+001  1.200000e+001
      vertex  2.950000e+001  1.550000e+001  1.200000e+001
    endloop
  endfacet
  facet normal  -0.000000e+000  0.000000e+000 -1.000000e+000
    outer loop
      vertex  2.850000e+001  1.973607e+001  1.200000e+001
      vertex  2.950000e+001  1.550000e+001  1.200000e+001
      vertex  2.850000e+001  1.326393e+001  1.200000e+001
    endloop
  endfacet
  facet normal  1.000000e+000  0.000000e+000  0.000000e+000
    outer loop
      vertex  2.050000e+001  1.250000e+001  4.000000e+000
      vertex  2.050000e+001  1.250000e+001  1.400000e+001
      vertex  2.050000e+001  1.200000e+001  1.400000e+001
    endloop
  endfacet
  facet normal  1.000000e+000  0.000000e+000  0.000000e+000
    outer loop
      vertex  2.050000e+001  1.250000e+001  4.000000e+000
      vertex  2.050000e+001  1.200000e+001  1.400000e+001
      vertex  2.050000e+001  1.200000e+001  9.000000e+000
    endloop
  endfacet
  facet normal  1.000000e+000  0.000000e+000  0.000000e+000
    outer loop
      vertex  2.050000e+001  1.250000e+001  4.000000e+000
      vertex  2.050000e+001  1.200000e+001  9.000000e+000
      vertex  2.050000e+001 -1.200000e+001  9.000000e+000
    endloop
  endfacet
  facet normal  1.000000e+000  0.000000e+000  0.000000e+000
    outer loop
      vertex  2.050000e+001  1.250000e+001  4.000000e+000
      vertex  2.050000e+001 -1.200000e+001  9.000000e+000
      vertex  2.050000e+001 -1.750000e+001  0.000000e+000
    endloop
  endfacet
  facet normal  1.000000e+000  0.000000e+000  0.000000e+000
    outer loop
      vertex  2.050000e+001  1.250000e+001  4.000000e+000
      vertex  2.050000e+001 -1.750000e+001  0.000000e+000
      vertex  2.050000e+001  2.050000e+001  0.000000e+000
    endloop
  endfacet
  facet normal  1.000000e+000  0.000000e+000  -0.000000e+000
    outer loop
      vertex  2.050000e+001  1.250000e+001  4.000000e+000
      vertex  2.050000e+001  2.050000e+001  0.000000e+000
      vertex  2.050000e+001  2.050000e+001  4.000000e+000
    endloop
  endfacet
  facet normal  9.999999e-001  -0.000000e+000  0.000000e+000
    outer loop
      vertex  2.050000e+001 -1.200000e+001  1.400000e+001
      vertex  2.050000e+001 -1.750000e+001  1.400000e+001
      vertex  2.050000e+001 -1.200000e+001  9.000000e+000
    endloop
  endfacet
  facet normal  1.000000e+000  0.000000e+000  0.000000e+000
    outer loop
      vertex  2.050000e+001 -1.200000e+001  9.000000e+000
      vertex  2.050000e+001 -1.750000e+001  1.400000e+001
      vertex  2.050000e+001 -1.750000e+001  0.000000e+000
    endloop
  endfacet
  facet normal  0.000000e+000 -1.000000e+000  0.000000e+000
    outer loop
      vertex  2.050000e+001  1.250000e+001  1.400000e+001
      vertex  2.050000e+001  1.250000e+001  4.000000e+000
      vertex  2.125985e+001  1.250000e+001  7.402970e+000
    endloop
  endfacet
  facet normal  0.000000e+000 -1.000000e+000  0.000000e+000
    outer loop
      vertex  2.050000e+001  1.250000e+001  1.400000e+001
      vertex  2.125985e+001  1.250000e+001  7.402970e+000
      vertex  2.339505e+001  1.250000e+001  1.015950e+001
    endloop
  endfacet
  facet normal  0.000000e+000 -1.000000e+000  0.000000e+000
    outer loop
      vertex  2.050000e+001  1.250000e+001  1.400000e+001
      vertex  2.339505e+001  1.250000e+001  1.015950e+001
      vertex  2.650000e+001  1.250000e+001  1.174597e+001
    endloop
  endfacet
  facet normal  0.000000e+000 -1.000000e+000  0.000000e+000
    outer loop
      vertex  2.050000e+001  1.250000e+001  1.400000e+001
      vertex  2.650000e+001  1.250000e+001  1.174597e+001
      vertex  2.650000e+001  1.250000e+001  1.400000e+001
    endloop
  endfacet
  facet normal  9.659258e-001 -2.588193e-001  0.000000e+000
    outer loop
      vertex  2.050000e+001 -1.750000e+001  0.000000e+000
      vertex  2.050000e+001 -1.750000e+001  1.400000e+001
      vertex  2.009808e+001 -1.900000e+001  0.000000e+000
    endloop
  endfacet
  facet normal  9.659258e-001 -2.588193e-001  0.000000e+000
    outer loop
      vertex  2.009808e+001 -1.900000e+001  0.000000e+000
      vertex  2.050000e+001 -1.750000e+001  1.400000e+001
      vertex  2.009808e+001 -1.900000e+001  1.400000e+001
    endloop
  endfacet
  facet normal  7.071068e-001 -7.071068e-001  0.000000e+000
    outer loop
      vertex  2.009808e+001 -1.900000e+001  0.000000e+000
      vertex  2.009808e+001 -1.900000e+001  1.400000e+001
      vertex  1.900000e+001 -2.009808e+001  0.000000e+000
    endloop
  endfacet
  facet normal  7.071068e-001 -7.071068e-001  0.000000e+000
    outer loop
      vertex  1.900000e+001 -2.009808e+001  0.000000e+000
      vertex  2.009808e+001 -1.900000e+001  1.400000e+001
      vertex  1.900000e+001 -2.009808e+001  1.400000e+001
    endloop
  endfacet
  facet normal  2.588193e-001 -9.659258e-001  0.000000e+000
    outer loop
      vertex  1.900000e+001 -2.009808e+001  0.000000e+000
      vertex  1.900000e+001 -2.009808e+001  1.400000e+001
      vertex  1.750000e+001 -2.050000e+001  0.000000e+000
    endloop
  endfacet
  facet normal  2.588193e-001 -9.659258e-001  0.000000e+000
    outer loop
      vertex  1.750000e+001 -2.050000e+001  0.000000e+000
      vertex  1.900000e+001 -2.009808e+001  1.400000e+001
      vertex  1.750000e+001 -2.050000e+001  1.400000e+001
    endloop
  endfacet
  facet normal  1.000000e+000  0.000000e+000  0.000000e+000
    outer loop
      vertex  2.950000e+001  1.550000e+001  1.200000e+001
      vertex  2.950000e+001  1.750000e+001  1.200000e+001
      vertex  2.950000e+001  1.550000e+001  1.400000e+001
    endloop
  endfacet
  facet normal  1.000000e+000  -0.000000e+000  0.000000e+000
    outer loop
      vertex  2.950000e+001  1.550000e+001  1.400000e+001
      vertex  2.950000e+001  1.750000e+001  1.200000e+001
      vertex  2.950000e+001  1.750000e+001  1.400000e+001
    endloop
  endfacet
  facet normal -1.000000e+000  0.000000e+000  0.000000e+000
    outer loop
      vertex -2.950000e+001  1.550000e+001  1.200000e+001
      vertex -2.950000e+001  1.550000e+001  1.400000e+001
      vertex -2.950000e+001  1.750000e+001  1.200000e+001
    endloop
  endfacet
  facet normal -1.000000e+000  0.000000e+000  0.000000e+000
    outer loop
      vertex -2.950000e+001  1.750000e+001  1.200000e+001
      vertex -2.950000e+001  1.550000e+001  1.400000e+001
      vertex -2.950000e+001  1.750000e+001  1.400000e+001
    endloop
  endfacet
  facet normal  0.000000e+000  1.000000e+000  -0.000000e+000
    outer loop
      vertex  1.650000e+001 -1.950000e+001  1.400000e+001
      vertex  1.650000e+001 -1.950000e+001  2.000000e+000
      vertex -1.650000e+001 -1.950000e+001  1.400000e+001
    endloop
  endfacet
  facet normal  0.000000e+000  1.000000e+000  0.000000e+000
    outer loop
      vertex -1.650000e+001 -1.950000e+001  1.400000e+001
      vertex  1.650000e+001 -1.950000e+001  2.000000e+000
      vertex -1.650000e+001 -1.950000e+001  2.000000e+000
    endloop
  endfacet
  facet normal  -0.000000e+000  0.000000e+000  1.000000e+000
    outer loop
      vertex  1.950000e+001  1.950000e+001  2.000000e+000
      vertex -1.950000e+001  1.950000e+001  2.000000e+000
      vertex  1.950000e+001 -1.650000e+001  2.000000e+000
    endloop
  endfacet
  facet normal  0.000000e+000  0.000000e+000  1.000000e+000
    outer loop
      vertex  1.950000e+001 -1.650000e+001  2.000000e+000
      vertex -1.950000e+001  1.950000e+001  2.000000e+000
      vertex -1.950000e+001 -1.650000e+001  2.000000e+000
    endloop
  endfacet
  facet normal  -0.000000e+000  0.000000e+000  1.000000e+000
    outer loop
      vertex  1.950000e+001 -1.650000e+001  2.000000e+000
      vertex -1.950000e+001 -1.650000e+001  2.000000e+000
      vertex  1.909808e+001 -1.800000e+001  2.000000e+000
    endloop
  endfacet
  facet normal  0.000000e+000  0.000000e+000  1.000000e+000
    outer loop
      vertex  1.909808e+001 -1.800000e+001  2.000000e+000
      vertex -1.950000e+001 -1.650000e+001  2.000000e+000
      vertex -1.909808e+001 -1.800000e+001  2.000000e+000
    endloop
  endfacet
  facet normal  -0.000000e+000  0.000000e+000  1.000000e+000
    outer loop
      vertex  1.909808e+001 -1.800000e+001  2.000000e+000
      vertex -1.909808e+001 -1.800000e+001  2.000000e+000
      vertex  1.800000e+001 -1.909808e+001  2.000000e+000
    endloop
  endfacet
  facet normal  0.000000e+000  0.000000e+000  9.999999e-001
    outer loop
      vertex  1.800000e+001 -1.909808e+001  2.000000e+000
      vertex -1.909808e+001 -1.800000e+001  2.000000e+000
      vertex -1.800000e+001 -1.909808e+001  2.000000e+000
    endloop
  endfacet
  facet normal  -0.000000e+000  0.000000e+000  1.000000e+000
    outer loop
      vertex  1.800000e+001 -1.909808e+001  2.000000e+000
      vertex -1.800000e+001 -1.909808e+001  2.000000e+000
      vertex  1.650000e+001 -1.950000e+001  2.000000e+000
    endloop
  endfacet
  facet normal  0.000000e+000  0.000000e+000  9.999999e-001
    outer loop
      vertex  1.650000e+001 -1.950000e+001  2.000000e+000
      vertex -1.800000e+001 -1.909808e+001  2.000000e+000
      vertex -1.650000e+001 -1.950000e+001  2.000000e+000
    endloop
  endfacet
  facet normal  1.000000e+000  0.000000e+000  0.000000e+000
    outer loop
      vertex -1.950000e+001 -1.650000e+001  1.400000e+001
      vertex -1.950000e+001 -1.650000e+001  2.000000e+000
      vertex -1.950000e+001  1.950000e+001  1.400000e+001
    endloop
  endfacet
  facet normal  1.000000e+000  0.000000e+000  0.000000e+000
    outer loop
      vertex -1.950000e+001  1.950000e+001  1.400000e+001
      vertex -1.950000e+001 -1.650000e+001  2.000000e+000
      vertex -1.950000e+001  1.950000e+001  2.000000e+000
    endloop
  endfacet
  facet normal  2.588192e-001  9.659257e-001  0.000000e+000
    outer loop
      vertex -1.800000e+001 -1.909808e+001  2.000000e+000
      vertex -1.650000e+001 -1.950000e+001  1.400000e+001
      vertex -1.650000e+001 -1.950000e+001  2.000000e+000
    endloop
  endfacet
  facet normal  2.588192e-001  9.659257e-001  -0.000000e+000
    outer loop
      vertex -1.650000e+001 -1.950000e+001  1.400000e+001
      vertex -1.800000e+001 -1.909808e+001  2.000000e+000
      vertex -1.800000e+001 -1.909808e+001  1.400000e+001
    endloop
  endfacet
  facet normal  7.071068e-001  7.071068e-001  0.000000e+000
    outer loop
      vertex -1.800000e+001 -1.909808e+001  1.400000e+001
      vertex -1.800000e+001 -1.909808e+001  2.000000e+000
      vertex -1.909808e+001 -1.800000e+001  2.000000e+000
    endloop
  endfacet
  facet normal  7.071068e-001  7.071068e-001  -0.000000e+000
    outer loop
      vertex -1.800000e+001 -1.909808e+001  1.400000e+001
      vertex -1.909808e+001 -1.800000e+001  2.000000e+000
      vertex -1.909808e+001 -1.800000e+001  1.400000e+001
    endloop
  endfacet
  facet normal  9.659257e-001  2.588192e-001  0.000000e+000
    outer loop
      vertex -1.909808e+001 -1.800000e+001  1.400000e+001
      vertex -1.909808e+001 -1.800000e+001  2.000000e+000
      vertex -1.950000e+001 -1.650000e+001  2.000000e+000
    endloop
  endfacet
  facet normal  9.659257e-001  2.588192e-001  -0.000000e+000
    outer loop
      vertex -1.909808e+001 -1.800000e+001  1.400000e+001
      vertex -1.950000e+001 -1.650000e+001  2.000000e+000
      vertex -1.950000e+001 -1.650000e+001  1.400000e+001
    endloop
  endfacet
  facet normal -1.000000e+000  -0.000000e+000  0.000000e+000
    outer loop
      vertex  1.950000e+001 -1.650000e+001  1.400000e+001
      vertex  1.950000e+001 -1.200000e+001  1.400000e+001
      vertex  1.950000e+001 -1.650000e+001  2.000000e+000
    endloop
  endfacet
  facet normal -1.000000e+000  0.000000e+000  0.000000e+000
    outer loop
      vertex  1.950000e+001 -1.650000e+001  2.000000e+000
      vertex  1.950000e+001 -1.200000e+001  1.400000e+001
      vertex  1.950000e+001 -1.200000e+001  9.000000e+000
    endloop
  endfacet
  facet normal -1.000000e+000  0.000000e+000  -0.000000e+000
    outer loop
      vertex  1.950000e+001 -1.650000e+001  2.000000e+000
      vertex  1.950000e+001 -1.200000e+001  9.000000e+000
      vertex  1.950000e+001  1.950000e+001  2.000000e+000
    endloop
  endfacet
  facet normal -1.000000e+000  0.000000e+000  0.000000e+000
    outer loop
      vertex  1.950000e+001  1.950000e+001  2.000000e+000
      vertex  1.950000e+001 -1.200000e+001  9.000000e+000
      vertex  1.950000e+001  1.200000e+001  9.000000e+000
    endloop
  endfacet
  facet normal -1.000000e+000  0.000000e+000  0.000000e+000
    outer loop
      vertex  1.950000e+001  1.950000e+001  2.000000e+000
      vertex  1.950000e+001  1.200000e+001  9.000000e+000
      vertex  1.950000e+001  1.950000e+001  1.400000e+001
    endloop
  endfacet
  facet normal -1.000000e+000  -0.000000e+000  0.000000e+000
    outer loop
      vertex  1.950000e+001  1.950000e+001  1.400000e+001
      vertex  1.950000e+001  1.200000e+001  9.000000e+000
      vertex  1.950000e+001  1.200000e+001  1.400000e+001
    endloop
  endfacet
  facet normal -9.659257e-001  2.588192e-001  0.000000e+000
    outer loop
      vertex  1.909808e+001 -1.800000e+001  2.000000e+000
      vertex  1.950000e+001 -1.650000e+001  1.400000e+001
      vertex  1.950000e+001 -1.650000e+001  2.000000e+000
    endloop
  endfacet
  facet normal -9.659257e-001  2.588192e-001  0.000000e+000
    outer loop
      vertex  1.950000e+001 -1.650000e+001  1.400000e+001
      vertex  1.909808e+001 -1.800000e+001  2.000000e+000
      vertex  1.909808e+001 -1.800000e+001  1.400000e+001
    endloop
  endfacet
  facet normal -7.071068e-001  7.071068e-001  0.000000e+000
    outer loop
      vertex  1.909808e+001 -1.800000e+001  1.400000e+001
      vertex  1.909808e+001 -1.800000e+001  2.000000e+000
      vertex  1.800000e+001 -1.909808e+001  2.000000e+000
    endloop
  endfacet
  facet normal -7.071068e-001  7.071068e-001  0.000000e+000
    outer loop
      vertex  1.909808e+001 -1.800000e+001  1.400000e+001
      vertex  1.800000e+001 -1.909808e+001  2.000000e+000
      vertex  1.800000e+001 -1.909808e+001  1.400000e+001
    endloop
  endfacet
  facet normal -2.588192e-001  9.659257e-001  0.000000e+000
    outer loop
      vertex  1.800000e+001 -1.909808e+001  1.400000e+001
      vertex  1.800000e+001 -1.909808e+001  2.000000e+000
      vertex  1.650000e+001 -1.950000e+001  2.000000e+000
    endloop
  endfacet
  facet normal -2.588192e-001  9.659257e-001  0.000000e+000
    outer loop
      vertex  1.800000e+001 -1.909808e+001  1.400000e+001
      vertex  1.650000e+001 -1.950000e+001  2.000000e+000
      vertex  1.650000e+001 -1.950000e+001  1.400000e+001
    endloop
  endfacet
  facet normal  0.000000e+000  0.000000e+000 -9.999999e-001
    outer loop
      vertex  2.009808e+001 -1.900000e+001  0.000000e+000
      vertex -2.050000e+001 -1.750000e+001  0.000000e+000
      vertex  2.050000e+001 -1.750000e+001  0.000000e+000
    endloop
  endfacet
  facet normal  0.000000e+000  0.000000e+000 -1.000000e+000
    outer loop
      vertex  2.050000e+001 -1.750000e+001  0.000000e+000
      vertex -2.050000e+001 -1.750000e+001  0.000000e+000
      vertex -2.050000e+001  2.050000e+001  0.000000e+000
    endloop
  endfacet
  facet normal  0.000000e+000  0.000000e+000 -1.000000e+000
    outer loop
      vertex  2.050000e+001 -1.750000e+001  0.000000e+000
      vertex -2.050000e+001  2.050000e+001  0.000000e+000
      vertex  2.050000e+001  2.050000e+001  0.000000e+000
    endloop
  endfacet
  facet normal  0.000000e+000  0.000000e+000 -1.000000e+000
    outer loop
      vertex -2.050000e+001 -1.750000e+001  0.000000e+000
      vertex  2.009808e+001 -1.900000e+001  0.000000e+000
      vertex -2.009808e+001 -1.900000e+001  0.000000e+000
    endloop
  endfacet
  facet normal  0.000000e+000  0.000000e+000 -1.000000e+000
    outer loop
      vertex -2.009808e+001 -1.900000e+001  0.000000e+000
      vertex  2.009808e+001 -1.900000e+001  0.000000e+000
      vertex  1.900000e+001 -2.009808e+001  0.000000e+000
    endloop
  endfacet
  facet normal  0.000000e+000  0.000000e+000 -1.000000e+000
    outer loop
      vertex -2.009808e+001 -1.900000e+001  0.000000e+000
      vertex  1.900000e+001 -2.009808e+001  0.000000e+000
      vertex -1.900000e+001 -2.009808e+001  0.000000e+000
    endloop
  endfacet
  facet normal  0.000000e+000  0.000000e+000 -1.000000e+000
    outer loop
      vertex -1.900000e+001 -2.009808e+001  0.000000e+000
      vertex  1.900000e+001 -2.009808e+001  0.000000e+000
      vertex  1.750000e+001 -2.050000e+001  0.000000e+000
    endloop
  endfacet
  facet normal  0.000000e+000  0.000000e+000 -1.000000e+000
    outer loop
      vertex -1.900000e+001 -2.009808e+001  0.000000e+000
      vertex  1.750000e+001 -2.050000e+001  0.000000e+000
      vertex -1.750000e+001 -2.050000e+001  0.000000e+000
    endloop
  endfacet
  facet normal  0.000000e+000 -9.999999e-001  0.000000e+000
    outer loop
      vertex  1.750000e+001 -2.050000e+001  1.400000e+001
      vertex -1.750000e+001 -2.050000e+001  1.400000e+001
      vertex  1.750000e+001 -2.050000e+001  0.000000e+000
    endloop
  endfacet
  facet normal  0.000000e+000 -9.999999e-001  0.000000e+000
    outer loop
      vertex  1.750000e+001 -2.050000e+001  0.000000e+000
      vertex -1.750000e+001 -2.050000e+001  1.400000e+001
      vertex -1.750000e+001 -2.050000e+001  0.000000e+000
    endloop
  endfacet
  facet normal  0.000000e+000  1.000000e+000  0.000000e+000
    outer loop
      vertex  2.050000e+001 -1.200000e+001  9.000000e+000
      vertex  1.950000e+001 -1.200000e+001  9.000000e+000
      vertex  2.050000e+001 -1.200000e+001  1.400000e+001
    endloop
  endfacet
  facet normal  0.000000e+000  1.000000e+000  0.000000e+000
    outer loop
      vertex  2.050000e+001 -1.200000e+001  1.400000e+001
      vertex  1.950000e+001 -1.200000e+001  9.000000e+000
      vertex  1.950000e+001 -1.200000e+001  1.400000e+001
    endloop
  endfacet
  facet normal  -0.000000e+000  0.000000e+000  1.000000e+000
    outer loop
      vertex  2.050000e+001  1.200000e+001  9.000000e+000
      vertex  1.950000e+001  1.200000e+001  9.000000e+000
      vertex  2.050000e+001 -1.200000e+001  9.000000e+000
    endloop
  endfacet
  facet normal  0.000000e+000  0.000000e+000  1.000000e+000
    outer loop
      vertex  2.050000e+001 -1.200000e+001  9.000000e+000
      vertex  1.950000e+001  1.200000e+001  9.000000e+000
      vertex  1.950000e+001 -1.200000e+001  9.000000e+000
    endloop
  endfacet
  facet normal  0.000000e+000 -1.000000e+000  0.000000e+000
    outer loop
      vertex  2.050000e+001  1.200000e+001  1.400000e+001
      vertex  1.950000e+001  1.200000e+001  1.400000e+001
      vertex  2.050000e+001  1.200000e+001  9.000000e+000
    endloop
  endfacet
  facet normal  0.000000e+000 -1.000000e+000  0.000000e+000
    outer loop
      vertex  2.050000e+001  1.200000e+001  9.000000e+000
      vertex  1.950000e+001  1.200000e+001  1.400000e+001
      vertex  1.950000e+001  1.200000e+001  9.000000e+000
    endloop
  endfacet
  facet normal  0.000000e+000 -1.000000e+000  0.000000e+000
    outer loop
      vertex -1.950000e+001  1.950000e+001  1.400000e+001
      vertex -1.950000e+001  1.950000e+001  2.000000e+000
      vertex  1.950000e+001  1.950000e+001  1.400000e+001
    endloop
  endfacet
  facet normal  0.000000e+000 -1.000000e+000  -0.000000e+000
    outer loop
      vertex  1.950000e+001  1.950000e+001  1.400000e+001
      vertex -1.950000e+001  1.950000e+001  2.000000e+000
      vertex  1.950000e+001  1.950000e+001  2.000000e+000
    endloop
  endfacet
endsolid CATIA STL
