solid CATIA STL
  facet normal  0.000000e+000  0.000000e+000  1.000000e+000
    outer loop
      vertex  1.084181e+001 -7.140431e+000  2.000000e+000
      vertex  1.128885e+001 -6.780338e+000  2.000000e+000
      vertex  3.471225e+000 -7.052116e+000  2.000000e+000
    endloop
  endfacet
  facet normal  0.000000e+000  0.000000e+000  1.000000e+000
    outer loop
      vertex  2.645751e+000 -1.050000e+001  2.000000e+000
      vertex  1.650000e+001 -9.505150e+000  2.000000e+000
      vertex  1.171115e+001 -8.219663e+000  2.000000e+000
    endloop
  endfacet
  facet normal  0.000000e+000  0.000000e+000  1.000000e+000
    outer loop
      vertex  2.645751e+000 -1.050000e+001  2.000000e+000
      vertex  1.171115e+001 -8.219663e+000  2.000000e+000
      vertex  1.114043e+001 -8.158187e+000  2.000000e+000
    endloop
  endfacet
  facet normal  0.000000e+000  0.000000e+000  1.000000e+000
    outer loop
      vertex  2.645751e+000 -1.050000e+001  2.000000e+000
      vertex  1.114043e+001 -8.158187e+000  2.000000e+000
      vertex  3.071539e+000 -9.177989e+000  2.000000e+000
    endloop
  endfacet
  facet normal  0.000000e+000  0.000000e+000  1.000000e+000
    outer loop
      vertex  2.645751e+000 -1.050000e+001  2.000000e+000
      vertex  3.071539e+000 -9.177989e+000  2.000000e+000
      vertex  1.498630e+000 -1.066293e+001  2.000000e+000
    endloop
  endfacet
  facet normal  -0.000000e+000  0.000000e+000  1.000000e+000
    outer loop
      vertex  2.645751e+000 -1.050000e+001  2.000000e+000
      vertex  1.498630e+000 -1.066293e+001  2.000000e+000
      vertex  1.414214e+000 -1.124166e+001  2.000000e+000
    endloop
  endfacet
  facet normal  0.000000e+000  -0.000000e+000  1.000000e+000
    outer loop
      vertex -2.645751e+000 -1.050000e+001  2.000000e+000
      vertex -1.414214e+000 -1.124166e+001  2.000000e+000
      vertex -6.467050e-001 -1.093973e+001  2.000000e+000
    endloop
  endfacet
  facet normal  0.000000e+000  0.000000e+000  1.000000e+000
    outer loop
      vertex -2.645751e+000 -1.050000e+001  2.000000e+000
      vertex -6.467050e-001 -1.093973e+001  2.000000e+000
      vertex -2.545021e+000 -9.902679e+000  2.000000e+000
    endloop
  endfacet
  facet normal  0.000000e+000  0.000000e+000  1.000000e+000
    outer loop
      vertex -2.645751e+000 -1.050000e+001  2.000000e+000
      vertex -2.545021e+000 -9.902679e+000  2.000000e+000
      vertex -1.128885e+001 -8.219663e+000  2.000000e+000
    endloop
  endfacet
  facet normal  0.000000e+000  0.000000e+000  1.000000e+000
    outer loop
      vertex -2.645751e+000 -1.050000e+001  2.000000e+000
      vertex -1.128885e+001 -8.219663e+000  2.000000e+000
      vertex -1.650000e+001 -9.505150e+000  2.000000e+000
    endloop
  endfacet
  facet normal  -0.000000e+000  0.000000e+000  1.000000e+000
    outer loop
      vertex -2.645751e+000 -4.500000e+000  2.000000e+000
      vertex -1.650000e+001 -5.494850e+000  2.000000e+000
      vertex -3.071539e+000 -5.822011e+000  2.000000e+000
    endloop
  endfacet
  facet normal  0.000000e+000  0.000000e+000  1.000000e+000
    outer loop
      vertex -2.645751e+000 -4.500000e+000  2.000000e+000
      vertex -3.071539e+000 -5.822011e+000  2.000000e+000
      vertex -1.498630e+000 -4.337073e+000  2.000000e+000
    endloop
  endfacet
  facet normal  0.000000e+000  -0.000000e+000  1.000000e+000
    outer loop
      vertex -2.645751e+000 -4.500000e+000  2.000000e+000
      vertex -1.498630e+000 -4.337073e+000  2.000000e+000
      vertex -1.414214e+000 -3.758343e+000  2.000000e+000
    endloop
  endfacet
  facet normal  0.000000e+000  0.000000e+000  1.000000e+000
    outer loop
      vertex -1.650000e+001 -9.505150e+000  2.000000e+000
      vertex -1.128885e+001 -8.219663e+000  2.000000e+000
      vertex -1.185957e+001 -8.158187e+000  2.000000e+000
    endloop
  endfacet
  facet normal  0.000000e+000  0.000000e+000  1.000000e+000
    outer loop
      vertex -1.650000e+001 -9.505150e+000  2.000000e+000
      vertex -1.185957e+001 -8.158187e+000  2.000000e+000
      vertex -1.221966e+001 -7.711154e+000  2.000000e+000
    endloop
  endfacet
  facet normal  0.000000e+000  -0.000000e+000  1.000000e+000
    outer loop
      vertex -1.650000e+001 -9.505150e+000  2.000000e+000
      vertex -1.221966e+001 -7.711154e+000  2.000000e+000
      vertex -1.215819e+001 -7.140431e+000  2.000000e+000
    endloop
  endfacet
  facet normal  0.000000e+000  -0.000000e+000  1.000000e+000
    outer loop
      vertex -1.650000e+001 -9.505150e+000  2.000000e+000
      vertex -1.215819e+001 -7.140431e+000  2.000000e+000
      vertex -1.171115e+001 -6.780338e+000  2.000000e+000
    endloop
  endfacet
  facet normal  0.000000e+000  0.000000e+000  1.000000e+000
    outer loop
      vertex -1.650000e+001 -9.505150e+000  2.000000e+000
      vertex -1.171115e+001 -6.780338e+000  2.000000e+000
      vertex -1.650000e+001 -5.494850e+000  2.000000e+000
    endloop
  endfacet
  facet normal  0.000000e+000  0.000000e+000  1.000000e+000
    outer loop
      vertex  3.071539e+000 -9.177989e+000  2.000000e+000
      vertex  1.114043e+001 -8.158187e+000  2.000000e+000
      vertex  1.078034e+001 -7.711154e+000  2.000000e+000
    endloop
  endfacet
  facet normal  0.000000e+000  -0.000000e+000  1.000000e+000
    outer loop
      vertex  3.071539e+000 -9.177989e+000  2.000000e+000
      vertex  1.078034e+001 -7.711154e+000  2.000000e+000
      vertex  1.084181e+001 -7.140431e+000  2.000000e+000
    endloop
  endfacet
  facet normal  0.000000e+000  0.000000e+000  1.000000e+000
    outer loop
      vertex  3.071539e+000 -9.177989e+000  2.000000e+000
      vertex  1.084181e+001 -7.140431e+000  2.000000e+000
      vertex  3.471225e+000 -7.052116e+000  2.000000e+000
    endloop
  endfacet
  facet normal  0.000000e+000  0.000000e+000  1.000000e+000
    outer loop
      vertex  1.650000e+001 -9.505150e+000  2.000000e+000
      vertex  1.650000e+001 -5.494850e+000  2.000000e+000
      vertex  1.185957e+001 -6.841813e+000  2.000000e+000
    endloop
  endfacet
  facet normal  0.000000e+000  0.000000e+000  1.000000e+000
    outer loop
      vertex  1.650000e+001 -9.505150e+000  2.000000e+000
      vertex  1.185957e+001 -6.841813e+000  2.000000e+000
      vertex  1.221966e+001 -7.288846e+000  2.000000e+000
    endloop
  endfacet
  facet normal  0.000000e+000  0.000000e+000  1.000000e+000
    outer loop
      vertex  1.650000e+001 -9.505150e+000  2.000000e+000
      vertex  1.221966e+001 -7.288846e+000  2.000000e+000
      vertex  1.215819e+001 -7.859569e+000  2.000000e+000
    endloop
  endfacet
  facet normal  0.000000e+000  0.000000e+000  1.000000e+000
    outer loop
      vertex  1.650000e+001 -9.505150e+000  2.000000e+000
      vertex  1.215819e+001 -7.859569e+000  2.000000e+000
      vertex  1.171115e+001 -8.219663e+000  2.000000e+000
    endloop
  endfacet
  facet normal  0.000000e+000  0.000000e+000  1.000000e+000
    outer loop
      vertex  1.414214e+000 -1.124166e+001  2.000000e+000
      vertex  1.498630e+000 -1.066293e+001  2.000000e+000
      vertex -2.511121e-015 -1.150000e+001  2.000000e+000
    endloop
  endfacet
  facet normal  0.000000e+000  -0.000000e+000  1.000000e+000
    outer loop
      vertex -2.511121e-015 -1.150000e+001  2.000000e+000
      vertex  1.498630e+000 -1.066293e+001  2.000000e+000
      vertex -6.467050e-001 -1.093973e+001  2.000000e+000
    endloop
  endfacet
  facet normal  0.000000e+000  0.000000e+000  1.000000e+000
    outer loop
      vertex -2.511121e-015 -1.150000e+001  2.000000e+000
      vertex -6.467050e-001 -1.093973e+001  2.000000e+000
      vertex -1.414214e+000 -1.124166e+001  2.000000e+000
    endloop
  endfacet
  facet normal  0.000000e+000  0.000000e+000  1.000000e+000
    outer loop
      vertex  3.471225e+000 -7.052116e+000  2.000000e+000
      vertex  1.128885e+001 -6.780338e+000  2.000000e+000
      vertex  2.545021e+000 -5.097320e+000  2.000000e+000
    endloop
  endfacet
  facet normal  -0.000000e+000  0.000000e+000  1.000000e+000
    outer loop
      vertex  2.545021e+000 -5.097320e+000  2.000000e+000
      vertex  1.128885e+001 -6.780338e+000  2.000000e+000
      vertex  2.645751e+000 -4.500000e+000  2.000000e+000
    endloop
  endfacet
  facet normal  0.000000e+000  0.000000e+000  1.000000e+000
    outer loop
      vertex  2.545021e+000 -5.097320e+000  2.000000e+000
      vertex  2.645751e+000 -4.500000e+000  2.000000e+000
      vertex  6.467050e-001 -4.060266e+000  2.000000e+000
    endloop
  endfacet
  facet normal  -0.000000e+000  0.000000e+000  1.000000e+000
    outer loop
      vertex  6.467050e-001 -4.060266e+000  2.000000e+000
      vertex  2.645751e+000 -4.500000e+000  2.000000e+000
      vertex  1.414214e+000 -3.758343e+000  2.000000e+000
    endloop
  endfacet
  facet normal  0.000000e+000  0.000000e+000  1.000000e+000
    outer loop
      vertex  6.467050e-001 -4.060266e+000  2.000000e+000
      vertex  1.414214e+000 -3.758343e+000  2.000000e+000
      vertex -1.498630e+000 -4.337073e+000  2.000000e+000
    endloop
  endfacet
  facet normal  0.000000e+000  0.000000e+000  9.999999e-001
    outer loop
      vertex -1.498630e+000 -4.337073e+000  2.000000e+000
      vertex  1.414214e+000 -3.758343e+000  2.000000e+000
      vertex -3.307792e-015 -3.500000e+000  2.000000e+000
    endloop
  endfacet
  facet normal  0.000000e+000  0.000000e+000  1.000000e+000
    outer loop
      vertex -1.498630e+000 -4.337073e+000  2.000000e+000
      vertex -3.307792e-015 -3.500000e+000  2.000000e+000
      vertex -1.414214e+000 -3.758343e+000  2.000000e+000
    endloop
  endfacet
  facet normal  0.000000e+000  -0.000000e+000  1.000000e+000
    outer loop
      vertex  2.645751e+000 -4.500000e+000  2.000000e+000
      vertex  1.128885e+001 -6.780338e+000  2.000000e+000
      vertex  1.650000e+001 -5.494850e+000  2.000000e+000
    endloop
  endfacet
  facet normal  0.000000e+000  0.000000e+000  9.999999e-001
    outer loop
      vertex  1.650000e+001 -5.494850e+000  2.000000e+000
      vertex  1.128885e+001 -6.780338e+000  2.000000e+000
      vertex  1.185957e+001 -6.841813e+000  2.000000e+000
    endloop
  endfacet
  facet normal  0.000000e+000  -0.000000e+000  1.000000e+000
    outer loop
      vertex -1.650000e+001 -5.494850e+000  2.000000e+000
      vertex -1.171115e+001 -6.780338e+000  2.000000e+000
      vertex -3.071539e+000 -5.822011e+000  2.000000e+000
    endloop
  endfacet
  facet normal  0.000000e+000  0.000000e+000  1.000000e+000
    outer loop
      vertex -3.071539e+000 -5.822011e+000  2.000000e+000
      vertex -1.171115e+001 -6.780338e+000  2.000000e+000
      vertex -1.114043e+001 -6.841813e+000  2.000000e+000
    endloop
  endfacet
  facet normal  -0.000000e+000  0.000000e+000  1.000000e+000
    outer loop
      vertex -3.071539e+000 -5.822011e+000  2.000000e+000
      vertex -1.114043e+001 -6.841813e+000  2.000000e+000
      vertex -3.471225e+000 -7.947884e+000  2.000000e+000
    endloop
  endfacet
  facet normal  0.000000e+000  0.000000e+000  1.000000e+000
    outer loop
      vertex -3.471225e+000 -7.947884e+000  2.000000e+000
      vertex -1.114043e+001 -6.841813e+000  2.000000e+000
      vertex -1.078034e+001 -7.288846e+000  2.000000e+000
    endloop
  endfacet
  facet normal  0.000000e+000  0.000000e+000  1.000000e+000
    outer loop
      vertex -3.471225e+000 -7.947884e+000  2.000000e+000
      vertex -1.078034e+001 -7.288846e+000  2.000000e+000
      vertex -1.084181e+001 -7.859569e+000  2.000000e+000
    endloop
  endfacet
  facet normal  0.000000e+000  0.000000e+000  1.000000e+000
    outer loop
      vertex -1.128885e+001 -8.219663e+000  2.000000e+000
      vertex -2.545021e+000 -9.902679e+000  2.000000e+000
      vertex -1.084181e+001 -7.859569e+000  2.000000e+000
    endloop
  endfacet
  facet normal  0.000000e+000  0.000000e+000  1.000000e+000
    outer loop
      vertex -1.084181e+001 -7.859569e+000  2.000000e+000
      vertex -2.545021e+000 -9.902679e+000  2.000000e+000
      vertex -3.471225e+000 -7.947884e+000  2.000000e+000
    endloop
  endfacet
  facet normal  0.000000e+000  0.000000e+000 -1.000000e+000
    outer loop
      vertex  1.650000e+001 -1.250000e+001  0.000000e+000
      vertex -1.650000e+001 -1.250000e+001  0.000000e+000
      vertex -6.467050e-001 -1.093973e+001  0.000000e+000
    endloop
  endfacet
  facet normal  0.000000e+000  0.000000e+000 -1.000000e+000
    outer loop
      vertex  1.650000e+001 -1.250000e+001  0.000000e+000
      vertex -6.467050e-001 -1.093973e+001  0.000000e+000
      vertex  1.498630e+000 -1.066293e+001  0.000000e+000
    endloop
  endfacet
  facet normal  0.000000e+000  0.000000e+000 -1.000000e+000
    outer loop
      vertex  1.650000e+001 -1.250000e+001  0.000000e+000
      vertex  1.498630e+000 -1.066293e+001  0.000000e+000
      vertex  1.114043e+001 -8.158187e+000  0.000000e+000
    endloop
  endfacet
  facet normal  0.000000e+000  0.000000e+000 -1.000000e+000
    outer loop
      vertex  1.650000e+001 -1.250000e+001  0.000000e+000
      vertex  1.114043e+001 -8.158187e+000  0.000000e+000
      vertex  1.171115e+001 -8.219663e+000  0.000000e+000
    endloop
  endfacet
  facet normal -5.225163e-016 -5.845916e-016 -9.999999e-001
    outer loop
      vertex  1.650000e+001 -1.250000e+001  0.000000e+000
      vertex  1.171115e+001 -8.219663e+000  0.000000e+000
      vertex  1.215819e+001 -7.859569e+000 -4.440892e-016
    endloop
  endfacet
  facet normal  8.374987e-016  6.879046e-016 -1.000000e+000
    outer loop
      vertex  1.650000e+001 -1.250000e+001  0.000000e+000
      vertex  1.215819e+001 -7.859569e+000 -4.440892e-016
      vertex  1.221966e+001 -7.288846e+000  0.000000e+000
    endloop
  endfacet
  facet normal  0.000000e+000  0.000000e+000 -1.000000e+000
    outer loop
      vertex -1.650000e+001 -1.250000e+001  0.000000e+000
      vertex -1.650000e+001  1.450000e+001  0.000000e+000
      vertex -1.150000e+001  1.450000e+001  0.000000e+000
    endloop
  endfacet
  facet normal  0.000000e+000  -0.000000e+000 -1.000000e+000
    outer loop
      vertex -1.650000e+001 -1.250000e+001  0.000000e+000
      vertex -1.150000e+001  1.450000e+001  0.000000e+000
      vertex -1.150000e+001  1.250000e+001  0.000000e+000
    endloop
  endfacet
  facet normal -1.358113e-016  2.716226e-017 -1.000000e+000
    outer loop
      vertex -1.650000e+001 -1.250000e+001  0.000000e+000
      vertex -1.150000e+001  1.250000e+001  0.000000e+000
      vertex -1.215819e+001 -7.140431e+000 -4.440892e-016
    endloop
  endfacet
  facet normal  9.898456e-016 -8.847378e-016 -1.000000e+000
    outer loop
      vertex -1.650000e+001 -1.250000e+001  0.000000e+000
      vertex -1.215819e+001 -7.140431e+000 -4.440892e-016
      vertex -1.221966e+001 -7.711154e+000  0.000000e+000
    endloop
  endfacet
  facet normal  0.000000e+000  -0.000000e+000 -9.999999e-001
    outer loop
      vertex -1.650000e+001 -1.250000e+001  0.000000e+000
      vertex -1.221966e+001 -7.711154e+000  0.000000e+000
      vertex -1.185957e+001 -8.158187e+000  0.000000e+000
    endloop
  endfacet
  facet normal  0.000000e+000  -0.000000e+000 -1.000000e+000
    outer loop
      vertex -1.650000e+001 -1.250000e+001  0.000000e+000
      vertex -1.185957e+001 -8.158187e+000  0.000000e+000
      vertex -1.128885e+001 -8.219663e+000  0.000000e+000
    endloop
  endfacet
  facet normal  0.000000e+000  -0.000000e+000 -1.000000e+000
    outer loop
      vertex -1.650000e+001 -1.250000e+001  0.000000e+000
      vertex -1.128885e+001 -8.219663e+000  0.000000e+000
      vertex -2.545021e+000 -9.902679e+000  0.000000e+000
    endloop
  endfacet
  facet normal  0.000000e+000  -0.000000e+000 -1.000000e+000
    outer loop
      vertex -1.650000e+001 -1.250000e+001  0.000000e+000
      vertex -2.545021e+000 -9.902679e+000  0.000000e+000
      vertex -6.467050e-001 -1.093973e+001  0.000000e+000
    endloop
  endfacet
  facet normal  -0.000000e+000  0.000000e+000 -1.000000e+000
    outer loop
      vertex -1.150000e+001  1.250000e+001  0.000000e+000
      vertex  1.150000e+001  1.250000e+001  0.000000e+000
      vertex  6.467050e-001 -4.060266e+000  0.000000e+000
    endloop
  endfacet
  facet normal  -0.000000e+000  0.000000e+000 -1.000000e+000
    outer loop
      vertex -1.150000e+001  1.250000e+001  0.000000e+000
      vertex  6.467050e-001 -4.060266e+000  0.000000e+000
      vertex -1.498630e+000 -4.337073e+000  0.000000e+000
    endloop
  endfacet
  facet normal  1.808936e-016  1.074524e-016 -1.000000e+000
    outer loop
      vertex -1.150000e+001  1.250000e+001  0.000000e+000
      vertex -1.498630e+000 -4.337073e+000  0.000000e+000
      vertex -3.071539e+000 -5.822011e+000 -4.440892e-016
    endloop
  endfacet
  facet normal -5.490819e-017 -1.020758e-018 -1.000000e+000
    outer loop
      vertex -1.150000e+001  1.250000e+001  0.000000e+000
      vertex -3.071539e+000 -5.822011e+000 -4.440892e-016
      vertex -1.114043e+001 -6.841813e+000  0.000000e+000
    endloop
  endfacet
  facet normal  0.000000e+000  0.000000e+000 -1.000000e+000
    outer loop
      vertex -1.150000e+001  1.250000e+001  0.000000e+000
      vertex -1.114043e+001 -6.841813e+000  0.000000e+000
      vertex -1.171115e+001 -6.780338e+000  0.000000e+000
    endloop
  endfacet
  facet normal  1.002259e-015 -1.097657e-017 -1.000000e+000
    outer loop
      vertex -1.150000e+001  1.250000e+001  0.000000e+000
      vertex -1.171115e+001 -6.780338e+000  0.000000e+000
      vertex -1.215819e+001 -7.140431e+000 -4.440892e-016
    endloop
  endfacet
  facet normal  0.000000e+000  0.000000e+000 -1.000000e+000
    outer loop
      vertex  1.150000e+001  1.250000e+001  0.000000e+000
      vertex  1.150000e+001  1.450000e+001  0.000000e+000
      vertex  1.650000e+001  1.450000e+001  0.000000e+000
    endloop
  endfacet
  facet normal  0.000000e+000  -0.000000e+000 -1.000000e+000
    outer loop
      vertex  1.150000e+001  1.250000e+001  0.000000e+000
      vertex  1.650000e+001  1.450000e+001  0.000000e+000
      vertex  1.650000e+001 -1.250000e+001  0.000000e+000
    endloop
  endfacet
  facet normal  0.000000e+000  0.000000e+000 -1.000000e+000
    outer loop
      vertex  1.150000e+001  1.250000e+001  0.000000e+000
      vertex  1.650000e+001 -1.250000e+001  0.000000e+000
      vertex  1.221966e+001 -7.288846e+000  0.000000e+000
    endloop
  endfacet
  facet normal  0.000000e+000  0.000000e+000 -1.000000e+000
    outer loop
      vertex  1.150000e+001  1.250000e+001  0.000000e+000
      vertex  1.221966e+001 -7.288846e+000  0.000000e+000
      vertex  1.185957e+001 -6.841813e+000  0.000000e+000
    endloop
  endfacet
  facet normal  0.000000e+000  0.000000e+000 -1.000000e+000
    outer loop
      vertex  1.150000e+001  1.250000e+001  0.000000e+000
      vertex  1.185957e+001 -6.841813e+000  0.000000e+000
      vertex  1.128885e+001 -6.780338e+000  0.000000e+000
    endloop
  endfacet
  facet normal  0.000000e+000  0.000000e+000 -9.999999e-001
    outer loop
      vertex  1.150000e+001  1.250000e+001  0.000000e+000
      vertex  1.128885e+001 -6.780338e+000  0.000000e+000
      vertex  6.467050e-001 -4.060266e+000  0.000000e+000
    endloop
  endfacet
  facet normal -5.761871e-017  2.197303e-016 -1.000000e+000
    outer loop
      vertex  3.071539e+000 -9.177989e+000 -4.440892e-016
      vertex  3.471225e+000 -7.052116e+000  0.000000e+000
      vertex  1.084181e+001 -7.140431e+000 -4.440892e-016
    endloop
  endfacet
  facet normal  2.099721e-016 -8.007334e-016 -1.000000e+000
    outer loop
      vertex  3.071539e+000 -9.177989e+000 -4.440892e-016
      vertex  1.084181e+001 -7.140431e+000 -4.440892e-016
      vertex  1.078034e+001 -7.711154e+000  0.000000e+000
    endloop
  endfacet
  facet normal  4.995176e-017  4.023709e-017 -1.000000e+000
    outer loop
      vertex  3.071539e+000 -9.177989e+000 -4.440892e-016
      vertex  1.078034e+001 -7.711154e+000  0.000000e+000
      vertex  1.114043e+001 -8.158187e+000  0.000000e+000
    endloop
  endfacet
  facet normal  1.071839e-016 -4.125961e-016 -1.000000e+000
    outer loop
      vertex  3.071539e+000 -9.177989e+000 -4.440892e-016
      vertex  1.114043e+001 -8.158187e+000  0.000000e+000
      vertex  1.498630e+000 -1.066293e+001  0.000000e+000
    endloop
  endfacet
  facet normal  6.948525e-017  7.706315e-016 -1.000000e+000
    outer loop
      vertex -1.084181e+001 -7.859569e+000 -4.440892e-016
      vertex -1.078034e+001 -7.288846e+000  0.000000e+000
      vertex -3.471225e+000 -7.947884e+000  0.000000e+000
    endloop
  endfacet
  facet normal  0.000000e+000  0.000000e+000 -1.000000e+000
    outer loop
      vertex -3.471225e+000 -7.947884e+000  0.000000e+000
      vertex -1.078034e+001 -7.288846e+000  0.000000e+000
      vertex -1.114043e+001 -6.841813e+000  0.000000e+000
    endloop
  endfacet
  facet normal -2.933230e-017 -2.033826e-016 -1.000000e+000
    outer loop
      vertex -3.471225e+000 -7.947884e+000  0.000000e+000
      vertex -1.114043e+001 -6.841813e+000  0.000000e+000
      vertex -3.071539e+000 -5.822011e+000 -4.440892e-016
    endloop
  endfacet
  facet normal -1.915965e-016 -9.954065e-016 -1.000000e+000
    outer loop
      vertex -1.128885e+001 -8.219663e+000  0.000000e+000
      vertex -1.084181e+001 -7.859569e+000 -4.440892e-016
      vertex -2.545021e+000 -9.902679e+000  0.000000e+000
    endloop
  endfacet
  facet normal  6.059553e-017  2.871084e-017 -9.999999e-001
    outer loop
      vertex -2.545021e+000 -9.902679e+000  0.000000e+000
      vertex -1.084181e+001 -7.859569e+000 -4.440892e-016
      vertex -3.471225e+000 -7.947884e+000  0.000000e+000
    endloop
  endfacet
  facet normal  0.000000e+000  0.000000e+000 -1.000000e+000
    outer loop
      vertex  6.467050e-001 -4.060266e+000  0.000000e+000
      vertex  1.128885e+001 -6.780338e+000  0.000000e+000
      vertex  2.545021e+000 -5.097320e+000  0.000000e+000
    endloop
  endfacet
  facet normal  1.915968e-016  9.954078e-016 -1.000000e+000
    outer loop
      vertex  2.545021e+000 -5.097320e+000  0.000000e+000
      vertex  1.128885e+001 -6.780338e+000  0.000000e+000
      vertex  1.084181e+001 -7.140431e+000 -4.440892e-016
    endloop
  endfacet
  facet normal -6.059554e-017 -2.871086e-017 -1.000000e+000
    outer loop
      vertex  2.545021e+000 -5.097320e+000  0.000000e+000
      vertex  1.084181e+001 -7.140431e+000 -4.440892e-016
      vertex  3.471225e+000 -7.052116e+000  0.000000e+000
    endloop
  endfacet
  facet normal  7.787678e-001  6.273122e-001  -0.000000e+000
    outer loop
      vertex -1.185957e+001 -8.158187e+000  2.000000e+000
      vertex -1.221966e+001 -7.711154e+000  0.000000e+000
      vertex -1.221966e+001 -7.711154e+000  2.000000e+000
    endloop
  endfacet
  facet normal  9.942487e-001 -1.070960e-001  0.000000e+000
    outer loop
      vertex -1.221966e+001 -7.711154e+000  2.000000e+000
      vertex -1.221966e+001 -7.711154e+000  0.000000e+000
      vertex -1.215819e+001 -7.140431e+000 -4.440892e-016
    endloop
  endfacet
  facet normal  9.942487e-001 -1.070960e-001  0.000000e+000
    outer loop
      vertex -1.221966e+001 -7.711154e+000  2.000000e+000
      vertex -1.215819e+001 -7.140431e+000 -4.440892e-016
      vertex -1.215819e+001 -7.140431e+000  2.000000e+000
    endloop
  endfacet
  facet normal  7.787678e-001  6.273122e-001  0.000000e+000
    outer loop
      vertex -1.221966e+001 -7.711154e+000  0.000000e+000
      vertex -1.185957e+001 -8.158187e+000  2.000000e+000
      vertex -1.185957e+001 -8.158187e+000  0.000000e+000
    endloop
  endfacet
  facet normal  1.070958e-001  9.942487e-001  -0.000000e+000
    outer loop
      vertex -1.185957e+001 -8.158187e+000  0.000000e+000
      vertex -1.185957e+001 -8.158187e+000  2.000000e+000
      vertex -1.128885e+001 -8.219663e+000  2.000000e+000
    endloop
  endfacet
  facet normal  1.070958e-001  9.942487e-001  0.000000e+000
    outer loop
      vertex -1.185957e+001 -8.158187e+000  0.000000e+000
      vertex -1.128885e+001 -8.219663e+000  2.000000e+000
      vertex -1.128885e+001 -8.219663e+000  0.000000e+000
    endloop
  endfacet
  facet normal -6.273131e-001  7.787670e-001  0.000000e+000
    outer loop
      vertex -1.128885e+001 -8.219663e+000  0.000000e+000
      vertex -1.128885e+001 -8.219663e+000  2.000000e+000
      vertex -1.084181e+001 -7.859569e+000  2.000000e+000
    endloop
  endfacet
  facet normal -6.273131e-001  7.787670e-001  0.000000e+000
    outer loop
      vertex -1.128885e+001 -8.219663e+000  0.000000e+000
      vertex -1.084181e+001 -7.859569e+000  2.000000e+000
      vertex -1.084181e+001 -7.859569e+000 -4.440892e-016
    endloop
  endfacet
  facet normal -7.787678e-001 -6.273122e-001  0.000000e+000
    outer loop
      vertex -1.114043e+001 -6.841813e+000  2.000000e+000
      vertex -1.078034e+001 -7.288846e+000  0.000000e+000
      vertex -1.078034e+001 -7.288846e+000  2.000000e+000
    endloop
  endfacet
  facet normal -9.942487e-001  1.070960e-001  0.000000e+000
    outer loop
      vertex -1.078034e+001 -7.288846e+000  2.000000e+000
      vertex -1.078034e+001 -7.288846e+000  0.000000e+000
      vertex -1.084181e+001 -7.859569e+000 -4.440892e-016
    endloop
  endfacet
  facet normal -9.942487e-001  1.070960e-001  0.000000e+000
    outer loop
      vertex -1.078034e+001 -7.288846e+000  2.000000e+000
      vertex -1.084181e+001 -7.859569e+000 -4.440892e-016
      vertex -1.084181e+001 -7.859569e+000  2.000000e+000
    endloop
  endfacet
  facet normal -7.787678e-001 -6.273122e-001  -0.000000e+000
    outer loop
      vertex -1.078034e+001 -7.288846e+000  0.000000e+000
      vertex -1.114043e+001 -6.841813e+000  2.000000e+000
      vertex -1.114043e+001 -6.841813e+000  0.000000e+000
    endloop
  endfacet
  facet normal -1.070950e-001 -9.942489e-001  0.000000e+000
    outer loop
      vertex -1.114043e+001 -6.841813e+000  0.000000e+000
      vertex -1.114043e+001 -6.841813e+000  2.000000e+000
      vertex -1.171115e+001 -6.780338e+000  2.000000e+000
    endloop
  endfacet
  facet normal -1.070950e-001 -9.942489e-001  -0.000000e+000
    outer loop
      vertex -1.114043e+001 -6.841813e+000  0.000000e+000
      vertex -1.171115e+001 -6.780338e+000  2.000000e+000
      vertex -1.171115e+001 -6.780338e+000  0.000000e+000
    endloop
  endfacet
  facet normal  6.273127e-001 -7.787675e-001  0.000000e+000
    outer loop
      vertex -1.171115e+001 -6.780338e+000  0.000000e+000
      vertex -1.171115e+001 -6.780338e+000  2.000000e+000
      vertex -1.215819e+001 -7.140431e+000  2.000000e+000
    endloop
  endfacet
  facet normal  6.273127e-001 -7.787675e-001  0.000000e+000
    outer loop
      vertex -1.171115e+001 -6.780338e+000  0.000000e+000
      vertex -1.215819e+001 -7.140431e+000  2.000000e+000
      vertex -1.215819e+001 -7.140431e+000 -4.440892e-016
    endloop
  endfacet
  facet normal  7.787678e-001  6.273122e-001  -0.000000e+000
    outer loop
      vertex  1.114043e+001 -8.158187e+000  2.000000e+000
      vertex  1.078034e+001 -7.711154e+000  0.000000e+000
      vertex  1.078034e+001 -7.711154e+000  2.000000e+000
    endloop
  endfacet
  facet normal  9.942487e-001 -1.070960e-001  0.000000e+000
    outer loop
      vertex  1.078034e+001 -7.711154e+000  2.000000e+000
      vertex  1.078034e+001 -7.711154e+000  0.000000e+000
      vertex  1.084181e+001 -7.140431e+000 -4.440892e-016
    endloop
  endfacet
  facet normal  9.942487e-001 -1.070960e-001  0.000000e+000
    outer loop
      vertex  1.078034e+001 -7.711154e+000  2.000000e+000
      vertex  1.084181e+001 -7.140431e+000 -4.440892e-016
      vertex  1.084181e+001 -7.140431e+000  2.000000e+000
    endloop
  endfacet
  facet normal  7.787678e-001  6.273122e-001  0.000000e+000
    outer loop
      vertex  1.078034e+001 -7.711154e+000  0.000000e+000
      vertex  1.114043e+001 -8.158187e+000  2.000000e+000
      vertex  1.114043e+001 -8.158187e+000  0.000000e+000
    endloop
  endfacet
  facet normal  1.070958e-001  9.942487e-001  -0.000000e+000
    outer loop
      vertex  1.114043e+001 -8.158187e+000  0.000000e+000
      vertex  1.114043e+001 -8.158187e+000  2.000000e+000
      vertex  1.171115e+001 -8.219663e+000  2.000000e+000
    endloop
  endfacet
  facet normal  1.070958e-001  9.942487e-001  0.000000e+000
    outer loop
      vertex  1.114043e+001 -8.158187e+000  0.000000e+000
      vertex  1.171115e+001 -8.219663e+000  2.000000e+000
      vertex  1.171115e+001 -8.219663e+000  0.000000e+000
    endloop
  endfacet
  facet normal -6.273131e-001  7.787670e-001  0.000000e+000
    outer loop
      vertex  1.171115e+001 -8.219663e+000  0.000000e+000
      vertex  1.171115e+001 -8.219663e+000  2.000000e+000
      vertex  1.215819e+001 -7.859569e+000  2.000000e+000
    endloop
  endfacet
  facet normal -6.273131e-001  7.787670e-001  0.000000e+000
    outer loop
      vertex  1.171115e+001 -8.219663e+000  0.000000e+000
      vertex  1.215819e+001 -7.859569e+000  2.000000e+000
      vertex  1.215819e+001 -7.859569e+000 -4.440892e-016
    endloop
  endfacet
  facet normal -7.787678e-001 -6.273122e-001  0.000000e+000
    outer loop
      vertex  1.185957e+001 -6.841813e+000  2.000000e+000
      vertex  1.221966e+001 -7.288846e+000  0.000000e+000
      vertex  1.221966e+001 -7.288846e+000  2.000000e+000
    endloop
  endfacet
  facet normal -9.942487e-001  1.070960e-001  0.000000e+000
    outer loop
      vertex  1.221966e+001 -7.288846e+000  2.000000e+000
      vertex  1.221966e+001 -7.288846e+000  0.000000e+000
      vertex  1.215819e+001 -7.859569e+000 -4.440892e-016
    endloop
  endfacet
  facet normal -9.942487e-001  1.070960e-001  0.000000e+000
    outer loop
      vertex  1.221966e+001 -7.288846e+000  2.000000e+000
      vertex  1.215819e+001 -7.859569e+000 -4.440892e-016
      vertex  1.215819e+001 -7.859569e+000  2.000000e+000
    endloop
  endfacet
  facet normal -7.787678e-001 -6.273122e-001  -0.000000e+000
    outer loop
      vertex  1.221966e+001 -7.288846e+000  0.000000e+000
      vertex  1.185957e+001 -6.841813e+000  2.000000e+000
      vertex  1.185957e+001 -6.841813e+000  0.000000e+000
    endloop
  endfacet
  facet normal -1.070950e-001 -9.942489e-001  0.000000e+000
    outer loop
      vertex  1.185957e+001 -6.841813e+000  0.000000e+000
      vertex  1.185957e+001 -6.841813e+000  2.000000e+000
      vertex  1.128885e+001 -6.780338e+000  2.000000e+000
    endloop
  endfacet
  facet normal -1.070950e-001 -9.942489e-001  -0.000000e+000
    outer loop
      vertex  1.185957e+001 -6.841813e+000  0.000000e+000
      vertex  1.128885e+001 -6.780338e+000  2.000000e+000
      vertex  1.128885e+001 -6.780338e+000  0.000000e+000
    endloop
  endfacet
  facet normal  6.273127e-001 -7.787675e-001  0.000000e+000
    outer loop
      vertex  1.128885e+001 -6.780338e+000  0.000000e+000
      vertex  1.128885e+001 -6.780338e+000  2.000000e+000
      vertex  1.084181e+001 -7.140431e+000  2.000000e+000
    endloop
  endfacet
  facet normal  6.273127e-001 -7.787675e-001  0.000000e+000
    outer loop
      vertex  1.128885e+001 -6.780338e+000  0.000000e+000
      vertex  1.084181e+001 -7.140431e+000  2.000000e+000
      vertex  1.084181e+001 -7.140431e+000 -4.440892e-016
    endloop
  endfacet
  facet normal  9.036935e-001  4.281800e-001  -0.000000e+000
    outer loop
      vertex -2.545021e+000 -9.902679e+000  2.000000e+000
      vertex -3.471225e+000 -7.947884e+000  0.000000e+000
      vertex -3.471225e+000 -7.947884e+000  2.000000e+000
    endloop
  endfacet
  facet normal  9.827812e-001 -1.847728e-001  0.000000e+000
    outer loop
      vertex -3.471225e+000 -7.947884e+000  2.000000e+000
      vertex -3.471225e+000 -7.947884e+000  0.000000e+000
      vertex -3.071539e+000 -5.822011e+000 -4.440892e-016
    endloop
  endfacet
  facet normal  9.827812e-001 -1.847728e-001  0.000000e+000
    outer loop
      vertex -3.471225e+000 -7.947884e+000  2.000000e+000
      vertex -3.071539e+000 -5.822011e+000 -4.440892e-016
      vertex -3.071539e+000 -5.822011e+000  2.000000e+000
    endloop
  endfacet
  facet normal  9.036935e-001  4.281800e-001  0.000000e+000
    outer loop
      vertex -3.471225e+000 -7.947884e+000  0.000000e+000
      vertex -2.545021e+000 -9.902679e+000  2.000000e+000
      vertex -2.545021e+000 -9.902679e+000  0.000000e+000
    endloop
  endfacet
  facet normal  4.794257e-001  8.775825e-001  -0.000000e+000
    outer loop
      vertex -2.545021e+000 -9.902679e+000  0.000000e+000
      vertex -2.545021e+000 -9.902679e+000  2.000000e+000
      vertex -6.467050e-001 -1.093973e+001  2.000000e+000
    endloop
  endfacet
  facet normal  4.794257e-001  8.775825e-001  0.000000e+000
    outer loop
      vertex -2.545021e+000 -9.902679e+000  0.000000e+000
      vertex -6.467050e-001 -1.093973e+001  2.000000e+000
      vertex -6.467050e-001 -1.093973e+001  0.000000e+000
    endloop
  endfacet
  facet normal -1.279665e-001  9.917785e-001  0.000000e+000
    outer loop
      vertex -6.467050e-001 -1.093973e+001  0.000000e+000
      vertex -6.467050e-001 -1.093973e+001  2.000000e+000
      vertex  1.498630e+000 -1.066293e+001  2.000000e+000
    endloop
  endfacet
  facet normal -1.279665e-001  9.917785e-001  0.000000e+000
    outer loop
      vertex -6.467050e-001 -1.093973e+001  0.000000e+000
      vertex  1.498630e+000 -1.066293e+001  2.000000e+000
      vertex  1.498630e+000 -1.066293e+001  0.000000e+000
    endloop
  endfacet
  facet normal -6.864802e-001  7.271485e-001  0.000000e+000
    outer loop
      vertex  1.498630e+000 -1.066293e+001  0.000000e+000
      vertex  1.498630e+000 -1.066293e+001  2.000000e+000
      vertex  3.071539e+000 -9.177989e+000  2.000000e+000
    endloop
  endfacet
  facet normal -6.864802e-001  7.271485e-001  0.000000e+000
    outer loop
      vertex  1.498630e+000 -1.066293e+001  0.000000e+000
      vertex  3.071539e+000 -9.177989e+000  2.000000e+000
      vertex  3.071539e+000 -9.177989e+000 -4.440892e-016
    endloop
  endfacet
  facet normal -9.036936e-001 -4.281799e-001  0.000000e+000
    outer loop
      vertex  2.545021e+000 -5.097320e+000  2.000000e+000
      vertex  3.471225e+000 -7.052116e+000  0.000000e+000
      vertex  3.471225e+000 -7.052116e+000  2.000000e+000
    endloop
  endfacet
  facet normal -9.827812e-001  1.847728e-001  0.000000e+000
    outer loop
      vertex  3.471225e+000 -7.052116e+000  2.000000e+000
      vertex  3.471225e+000 -7.052116e+000  0.000000e+000
      vertex  3.071539e+000 -9.177989e+000 -4.440892e-016
    endloop
  endfacet
  facet normal -9.827812e-001  1.847728e-001  0.000000e+000
    outer loop
      vertex  3.471225e+000 -7.052116e+000  2.000000e+000
      vertex  3.071539e+000 -9.177989e+000 -4.440892e-016
      vertex  3.071539e+000 -9.177989e+000  2.000000e+000
    endloop
  endfacet
  facet normal -9.036936e-001 -4.281799e-001  -0.000000e+000
    outer loop
      vertex  3.471225e+000 -7.052116e+000  0.000000e+000
      vertex  2.545021e+000 -5.097320e+000  2.000000e+000
      vertex  2.545021e+000 -5.097320e+000  0.000000e+000
    endloop
  endfacet
  facet normal -4.794255e-001 -8.775826e-001  0.000000e+000
    outer loop
      vertex  2.545021e+000 -5.097320e+000  0.000000e+000
      vertex  2.545021e+000 -5.097320e+000  2.000000e+000
      vertex  6.467050e-001 -4.060266e+000  2.000000e+000
    endloop
  endfacet
  facet normal -4.794255e-001 -8.775826e-001  -0.000000e+000
    outer loop
      vertex  2.545021e+000 -5.097320e+000  0.000000e+000
      vertex  6.467050e-001 -4.060266e+000  2.000000e+000
      vertex  6.467050e-001 -4.060266e+000  0.000000e+000
    endloop
  endfacet
  facet normal  1.279668e-001 -9.917785e-001  0.000000e+000
    outer loop
      vertex  6.467050e-001 -4.060266e+000  0.000000e+000
      vertex  6.467050e-001 -4.060266e+000  2.000000e+000
      vertex -1.498630e+000 -4.337073e+000  2.000000e+000
    endloop
  endfacet
  facet normal  1.279668e-001 -9.917785e-001  0.000000e+000
    outer loop
      vertex  6.467050e-001 -4.060266e+000  0.000000e+000
      vertex -1.498630e+000 -4.337073e+000  2.000000e+000
      vertex -1.498630e+000 -4.337073e+000  0.000000e+000
    endloop
  endfacet
  facet normal  6.864799e-001 -7.271487e-001  0.000000e+000
    outer loop
      vertex -1.498630e+000 -4.337073e+000  0.000000e+000
      vertex -1.498630e+000 -4.337073e+000  2.000000e+000
      vertex -3.071539e+000 -5.822011e+000  2.000000e+000
    endloop
  endfacet
  facet normal  6.864799e-001 -7.271487e-001  0.000000e+000
    outer loop
      vertex -1.498630e+000 -4.337073e+000  0.000000e+000
      vertex -3.071539e+000 -5.822011e+000  2.000000e+000
      vertex -3.071539e+000 -5.822011e+000 -4.440892e-016
    endloop
  endfacet
  facet normal -1.000000e+000  -0.000000e+000  0.000000e+000
    outer loop
      vertex -1.650000e+001 -5.494850e+000  3.000000e+000
      vertex -1.650000e+001  9.000000e+000  3.000000e+000
      vertex -1.650000e+001 -5.494850e+000  2.000000e+000
    endloop
  endfacet
  facet normal -1.000000e+000  0.000000e+000  0.000000e+000
    outer loop
      vertex -1.650000e+001  1.450000e+001  0.000000e+000
      vertex -1.650000e+001 -1.250000e+001  0.000000e+000
      vertex -1.650000e+001 -9.505150e+000  2.000000e+000
    endloop
  endfacet
  facet normal -1.000000e+000  0.000000e+000  0.000000e+000
    outer loop
      vertex -1.650000e+001  1.450000e+001  0.000000e+000
      vertex -1.650000e+001 -9.505150e+000  2.000000e+000
      vertex -1.650000e+001 -5.494850e+000  2.000000e+000
    endloop
  endfacet
  facet normal -1.000000e+000  0.000000e+000  0.000000e+000
    outer loop
      vertex -1.650000e+001  1.450000e+001  0.000000e+000
      vertex -1.650000e+001 -5.494850e+000  2.000000e+000
      vertex -1.650000e+001  9.000000e+000  3.000000e+000
    endloop
  endfacet
  facet normal -9.999999e-001  0.000000e+000  0.000000e+000
    outer loop
      vertex -1.650000e+001  1.450000e+001  0.000000e+000
      vertex -1.650000e+001  9.000000e+000  3.000000e+000
      vertex -1.650000e+001  1.075000e+001  3.468911e+000
    endloop
  endfacet
  facet normal -1.000000e+000  0.000000e+000  0.000000e+000
    outer loop
      vertex -1.650000e+001  1.450000e+001  0.000000e+000
      vertex -1.650000e+001  1.075000e+001  3.468911e+000
      vertex -1.650000e+001  1.203109e+001  4.750000e+000
    endloop
  endfacet
  facet normal -1.000000e+000  0.000000e+000  0.000000e+000
    outer loop
      vertex -1.650000e+001  1.450000e+001  0.000000e+000
      vertex -1.650000e+001  1.203109e+001  4.750000e+000
      vertex -1.650000e+001  1.250000e+001  6.500000e+000
    endloop
  endfacet
  facet normal -1.000000e+000  0.000000e+000  0.000000e+000
    outer loop
      vertex -1.650000e+001  1.450000e+001  0.000000e+000
      vertex -1.650000e+001  1.250000e+001  6.500000e+000
      vertex -1.650000e+001  1.250000e+001  1.700000e+001
    endloop
  endfacet
  facet normal -1.000000e+000  0.000000e+000  0.000000e+000
    outer loop
      vertex -1.650000e+001  1.450000e+001  0.000000e+000
      vertex -1.650000e+001  1.250000e+001  1.700000e+001
      vertex -1.650000e+001  1.450000e+001  1.700000e+001
    endloop
  endfacet
  facet normal -1.000000e+000  -0.000000e+000  0.000000e+000
    outer loop
      vertex -1.650000e+001 -1.250000e+001  3.000000e+000
      vertex -1.650000e+001 -9.505150e+000  3.000000e+000
      vertex -1.650000e+001 -1.250000e+001  0.000000e+000
    endloop
  endfacet
  facet normal -1.000000e+000  0.000000e+000  0.000000e+000
    outer loop
      vertex -1.650000e+001 -1.250000e+001  0.000000e+000
      vertex -1.650000e+001 -9.505150e+000  3.000000e+000
      vertex -1.650000e+001 -9.505150e+000  2.000000e+000
    endloop
  endfacet
  facet normal  1.000000e+000  0.000000e+000  0.000000e+000
    outer loop
      vertex  1.650000e+001 -5.494850e+000  2.000000e+000
      vertex  1.650000e+001  9.000000e+000  3.000000e+000
      vertex  1.650000e+001 -5.494850e+000  3.000000e+000
    endloop
  endfacet
  facet normal  1.000000e+000  0.000000e+000  0.000000e+000
    outer loop
      vertex  1.650000e+001  1.450000e+001  0.000000e+000
      vertex  1.650000e+001  1.450000e+001  1.700000e+001
      vertex  1.650000e+001  1.250000e+001  1.700000e+001
    endloop
  endfacet
  facet normal  1.000000e+000  0.000000e+000  0.000000e+000
    outer loop
      vertex  1.650000e+001  1.450000e+001  0.000000e+000
      vertex  1.650000e+001  1.250000e+001  1.700000e+001
      vertex  1.650000e+001  1.250000e+001  6.500000e+000
    endloop
  endfacet
  facet normal  1.000000e+000  0.000000e+000  0.000000e+000
    outer loop
      vertex  1.650000e+001  1.450000e+001  0.000000e+000
      vertex  1.650000e+001  1.250000e+001  6.500000e+000
      vertex  1.650000e+001  1.203109e+001  4.750000e+000
    endloop
  endfacet
  facet normal  1.000000e+000  0.000000e+000  0.000000e+000
    outer loop
      vertex  1.650000e+001  1.450000e+001  0.000000e+000
      vertex  1.650000e+001  1.203109e+001  4.750000e+000
      vertex  1.650000e+001  1.075000e+001  3.468911e+000
    endloop
  endfacet
  facet normal  9.999999e-001  0.000000e+000  0.000000e+000
    outer loop
      vertex  1.650000e+001  1.450000e+001  0.000000e+000
      vertex  1.650000e+001  1.075000e+001  3.468911e+000
      vertex  1.650000e+001  9.000000e+000  3.000000e+000
    endloop
  endfacet
  facet normal  1.000000e+000  0.000000e+000  0.000000e+000
    outer loop
      vertex  1.650000e+001  1.450000e+001  0.000000e+000
      vertex  1.650000e+001  9.000000e+000  3.000000e+000
      vertex  1.650000e+001 -5.494850e+000  2.000000e+000
    endloop
  endfacet
  facet normal  1.000000e+000  0.000000e+000  0.000000e+000
    outer loop
      vertex  1.650000e+001  1.450000e+001  0.000000e+000
      vertex  1.650000e+001 -5.494850e+000  2.000000e+000
      vertex  1.650000e+001 -9.505150e+000  2.000000e+000
    endloop
  endfacet
  facet normal  1.000000e+000  0.000000e+000  0.000000e+000
    outer loop
      vertex  1.650000e+001  1.450000e+001  0.000000e+000
      vertex  1.650000e+001 -9.505150e+000  2.000000e+000
      vertex  1.650000e+001 -1.250000e+001  0.000000e+000
    endloop
  endfacet
  facet normal  1.000000e+000  0.000000e+000  0.000000e+000
    outer loop
      vertex  1.650000e+001 -1.250000e+001  3.000000e+000
      vertex  1.650000e+001 -1.250000e+001  0.000000e+000
      vertex  1.650000e+001 -9.505150e+000  3.000000e+000
    endloop
  endfacet
  facet normal  1.000000e+000  0.000000e+000  0.000000e+000
    outer loop
      vertex  1.650000e+001 -9.505150e+000  3.000000e+000
      vertex  1.650000e+001 -1.250000e+001  0.000000e+000
      vertex  1.650000e+001 -9.505150e+000  2.000000e+000
    endloop
  endfacet
  facet normal  0.000000e+000  0.000000e+000  1.000000e+000
    outer loop
      vertex  1.650000e+001 -1.250000e+001  3.000000e+000
      vertex  1.650000e+001 -9.505150e+000  3.000000e+000
      vertex  2.645751e+000 -1.050000e+001  3.000000e+000
    endloop
  endfacet
  facet normal  0.000000e+000  0.000000e+000  1.000000e+000
    outer loop
      vertex  1.650000e+001 -1.250000e+001  3.000000e+000
      vertex  2.645751e+000 -1.050000e+001  3.000000e+000
      vertex  1.414214e+000 -1.124166e+001  3.000000e+000
    endloop
  endfacet
  facet normal  0.000000e+000  0.000000e+000  9.999999e-001
    outer loop
      vertex  1.650000e+001 -1.250000e+001  3.000000e+000
      vertex  1.414214e+000 -1.124166e+001  3.000000e+000
      vertex -2.511121e-015 -1.150000e+001  3.000000e+000
    endloop
  endfacet
  facet normal  0.000000e+000  0.000000e+000  1.000000e+000
    outer loop
      vertex  1.650000e+001 -1.250000e+001  3.000000e+000
      vertex -2.511121e-015 -1.150000e+001  3.000000e+000
      vertex -1.650000e+001 -1.250000e+001  3.000000e+000
    endloop
  endfacet
  facet normal  0.000000e+000  0.000000e+000  9.999999e-001
    outer loop
      vertex -1.650000e+001 -1.250000e+001  3.000000e+000
      vertex -2.511121e-015 -1.150000e+001  3.000000e+000
      vertex -1.414214e+000 -1.124166e+001  3.000000e+000
    endloop
  endfacet
  facet normal  0.000000e+000  0.000000e+000  1.000000e+000
    outer loop
      vertex -1.650000e+001 -1.250000e+001  3.000000e+000
      vertex -1.414214e+000 -1.124166e+001  3.000000e+000
      vertex -2.645751e+000 -1.050000e+001  3.000000e+000
    endloop
  endfacet
  facet normal  0.000000e+000  0.000000e+000  1.000000e+000
    outer loop
      vertex -1.650000e+001 -1.250000e+001  3.000000e+000
      vertex -2.645751e+000 -1.050000e+001  3.000000e+000
      vertex -1.650000e+001 -9.505150e+000  3.000000e+000
    endloop
  endfacet
  facet normal  0.000000e+000 -1.000000e+000  0.000000e+000
    outer loop
      vertex  1.650000e+001 -1.250000e+001  3.000000e+000
      vertex -1.650000e+001 -1.250000e+001  3.000000e+000
      vertex  1.650000e+001 -1.250000e+001  0.000000e+000
    endloop
  endfacet
  facet normal  0.000000e+000 -1.000000e+000  0.000000e+000
    outer loop
      vertex  1.650000e+001 -1.250000e+001  0.000000e+000
      vertex -1.650000e+001 -1.250000e+001  3.000000e+000
      vertex -1.650000e+001 -1.250000e+001  0.000000e+000
    endloop
  endfacet
  facet normal  0.000000e+000  -0.000000e+000  1.000000e+000
    outer loop
      vertex -1.650000e+001 -5.494850e+000  3.000000e+000
      vertex -2.645751e+000 -4.500000e+000  3.000000e+000
      vertex -1.414214e+000 -3.758343e+000  3.000000e+000
    endloop
  endfacet
  facet normal  0.000000e+000  -0.000000e+000  1.000000e+000
    outer loop
      vertex -1.650000e+001 -5.494850e+000  3.000000e+000
      vertex -1.414214e+000 -3.758343e+000  3.000000e+000
      vertex -3.307792e-015 -3.500000e+000  3.000000e+000
    endloop
  endfacet
  facet normal  0.000000e+000  -0.000000e+000  1.000000e+000
    outer loop
      vertex -1.650000e+001 -5.494850e+000  3.000000e+000
      vertex -3.307792e-015 -3.500000e+000  3.000000e+000
      vertex  1.650000e+001  9.000000e+000  3.000000e+000
    endloop
  endfacet
  facet normal  0.000000e+000  0.000000e+000  1.000000e+000
    outer loop
      vertex -1.650000e+001 -5.494850e+000  3.000000e+000
      vertex  1.650000e+001  9.000000e+000  3.000000e+000
      vertex  1.150000e+001  9.000000e+000  3.000000e+000
    endloop
  endfacet
  facet normal  0.000000e+000  0.000000e+000  1.000000e+000
    outer loop
      vertex -1.650000e+001 -5.494850e+000  3.000000e+000
      vertex  1.150000e+001  9.000000e+000  3.000000e+000
      vertex -1.150000e+001  9.000000e+000  3.000000e+000
    endloop
  endfacet
  facet normal  0.000000e+000  0.000000e+000  1.000000e+000
    outer loop
      vertex -1.650000e+001 -5.494850e+000  3.000000e+000
      vertex -1.150000e+001  9.000000e+000  3.000000e+000
      vertex -1.650000e+001  9.000000e+000  3.000000e+000
    endloop
  endfacet
  facet normal  0.000000e+000  0.000000e+000  1.000000e+000
    outer loop
      vertex -1.150000e+001  9.000000e+000  3.000000e+000
      vertex  1.150000e+001  9.000000e+000  3.000000e+000
      vertex -1.150000e+001  1.250000e+001  3.000000e+000
    endloop
  endfacet
  facet normal  -0.000000e+000  0.000000e+000  1.000000e+000
    outer loop
      vertex -1.150000e+001  1.250000e+001  3.000000e+000
      vertex  1.150000e+001  9.000000e+000  3.000000e+000
      vertex  1.150000e+001  1.250000e+001  3.000000e+000
    endloop
  endfacet
  facet normal  -0.000000e+000  0.000000e+000  9.999999e-001
    outer loop
      vertex  1.650000e+001  9.000000e+000  3.000000e+000
      vertex -3.307792e-015 -3.500000e+000  3.000000e+000
      vertex  1.650000e+001 -5.494850e+000  3.000000e+000
    endloop
  endfacet
  facet normal  0.000000e+000  0.000000e+000  1.000000e+000
    outer loop
      vertex  1.650000e+001 -5.494850e+000  3.000000e+000
      vertex -3.307792e-015 -3.500000e+000  3.000000e+000
      vertex  1.414214e+000 -3.758343e+000  3.000000e+000
    endloop
  endfacet
  facet normal  0.000000e+000  0.000000e+000  1.000000e+000
    outer loop
      vertex  1.650000e+001 -5.494850e+000  3.000000e+000
      vertex  1.414214e+000 -3.758343e+000  3.000000e+000
      vertex  2.645751e+000 -4.500000e+000  3.000000e+000
    endloop
  endfacet
  facet normal  0.000000e+000  1.000000e+000  0.000000e+000
    outer loop
      vertex -1.150000e+001  1.250000e+001  0.000000e+000
      vertex -1.150000e+001  1.250000e+001  3.000000e+000
      vertex  1.150000e+001  1.250000e+001  0.000000e+000
    endloop
  endfacet
  facet normal  0.000000e+000  1.000000e+000  -0.000000e+000
    outer loop
      vertex  1.150000e+001  1.250000e+001  0.000000e+000
      vertex -1.150000e+001  1.250000e+001  3.000000e+000
      vertex  1.150000e+001  1.250000e+001  3.000000e+000
    endloop
  endfacet
  facet normal -1.797021e-001  9.837210e-001  0.000000e+000
    outer loop
      vertex -2.511121e-015 -1.150000e+001  2.000000e+000
      vertex  1.414214e+000 -1.124166e+001  3.000000e+000
      vertex  1.414214e+000 -1.124166e+001  2.000000e+000
    endloop
  endfacet
  facet normal -5.158938e-001  8.566526e-001  0.000000e+000
    outer loop
      vertex  1.414214e+000 -1.124166e+001  2.000000e+000
      vertex  1.414214e+000 -1.124166e+001  3.000000e+000
      vertex  2.645751e+000 -1.050000e+001  3.000000e+000
    endloop
  endfacet
  facet normal -5.158938e-001  8.566526e-001  0.000000e+000
    outer loop
      vertex  1.414214e+000 -1.124166e+001  2.000000e+000
      vertex  2.645751e+000 -1.050000e+001  3.000000e+000
      vertex  2.645751e+000 -1.050000e+001  2.000000e+000
    endloop
  endfacet
  facet normal -1.797021e-001  9.837210e-001  0.000000e+000
    outer loop
      vertex  1.414214e+000 -1.124166e+001  3.000000e+000
      vertex -2.511121e-015 -1.150000e+001  2.000000e+000
      vertex -2.511121e-015 -1.150000e+001  3.000000e+000
    endloop
  endfacet
  facet normal  1.797021e-001  9.837210e-001  0.000000e+000
    outer loop
      vertex -2.511121e-015 -1.150000e+001  3.000000e+000
      vertex -2.511121e-015 -1.150000e+001  2.000000e+000
      vertex -1.414214e+000 -1.124166e+001  2.000000e+000
    endloop
  endfacet
  facet normal  1.797021e-001  9.837210e-001  -0.000000e+000
    outer loop
      vertex -2.511121e-015 -1.150000e+001  3.000000e+000
      vertex -1.414214e+000 -1.124166e+001  2.000000e+000
      vertex -1.414214e+000 -1.124166e+001  3.000000e+000
    endloop
  endfacet
  facet normal  5.158938e-001  8.566526e-001  0.000000e+000
    outer loop
      vertex -1.414214e+000 -1.124166e+001  3.000000e+000
      vertex -1.414214e+000 -1.124166e+001  2.000000e+000
      vertex -2.645751e+000 -1.050000e+001  2.000000e+000
    endloop
  endfacet
  facet normal  5.158938e-001  8.566526e-001  -0.000000e+000
    outer loop
      vertex -1.414214e+000 -1.124166e+001  3.000000e+000
      vertex -2.645751e+000 -1.050000e+001  2.000000e+000
      vertex -2.645751e+000 -1.050000e+001  3.000000e+000
    endloop
  endfacet
  facet normal  1.797020e-001 -9.837211e-001  0.000000e+000
    outer loop
      vertex -3.307792e-015 -3.500000e+000  2.000000e+000
      vertex -1.414214e+000 -3.758343e+000  3.000000e+000
      vertex -1.414214e+000 -3.758343e+000  2.000000e+000
    endloop
  endfacet
  facet normal  5.158938e-001 -8.566524e-001  0.000000e+000
    outer loop
      vertex -1.414214e+000 -3.758343e+000  2.000000e+000
      vertex -1.414214e+000 -3.758343e+000  3.000000e+000
      vertex -2.645751e+000 -4.500000e+000  3.000000e+000
    endloop
  endfacet
  facet normal  5.158938e-001 -8.566524e-001  0.000000e+000
    outer loop
      vertex -1.414214e+000 -3.758343e+000  2.000000e+000
      vertex -2.645751e+000 -4.500000e+000  3.000000e+000
      vertex -2.645751e+000 -4.500000e+000  2.000000e+000
    endloop
  endfacet
  facet normal  1.797020e-001 -9.837211e-001  0.000000e+000
    outer loop
      vertex -1.414214e+000 -3.758343e+000  3.000000e+000
      vertex -3.307792e-015 -3.500000e+000  2.000000e+000
      vertex -3.307792e-015 -3.500000e+000  3.000000e+000
    endloop
  endfacet
  facet normal -1.797020e-001 -9.837211e-001  -0.000000e+000
    outer loop
      vertex -3.307792e-015 -3.500000e+000  3.000000e+000
      vertex -3.307792e-015 -3.500000e+000  2.000000e+000
      vertex  1.414214e+000 -3.758343e+000  2.000000e+000
    endloop
  endfacet
  facet normal -1.797020e-001 -9.837211e-001  0.000000e+000
    outer loop
      vertex -3.307792e-015 -3.500000e+000  3.000000e+000
      vertex  1.414214e+000 -3.758343e+000  2.000000e+000
      vertex  1.414214e+000 -3.758343e+000  3.000000e+000
    endloop
  endfacet
  facet normal -5.158938e-001 -8.566524e-001  -0.000000e+000
    outer loop
      vertex  1.414214e+000 -3.758343e+000  3.000000e+000
      vertex  1.414214e+000 -3.758343e+000  2.000000e+000
      vertex  2.645751e+000 -4.500000e+000  2.000000e+000
    endloop
  endfacet
  facet normal -5.158938e-001 -8.566524e-001  0.000000e+000
    outer loop
      vertex  1.414214e+000 -3.758343e+000  3.000000e+000
      vertex  2.645751e+000 -4.500000e+000  2.000000e+000
      vertex  2.645751e+000 -4.500000e+000  3.000000e+000
    endloop
  endfacet
  facet normal  7.162388e-002  9.974318e-001  0.000000e+000
    outer loop
      vertex -1.650000e+001 -9.505150e+000  2.000000e+000
      vertex -1.650000e+001 -9.505150e+000  3.000000e+000
      vertex -2.645751e+000 -1.050000e+001  2.000000e+000
    endloop
  endfacet
  facet normal  7.162388e-002  9.974318e-001  -0.000000e+000
    outer loop
      vertex -2.645751e+000 -1.050000e+001  2.000000e+000
      vertex -1.650000e+001 -9.505150e+000  3.000000e+000
      vertex -2.645751e+000 -1.050000e+001  3.000000e+000
    endloop
  endfacet
  facet normal  7.162388e-002 -9.974318e-001  0.000000e+000
    outer loop
      vertex -2.645751e+000 -4.500000e+000  2.000000e+000
      vertex -2.645751e+000 -4.500000e+000  3.000000e+000
      vertex -1.650000e+001 -5.494850e+000  2.000000e+000
    endloop
  endfacet
  facet normal  7.162388e-002 -9.974318e-001  0.000000e+000
    outer loop
      vertex -1.650000e+001 -5.494850e+000  2.000000e+000
      vertex -2.645751e+000 -4.500000e+000  3.000000e+000
      vertex -1.650000e+001 -5.494850e+000  3.000000e+000
    endloop
  endfacet
  facet normal  0.000000e+000 -9.659259e-001  2.588191e-001
    outer loop
      vertex -1.650000e+001  1.203109e+001  4.750000e+000
      vertex -1.150000e+001  1.250000e+001  6.500000e+000
      vertex -1.650000e+001  1.250000e+001  6.500000e+000
    endloop
  endfacet
  facet normal  0.000000e+000 -9.659259e-001  2.588191e-001
    outer loop
      vertex -1.150000e+001  1.250000e+001  6.500000e+000
      vertex -1.650000e+001  1.203109e+001  4.750000e+000
      vertex -1.150000e+001  1.203109e+001  4.750000e+000
    endloop
  endfacet
  facet normal  0.000000e+000 -7.071068e-001  7.071068e-001
    outer loop
      vertex -1.150000e+001  1.203109e+001  4.750000e+000
      vertex -1.650000e+001  1.203109e+001  4.750000e+000
      vertex -1.650000e+001  1.075000e+001  3.468911e+000
    endloop
  endfacet
  facet normal  0.000000e+000 -7.071068e-001  7.071068e-001
    outer loop
      vertex -1.150000e+001  1.203109e+001  4.750000e+000
      vertex -1.650000e+001  1.075000e+001  3.468911e+000
      vertex -1.150000e+001  1.075000e+001  3.468911e+000
    endloop
  endfacet
  facet normal  0.000000e+000 -2.588191e-001  9.659259e-001
    outer loop
      vertex -1.150000e+001  1.075000e+001  3.468911e+000
      vertex -1.650000e+001  1.075000e+001  3.468911e+000
      vertex -1.650000e+001  9.000000e+000  3.000000e+000
    endloop
  endfacet
  facet normal  0.000000e+000 -2.588191e-001  9.659259e-001
    outer loop
      vertex -1.150000e+001  1.075000e+001  3.468911e+000
      vertex -1.650000e+001  9.000000e+000  3.000000e+000
      vertex -1.150000e+001  9.000000e+000  3.000000e+000
    endloop
  endfacet
  facet normal  0.000000e+000 -1.000000e+000  -0.000000e+000
    outer loop
      vertex -1.150000e+001  1.250000e+001  6.500000e+000
      vertex -1.280056e+001  1.250000e+001  9.648076e+000
      vertex -1.340072e+001  1.250000e+001  8.903022e+000
    endloop
  endfacet
  facet normal  0.000000e+000 -1.000000e+000  0.000000e+000
    outer loop
      vertex -1.650000e+001  1.250000e+001  6.500000e+000
      vertex -1.150000e+001  1.250000e+001  6.500000e+000
      vertex -1.340072e+001  1.250000e+001  8.903022e+000
    endloop
  endfacet
  facet normal  0.000000e+000 -9.999999e-001  0.000000e+000
    outer loop
      vertex -1.650000e+001  1.250000e+001  6.500000e+000
      vertex -1.340072e+001  1.250000e+001  8.903022e+000
      vertex -1.435192e+001  1.250000e+001  8.800563e+000
    endloop
  endfacet
  facet normal  -0.000000e+000 -9.999999e-001  0.000000e+000
    outer loop
      vertex -1.650000e+001  1.250000e+001  6.500000e+000
      vertex -1.435192e+001  1.250000e+001  8.800563e+000
      vertex -1.509698e+001  1.250000e+001  9.400718e+000
    endloop
  endfacet
  facet normal  -0.000000e+000 -1.000000e+000  0.000000e+000
    outer loop
      vertex -1.650000e+001  1.250000e+001  6.500000e+000
      vertex -1.509698e+001  1.250000e+001  9.400718e+000
      vertex -1.519944e+001  1.250000e+001  1.035192e+001
    endloop
  endfacet
  facet normal  -0.000000e+000 -1.000000e+000  0.000000e+000
    outer loop
      vertex -1.650000e+001  1.250000e+001  6.500000e+000
      vertex -1.519944e+001  1.250000e+001  1.035192e+001
      vertex -1.650000e+001  1.250000e+001  1.700000e+001
    endloop
  endfacet
  facet normal  0.000000e+000 -1.000000e+000  0.000000e+000
    outer loop
      vertex -1.650000e+001  1.250000e+001  1.700000e+001
      vertex -1.519944e+001  1.250000e+001  1.035192e+001
      vertex -1.459928e+001  1.250000e+001  1.109698e+001
    endloop
  endfacet
  facet normal  0.000000e+000 -9.999999e-001  0.000000e+000
    outer loop
      vertex -1.650000e+001  1.250000e+001  1.700000e+001
      vertex -1.459928e+001  1.250000e+001  1.109698e+001
      vertex -1.364808e+001  1.250000e+001  1.119944e+001
    endloop
  endfacet
  facet normal  0.000000e+000 -1.000000e+000  0.000000e+000
    outer loop
      vertex -1.650000e+001  1.250000e+001  1.700000e+001
      vertex -1.364808e+001  1.250000e+001  1.119944e+001
      vertex -1.150000e+001  1.250000e+001  1.700000e+001
    endloop
  endfacet
  facet normal  0.000000e+000 -1.000000e+000  0.000000e+000
    outer loop
      vertex -1.280056e+001  1.250000e+001  9.648076e+000
      vertex -1.150000e+001  1.250000e+001  6.500000e+000
      vertex -1.290302e+001  1.250000e+001  1.059928e+001
    endloop
  endfacet
  facet normal  0.000000e+000 -9.999999e-001  0.000000e+000
    outer loop
      vertex -1.290302e+001  1.250000e+001  1.059928e+001
      vertex -1.150000e+001  1.250000e+001  6.500000e+000
      vertex -1.150000e+001  1.250000e+001  1.700000e+001
    endloop
  endfacet
  facet normal  0.000000e+000 -1.000000e+000  0.000000e+000
    outer loop
      vertex -1.290302e+001  1.250000e+001  1.059928e+001
      vertex -1.150000e+001  1.250000e+001  1.700000e+001
      vertex -1.364808e+001  1.250000e+001  1.119944e+001
    endloop
  endfacet
  facet normal  1.000000e+000  -0.000000e+000  0.000000e+000
    outer loop
      vertex -1.150000e+001  1.203109e+001  4.750000e+000
      vertex -1.150000e+001  1.075000e+001  3.468911e+000
      vertex -1.150000e+001  1.250000e+001  3.000000e+000
    endloop
  endfacet
  facet normal  1.000000e+000  0.000000e+000  0.000000e+000
    outer loop
      vertex -1.150000e+001  1.075000e+001  3.468911e+000
      vertex -1.150000e+001  9.000000e+000  3.000000e+000
      vertex -1.150000e+001  1.250000e+001  3.000000e+000
    endloop
  endfacet
  facet normal  1.000000e+000  -0.000000e+000  0.000000e+000
    outer loop
      vertex -1.150000e+001  1.250000e+001  6.500000e+000
      vertex -1.150000e+001  1.203109e+001  4.750000e+000
      vertex -1.150000e+001  1.250000e+001  3.000000e+000
    endloop
  endfacet
  facet normal  1.000000e+000  0.000000e+000  0.000000e+000
    outer loop
      vertex -1.150000e+001  1.250000e+001  6.500000e+000
      vertex -1.150000e+001  1.250000e+001  3.000000e+000
      vertex -1.150000e+001  1.450000e+001  1.700000e+001
    endloop
  endfacet
  facet normal  1.000000e+000  0.000000e+000  0.000000e+000
    outer loop
      vertex -1.150000e+001  1.250000e+001  6.500000e+000
      vertex -1.150000e+001  1.450000e+001  1.700000e+001
      vertex -1.150000e+001  1.250000e+001  1.700000e+001
    endloop
  endfacet
  facet normal  1.000000e+000  0.000000e+000  0.000000e+000
    outer loop
      vertex -1.150000e+001  1.450000e+001  0.000000e+000
      vertex -1.150000e+001  1.450000e+001  1.700000e+001
      vertex -1.150000e+001  1.250000e+001  0.000000e+000
    endloop
  endfacet
  facet normal  1.000000e+000  0.000000e+000  0.000000e+000
    outer loop
      vertex -1.150000e+001  1.250000e+001  0.000000e+000
      vertex -1.150000e+001  1.450000e+001  1.700000e+001
      vertex -1.150000e+001  1.250000e+001  3.000000e+000
    endloop
  endfacet
  facet normal  0.000000e+000  1.000000e+000  0.000000e+000
    outer loop
      vertex -1.340072e+001  1.450000e+001  8.903022e+000
      vertex -1.280056e+001  1.450000e+001  9.648076e+000
      vertex -1.150000e+001  1.450000e+001  0.000000e+000
    endloop
  endfacet
  facet normal  0.000000e+000  9.999999e-001  0.000000e+000
    outer loop
      vertex -1.650000e+001  1.450000e+001  0.000000e+000
      vertex -1.650000e+001  1.450000e+001  1.700000e+001
      vertex -1.519944e+001  1.450000e+001  1.035192e+001
    endloop
  endfacet
  facet normal  0.000000e+000  1.000000e+000  0.000000e+000
    outer loop
      vertex -1.650000e+001  1.450000e+001  0.000000e+000
      vertex -1.519944e+001  1.450000e+001  1.035192e+001
      vertex -1.509698e+001  1.450000e+001  9.400718e+000
    endloop
  endfacet
  facet normal  0.000000e+000  9.999999e-001  0.000000e+000
    outer loop
      vertex -1.650000e+001  1.450000e+001  0.000000e+000
      vertex -1.509698e+001  1.450000e+001  9.400718e+000
      vertex -1.435192e+001  1.450000e+001  8.800563e+000
    endloop
  endfacet
  facet normal  -0.000000e+000  1.000000e+000  0.000000e+000
    outer loop
      vertex -1.650000e+001  1.450000e+001  0.000000e+000
      vertex -1.435192e+001  1.450000e+001  8.800563e+000
      vertex -1.340072e+001  1.450000e+001  8.903022e+000
    endloop
  endfacet
  facet normal  0.000000e+000  1.000000e+000  0.000000e+000
    outer loop
      vertex -1.650000e+001  1.450000e+001  0.000000e+000
      vertex -1.340072e+001  1.450000e+001  8.903022e+000
      vertex -1.150000e+001  1.450000e+001  0.000000e+000
    endloop
  endfacet
  facet normal  0.000000e+000  1.000000e+000  0.000000e+000
    outer loop
      vertex -1.650000e+001  1.450000e+001  1.700000e+001
      vertex -1.150000e+001  1.450000e+001  1.700000e+001
      vertex -1.364808e+001  1.450000e+001  1.119944e+001
    endloop
  endfacet
  facet normal  0.000000e+000  9.999999e-001  0.000000e+000
    outer loop
      vertex -1.650000e+001  1.450000e+001  1.700000e+001
      vertex -1.364808e+001  1.450000e+001  1.119944e+001
      vertex -1.459928e+001  1.450000e+001  1.109698e+001
    endloop
  endfacet
  facet normal  0.000000e+000  1.000000e+000  0.000000e+000
    outer loop
      vertex -1.650000e+001  1.450000e+001  1.700000e+001
      vertex -1.459928e+001  1.450000e+001  1.109698e+001
      vertex -1.519944e+001  1.450000e+001  1.035192e+001
    endloop
  endfacet
  facet normal  0.000000e+000  1.000000e+000  0.000000e+000
    outer loop
      vertex -1.364808e+001  1.450000e+001  1.119944e+001
      vertex -1.150000e+001  1.450000e+001  1.700000e+001
      vertex -1.290302e+001  1.450000e+001  1.059928e+001
    endloop
  endfacet
  facet normal  -0.000000e+000  1.000000e+000  0.000000e+000
    outer loop
      vertex -1.290302e+001  1.450000e+001  1.059928e+001
      vertex -1.150000e+001  1.450000e+001  1.700000e+001
      vertex -1.150000e+001  1.450000e+001  0.000000e+000
    endloop
  endfacet
  facet normal  0.000000e+000  1.000000e+000  0.000000e+000
    outer loop
      vertex -1.290302e+001  1.450000e+001  1.059928e+001
      vertex -1.150000e+001  1.450000e+001  0.000000e+000
      vertex -1.280056e+001  1.450000e+001  9.648076e+000
    endloop
  endfacet
  facet normal  0.000000e+000  0.000000e+000  1.000000e+000
    outer loop
      vertex -1.650000e+001  1.250000e+001  1.700000e+001
      vertex -1.150000e+001  1.250000e+001  1.700000e+001
      vertex -1.650000e+001  1.450000e+001  1.700000e+001
    endloop
  endfacet
  facet normal  -0.000000e+000  0.000000e+000  1.000000e+000
    outer loop
      vertex -1.650000e+001  1.450000e+001  1.700000e+001
      vertex -1.150000e+001  1.250000e+001  1.700000e+001
      vertex -1.150000e+001  1.450000e+001  1.700000e+001
    endloop
  endfacet
  facet normal -7.787681e-001  0.000000e+000  6.273120e-001
    outer loop
      vertex -1.340072e+001  1.450000e+001  8.903022e+000
      vertex -1.280056e+001  1.250000e+001  9.648076e+000
      vertex -1.280056e+001  1.450000e+001  9.648076e+000
    endloop
  endfacet
  facet normal -9.942488e-001  -0.000000e+000 -1.070953e-001
    outer loop
      vertex -1.280056e+001  1.450000e+001  9.648076e+000
      vertex -1.280056e+001  1.250000e+001  9.648076e+000
      vertex -1.290302e+001  1.250000e+001  1.059928e+001
    endloop
  endfacet
  facet normal -9.942488e-001  0.000000e+000 -1.070953e-001
    outer loop
      vertex -1.280056e+001  1.450000e+001  9.648076e+000
      vertex -1.290302e+001  1.250000e+001  1.059928e+001
      vertex -1.290302e+001  1.450000e+001  1.059928e+001
    endloop
  endfacet
  facet normal -7.787681e-001  0.000000e+000  6.273120e-001
    outer loop
      vertex -1.280056e+001  1.250000e+001  9.648076e+000
      vertex -1.340072e+001  1.450000e+001  8.903022e+000
      vertex -1.340072e+001  1.250000e+001  8.903022e+000
    endloop
  endfacet
  facet normal -1.070953e-001  0.000000e+000  9.942488e-001
    outer loop
      vertex -1.340072e+001  1.250000e+001  8.903022e+000
      vertex -1.340072e+001  1.450000e+001  8.903022e+000
      vertex -1.435192e+001  1.450000e+001  8.800563e+000
    endloop
  endfacet
  facet normal -1.070953e-001  0.000000e+000  9.942488e-001
    outer loop
      vertex -1.340072e+001  1.250000e+001  8.903022e+000
      vertex -1.435192e+001  1.450000e+001  8.800563e+000
      vertex -1.435192e+001  1.250000e+001  8.800563e+000
    endloop
  endfacet
  facet normal  6.273120e-001  -0.000000e+000  7.787681e-001
    outer loop
      vertex -1.435192e+001  1.250000e+001  8.800563e+000
      vertex -1.435192e+001  1.450000e+001  8.800563e+000
      vertex -1.509698e+001  1.450000e+001  9.400718e+000
    endloop
  endfacet
  facet normal  6.273120e-001  0.000000e+000  7.787681e-001
    outer loop
      vertex -1.435192e+001  1.250000e+001  8.800563e+000
      vertex -1.509698e+001  1.450000e+001  9.400718e+000
      vertex -1.509698e+001  1.250000e+001  9.400718e+000
    endloop
  endfacet
  facet normal  7.787681e-001  0.000000e+000 -6.273120e-001
    outer loop
      vertex -1.459928e+001  1.450000e+001  1.109698e+001
      vertex -1.519944e+001  1.250000e+001  1.035192e+001
      vertex -1.519944e+001  1.450000e+001  1.035192e+001
    endloop
  endfacet
  facet normal  9.942488e-001  0.000000e+000  1.070953e-001
    outer loop
      vertex -1.519944e+001  1.450000e+001  1.035192e+001
      vertex -1.519944e+001  1.250000e+001  1.035192e+001
      vertex -1.509698e+001  1.250000e+001  9.400718e+000
    endloop
  endfacet
  facet normal  9.942488e-001  -0.000000e+000  1.070953e-001
    outer loop
      vertex -1.519944e+001  1.450000e+001  1.035192e+001
      vertex -1.509698e+001  1.250000e+001  9.400718e+000
      vertex -1.509698e+001  1.450000e+001  9.400718e+000
    endloop
  endfacet
  facet normal  7.787681e-001  0.000000e+000 -6.273120e-001
    outer loop
      vertex -1.519944e+001  1.250000e+001  1.035192e+001
      vertex -1.459928e+001  1.450000e+001  1.109698e+001
      vertex -1.459928e+001  1.250000e+001  1.109698e+001
    endloop
  endfacet
  facet normal  1.070953e-001  0.000000e+000 -9.942488e-001
    outer loop
      vertex -1.459928e+001  1.250000e+001  1.109698e+001
      vertex -1.459928e+001  1.450000e+001  1.109698e+001
      vertex -1.364808e+001  1.450000e+001  1.119944e+001
    endloop
  endfacet
  facet normal  1.070953e-001  0.000000e+000 -9.942488e-001
    outer loop
      vertex -1.459928e+001  1.250000e+001  1.109698e+001
      vertex -1.364808e+001  1.450000e+001  1.119944e+001
      vertex -1.364808e+001  1.250000e+001  1.119944e+001
    endloop
  endfacet
  facet normal -6.273120e-001  0.000000e+000 -7.787681e-001
    outer loop
      vertex -1.364808e+001  1.250000e+001  1.119944e+001
      vertex -1.364808e+001  1.450000e+001  1.119944e+001
      vertex -1.290302e+001  1.450000e+001  1.059928e+001
    endloop
  endfacet
  facet normal -6.273120e-001  -0.000000e+000 -7.787681e-001
    outer loop
      vertex -1.364808e+001  1.250000e+001  1.119944e+001
      vertex -1.290302e+001  1.450000e+001  1.059928e+001
      vertex -1.290302e+001  1.250000e+001  1.059928e+001
    endloop
  endfacet
  facet normal -7.162388e-002  9.974318e-001  0.000000e+000
    outer loop
      vertex  1.650000e+001 -9.505150e+000  2.000000e+000
      vertex  2.645751e+000 -1.050000e+001  2.000000e+000
      vertex  1.650000e+001 -9.505150e+000  3.000000e+000
    endloop
  endfacet
  facet normal -7.162388e-002  9.974318e-001  0.000000e+000
    outer loop
      vertex  1.650000e+001 -9.505150e+000  3.000000e+000
      vertex  2.645751e+000 -1.050000e+001  2.000000e+000
      vertex  2.645751e+000 -1.050000e+001  3.000000e+000
    endloop
  endfacet
  facet normal -7.162388e-002 -9.974318e-001  0.000000e+000
    outer loop
      vertex  2.645751e+000 -4.500000e+000  2.000000e+000
      vertex  1.650000e+001 -5.494850e+000  2.000000e+000
      vertex  2.645751e+000 -4.500000e+000  3.000000e+000
    endloop
  endfacet
  facet normal -7.162388e-002 -9.974318e-001  0.000000e+000
    outer loop
      vertex  2.645751e+000 -4.500000e+000  3.000000e+000
      vertex  1.650000e+001 -5.494850e+000  2.000000e+000
      vertex  1.650000e+001 -5.494850e+000  3.000000e+000
    endloop
  endfacet
  facet normal  0.000000e+000 -9.999999e-001  0.000000e+000
    outer loop
      vertex  1.509698e+001  1.250000e+001  9.400718e+000
      vertex  1.435192e+001  1.250000e+001  8.800563e+000
      vertex  1.650000e+001  1.250000e+001  6.500000e+000
    endloop
  endfacet
  facet normal  0.000000e+000 -1.000000e+000  0.000000e+000
    outer loop
      vertex  1.150000e+001  1.250000e+001  6.500000e+000
      vertex  1.650000e+001  1.250000e+001  6.500000e+000
      vertex  1.435192e+001  1.250000e+001  8.800563e+000
    endloop
  endfacet
  facet normal  -0.000000e+000 -1.000000e+000  0.000000e+000
    outer loop
      vertex  1.150000e+001  1.250000e+001  6.500000e+000
      vertex  1.435192e+001  1.250000e+001  8.800563e+000
      vertex  1.340072e+001  1.250000e+001  8.903022e+000
    endloop
  endfacet
  facet normal  -0.000000e+000 -1.000000e+000  0.000000e+000
    outer loop
      vertex  1.150000e+001  1.250000e+001  6.500000e+000
      vertex  1.340072e+001  1.250000e+001  8.903022e+000
      vertex  1.280056e+001  1.250000e+001  9.648076e+000
    endloop
  endfacet
  facet normal  -0.000000e+000 -1.000000e+000  0.000000e+000
    outer loop
      vertex  1.150000e+001  1.250000e+001  6.500000e+000
      vertex  1.280056e+001  1.250000e+001  9.648076e+000
      vertex  1.290302e+001  1.250000e+001  1.059928e+001
    endloop
  endfacet
  facet normal  0.000000e+000 -9.999999e-001  0.000000e+000
    outer loop
      vertex  1.150000e+001  1.250000e+001  1.700000e+001
      vertex  1.150000e+001  1.250000e+001  6.500000e+000
      vertex  1.290302e+001  1.250000e+001  1.059928e+001
    endloop
  endfacet
  facet normal  0.000000e+000 -1.000000e+000  0.000000e+000
    outer loop
      vertex  1.150000e+001  1.250000e+001  1.700000e+001
      vertex  1.290302e+001  1.250000e+001  1.059928e+001
      vertex  1.364808e+001  1.250000e+001  1.119944e+001
    endloop
  endfacet
  facet normal  0.000000e+000 -1.000000e+000  0.000000e+000
    outer loop
      vertex  1.150000e+001  1.250000e+001  1.700000e+001
      vertex  1.364808e+001  1.250000e+001  1.119944e+001
      vertex  1.459928e+001  1.250000e+001  1.109698e+001
    endloop
  endfacet
  facet normal  0.000000e+000 -1.000000e+000  0.000000e+000
    outer loop
      vertex  1.150000e+001  1.250000e+001  1.700000e+001
      vertex  1.459928e+001  1.250000e+001  1.109698e+001
      vertex  1.650000e+001  1.250000e+001  1.700000e+001
    endloop
  endfacet
  facet normal  0.000000e+000 -1.000000e+000  0.000000e+000
    outer loop
      vertex  1.509698e+001  1.250000e+001  9.400718e+000
      vertex  1.650000e+001  1.250000e+001  6.500000e+000
      vertex  1.519944e+001  1.250000e+001  1.035192e+001
    endloop
  endfacet
  facet normal  0.000000e+000 -1.000000e+000  0.000000e+000
    outer loop
      vertex  1.519944e+001  1.250000e+001  1.035192e+001
      vertex  1.650000e+001  1.250000e+001  6.500000e+000
      vertex  1.650000e+001  1.250000e+001  1.700000e+001
    endloop
  endfacet
  facet normal  0.000000e+000 -1.000000e+000  0.000000e+000
    outer loop
      vertex  1.519944e+001  1.250000e+001  1.035192e+001
      vertex  1.650000e+001  1.250000e+001  1.700000e+001
      vertex  1.459928e+001  1.250000e+001  1.109698e+001
    endloop
  endfacet
  facet normal -1.000000e+000  0.000000e+000  0.000000e+000
    outer loop
      vertex  1.150000e+001  1.250000e+001  3.000000e+000
      vertex  1.150000e+001  1.075000e+001  3.468911e+000
      vertex  1.150000e+001  1.203109e+001  4.750000e+000
    endloop
  endfacet
  facet normal -1.000000e+000  0.000000e+000  0.000000e+000
    outer loop
      vertex  1.150000e+001  1.250000e+001  3.000000e+000
      vertex  1.150000e+001  9.000000e+000  3.000000e+000
      vertex  1.150000e+001  1.075000e+001  3.468911e+000
    endloop
  endfacet
  facet normal -1.000000e+000  0.000000e+000  0.000000e+000
    outer loop
      vertex  1.150000e+001  1.250000e+001  6.500000e+000
      vertex  1.150000e+001  1.250000e+001  1.700000e+001
      vertex  1.150000e+001  1.450000e+001  1.700000e+001
    endloop
  endfacet
  facet normal -1.000000e+000  0.000000e+000  0.000000e+000
    outer loop
      vertex  1.150000e+001  1.250000e+001  6.500000e+000
      vertex  1.150000e+001  1.450000e+001  1.700000e+001
      vertex  1.150000e+001  1.250000e+001  3.000000e+000
    endloop
  endfacet
  facet normal -1.000000e+000  0.000000e+000  0.000000e+000
    outer loop
      vertex  1.150000e+001  1.250000e+001  6.500000e+000
      vertex  1.150000e+001  1.250000e+001  3.000000e+000
      vertex  1.150000e+001  1.203109e+001  4.750000e+000
    endloop
  endfacet
  facet normal -1.000000e+000  0.000000e+000  0.000000e+000
    outer loop
      vertex  1.150000e+001  1.450000e+001  0.000000e+000
      vertex  1.150000e+001  1.250000e+001  0.000000e+000
      vertex  1.150000e+001  1.450000e+001  1.700000e+001
    endloop
  endfacet
  facet normal -1.000000e+000  0.000000e+000  0.000000e+000
    outer loop
      vertex  1.150000e+001  1.450000e+001  1.700000e+001
      vertex  1.150000e+001  1.250000e+001  0.000000e+000
      vertex  1.150000e+001  1.250000e+001  3.000000e+000
    endloop
  endfacet
  facet normal  0.000000e+000 -9.659259e-001  2.588191e-001
    outer loop
      vertex  1.150000e+001  1.203109e+001  4.750000e+000
      vertex  1.650000e+001  1.250000e+001  6.500000e+000
      vertex  1.150000e+001  1.250000e+001  6.500000e+000
    endloop
  endfacet
  facet normal  0.000000e+000 -9.659259e-001  2.588191e-001
    outer loop
      vertex  1.650000e+001  1.250000e+001  6.500000e+000
      vertex  1.150000e+001  1.203109e+001  4.750000e+000
      vertex  1.650000e+001  1.203109e+001  4.750000e+000
    endloop
  endfacet
  facet normal  0.000000e+000 -7.071068e-001  7.071068e-001
    outer loop
      vertex  1.650000e+001  1.203109e+001  4.750000e+000
      vertex  1.150000e+001  1.203109e+001  4.750000e+000
      vertex  1.150000e+001  1.075000e+001  3.468911e+000
    endloop
  endfacet
  facet normal  0.000000e+000 -7.071068e-001  7.071068e-001
    outer loop
      vertex  1.650000e+001  1.203109e+001  4.750000e+000
      vertex  1.150000e+001  1.075000e+001  3.468911e+000
      vertex  1.650000e+001  1.075000e+001  3.468911e+000
    endloop
  endfacet
  facet normal  0.000000e+000 -2.588191e-001  9.659259e-001
    outer loop
      vertex  1.650000e+001  1.075000e+001  3.468911e+000
      vertex  1.150000e+001  1.075000e+001  3.468911e+000
      vertex  1.150000e+001  9.000000e+000  3.000000e+000
    endloop
  endfacet
  facet normal  0.000000e+000 -2.588191e-001  9.659259e-001
    outer loop
      vertex  1.650000e+001  1.075000e+001  3.468911e+000
      vertex  1.150000e+001  9.000000e+000  3.000000e+000
      vertex  1.650000e+001  9.000000e+000  3.000000e+000
    endloop
  endfacet
  facet normal  -0.000000e+000  9.999999e-001  0.000000e+000
    outer loop
      vertex  1.650000e+001  1.450000e+001  0.000000e+000
      vertex  1.435192e+001  1.450000e+001  8.800563e+000
      vertex  1.509698e+001  1.450000e+001  9.400718e+000
    endloop
  endfacet
  facet normal  0.000000e+000  1.000000e+000  0.000000e+000
    outer loop
      vertex  1.150000e+001  1.450000e+001  0.000000e+000
      vertex  1.290302e+001  1.450000e+001  1.059928e+001
      vertex  1.280056e+001  1.450000e+001  9.648076e+000
    endloop
  endfacet
  facet normal  0.000000e+000  1.000000e+000  0.000000e+000
    outer loop
      vertex  1.150000e+001  1.450000e+001  0.000000e+000
      vertex  1.280056e+001  1.450000e+001  9.648076e+000
      vertex  1.340072e+001  1.450000e+001  8.903022e+000
    endloop
  endfacet
  facet normal  0.000000e+000  1.000000e+000  0.000000e+000
    outer loop
      vertex  1.150000e+001  1.450000e+001  0.000000e+000
      vertex  1.340072e+001  1.450000e+001  8.903022e+000
      vertex  1.435192e+001  1.450000e+001  8.800563e+000
    endloop
  endfacet
  facet normal  0.000000e+000  1.000000e+000  0.000000e+000
    outer loop
      vertex  1.150000e+001  1.450000e+001  0.000000e+000
      vertex  1.435192e+001  1.450000e+001  8.800563e+000
      vertex  1.650000e+001  1.450000e+001  0.000000e+000
    endloop
  endfacet
  facet normal  0.000000e+000  1.000000e+000  0.000000e+000
    outer loop
      vertex  1.150000e+001  1.450000e+001  1.700000e+001
      vertex  1.650000e+001  1.450000e+001  1.700000e+001
      vertex  1.459928e+001  1.450000e+001  1.109698e+001
    endloop
  endfacet
  facet normal  0.000000e+000  1.000000e+000  0.000000e+000
    outer loop
      vertex  1.150000e+001  1.450000e+001  1.700000e+001
      vertex  1.459928e+001  1.450000e+001  1.109698e+001
      vertex  1.364808e+001  1.450000e+001  1.119944e+001
    endloop
  endfacet
  facet normal  0.000000e+000  1.000000e+000  0.000000e+000
    outer loop
      vertex  1.150000e+001  1.450000e+001  1.700000e+001
      vertex  1.364808e+001  1.450000e+001  1.119944e+001
      vertex  1.290302e+001  1.450000e+001  1.059928e+001
    endloop
  endfacet
  facet normal  0.000000e+000  1.000000e+000  0.000000e+000
    outer loop
      vertex  1.150000e+001  1.450000e+001  1.700000e+001
      vertex  1.290302e+001  1.450000e+001  1.059928e+001
      vertex  1.150000e+001  1.450000e+001  0.000000e+000
    endloop
  endfacet
  facet normal  0.000000e+000  1.000000e+000  0.000000e+000
    outer loop
      vertex  1.459928e+001  1.450000e+001  1.109698e+001
      vertex  1.650000e+001  1.450000e+001  1.700000e+001
      vertex  1.519944e+001  1.450000e+001  1.035192e+001
    endloop
  endfacet
  facet normal  -0.000000e+000  9.999999e-001  0.000000e+000
    outer loop
      vertex  1.519944e+001  1.450000e+001  1.035192e+001
      vertex  1.650000e+001  1.450000e+001  1.700000e+001
      vertex  1.650000e+001  1.450000e+001  0.000000e+000
    endloop
  endfacet
  facet normal  0.000000e+000  1.000000e+000  0.000000e+000
    outer loop
      vertex  1.519944e+001  1.450000e+001  1.035192e+001
      vertex  1.650000e+001  1.450000e+001  0.000000e+000
      vertex  1.509698e+001  1.450000e+001  9.400718e+000
    endloop
  endfacet
  facet normal  7.787681e-001  0.000000e+000  6.273120e-001
    outer loop
      vertex  1.340072e+001  1.250000e+001  8.903022e+000
      vertex  1.280056e+001  1.450000e+001  9.648076e+000
      vertex  1.280056e+001  1.250000e+001  9.648076e+000
    endloop
  endfacet
  facet normal  9.942488e-001  0.000000e+000 -1.070953e-001
    outer loop
      vertex  1.280056e+001  1.250000e+001  9.648076e+000
      vertex  1.280056e+001  1.450000e+001  9.648076e+000
      vertex  1.290302e+001  1.450000e+001  1.059928e+001
    endloop
  endfacet
  facet normal  9.942488e-001  0.000000e+000 -1.070953e-001
    outer loop
      vertex  1.280056e+001  1.250000e+001  9.648076e+000
      vertex  1.290302e+001  1.450000e+001  1.059928e+001
      vertex  1.290302e+001  1.250000e+001  1.059928e+001
    endloop
  endfacet
  facet normal  7.787681e-001  -0.000000e+000  6.273120e-001
    outer loop
      vertex  1.280056e+001  1.450000e+001  9.648076e+000
      vertex  1.340072e+001  1.250000e+001  8.903022e+000
      vertex  1.340072e+001  1.450000e+001  8.903022e+000
    endloop
  endfacet
  facet normal  1.070953e-001  0.000000e+000  9.942488e-001
    outer loop
      vertex  1.340072e+001  1.450000e+001  8.903022e+000
      vertex  1.340072e+001  1.250000e+001  8.903022e+000
      vertex  1.435192e+001  1.250000e+001  8.800563e+000
    endloop
  endfacet
  facet normal  1.070953e-001  -0.000000e+000  9.942488e-001
    outer loop
      vertex  1.340072e+001  1.450000e+001  8.903022e+000
      vertex  1.435192e+001  1.250000e+001  8.800563e+000
      vertex  1.435192e+001  1.450000e+001  8.800563e+000
    endloop
  endfacet
  facet normal -6.273120e-001  0.000000e+000  7.787681e-001
    outer loop
      vertex  1.435192e+001  1.450000e+001  8.800563e+000
      vertex  1.435192e+001  1.250000e+001  8.800563e+000
      vertex  1.509698e+001  1.250000e+001  9.400718e+000
    endloop
  endfacet
  facet normal -6.273120e-001  0.000000e+000  7.787681e-001
    outer loop
      vertex  1.435192e+001  1.450000e+001  8.800563e+000
      vertex  1.509698e+001  1.250000e+001  9.400718e+000
      vertex  1.509698e+001  1.450000e+001  9.400718e+000
    endloop
  endfacet
  facet normal -7.787681e-001  -0.000000e+000 -6.273120e-001
    outer loop
      vertex  1.459928e+001  1.250000e+001  1.109698e+001
      vertex  1.519944e+001  1.450000e+001  1.035192e+001
      vertex  1.519944e+001  1.250000e+001  1.035192e+001
    endloop
  endfacet
  facet normal -9.942488e-001  0.000000e+000  1.070953e-001
    outer loop
      vertex  1.519944e+001  1.250000e+001  1.035192e+001
      vertex  1.519944e+001  1.450000e+001  1.035192e+001
      vertex  1.509698e+001  1.450000e+001  9.400718e+000
    endloop
  endfacet
  facet normal -9.942488e-001  0.000000e+000  1.070953e-001
    outer loop
      vertex  1.519944e+001  1.250000e+001  1.035192e+001
      vertex  1.509698e+001  1.450000e+001  9.400718e+000
      vertex  1.509698e+001  1.250000e+001  9.400718e+000
    endloop
  endfacet
  facet normal -7.787681e-001  0.000000e+000 -6.273120e-001
    outer loop
      vertex  1.519944e+001  1.450000e+001  1.035192e+001
      vertex  1.459928e+001  1.250000e+001  1.109698e+001
      vertex  1.459928e+001  1.450000e+001  1.109698e+001
    endloop
  endfacet
  facet normal -1.070953e-001  -0.000000e+000 -9.942488e-001
    outer loop
      vertex  1.459928e+001  1.450000e+001  1.109698e+001
      vertex  1.459928e+001  1.250000e+001  1.109698e+001
      vertex  1.364808e+001  1.250000e+001  1.119944e+001
    endloop
  endfacet
  facet normal -1.070953e-001  0.000000e+000 -9.942488e-001
    outer loop
      vertex  1.459928e+001  1.450000e+001  1.109698e+001
      vertex  1.364808e+001  1.250000e+001  1.119944e+001
      vertex  1.364808e+001  1.450000e+001  1.119944e+001
    endloop
  endfacet
  facet normal  6.273120e-001  0.000000e+000 -7.787681e-001
    outer loop
      vertex  1.364808e+001  1.450000e+001  1.119944e+001
      vertex  1.364808e+001  1.250000e+001  1.119944e+001
      vertex  1.290302e+001  1.250000e+001  1.059928e+001
    endloop
  endfacet
  facet normal  6.273120e-001  0.000000e+000 -7.787681e-001
    outer loop
      vertex  1.364808e+001  1.450000e+001  1.119944e+001
      vertex  1.290302e+001  1.250000e+001  1.059928e+001
      vertex  1.290302e+001  1.450000e+001  1.059928e+001
    endloop
  endfacet
  facet normal  0.000000e+000  0.000000e+000  1.000000e+000
    outer loop
      vertex  1.150000e+001  1.250000e+001  1.700000e+001
      vertex  1.650000e+001  1.250000e+001  1.700000e+001
      vertex  1.150000e+001  1.450000e+001  1.700000e+001
    endloop
  endfacet
  facet normal  -0.000000e+000  0.000000e+000  1.000000e+000
    outer loop
      vertex  1.150000e+001  1.450000e+001  1.700000e+001
      vertex  1.650000e+001  1.250000e+001  1.700000e+001
      vertex  1.650000e+001  1.450000e+001  1.700000e+001
    endloop
  endfacet
endsolid CATIA STL
