solid CATIA STL
  facet normal  0.000000e+000 -1.000000e+000  0.000000e+000
    outer loop
      vertex  1.000000e+001 -2.200000e+001  2.000000e+000
      vertex  1.000000e+001 -2.200000e+001  0.000000e+000
      vertex  2.100000e+001 -2.200000e+001  2.000000e+000
    endloop
  endfacet
  facet normal  0.000000e+000 -1.000000e+000  -0.000000e+000
    outer loop
      vertex  2.100000e+001 -2.200000e+001  2.000000e+000
      vertex  1.000000e+001 -2.200000e+001  0.000000e+000
      vertex  2.100000e+001 -2.200000e+001  0.000000e+000
    endloop
  endfacet
  facet normal  0.000000e+000 -1.000000e+000  0.000000e+000
    outer loop
      vertex -2.100000e+001 -2.200000e+001  2.000000e+000
      vertex -2.100000e+001 -2.200000e+001  0.000000e+000
      vertex  1.000000e+000 -2.200000e+001  2.000000e+000
    endloop
  endfacet
  facet normal  0.000000e+000 -1.000000e+000  -0.000000e+000
    outer loop
      vertex  1.000000e+000 -2.200000e+001  2.000000e+000
      vertex -2.100000e+001 -2.200000e+001  0.000000e+000
      vertex  1.000000e+000 -2.200000e+001  0.000000e+000
    endloop
  endfacet
  facet normal  0.000000e+000  0.000000e+000 -1.000000e+000
    outer loop
      vertex  1.000000e+000 -1.300000e+001  0.000000e+000
      vertex  1.000000e+000 -2.200000e+001  0.000000e+000
      vertex -1.632769e+001 -1.531068e+001  0.000000e+000
    endloop
  endfacet
  facet normal  0.000000e+000  0.000000e+000 -1.000000e+000
    outer loop
      vertex  1.000000e+000 -1.300000e+001  0.000000e+000
      vertex -1.632769e+001 -1.531068e+001  0.000000e+000
      vertex -1.632769e+001  1.531068e+001  0.000000e+000
    endloop
  endfacet
  facet normal  0.000000e+000  0.000000e+000 -9.999999e-001
    outer loop
      vertex  1.000000e+000 -1.300000e+001  0.000000e+000
      vertex -1.632769e+001  1.531068e+001  0.000000e+000
      vertex  1.000000e+001 -1.300000e+001  0.000000e+000
    endloop
  endfacet
  facet normal  0.000000e+000  -0.000000e+000 -1.000000e+000
    outer loop
      vertex -2.100000e+001 -2.200000e+001  0.000000e+000
      vertex -1.818933e+001  1.632769e+001  0.000000e+000
      vertex -1.746914e+001  1.543363e+001  0.000000e+000
    endloop
  endfacet
  facet normal  0.000000e+000  0.000000e+000 -1.000000e+000
    outer loop
      vertex -2.100000e+001 -2.200000e+001  0.000000e+000
      vertex -1.746914e+001  1.543363e+001  0.000000e+000
      vertex -1.818933e+001 -1.632769e+001  0.000000e+000
    endloop
  endfacet
  facet normal  0.000000e+000  -0.000000e+000 -9.999999e-001
    outer loop
      vertex -2.100000e+001 -2.200000e+001  0.000000e+000
      vertex -1.818933e+001 -1.632769e+001  0.000000e+000
      vertex -1.806637e+001 -1.746914e+001  0.000000e+000
    endloop
  endfacet
  facet normal  0.000000e+000  -0.000000e+000 -1.000000e+000
    outer loop
      vertex -2.100000e+001 -2.200000e+001  0.000000e+000
      vertex -1.806637e+001 -1.746914e+001  0.000000e+000
      vertex -1.717231e+001 -1.818933e+001  0.000000e+000
    endloop
  endfacet
  facet normal  0.000000e+000  -0.000000e+000 -1.000000e+000
    outer loop
      vertex -2.100000e+001 -2.200000e+001  0.000000e+000
      vertex -1.717231e+001 -1.818933e+001  0.000000e+000
      vertex -1.603086e+001 -1.806637e+001  0.000000e+000
    endloop
  endfacet
  facet normal  0.000000e+000  -0.000000e+000 -1.000000e+000
    outer loop
      vertex -2.100000e+001 -2.200000e+001  0.000000e+000
      vertex -1.603086e+001 -1.806637e+001  0.000000e+000
      vertex  1.000000e+000 -2.200000e+001  0.000000e+000
    endloop
  endfacet
  facet normal  -0.000000e+000  0.000000e+000 -9.999999e-001
    outer loop
      vertex -2.100000e+001  2.200000e+001  0.000000e+000
      vertex  1.632769e+001  1.818933e+001  0.000000e+000
      vertex  1.543363e+001  1.746914e+001  0.000000e+000
    endloop
  endfacet
  facet normal  0.000000e+000  0.000000e+000 -1.000000e+000
    outer loop
      vertex -2.100000e+001  2.200000e+001  0.000000e+000
      vertex  1.543363e+001  1.746914e+001  0.000000e+000
      vertex -1.603086e+001  1.806637e+001  0.000000e+000
    endloop
  endfacet
  facet normal  0.000000e+000  0.000000e+000 -1.000000e+000
    outer loop
      vertex -2.100000e+001  2.200000e+001  0.000000e+000
      vertex -1.603086e+001  1.806637e+001  0.000000e+000
      vertex -1.717231e+001  1.818933e+001  0.000000e+000
    endloop
  endfacet
  facet normal  -0.000000e+000  0.000000e+000 -1.000000e+000
    outer loop
      vertex -2.100000e+001  2.200000e+001  0.000000e+000
      vertex -1.717231e+001  1.818933e+001  0.000000e+000
      vertex -1.806637e+001  1.746914e+001  0.000000e+000
    endloop
  endfacet
  facet normal  -0.000000e+000  0.000000e+000 -9.999999e-001
    outer loop
      vertex -2.100000e+001  2.200000e+001  0.000000e+000
      vertex -1.806637e+001  1.746914e+001  0.000000e+000
      vertex -1.818933e+001  1.632769e+001  0.000000e+000
    endloop
  endfacet
  facet normal  -0.000000e+000  0.000000e+000 -1.000000e+000
    outer loop
      vertex -2.100000e+001  2.200000e+001  0.000000e+000
      vertex -1.818933e+001  1.632769e+001  0.000000e+000
      vertex -2.100000e+001 -2.200000e+001  0.000000e+000
    endloop
  endfacet
  facet normal  0.000000e+000  0.000000e+000 -1.000000e+000
    outer loop
      vertex  2.100000e+001  2.200000e+001  0.000000e+000
      vertex  2.100000e+001 -2.200000e+001  0.000000e+000
      vertex  1.818933e+001  1.717231e+001  0.000000e+000
    endloop
  endfacet
  facet normal  0.000000e+000  0.000000e+000 -1.000000e+000
    outer loop
      vertex  2.100000e+001  2.200000e+001  0.000000e+000
      vertex  1.818933e+001  1.717231e+001  0.000000e+000
      vertex  1.746914e+001  1.806637e+001  0.000000e+000
    endloop
  endfacet
  facet normal  0.000000e+000  0.000000e+000 -1.000000e+000
    outer loop
      vertex  2.100000e+001  2.200000e+001  0.000000e+000
      vertex  1.746914e+001  1.806637e+001  0.000000e+000
      vertex  1.632769e+001  1.818933e+001  0.000000e+000
    endloop
  endfacet
  facet normal  0.000000e+000  0.000000e+000 -1.000000e+000
    outer loop
      vertex  2.100000e+001  2.200000e+001  0.000000e+000
      vertex  1.632769e+001  1.818933e+001  0.000000e+000
      vertex -2.100000e+001  2.200000e+001  0.000000e+000
    endloop
  endfacet
  facet normal  0.000000e+000  0.000000e+000 -1.000000e+000
    outer loop
      vertex  2.100000e+001 -2.200000e+001  0.000000e+000
      vertex  1.000000e+001 -2.200000e+001  0.000000e+000
      vertex  1.632769e+001 -1.818933e+001  0.000000e+000
    endloop
  endfacet
  facet normal  0.000000e+000  0.000000e+000 -1.000000e+000
    outer loop
      vertex  2.100000e+001 -2.200000e+001  0.000000e+000
      vertex  1.632769e+001 -1.818933e+001  0.000000e+000
      vertex  1.746914e+001 -1.806637e+001  0.000000e+000
    endloop
  endfacet
  facet normal  0.000000e+000  0.000000e+000 -1.000000e+000
    outer loop
      vertex  2.100000e+001 -2.200000e+001  0.000000e+000
      vertex  1.746914e+001 -1.806637e+001  0.000000e+000
      vertex  1.818933e+001 -1.717231e+001  0.000000e+000
    endloop
  endfacet
  facet normal  0.000000e+000  0.000000e+000 -1.000000e+000
    outer loop
      vertex  2.100000e+001 -2.200000e+001  0.000000e+000
      vertex  1.818933e+001 -1.717231e+001  0.000000e+000
      vertex  1.806637e+001 -1.603086e+001  0.000000e+000
    endloop
  endfacet
  facet normal  0.000000e+000  0.000000e+000 -1.000000e+000
    outer loop
      vertex  2.100000e+001 -2.200000e+001  0.000000e+000
      vertex  1.806637e+001 -1.603086e+001  0.000000e+000
      vertex  1.717231e+001  1.531068e+001  0.000000e+000
    endloop
  endfacet
  facet normal  0.000000e+000  0.000000e+000 -1.000000e+000
    outer loop
      vertex  2.100000e+001 -2.200000e+001  0.000000e+000
      vertex  1.717231e+001  1.531068e+001  0.000000e+000
      vertex  1.806637e+001  1.603086e+001  0.000000e+000
    endloop
  endfacet
  facet normal  0.000000e+000  0.000000e+000 -1.000000e+000
    outer loop
      vertex  2.100000e+001 -2.200000e+001  0.000000e+000
      vertex  1.806637e+001  1.603086e+001  0.000000e+000
      vertex  1.818933e+001  1.717231e+001  0.000000e+000
    endloop
  endfacet
  facet normal  0.000000e+000  0.000000e+000 -1.000000e+000
    outer loop
      vertex  1.000000e+000 -2.200000e+001  0.000000e+000
      vertex -1.603086e+001 -1.806637e+001  0.000000e+000
      vertex -1.531068e+001 -1.717231e+001  0.000000e+000
    endloop
  endfacet
  facet normal  0.000000e+000  0.000000e+000 -1.000000e+000
    outer loop
      vertex  1.000000e+000 -2.200000e+001  0.000000e+000
      vertex -1.531068e+001 -1.717231e+001  0.000000e+000
      vertex -1.543363e+001 -1.603086e+001  0.000000e+000
    endloop
  endfacet
  facet normal  0.000000e+000  0.000000e+000 -1.000000e+000
    outer loop
      vertex  1.000000e+000 -2.200000e+001  0.000000e+000
      vertex -1.543363e+001 -1.603086e+001  0.000000e+000
      vertex -1.632769e+001 -1.531068e+001  0.000000e+000
    endloop
  endfacet
  facet normal  0.000000e+000  0.000000e+000 -1.000000e+000
    outer loop
      vertex  1.000000e+001 -2.200000e+001  0.000000e+000
      vertex  1.000000e+001 -1.300000e+001  0.000000e+000
      vertex  1.603086e+001 -1.543363e+001  0.000000e+000
    endloop
  endfacet
  facet normal  0.000000e+000  0.000000e+000 -1.000000e+000
    outer loop
      vertex  1.000000e+001 -2.200000e+001  0.000000e+000
      vertex  1.603086e+001 -1.543363e+001  0.000000e+000
      vertex  1.531068e+001 -1.632769e+001  0.000000e+000
    endloop
  endfacet
  facet normal  0.000000e+000  -0.000000e+000 -1.000000e+000
    outer loop
      vertex  1.000000e+001 -2.200000e+001  0.000000e+000
      vertex  1.531068e+001 -1.632769e+001  0.000000e+000
      vertex  1.543363e+001 -1.746914e+001  0.000000e+000
    endloop
  endfacet
  facet normal  0.000000e+000  -0.000000e+000 -1.000000e+000
    outer loop
      vertex  1.000000e+001 -2.200000e+001  0.000000e+000
      vertex  1.543363e+001 -1.746914e+001  0.000000e+000
      vertex  1.632769e+001 -1.818933e+001  0.000000e+000
    endloop
  endfacet
  facet normal  0.000000e+000  -0.000000e+000 -1.000000e+000
    outer loop
      vertex -1.818933e+001 -1.632769e+001  0.000000e+000
      vertex -1.746914e+001  1.543363e+001  0.000000e+000
      vertex -1.746914e+001 -1.543363e+001  0.000000e+000
    endloop
  endfacet
  facet normal  0.000000e+000  0.000000e+000 -1.000000e+000
    outer loop
      vertex -1.746914e+001 -1.543363e+001  0.000000e+000
      vertex -1.746914e+001  1.543363e+001  0.000000e+000
      vertex -1.632769e+001  1.531068e+001  0.000000e+000
    endloop
  endfacet
  facet normal  0.000000e+000  -0.000000e+000 -1.000000e+000
    outer loop
      vertex -1.746914e+001 -1.543363e+001  0.000000e+000
      vertex -1.632769e+001  1.531068e+001  0.000000e+000
      vertex -1.632769e+001 -1.531068e+001  0.000000e+000
    endloop
  endfacet
  facet normal  0.000000e+000  0.000000e+000 -1.000000e+000
    outer loop
      vertex  1.806637e+001 -1.603086e+001  0.000000e+000
      vertex  1.717231e+001 -1.531068e+001  0.000000e+000
      vertex  1.717231e+001  1.531068e+001  0.000000e+000
    endloop
  endfacet
  facet normal  0.000000e+000  -0.000000e+000 -1.000000e+000
    outer loop
      vertex  1.717231e+001  1.531068e+001  0.000000e+000
      vertex  1.717231e+001 -1.531068e+001  0.000000e+000
      vertex  1.603086e+001 -1.543363e+001  0.000000e+000
    endloop
  endfacet
  facet normal  0.000000e+000  0.000000e+000 -1.000000e+000
    outer loop
      vertex  1.717231e+001  1.531068e+001  0.000000e+000
      vertex  1.603086e+001 -1.543363e+001  0.000000e+000
      vertex  1.603086e+001  1.543363e+001  0.000000e+000
    endloop
  endfacet
  facet normal  0.000000e+000  -0.000000e+000 -1.000000e+000
    outer loop
      vertex  1.603086e+001  1.543363e+001  0.000000e+000
      vertex  1.603086e+001 -1.543363e+001  0.000000e+000
      vertex  1.000000e+001 -1.300000e+001  0.000000e+000
    endloop
  endfacet
  facet normal  0.000000e+000  0.000000e+000 -9.999999e-001
    outer loop
      vertex  1.603086e+001  1.543363e+001  0.000000e+000
      vertex  1.000000e+001 -1.300000e+001  0.000000e+000
      vertex -1.632769e+001  1.531068e+001  0.000000e+000
    endloop
  endfacet
  facet normal  -0.000000e+000  0.000000e+000 -1.000000e+000
    outer loop
      vertex -1.603086e+001  1.806637e+001  0.000000e+000
      vertex  1.543363e+001  1.746914e+001  0.000000e+000
      vertex -1.531068e+001  1.717231e+001  0.000000e+000
    endloop
  endfacet
  facet normal  0.000000e+000  0.000000e+000 -1.000000e+000
    outer loop
      vertex -1.531068e+001  1.717231e+001  0.000000e+000
      vertex  1.543363e+001  1.746914e+001  0.000000e+000
      vertex  1.531068e+001  1.632769e+001  0.000000e+000
    endloop
  endfacet
  facet normal  -0.000000e+000  0.000000e+000 -1.000000e+000
    outer loop
      vertex -1.531068e+001  1.717231e+001  0.000000e+000
      vertex  1.531068e+001  1.632769e+001  0.000000e+000
      vertex -1.543363e+001  1.603086e+001  0.000000e+000
    endloop
  endfacet
  facet normal  0.000000e+000  0.000000e+000 -1.000000e+000
    outer loop
      vertex -1.543363e+001  1.603086e+001  0.000000e+000
      vertex  1.531068e+001  1.632769e+001  0.000000e+000
      vertex  1.603086e+001  1.543363e+001  0.000000e+000
    endloop
  endfacet
  facet normal  -0.000000e+000  0.000000e+000 -1.000000e+000
    outer loop
      vertex -1.543363e+001  1.603086e+001  0.000000e+000
      vertex  1.603086e+001  1.543363e+001  0.000000e+000
      vertex -1.632769e+001  1.531068e+001  0.000000e+000
    endloop
  endfacet
  facet normal  0.000000e+000  0.000000e+000  1.000000e+000
    outer loop
      vertex  2.100000e+001 -2.200000e+001  2.000000e+000
      vertex  1.818933e+001 -1.717231e+001  2.000000e+000
      vertex  1.746914e+001 -1.806637e+001  2.000000e+000
    endloop
  endfacet
  facet normal  0.000000e+000  0.000000e+000  1.000000e+000
    outer loop
      vertex  1.543363e+001  1.746914e+001  2.000000e+000
      vertex -1.603086e+001  1.806637e+001  2.000000e+000
      vertex -1.531068e+001  1.717231e+001  2.000000e+000
    endloop
  endfacet
  facet normal  0.000000e+000  0.000000e+000  1.000000e+000
    outer loop
      vertex -2.100000e+001 -2.200000e+001  2.000000e+000
      vertex  1.000000e+000 -2.200000e+001  2.000000e+000
      vertex -1.603086e+001 -1.806637e+001  2.000000e+000
    endloop
  endfacet
  facet normal  0.000000e+000  0.000000e+000  1.000000e+000
    outer loop
      vertex -2.100000e+001 -2.200000e+001  2.000000e+000
      vertex -1.603086e+001 -1.806637e+001  2.000000e+000
      vertex -1.717231e+001 -1.818933e+001  2.000000e+000
    endloop
  endfacet
  facet normal  0.000000e+000  0.000000e+000  1.000000e+000
    outer loop
      vertex -2.100000e+001 -2.200000e+001  2.000000e+000
      vertex -1.717231e+001 -1.818933e+001  2.000000e+000
      vertex -1.806637e+001 -1.746914e+001  2.000000e+000
    endloop
  endfacet
  facet normal  0.000000e+000  0.000000e+000  9.999999e-001
    outer loop
      vertex -2.100000e+001 -2.200000e+001  2.000000e+000
      vertex -1.806637e+001 -1.746914e+001  2.000000e+000
      vertex -1.818933e+001 -1.632769e+001  2.000000e+000
    endloop
  endfacet
  facet normal  0.000000e+000  -0.000000e+000  1.000000e+000
    outer loop
      vertex -2.100000e+001 -2.200000e+001  2.000000e+000
      vertex -1.818933e+001 -1.632769e+001  2.000000e+000
      vertex -1.746914e+001  1.543363e+001  2.000000e+000
    endloop
  endfacet
  facet normal  0.000000e+000  0.000000e+000  1.000000e+000
    outer loop
      vertex -2.100000e+001 -2.200000e+001  2.000000e+000
      vertex -1.746914e+001  1.543363e+001  2.000000e+000
      vertex -1.818933e+001  1.632769e+001  2.000000e+000
    endloop
  endfacet
  facet normal  0.000000e+000  0.000000e+000  1.000000e+000
    outer loop
      vertex -2.100000e+001  2.200000e+001  2.000000e+000
      vertex -2.100000e+001 -2.200000e+001  2.000000e+000
      vertex -1.818933e+001  1.632769e+001  2.000000e+000
    endloop
  endfacet
  facet normal  0.000000e+000  -0.000000e+000  9.999999e-001
    outer loop
      vertex -2.100000e+001  2.200000e+001  2.000000e+000
      vertex -1.818933e+001  1.632769e+001  2.000000e+000
      vertex -1.806637e+001  1.746914e+001  2.000000e+000
    endloop
  endfacet
  facet normal  0.000000e+000  -0.000000e+000  1.000000e+000
    outer loop
      vertex -2.100000e+001  2.200000e+001  2.000000e+000
      vertex -1.806637e+001  1.746914e+001  2.000000e+000
      vertex -1.717231e+001  1.818933e+001  2.000000e+000
    endloop
  endfacet
  facet normal  -0.000000e+000  -0.000000e+000  1.000000e+000
    outer loop
      vertex -2.100000e+001  2.200000e+001  2.000000e+000
      vertex -1.717231e+001  1.818933e+001  2.000000e+000
      vertex -1.603086e+001  1.806637e+001  2.000000e+000
    endloop
  endfacet
  facet normal  -0.000000e+000  -0.000000e+000  1.000000e+000
    outer loop
      vertex -2.100000e+001  2.200000e+001  2.000000e+000
      vertex -1.603086e+001  1.806637e+001  2.000000e+000
      vertex  1.543363e+001  1.746914e+001  2.000000e+000
    endloop
  endfacet
  facet normal  0.000000e+000  -0.000000e+000  1.000000e+000
    outer loop
      vertex -2.100000e+001  2.200000e+001  2.000000e+000
      vertex  1.543363e+001  1.746914e+001  2.000000e+000
      vertex  1.632769e+001  1.818933e+001  2.000000e+000
    endloop
  endfacet
  facet normal  -0.000000e+000  0.000000e+000  1.000000e+000
    outer loop
      vertex  2.100000e+001  2.200000e+001  2.000000e+000
      vertex -2.100000e+001  2.200000e+001  2.000000e+000
      vertex  1.632769e+001  1.818933e+001  2.000000e+000
    endloop
  endfacet
  facet normal  -0.000000e+000  0.000000e+000  1.000000e+000
    outer loop
      vertex  2.100000e+001  2.200000e+001  2.000000e+000
      vertex  1.632769e+001  1.818933e+001  2.000000e+000
      vertex  1.746914e+001  1.806637e+001  2.000000e+000
    endloop
  endfacet
  facet normal  -0.000000e+000  0.000000e+000  1.000000e+000
    outer loop
      vertex  2.100000e+001  2.200000e+001  2.000000e+000
      vertex  1.746914e+001  1.806637e+001  2.000000e+000
      vertex  1.818933e+001  1.717231e+001  2.000000e+000
    endloop
  endfacet
  facet normal  -0.000000e+000  0.000000e+000  1.000000e+000
    outer loop
      vertex  2.100000e+001  2.200000e+001  2.000000e+000
      vertex  1.818933e+001  1.717231e+001  2.000000e+000
      vertex  1.806637e+001  1.603086e+001  2.000000e+000
    endloop
  endfacet
  facet normal  -0.000000e+000  0.000000e+000  1.000000e+000
    outer loop
      vertex  2.100000e+001  2.200000e+001  2.000000e+000
      vertex  1.806637e+001  1.603086e+001  2.000000e+000
      vertex  2.100000e+001  1.254362e+001  2.000000e+000
    endloop
  endfacet
  facet normal  0.000000e+000  0.000000e+000  1.000000e+000
    outer loop
      vertex  9.000000e+000 -1.254362e+001  2.000000e+000
      vertex  9.000000e+000  1.254362e+001  2.000000e+000
      vertex  1.000000e+000 -1.300000e+001  2.000000e+000
    endloop
  endfacet
  facet normal  0.000000e+000  0.000000e+000  1.000000e+000
    outer loop
      vertex  9.000000e+000 -1.254362e+001  2.000000e+000
      vertex  1.000000e+000 -1.300000e+001  2.000000e+000
      vertex  1.000000e+001 -1.300000e+001  2.000000e+000
    endloop
  endfacet
  facet normal  -0.000000e+000  -0.000000e+000  1.000000e+000
    outer loop
      vertex  9.000000e+000 -1.254362e+001  2.000000e+000
      vertex  1.000000e+001 -1.300000e+001  2.000000e+000
      vertex  1.603086e+001 -1.543363e+001  2.000000e+000
    endloop
  endfacet
  facet normal  0.000000e+000  -0.000000e+000  1.000000e+000
    outer loop
      vertex  9.000000e+000 -1.254362e+001  2.000000e+000
      vertex  1.603086e+001 -1.543363e+001  2.000000e+000
      vertex  1.717231e+001 -1.531068e+001  2.000000e+000
    endloop
  endfacet
  facet normal  0.000000e+000  -0.000000e+000  1.000000e+000
    outer loop
      vertex  9.000000e+000 -1.254362e+001  2.000000e+000
      vertex  1.717231e+001 -1.531068e+001  2.000000e+000
      vertex  2.100000e+001 -1.254362e+001  2.000000e+000
    endloop
  endfacet
  facet normal  0.000000e+000  0.000000e+000  1.000000e+000
    outer loop
      vertex  1.000000e+000 -2.200000e+001  2.000000e+000
      vertex  1.000000e+000 -1.300000e+001  2.000000e+000
      vertex -1.632769e+001 -1.531068e+001  2.000000e+000
    endloop
  endfacet
  facet normal  0.000000e+000  0.000000e+000  1.000000e+000
    outer loop
      vertex  1.000000e+000 -2.200000e+001  2.000000e+000
      vertex -1.632769e+001 -1.531068e+001  2.000000e+000
      vertex -1.543363e+001 -1.603086e+001  2.000000e+000
    endloop
  endfacet
  facet normal  0.000000e+000  0.000000e+000  1.000000e+000
    outer loop
      vertex  1.000000e+000 -2.200000e+001  2.000000e+000
      vertex -1.543363e+001 -1.603086e+001  2.000000e+000
      vertex -1.531068e+001 -1.717231e+001  2.000000e+000
    endloop
  endfacet
  facet normal  0.000000e+000  0.000000e+000  1.000000e+000
    outer loop
      vertex  1.000000e+000 -2.200000e+001  2.000000e+000
      vertex -1.531068e+001 -1.717231e+001  2.000000e+000
      vertex -1.603086e+001 -1.806637e+001  2.000000e+000
    endloop
  endfacet
  facet normal  0.000000e+000  0.000000e+000  1.000000e+000
    outer loop
      vertex  1.000000e+001 -2.200000e+001  2.000000e+000
      vertex  2.100000e+001 -2.200000e+001  2.000000e+000
      vertex  1.746914e+001 -1.806637e+001  2.000000e+000
    endloop
  endfacet
  facet normal  0.000000e+000  0.000000e+000  1.000000e+000
    outer loop
      vertex  1.000000e+001 -2.200000e+001  2.000000e+000
      vertex  1.746914e+001 -1.806637e+001  2.000000e+000
      vertex  1.632769e+001 -1.818933e+001  2.000000e+000
    endloop
  endfacet
  facet normal  0.000000e+000  0.000000e+000  1.000000e+000
    outer loop
      vertex  1.000000e+001 -2.200000e+001  2.000000e+000
      vertex  1.632769e+001 -1.818933e+001  2.000000e+000
      vertex  1.543363e+001 -1.746914e+001  2.000000e+000
    endloop
  endfacet
  facet normal  0.000000e+000  0.000000e+000  1.000000e+000
    outer loop
      vertex  1.000000e+001 -2.200000e+001  2.000000e+000
      vertex  1.543363e+001 -1.746914e+001  2.000000e+000
      vertex  1.531068e+001 -1.632769e+001  2.000000e+000
    endloop
  endfacet
  facet normal  0.000000e+000  -0.000000e+000  1.000000e+000
    outer loop
      vertex  1.000000e+001 -2.200000e+001  2.000000e+000
      vertex  1.531068e+001 -1.632769e+001  2.000000e+000
      vertex  1.603086e+001 -1.543363e+001  2.000000e+000
    endloop
  endfacet
  facet normal  0.000000e+000  0.000000e+000  1.000000e+000
    outer loop
      vertex  1.000000e+001 -2.200000e+001  2.000000e+000
      vertex  1.603086e+001 -1.543363e+001  2.000000e+000
      vertex  1.000000e+001 -1.300000e+001  2.000000e+000
    endloop
  endfacet
  facet normal  0.000000e+000  0.000000e+000  1.000000e+000
    outer loop
      vertex  1.603086e+001  1.543363e+001  2.000000e+000
      vertex  9.000000e+000  1.254362e+001  2.000000e+000
      vertex  1.717231e+001  1.531068e+001  2.000000e+000
    endloop
  endfacet
  facet normal  0.000000e+000  0.000000e+000  1.000000e+000
    outer loop
      vertex  1.717231e+001  1.531068e+001  2.000000e+000
      vertex  9.000000e+000  1.254362e+001  2.000000e+000
      vertex  2.100000e+001  1.254362e+001  2.000000e+000
    endloop
  endfacet
  facet normal  0.000000e+000  0.000000e+000  1.000000e+000
    outer loop
      vertex  1.717231e+001  1.531068e+001  2.000000e+000
      vertex  2.100000e+001  1.254362e+001  2.000000e+000
      vertex  1.806637e+001  1.603086e+001  2.000000e+000
    endloop
  endfacet
  facet normal  0.000000e+000  0.000000e+000  9.999999e-001
    outer loop
      vertex  1.000000e+000 -1.300000e+001  2.000000e+000
      vertex  9.000000e+000  1.254362e+001  2.000000e+000
      vertex -1.632769e+001 -1.531068e+001  2.000000e+000
    endloop
  endfacet
  facet normal  0.000000e+000  0.000000e+000  1.000000e+000
    outer loop
      vertex -1.632769e+001 -1.531068e+001  2.000000e+000
      vertex  9.000000e+000  1.254362e+001  2.000000e+000
      vertex -1.632769e+001  1.531068e+001  2.000000e+000
    endloop
  endfacet
  facet normal  0.000000e+000  0.000000e+000  1.000000e+000
    outer loop
      vertex -1.632769e+001 -1.531068e+001  2.000000e+000
      vertex -1.632769e+001  1.531068e+001  2.000000e+000
      vertex -1.746914e+001 -1.543363e+001  2.000000e+000
    endloop
  endfacet
  facet normal  0.000000e+000  0.000000e+000  1.000000e+000
    outer loop
      vertex -1.746914e+001 -1.543363e+001  2.000000e+000
      vertex -1.632769e+001  1.531068e+001  2.000000e+000
      vertex -1.746914e+001  1.543363e+001  2.000000e+000
    endloop
  endfacet
  facet normal  0.000000e+000  0.000000e+000  1.000000e+000
    outer loop
      vertex -1.746914e+001 -1.543363e+001  2.000000e+000
      vertex -1.746914e+001  1.543363e+001  2.000000e+000
      vertex -1.818933e+001 -1.632769e+001  2.000000e+000
    endloop
  endfacet
  facet normal  0.000000e+000  0.000000e+000  1.000000e+000
    outer loop
      vertex  1.818933e+001 -1.717231e+001  2.000000e+000
      vertex  2.100000e+001 -2.200000e+001  2.000000e+000
      vertex  1.806637e+001 -1.603086e+001  2.000000e+000
    endloop
  endfacet
  facet normal  -0.000000e+000  0.000000e+000  1.000000e+000
    outer loop
      vertex  1.806637e+001 -1.603086e+001  2.000000e+000
      vertex  2.100000e+001 -2.200000e+001  2.000000e+000
      vertex  2.100000e+001 -1.254362e+001  2.000000e+000
    endloop
  endfacet
  facet normal  0.000000e+000  0.000000e+000  1.000000e+000
    outer loop
      vertex  1.806637e+001 -1.603086e+001  2.000000e+000
      vertex  2.100000e+001 -1.254362e+001  2.000000e+000
      vertex  1.717231e+001 -1.531068e+001  2.000000e+000
    endloop
  endfacet
  facet normal  -0.000000e+000  0.000000e+000  1.000000e+000
    outer loop
      vertex  1.543363e+001  1.746914e+001  2.000000e+000
      vertex -1.531068e+001  1.717231e+001  2.000000e+000
      vertex  1.531068e+001  1.632769e+001  2.000000e+000
    endloop
  endfacet
  facet normal  0.000000e+000  0.000000e+000  1.000000e+000
    outer loop
      vertex  1.531068e+001  1.632769e+001  2.000000e+000
      vertex -1.531068e+001  1.717231e+001  2.000000e+000
      vertex -1.543363e+001  1.603086e+001  2.000000e+000
    endloop
  endfacet
  facet normal  -0.000000e+000  0.000000e+000  1.000000e+000
    outer loop
      vertex  1.531068e+001  1.632769e+001  2.000000e+000
      vertex -1.543363e+001  1.603086e+001  2.000000e+000
      vertex  1.603086e+001  1.543363e+001  2.000000e+000
    endloop
  endfacet
  facet normal  0.000000e+000  0.000000e+000  1.000000e+000
    outer loop
      vertex  1.603086e+001  1.543363e+001  2.000000e+000
      vertex -1.543363e+001  1.603086e+001  2.000000e+000
      vertex -1.632769e+001  1.531068e+001  2.000000e+000
    endloop
  endfacet
  facet normal  -0.000000e+000  0.000000e+000  1.000000e+000
    outer loop
      vertex  1.603086e+001  1.543363e+001  2.000000e+000
      vertex -1.632769e+001  1.531068e+001  2.000000e+000
      vertex  9.000000e+000  1.254362e+001  2.000000e+000
    endloop
  endfacet
  facet normal  1.000000e+000  0.000000e+000  0.000000e+000
    outer loop
      vertex  1.000000e+000 -1.300000e+001  0.000000e+000
      vertex  1.000000e+000 -1.300000e+001  2.000000e+000
      vertex  1.000000e+000 -2.200000e+001  0.000000e+000
    endloop
  endfacet
  facet normal  1.000000e+000  0.000000e+000  0.000000e+000
    outer loop
      vertex  1.000000e+000 -2.200000e+001  0.000000e+000
      vertex  1.000000e+000 -1.300000e+001  2.000000e+000
      vertex  1.000000e+000 -2.200000e+001  2.000000e+000
    endloop
  endfacet
  facet normal -1.000000e+000  0.000000e+000  0.000000e+000
    outer loop
      vertex  1.000000e+001 -2.200000e+001  0.000000e+000
      vertex  1.000000e+001 -2.200000e+001  2.000000e+000
      vertex  1.000000e+001 -1.300000e+001  0.000000e+000
    endloop
  endfacet
  facet normal -1.000000e+000  0.000000e+000  0.000000e+000
    outer loop
      vertex  1.000000e+001 -1.300000e+001  0.000000e+000
      vertex  1.000000e+001 -2.200000e+001  2.000000e+000
      vertex  1.000000e+001 -1.300000e+001  2.000000e+000
    endloop
  endfacet
  facet normal  0.000000e+000 -1.000000e+000  0.000000e+000
    outer loop
      vertex  1.000000e+000 -1.300000e+001  0.000000e+000
      vertex  1.000000e+001 -1.300000e+001  0.000000e+000
      vertex  1.000000e+000 -1.300000e+001  2.000000e+000
    endloop
  endfacet
  facet normal  0.000000e+000 -1.000000e+000  0.000000e+000
    outer loop
      vertex  1.000000e+000 -1.300000e+001  2.000000e+000
      vertex  1.000000e+001 -1.300000e+001  0.000000e+000
      vertex  1.000000e+001 -1.300000e+001  2.000000e+000
    endloop
  endfacet
  facet normal -9.999999e-001  0.000000e+000  -0.000000e+000
    outer loop
      vertex  1.400000e+001 -1.081560e+000  3.332870e+001
      vertex  1.400000e+001  3.673819e-016  3.600000e+001
      vertex  1.400000e+001  1.081560e+000  3.332870e+001
    endloop
  endfacet
  facet normal -1.000000e+000  0.000000e+000  0.000000e+000
    outer loop
      vertex  1.400000e+001  1.140265e+001  7.000000e+000
      vertex  1.400000e+001 -1.140265e+001  7.000000e+000
      vertex  1.400000e+001 -1.081560e+000  2.667130e+001
    endloop
  endfacet
  facet normal -1.000000e+000  0.000000e+000  0.000000e+000
    outer loop
      vertex  1.400000e+001  1.140265e+001  7.000000e+000
      vertex  1.400000e+001 -1.081560e+000  2.667130e+001
      vertex  1.400000e+001  1.081560e+000  2.667130e+001
    endloop
  endfacet
  facet normal -9.999999e-001  0.000000e+000  0.000000e+000
    outer loop
      vertex  1.400000e+001  1.140265e+001  7.000000e+000
      vertex  1.400000e+001  1.081560e+000  2.667130e+001
      vertex  1.400000e+001  2.831559e+000  2.794275e+001
    endloop
  endfacet
  facet normal -1.000000e+000  0.000000e+000  0.000000e+000
    outer loop
      vertex  1.400000e+001  1.140265e+001  7.000000e+000
      vertex  1.400000e+001  2.831559e+000  2.794275e+001
      vertex  1.400000e+001  3.500000e+000  3.000000e+001
    endloop
  endfacet
  facet normal -1.000000e+000  0.000000e+000  0.000000e+000
    outer loop
      vertex  1.400000e+001  1.140265e+001  7.000000e+000
      vertex  1.400000e+001  3.500000e+000  3.000000e+001
      vertex  1.400000e+001  2.831559e+000  3.205725e+001
    endloop
  endfacet
  facet normal -1.000000e+000  0.000000e+000  0.000000e+000
    outer loop
      vertex  1.400000e+001  1.140265e+001  7.000000e+000
      vertex  1.400000e+001  2.831559e+000  3.205725e+001
      vertex  1.400000e+001  5.849632e+000  3.133484e+001
    endloop
  endfacet
  facet normal -1.000000e+000  0.000000e+000  -0.000000e+000
    outer loop
      vertex  1.400000e+001 -1.140265e+001  7.000000e+000
      vertex  1.400000e+001 -5.849632e+000  3.133484e+001
      vertex  1.400000e+001 -2.831559e+000  3.205725e+001
    endloop
  endfacet
  facet normal -1.000000e+000  0.000000e+000  0.000000e+000
    outer loop
      vertex  1.400000e+001 -1.140265e+001  7.000000e+000
      vertex  1.400000e+001 -2.831559e+000  3.205725e+001
      vertex  1.400000e+001 -3.500000e+000  3.000000e+001
    endloop
  endfacet
  facet normal -1.000000e+000  0.000000e+000  -0.000000e+000
    outer loop
      vertex  1.400000e+001 -1.140265e+001  7.000000e+000
      vertex  1.400000e+001 -3.500000e+000  3.000000e+001
      vertex  1.400000e+001 -2.831559e+000  2.794275e+001
    endloop
  endfacet
  facet normal -9.999999e-001  0.000000e+000  -0.000000e+000
    outer loop
      vertex  1.400000e+001 -1.140265e+001  7.000000e+000
      vertex  1.400000e+001 -2.831559e+000  2.794275e+001
      vertex  1.400000e+001 -1.081560e+000  2.667130e+001
    endloop
  endfacet
  facet normal -1.000000e+000  0.000000e+000  0.000000e+000
    outer loop
      vertex  1.400000e+001  3.673819e-016  3.600000e+001
      vertex  1.400000e+001 -1.081560e+000  3.332870e+001
      vertex  1.400000e+001 -2.603390e+000  3.540577e+001
    endloop
  endfacet
  facet normal -9.999999e-001  0.000000e+000  -0.000000e+000
    outer loop
      vertex  1.400000e+001 -2.603390e+000  3.540577e+001
      vertex  1.400000e+001 -1.081560e+000  3.332870e+001
      vertex  1.400000e+001 -4.691110e+000  3.374079e+001
    endloop
  endfacet
  facet normal -1.000000e+000  0.000000e+000  0.000000e+000
    outer loop
      vertex  1.400000e+001 -1.081560e+000  3.332870e+001
      vertex  1.400000e+001 -2.831559e+000  3.205725e+001
      vertex  1.400000e+001 -4.691110e+000  3.374079e+001
    endloop
  endfacet
  facet normal -1.000000e+000  0.000000e+000  -0.000000e+000
    outer loop
      vertex  1.400000e+001 -4.691110e+000  3.374079e+001
      vertex  1.400000e+001 -2.831559e+000  3.205725e+001
      vertex  1.400000e+001 -5.849632e+000  3.133484e+001
    endloop
  endfacet
  facet normal -1.000000e+000  0.000000e+000  0.000000e+000
    outer loop
      vertex  1.400000e+001  2.831559e+000  3.205725e+001
      vertex  1.400000e+001  1.081560e+000  3.332870e+001
      vertex  1.400000e+001  5.849632e+000  3.133484e+001
    endloop
  endfacet
  facet normal -1.000000e+000  0.000000e+000  0.000000e+000
    outer loop
      vertex  1.400000e+001  5.849632e+000  3.133484e+001
      vertex  1.400000e+001  1.081560e+000  3.332870e+001
      vertex  1.400000e+001  4.691110e+000  3.374079e+001
    endloop
  endfacet
  facet normal -9.999999e-001  0.000000e+000  0.000000e+000
    outer loop
      vertex  1.400000e+001  1.081560e+000  3.332870e+001
      vertex  1.400000e+001  3.673819e-016  3.600000e+001
      vertex  1.400000e+001  4.691110e+000  3.374079e+001
    endloop
  endfacet
  facet normal -9.999999e-001  0.000000e+000  0.000000e+000
    outer loop
      vertex  1.400000e+001  4.691110e+000  3.374079e+001
      vertex  1.400000e+001  3.673819e-016  3.600000e+001
      vertex  1.400000e+001  2.603390e+000  3.540577e+001
    endloop
  endfacet
  facet normal  0.000000e+000 -9.749389e-001  2.224730e-001
    outer loop
      vertex  1.808376e+001 -1.232945e+001  2.938533e+000
      vertex  9.738167e+000 -1.253111e+001  2.054789e+000
      vertex  2.026183e+001 -1.253111e+001  2.054789e+000
    endloop
  endfacet
  facet normal  0.000000e+000 -9.749380e-001  2.224764e-001
    outer loop
      vertex  2.026183e+001 -1.253111e+001  2.054789e+000
      vertex  9.738167e+000 -1.253111e+001  2.054789e+000
      vertex  9.000000e+000 -1.254362e+001  2.000000e+000
    endloop
  endfacet
  facet normal  0.000000e+000 -9.749381e-001  2.224764e-001
    outer loop
      vertex  2.026183e+001 -1.253111e+001  2.054789e+000
      vertex  9.000000e+000 -1.254362e+001  2.000000e+000
      vertex  2.100000e+001 -1.254362e+001  2.000000e+000
    endloop
  endfacet
  facet normal  0.000000e+000 -9.749388e-001  2.224730e-001
    outer loop
      vertex  9.738167e+000 -1.253111e+001  2.054789e+000
      vertex  1.808376e+001 -1.232945e+001  2.938533e+000
      vertex  1.191624e+001 -1.232945e+001  2.938533e+000
    endloop
  endfacet
  facet normal  0.000000e+000 -9.749388e-001  2.224734e-001
    outer loop
      vertex  1.191624e+001 -1.232945e+001  2.938533e+000
      vertex  1.808376e+001 -1.232945e+001  2.938533e+000
      vertex  1.655007e+001 -1.192292e+001  4.720064e+000
    endloop
  endfacet
  facet normal  0.000000e+000 -9.749388e-001  2.224734e-001
    outer loop
      vertex  1.191624e+001 -1.232945e+001  2.938533e+000
      vertex  1.655007e+001 -1.192292e+001  4.720064e+000
      vertex  1.344993e+001 -1.192292e+001  4.720064e+000
    endloop
  endfacet
  facet normal  0.000000e+000 -9.749388e-001  2.224734e-001
    outer loop
      vertex  1.344993e+001 -1.192292e+001  4.720064e+000
      vertex  1.655007e+001 -1.192292e+001  4.720064e+000
      vertex  1.600000e+001 -1.140265e+001  7.000000e+000
    endloop
  endfacet
  facet normal  0.000000e+000 -9.749388e-001  2.224734e-001
    outer loop
      vertex  1.344993e+001 -1.192292e+001  4.720064e+000
      vertex  1.600000e+001 -1.140265e+001  7.000000e+000
      vertex  1.400000e+001 -1.140265e+001  7.000000e+000
    endloop
  endfacet
  facet normal  0.000000e+000 -9.749388e-001  2.224735e-001
    outer loop
      vertex  1.400000e+001 -1.140265e+001  7.000000e+000
      vertex  1.600000e+001 -1.140265e+001  7.000000e+000
      vertex  1.600000e+001 -5.849632e+000  3.133484e+001
    endloop
  endfacet
  facet normal  0.000000e+000 -9.749388e-001  2.224735e-001
    outer loop
      vertex  1.400000e+001 -1.140265e+001  7.000000e+000
      vertex  1.600000e+001 -5.849632e+000  3.133484e+001
      vertex  1.400000e+001 -5.849632e+000  3.133484e+001
    endloop
  endfacet
  facet normal  -0.000000e+000  9.749388e-001  2.224734e-001
    outer loop
      vertex  1.655007e+001  1.192292e+001  4.720064e+000
      vertex  1.400000e+001  1.140265e+001  7.000000e+000
      vertex  1.600000e+001  1.140265e+001  7.000000e+000
    endloop
  endfacet
  facet normal  0.000000e+000  9.749388e-001  2.224735e-001
    outer loop
      vertex  1.600000e+001  1.140265e+001  7.000000e+000
      vertex  1.400000e+001  1.140265e+001  7.000000e+000
      vertex  1.400000e+001  5.849632e+000  3.133484e+001
    endloop
  endfacet
  facet normal  -0.000000e+000  9.749388e-001  2.224735e-001
    outer loop
      vertex  1.600000e+001  1.140265e+001  7.000000e+000
      vertex  1.400000e+001  5.849632e+000  3.133484e+001
      vertex  1.600000e+001  5.849632e+000  3.133484e+001
    endloop
  endfacet
  facet normal  0.000000e+000  9.749388e-001  2.224734e-001
    outer loop
      vertex  1.400000e+001  1.140265e+001  7.000000e+000
      vertex  1.655007e+001  1.192292e+001  4.720064e+000
      vertex  1.344993e+001  1.192292e+001  4.720064e+000
    endloop
  endfacet
  facet normal  -0.000000e+000  9.749388e-001  2.224734e-001
    outer loop
      vertex  1.344993e+001  1.192292e+001  4.720064e+000
      vertex  1.655007e+001  1.192292e+001  4.720064e+000
      vertex  1.808376e+001  1.232945e+001  2.938533e+000
    endloop
  endfacet
  facet normal  0.000000e+000  9.749388e-001  2.224734e-001
    outer loop
      vertex  1.344993e+001  1.192292e+001  4.720064e+000
      vertex  1.808376e+001  1.232945e+001  2.938533e+000
      vertex  1.191624e+001  1.232945e+001  2.938533e+000
    endloop
  endfacet
  facet normal  -0.000000e+000  9.749388e-001  2.224730e-001
    outer loop
      vertex  1.191624e+001  1.232945e+001  2.938533e+000
      vertex  1.808376e+001  1.232945e+001  2.938533e+000
      vertex  2.026183e+001  1.253111e+001  2.054789e+000
    endloop
  endfacet
  facet normal  0.000000e+000  9.749389e-001  2.224730e-001
    outer loop
      vertex  1.191624e+001  1.232945e+001  2.938533e+000
      vertex  2.026183e+001  1.253111e+001  2.054789e+000
      vertex  9.738167e+000  1.253111e+001  2.054789e+000
    endloop
  endfacet
  facet normal  -0.000000e+000  9.749380e-001  2.224764e-001
    outer loop
      vertex  9.738167e+000  1.253111e+001  2.054789e+000
      vertex  2.026183e+001  1.253111e+001  2.054789e+000
      vertex  2.100000e+001  1.254362e+001  2.000000e+000
    endloop
  endfacet
  facet normal  0.000000e+000  9.749381e-001  2.224764e-001
    outer loop
      vertex  9.738167e+000  1.253111e+001  2.054789e+000
      vertex  2.100000e+001  1.254362e+001  2.000000e+000
      vertex  9.000000e+000  1.254362e+001  2.000000e+000
    endloop
  endfacet
  facet normal -3.759751e-001  0.000000e+000  9.266297e-001
    outer loop
      vertex  1.191624e+001 -1.232945e+001  2.938533e+000
      vertex  9.738167e+000  1.253111e+001  2.054789e+000
      vertex  9.738167e+000 -1.253111e+001  2.054789e+000
    endloop
  endfacet
  facet normal -7.401986e-002  0.000000e+000  9.972567e-001
    outer loop
      vertex  9.738167e+000 -1.253111e+001  2.054789e+000
      vertex  9.738167e+000  1.253111e+001  2.054789e+000
      vertex  9.000000e+000  1.254362e+001  2.000000e+000
    endloop
  endfacet
  facet normal -7.401987e-002  0.000000e+000  9.972568e-001
    outer loop
      vertex  9.738167e+000 -1.253111e+001  2.054789e+000
      vertex  9.000000e+000  1.254362e+001  2.000000e+000
      vertex  9.000000e+000 -1.254362e+001  2.000000e+000
    endloop
  endfacet
  facet normal -3.759751e-001  0.000000e+000  9.266298e-001
    outer loop
      vertex  9.738167e+000  1.253111e+001  2.054789e+000
      vertex  1.191624e+001 -1.232945e+001  2.938533e+000
      vertex  1.191624e+001  1.232945e+001  2.938533e+000
    endloop
  endfacet
  facet normal -7.578550e-001  0.000000e+000  6.524231e-001
    outer loop
      vertex  1.191624e+001  1.232945e+001  2.938533e+000
      vertex  1.191624e+001 -1.232945e+001  2.938533e+000
      vertex  1.344993e+001 -1.192292e+001  4.720064e+000
    endloop
  endfacet
  facet normal -7.578549e-001  0.000000e+000  6.524231e-001
    outer loop
      vertex  1.191624e+001  1.232945e+001  2.938533e+000
      vertex  1.344993e+001 -1.192292e+001  4.720064e+000
      vertex  1.344993e+001  1.192292e+001  4.720064e+000
    endloop
  endfacet
  facet normal -9.721075e-001  0.000000e+000  2.345355e-001
    outer loop
      vertex  1.344993e+001  1.192292e+001  4.720064e+000
      vertex  1.344993e+001 -1.192292e+001  4.720064e+000
      vertex  1.400000e+001 -1.140265e+001  7.000000e+000
    endloop
  endfacet
  facet normal -9.721075e-001  0.000000e+000  2.345355e-001
    outer loop
      vertex  1.344993e+001  1.192292e+001  4.720064e+000
      vertex  1.400000e+001 -1.140265e+001  7.000000e+000
      vertex  1.400000e+001  1.140265e+001  7.000000e+000
    endloop
  endfacet
  facet normal  1.000000e+000  0.000000e+000  0.000000e+000
    outer loop
      vertex  1.600000e+001  5.849632e+000  3.133484e+001
      vertex  1.600000e+001  4.691110e+000  3.374079e+001
      vertex  1.600000e+001  1.169058e+000  3.382535e+001
    endloop
  endfacet
  facet normal  1.000000e+000  0.000000e+000  0.000000e+000
    outer loop
      vertex  1.600000e+001  5.849632e+000  3.133484e+001
      vertex  1.600000e+001  1.169058e+000  3.382535e+001
      vertex  1.600000e+001  3.107737e+000  3.251833e+001
    endloop
  endfacet
  facet normal  1.000000e+000  0.000000e+000  0.000000e+000
    outer loop
      vertex  1.600000e+001  5.849632e+000  3.133484e+001
      vertex  1.600000e+001  3.107737e+000  3.251833e+001
      vertex  1.600000e+001  3.984583e+000  3.035086e+001
    endloop
  endfacet
  facet normal  1.000000e+000  -0.000000e+000  0.000000e+000
    outer loop
      vertex  1.600000e+001  5.849632e+000  3.133484e+001
      vertex  1.600000e+001  3.984583e+000  3.035086e+001
      vertex  1.600000e+001  1.140265e+001  7.000000e+000
    endloop
  endfacet
  facet normal  1.000000e+000  0.000000e+000  0.000000e+000
    outer loop
      vertex  1.600000e+001 -1.140265e+001  7.000000e+000
      vertex  1.600000e+001  1.140265e+001  7.000000e+000
      vertex  1.600000e+001 -4.133046e-016  1.175000e+001
    endloop
  endfacet
  facet normal  1.000000e+000  0.000000e+000  0.000000e+000
    outer loop
      vertex  1.600000e+001 -1.140265e+001  7.000000e+000
      vertex  1.600000e+001 -4.133046e-016  1.175000e+001
      vertex  1.600000e+001 -1.519443e+000  1.234054e+001
    endloop
  endfacet
  facet normal  1.000000e+000  0.000000e+000  0.000000e+000
    outer loop
      vertex  1.600000e+001 -1.140265e+001  7.000000e+000
      vertex  1.600000e+001 -1.519443e+000  1.234054e+001
      vertex  1.600000e+001 -2.241287e+000  1.380218e+001
    endloop
  endfacet
  facet normal  1.000000e+000  0.000000e+000  0.000000e+000
    outer loop
      vertex  1.600000e+001 -1.140265e+001  7.000000e+000
      vertex  1.600000e+001 -2.241287e+000  1.380218e+001
      vertex  1.600000e+001 -3.500000e+000  2.806351e+001
    endloop
  endfacet
  facet normal  9.999999e-001  0.000000e+000  0.000000e+000
    outer loop
      vertex  1.600000e+001 -1.140265e+001  7.000000e+000
      vertex  1.600000e+001 -3.500000e+000  2.806351e+001
      vertex  1.600000e+001 -3.984583e+000  3.035086e+001
    endloop
  endfacet
  facet normal  1.000000e+000  0.000000e+000  0.000000e+000
    outer loop
      vertex  1.600000e+001 -1.140265e+001  7.000000e+000
      vertex  1.600000e+001 -3.984583e+000  3.035086e+001
      vertex  1.600000e+001 -5.849632e+000  3.133484e+001
    endloop
  endfacet
  facet normal  9.999999e-001  0.000000e+000  0.000000e+000
    outer loop
      vertex  1.600000e+001  1.140265e+001  7.000000e+000
      vertex  1.600000e+001  3.984583e+000  3.035086e+001
      vertex  1.600000e+001  3.500000e+000  2.806351e+001
    endloop
  endfacet
  facet normal  1.000000e+000  0.000000e+000  0.000000e+000
    outer loop
      vertex  1.600000e+001  1.140265e+001  7.000000e+000
      vertex  1.600000e+001  3.500000e+000  2.806351e+001
      vertex  1.600000e+001  2.241287e+000  1.380218e+001
    endloop
  endfacet
  facet normal  1.000000e+000  0.000000e+000  0.000000e+000
    outer loop
      vertex  1.600000e+001  1.140265e+001  7.000000e+000
      vertex  1.600000e+001  2.241287e+000  1.380218e+001
      vertex  1.600000e+001  1.519443e+000  1.234054e+001
    endloop
  endfacet
  facet normal  1.000000e+000  0.000000e+000  0.000000e+000
    outer loop
      vertex  1.600000e+001  1.140265e+001  7.000000e+000
      vertex  1.600000e+001  1.519443e+000  1.234054e+001
      vertex  1.600000e+001 -4.133046e-016  1.175000e+001
    endloop
  endfacet
  facet normal  9.999999e-001  0.000000e+000  0.000000e+000
    outer loop
      vertex  1.600000e+001  3.673819e-016  3.600000e+001
      vertex  1.600000e+001 -1.169058e+000  3.382535e+001
      vertex  1.600000e+001  2.603390e+000  3.540577e+001
    endloop
  endfacet
  facet normal  9.999999e-001  0.000000e+000  0.000000e+000
    outer loop
      vertex  1.600000e+001  2.603390e+000  3.540577e+001
      vertex  1.600000e+001 -1.169058e+000  3.382535e+001
      vertex  1.600000e+001  1.169058e+000  3.382535e+001
    endloop
  endfacet
  facet normal  1.000000e+000  -0.000000e+000  0.000000e+000
    outer loop
      vertex  1.600000e+001  2.603390e+000  3.540577e+001
      vertex  1.600000e+001  1.169058e+000  3.382535e+001
      vertex  1.600000e+001  4.691110e+000  3.374079e+001
    endloop
  endfacet
  facet normal  9.999999e-001  -0.000000e+000  0.000000e+000
    outer loop
      vertex  1.600000e+001  3.673819e-016  3.600000e+001
      vertex  1.600000e+001 -2.603390e+000  3.540577e+001
      vertex  1.600000e+001 -1.169058e+000  3.382535e+001
    endloop
  endfacet
  facet normal  1.000000e+000  0.000000e+000  0.000000e+000
    outer loop
      vertex  1.600000e+001 -1.169058e+000  3.382535e+001
      vertex  1.600000e+001 -2.603390e+000  3.540577e+001
      vertex  1.600000e+001 -4.691110e+000  3.374079e+001
    endloop
  endfacet
  facet normal  1.000000e+000  -0.000000e+000  0.000000e+000
    outer loop
      vertex  1.600000e+001 -1.169058e+000  3.382535e+001
      vertex  1.600000e+001 -4.691110e+000  3.374079e+001
      vertex  1.600000e+001 -3.107737e+000  3.251833e+001
    endloop
  endfacet
  facet normal  1.000000e+000  0.000000e+000  0.000000e+000
    outer loop
      vertex  1.600000e+001 -3.107737e+000  3.251833e+001
      vertex  1.600000e+001 -4.691110e+000  3.374079e+001
      vertex  1.600000e+001 -5.849632e+000  3.133484e+001
    endloop
  endfacet
  facet normal  1.000000e+000  -0.000000e+000  0.000000e+000
    outer loop
      vertex  1.600000e+001 -3.107737e+000  3.251833e+001
      vertex  1.600000e+001 -5.849632e+000  3.133484e+001
      vertex  1.600000e+001 -3.984583e+000  3.035086e+001
    endloop
  endfacet
  facet normal  0.000000e+000  1.000000e+000  0.000000e+000
    outer loop
      vertex -2.100000e+001  2.200000e+001  2.000000e+000
      vertex  2.100000e+001  2.200000e+001  2.000000e+000
      vertex -2.100000e+001  2.200000e+001  0.000000e+000
    endloop
  endfacet
  facet normal  0.000000e+000  1.000000e+000  0.000000e+000
    outer loop
      vertex -2.100000e+001  2.200000e+001  0.000000e+000
      vertex  2.100000e+001  2.200000e+001  2.000000e+000
      vertex  2.100000e+001  2.200000e+001  0.000000e+000
    endloop
  endfacet
  facet normal  1.000000e+000  0.000000e+000  0.000000e+000
    outer loop
      vertex  2.100000e+001  2.200000e+001  0.000000e+000
      vertex  2.100000e+001  2.200000e+001  2.000000e+000
      vertex  2.100000e+001  1.254362e+001  2.000000e+000
    endloop
  endfacet
  facet normal  1.000000e+000  -0.000000e+000  0.000000e+000
    outer loop
      vertex  2.100000e+001  1.254362e+001  2.000000e+000
      vertex  2.100000e+001 -1.254362e+001  2.000000e+000
      vertex  2.100000e+001  2.200000e+001  0.000000e+000
    endloop
  endfacet
  facet normal  1.000000e+000  0.000000e+000  0.000000e+000
    outer loop
      vertex  2.100000e+001  2.200000e+001  0.000000e+000
      vertex  2.100000e+001 -1.254362e+001  2.000000e+000
      vertex  2.100000e+001 -2.200000e+001  2.000000e+000
    endloop
  endfacet
  facet normal  1.000000e+000  0.000000e+000  0.000000e+000
    outer loop
      vertex  2.100000e+001  2.200000e+001  0.000000e+000
      vertex  2.100000e+001 -2.200000e+001  2.000000e+000
      vertex  2.100000e+001 -2.200000e+001  0.000000e+000
    endloop
  endfacet
  facet normal  7.578547e-001  0.000000e+000  6.524233e-001
    outer loop
      vertex  1.808376e+001 -1.232945e+001  2.938533e+000
      vertex  1.655007e+001  1.192292e+001  4.720064e+000
      vertex  1.655007e+001 -1.192292e+001  4.720064e+000
    endloop
  endfacet
  facet normal  9.721076e-001  -0.000000e+000  2.345351e-001
    outer loop
      vertex  1.655007e+001 -1.192292e+001  4.720064e+000
      vertex  1.655007e+001  1.192292e+001  4.720064e+000
      vertex  1.600000e+001  1.140265e+001  7.000000e+000
    endloop
  endfacet
  facet normal  9.721076e-001  0.000000e+000  2.345352e-001
    outer loop
      vertex  1.655007e+001 -1.192292e+001  4.720064e+000
      vertex  1.600000e+001  1.140265e+001  7.000000e+000
      vertex  1.600000e+001 -1.140265e+001  7.000000e+000
    endloop
  endfacet
  facet normal  7.578547e-001  -0.000000e+000  6.524233e-001
    outer loop
      vertex  1.655007e+001  1.192292e+001  4.720064e+000
      vertex  1.808376e+001 -1.232945e+001  2.938533e+000
      vertex  1.808376e+001  1.232945e+001  2.938533e+000
    endloop
  endfacet
  facet normal  3.759751e-001  0.000000e+000  9.266298e-001
    outer loop
      vertex  1.808376e+001  1.232945e+001  2.938533e+000
      vertex  1.808376e+001 -1.232945e+001  2.938533e+000
      vertex  2.026183e+001 -1.253111e+001  2.054789e+000
    endloop
  endfacet
  facet normal  3.759751e-001  -0.000000e+000  9.266297e-001
    outer loop
      vertex  1.808376e+001  1.232945e+001  2.938533e+000
      vertex  2.026183e+001 -1.253111e+001  2.054789e+000
      vertex  2.026183e+001  1.253111e+001  2.054789e+000
    endloop
  endfacet
  facet normal  7.401986e-002  0.000000e+000  9.972567e-001
    outer loop
      vertex  2.026183e+001  1.253111e+001  2.054789e+000
      vertex  2.026183e+001 -1.253111e+001  2.054789e+000
      vertex  2.100000e+001 -1.254362e+001  2.000000e+000
    endloop
  endfacet
  facet normal  7.401987e-002  -0.000000e+000  9.972568e-001
    outer loop
      vertex  2.026183e+001  1.253111e+001  2.054789e+000
      vertex  2.100000e+001 -1.254362e+001  2.000000e+000
      vertex  2.100000e+001  1.254362e+001  2.000000e+000
    endloop
  endfacet
  facet normal  0.000000e+000 -3.622594e-001  9.320773e-001
    outer loop
      vertex  1.500000e+001  1.585097e-015  1.175000e+001
      vertex  1.600000e+001  1.519443e+000  1.234054e+001
      vertex  1.500000e+001  1.519443e+000  1.234054e+001
    endloop
  endfacet
  facet normal  0.000000e+000 -8.966185e-001  4.428037e-001
    outer loop
      vertex  1.500000e+001  1.519443e+000  1.234054e+001
      vertex  1.600000e+001  1.519443e+000  1.234054e+001
      vertex  1.600000e+001  2.241287e+000  1.380218e+001
    endloop
  endfacet
  facet normal  0.000000e+000 -8.966185e-001  4.428037e-001
    outer loop
      vertex  1.500000e+001  1.519443e+000  1.234054e+001
      vertex  1.600000e+001  2.241287e+000  1.380218e+001
      vertex  1.500000e+001  2.241287e+000  1.380218e+001
    endloop
  endfacet
  facet normal -7.239398e-016 -3.622594e-001  9.320773e-001
    outer loop
      vertex  1.600000e+001  1.519443e+000  1.234054e+001
      vertex  1.500000e+001  1.585097e-015  1.175000e+001
      vertex  1.600000e+001 -4.133046e-016  1.175000e+001
    endloop
  endfacet
  facet normal  7.239398e-016  3.622594e-001  9.320773e-001
    outer loop
      vertex  1.600000e+001 -4.133046e-016  1.175000e+001
      vertex  1.500000e+001  1.585097e-015  1.175000e+001
      vertex  1.500000e+001 -1.519443e+000  1.234054e+001
    endloop
  endfacet
  facet normal  -0.000000e+000  3.622594e-001  9.320773e-001
    outer loop
      vertex  1.600000e+001 -4.133046e-016  1.175000e+001
      vertex  1.500000e+001 -1.519443e+000  1.234054e+001
      vertex  1.600000e+001 -1.519443e+000  1.234054e+001
    endloop
  endfacet
  facet normal  0.000000e+000  8.966185e-001  4.428037e-001
    outer loop
      vertex  1.600000e+001 -1.519443e+000  1.234054e+001
      vertex  1.500000e+001 -1.519443e+000  1.234054e+001
      vertex  1.500000e+001 -2.241287e+000  1.380218e+001
    endloop
  endfacet
  facet normal  -0.000000e+000  8.966185e-001  4.428037e-001
    outer loop
      vertex  1.600000e+001 -1.519443e+000  1.234054e+001
      vertex  1.500000e+001 -2.241287e+000  1.380218e+001
      vertex  1.600000e+001 -2.241287e+000  1.380218e+001
    endloop
  endfacet
  facet normal  0.000000e+000  9.961277e-001  8.791880e-002
    outer loop
      vertex  1.500000e+001 -3.500000e+000  2.806351e+001
      vertex  1.600000e+001 -3.500000e+000  2.806351e+001
      vertex  1.500000e+001 -2.241287e+000  1.380218e+001
    endloop
  endfacet
  facet normal  -0.000000e+000  9.961277e-001  8.791880e-002
    outer loop
      vertex  1.500000e+001 -2.241287e+000  1.380218e+001
      vertex  1.600000e+001 -3.500000e+000  2.806351e+001
      vertex  1.600000e+001 -2.241287e+000  1.380218e+001
    endloop
  endfacet
  facet normal  0.000000e+000 -9.961277e-001  8.791880e-002
    outer loop
      vertex  1.500000e+001  3.500000e+000  2.806351e+001
      vertex  1.500000e+001  2.241287e+000  1.380218e+001
      vertex  1.600000e+001  3.500000e+000  2.806351e+001
    endloop
  endfacet
  facet normal  0.000000e+000 -9.961277e-001  8.791880e-002
    outer loop
      vertex  1.600000e+001  3.500000e+000  2.806351e+001
      vertex  1.500000e+001  2.241287e+000  1.380218e+001
      vertex  1.600000e+001  2.241287e+000  1.380218e+001
    endloop
  endfacet
  facet normal  0.000000e+000  5.590078e-001 -8.291624e-001
    outer loop
      vertex  1.500000e+001 -1.169058e+000  3.382535e+001
      vertex  1.600000e+001 -3.107737e+000  3.251833e+001
      vertex  1.500000e+001 -3.107737e+000  3.251833e+001
    endloop
  endfacet
  facet normal  0.000000e+000  9.270157e-001 -3.750226e-001
    outer loop
      vertex  1.500000e+001 -3.107737e+000  3.251833e+001
      vertex  1.600000e+001 -3.107737e+000  3.251833e+001
      vertex  1.600000e+001 -3.984583e+000  3.035086e+001
    endloop
  endfacet
  facet normal  0.000000e+000  9.270157e-001 -3.750226e-001
    outer loop
      vertex  1.500000e+001 -3.107737e+000  3.251833e+001
      vertex  1.600000e+001 -3.984583e+000  3.035086e+001
      vertex  1.500000e+001 -3.984583e+000  3.035086e+001
    endloop
  endfacet
  facet normal  -0.000000e+000  9.782872e-001  2.072536e-001
    outer loop
      vertex  1.500000e+001 -3.984583e+000  3.035086e+001
      vertex  1.600000e+001 -3.984583e+000  3.035086e+001
      vertex  1.600000e+001 -3.500000e+000  2.806351e+001
    endloop
  endfacet
  facet normal  0.000000e+000  9.782872e-001  2.072536e-001
    outer loop
      vertex  1.500000e+001 -3.984583e+000  3.035086e+001
      vertex  1.600000e+001 -3.500000e+000  2.806351e+001
      vertex  1.500000e+001 -3.500000e+000  2.806351e+001
    endloop
  endfacet
  facet normal  0.000000e+000  5.590078e-001 -8.291624e-001
    outer loop
      vertex  1.600000e+001 -3.107737e+000  3.251833e+001
      vertex  1.500000e+001 -1.169058e+000  3.382535e+001
      vertex  1.600000e+001 -1.169058e+000  3.382535e+001
    endloop
  endfacet
  facet normal  0.000000e+000  0.000000e+000 -1.000000e+000
    outer loop
      vertex  1.600000e+001 -1.169058e+000  3.382535e+001
      vertex  1.500000e+001 -1.169058e+000  3.382535e+001
      vertex  1.500000e+001  1.169058e+000  3.382535e+001
    endloop
  endfacet
  facet normal  0.000000e+000  0.000000e+000 -1.000000e+000
    outer loop
      vertex  1.600000e+001 -1.169058e+000  3.382535e+001
      vertex  1.500000e+001  1.169058e+000  3.382535e+001
      vertex  1.600000e+001  1.169058e+000  3.382535e+001
    endloop
  endfacet
  facet normal  -0.000000e+000 -5.590078e-001 -8.291624e-001
    outer loop
      vertex  1.600000e+001  1.169058e+000  3.382535e+001
      vertex  1.500000e+001  1.169058e+000  3.382535e+001
      vertex  1.500000e+001  3.107737e+000  3.251833e+001
    endloop
  endfacet
  facet normal  0.000000e+000 -5.590078e-001 -8.291624e-001
    outer loop
      vertex  1.600000e+001  1.169058e+000  3.382535e+001
      vertex  1.500000e+001  3.107737e+000  3.251833e+001
      vertex  1.600000e+001  3.107737e+000  3.251833e+001
    endloop
  endfacet
  facet normal  -0.000000e+000 -9.270157e-001 -3.750226e-001
    outer loop
      vertex  1.600000e+001  3.107737e+000  3.251833e+001
      vertex  1.500000e+001  3.107737e+000  3.251833e+001
      vertex  1.500000e+001  3.984583e+000  3.035086e+001
    endloop
  endfacet
  facet normal  0.000000e+000 -9.270157e-001 -3.750226e-001
    outer loop
      vertex  1.600000e+001  3.107737e+000  3.251833e+001
      vertex  1.500000e+001  3.984583e+000  3.035086e+001
      vertex  1.600000e+001  3.984583e+000  3.035086e+001
    endloop
  endfacet
  facet normal  0.000000e+000 -9.782872e-001  2.072536e-001
    outer loop
      vertex  1.600000e+001  3.984583e+000  3.035086e+001
      vertex  1.500000e+001  3.984583e+000  3.035086e+001
      vertex  1.500000e+001  3.500000e+000  2.806351e+001
    endloop
  endfacet
  facet normal  0.000000e+000 -9.782872e-001  2.072536e-001
    outer loop
      vertex  1.600000e+001  3.984583e+000  3.035086e+001
      vertex  1.500000e+001  3.500000e+000  2.806351e+001
      vertex  1.600000e+001  3.500000e+000  2.806351e+001
    endloop
  endfacet
  facet normal  0.000000e+000 -5.877849e-001  8.090172e-001
    outer loop
      vertex  1.400000e+001  1.081560e+000  2.667130e+001
      vertex  1.500000e+001  2.831559e+000  2.794275e+001
      vertex  1.400000e+001  2.831559e+000  2.794275e+001
    endloop
  endfacet
  facet normal  0.000000e+000 -9.510565e-001  3.090169e-001
    outer loop
      vertex  1.400000e+001  2.831559e+000  2.794275e+001
      vertex  1.500000e+001  2.831559e+000  2.794275e+001
      vertex  1.500000e+001  3.500000e+000  3.000000e+001
    endloop
  endfacet
  facet normal  0.000000e+000 -9.510565e-001  3.090169e-001
    outer loop
      vertex  1.400000e+001  2.831559e+000  2.794275e+001
      vertex  1.500000e+001  3.500000e+000  3.000000e+001
      vertex  1.400000e+001  3.500000e+000  3.000000e+001
    endloop
  endfacet
  facet normal  0.000000e+000 -5.877849e-001  8.090172e-001
    outer loop
      vertex  1.500000e+001  2.831559e+000  2.794275e+001
      vertex  1.400000e+001  1.081560e+000  2.667130e+001
      vertex  1.500000e+001  1.081560e+000  2.667130e+001
    endloop
  endfacet
  facet normal  0.000000e+000  0.000000e+000  1.000000e+000
    outer loop
      vertex  1.500000e+001  1.081560e+000  2.667130e+001
      vertex  1.400000e+001  1.081560e+000  2.667130e+001
      vertex  1.400000e+001 -1.081560e+000  2.667130e+001
    endloop
  endfacet
  facet normal  0.000000e+000  0.000000e+000  1.000000e+000
    outer loop
      vertex  1.500000e+001  1.081560e+000  2.667130e+001
      vertex  1.400000e+001 -1.081560e+000  2.667130e+001
      vertex  1.500000e+001 -1.081560e+000  2.667130e+001
    endloop
  endfacet
  facet normal  0.000000e+000  5.877849e-001  8.090172e-001
    outer loop
      vertex  1.500000e+001 -1.081560e+000  2.667130e+001
      vertex  1.400000e+001 -1.081560e+000  2.667130e+001
      vertex  1.400000e+001 -2.831559e+000  2.794275e+001
    endloop
  endfacet
  facet normal  -0.000000e+000  5.877849e-001  8.090172e-001
    outer loop
      vertex  1.500000e+001 -1.081560e+000  2.667130e+001
      vertex  1.400000e+001 -2.831559e+000  2.794275e+001
      vertex  1.500000e+001 -2.831559e+000  2.794275e+001
    endloop
  endfacet
  facet normal  0.000000e+000  9.510565e-001  3.090169e-001
    outer loop
      vertex  1.500000e+001 -2.831559e+000  2.794275e+001
      vertex  1.400000e+001 -2.831559e+000  2.794275e+001
      vertex  1.400000e+001 -3.500000e+000  3.000000e+001
    endloop
  endfacet
  facet normal  -0.000000e+000  9.510565e-001  3.090169e-001
    outer loop
      vertex  1.500000e+001 -2.831559e+000  2.794275e+001
      vertex  1.400000e+001 -3.500000e+000  3.000000e+001
      vertex  1.500000e+001 -3.500000e+000  3.000000e+001
    endloop
  endfacet
  facet normal  0.000000e+000  5.877854e-001 -8.090168e-001
    outer loop
      vertex  1.400000e+001 -1.081560e+000  3.332870e+001
      vertex  1.500000e+001 -2.831559e+000  3.205725e+001
      vertex  1.400000e+001 -2.831559e+000  3.205725e+001
    endloop
  endfacet
  facet normal  0.000000e+000  9.510564e-001 -3.090172e-001
    outer loop
      vertex  1.400000e+001 -2.831559e+000  3.205725e+001
      vertex  1.500000e+001 -2.831559e+000  3.205725e+001
      vertex  1.500000e+001 -3.500000e+000  3.000000e+001
    endloop
  endfacet
  facet normal  0.000000e+000  9.510564e-001 -3.090172e-001
    outer loop
      vertex  1.400000e+001 -2.831559e+000  3.205725e+001
      vertex  1.500000e+001 -3.500000e+000  3.000000e+001
      vertex  1.400000e+001 -3.500000e+000  3.000000e+001
    endloop
  endfacet
  facet normal  0.000000e+000  5.877854e-001 -8.090168e-001
    outer loop
      vertex  1.500000e+001 -2.831559e+000  3.205725e+001
      vertex  1.400000e+001 -1.081560e+000  3.332870e+001
      vertex  1.500000e+001 -1.081560e+000  3.332870e+001
    endloop
  endfacet
  facet normal  0.000000e+000  0.000000e+000 -1.000000e+000
    outer loop
      vertex  1.500000e+001 -1.081560e+000  3.332870e+001
      vertex  1.400000e+001 -1.081560e+000  3.332870e+001
      vertex  1.400000e+001  1.081560e+000  3.332870e+001
    endloop
  endfacet
  facet normal  0.000000e+000  0.000000e+000 -1.000000e+000
    outer loop
      vertex  1.500000e+001 -1.081560e+000  3.332870e+001
      vertex  1.400000e+001  1.081560e+000  3.332870e+001
      vertex  1.500000e+001  1.081560e+000  3.332870e+001
    endloop
  endfacet
  facet normal  -0.000000e+000 -5.877854e-001 -8.090168e-001
    outer loop
      vertex  1.500000e+001  1.081560e+000  3.332870e+001
      vertex  1.400000e+001  1.081560e+000  3.332870e+001
      vertex  1.400000e+001  2.831559e+000  3.205725e+001
    endloop
  endfacet
  facet normal  0.000000e+000 -5.877854e-001 -8.090168e-001
    outer loop
      vertex  1.500000e+001  1.081560e+000  3.332870e+001
      vertex  1.400000e+001  2.831559e+000  3.205725e+001
      vertex  1.500000e+001  2.831559e+000  3.205725e+001
    endloop
  endfacet
  facet normal  -0.000000e+000 -9.510564e-001 -3.090172e-001
    outer loop
      vertex  1.500000e+001  2.831559e+000  3.205725e+001
      vertex  1.400000e+001  2.831559e+000  3.205725e+001
      vertex  1.400000e+001  3.500000e+000  3.000000e+001
    endloop
  endfacet
  facet normal  0.000000e+000 -9.510564e-001 -3.090172e-001
    outer loop
      vertex  1.500000e+001  2.831559e+000  3.205725e+001
      vertex  1.400000e+001  3.500000e+000  3.000000e+001
      vertex  1.500000e+001  3.500000e+000  3.000000e+001
    endloop
  endfacet
  facet normal  1.000000e+000  0.000000e+000  -0.000000e+000
    outer loop
      vertex  1.500000e+001 -2.241287e+000  1.380218e+001
      vertex  1.500000e+001 -1.519443e+000  1.234054e+001
      vertex  1.500000e+001 -1.081560e+000  2.667130e+001
    endloop
  endfacet
  facet normal  9.999999e-001  0.000000e+000  0.000000e+000
    outer loop
      vertex  1.500000e+001 -2.241287e+000  1.380218e+001
      vertex  1.500000e+001 -1.081560e+000  2.667130e+001
      vertex  1.500000e+001 -2.831559e+000  2.794275e+001
    endloop
  endfacet
  facet normal  1.000000e+000  0.000000e+000  0.000000e+000
    outer loop
      vertex  1.500000e+001 -2.241287e+000  1.380218e+001
      vertex  1.500000e+001 -2.831559e+000  2.794275e+001
      vertex  1.500000e+001 -3.500000e+000  2.806351e+001
    endloop
  endfacet
  facet normal  1.000000e+000  0.000000e+000  0.000000e+000
    outer loop
      vertex  1.500000e+001  1.519443e+000  1.234054e+001
      vertex  1.500000e+001  2.241287e+000  1.380218e+001
      vertex  1.500000e+001  1.585097e-015  1.175000e+001
    endloop
  endfacet
  facet normal  9.999999e-001  0.000000e+000  0.000000e+000
    outer loop
      vertex  1.500000e+001  1.585097e-015  1.175000e+001
      vertex  1.500000e+001  2.241287e+000  1.380218e+001
      vertex  1.500000e+001  1.081560e+000  2.667130e+001
    endloop
  endfacet
  facet normal  1.000000e+000  0.000000e+000  0.000000e+000
    outer loop
      vertex  1.500000e+001  1.585097e-015  1.175000e+001
      vertex  1.500000e+001  1.081560e+000  2.667130e+001
      vertex  1.500000e+001 -1.519443e+000  1.234054e+001
    endloop
  endfacet
  facet normal  1.000000e+000  0.000000e+000  0.000000e+000
    outer loop
      vertex  1.500000e+001 -1.519443e+000  1.234054e+001
      vertex  1.500000e+001  1.081560e+000  2.667130e+001
      vertex  1.500000e+001 -1.081560e+000  2.667130e+001
    endloop
  endfacet
  facet normal  9.999999e-001  0.000000e+000  -0.000000e+000
    outer loop
      vertex  1.500000e+001  1.081560e+000  2.667130e+001
      vertex  1.500000e+001  2.241287e+000  1.380218e+001
      vertex  1.500000e+001  2.831559e+000  2.794275e+001
    endloop
  endfacet
  facet normal  1.000000e+000  -0.000000e+000  0.000000e+000
    outer loop
      vertex  1.500000e+001  2.831559e+000  2.794275e+001
      vertex  1.500000e+001  2.241287e+000  1.380218e+001
      vertex  1.500000e+001  3.500000e+000  2.806351e+001
    endloop
  endfacet
  facet normal  1.000000e+000  0.000000e+000  -0.000000e+000
    outer loop
      vertex  1.500000e+001  2.831559e+000  2.794275e+001
      vertex  1.500000e+001  3.500000e+000  2.806351e+001
      vertex  1.500000e+001  3.500000e+000  3.000000e+001
    endloop
  endfacet
  facet normal  1.000000e+000  -0.000000e+000  0.000000e+000
    outer loop
      vertex  1.500000e+001  3.500000e+000  3.000000e+001
      vertex  1.500000e+001  3.500000e+000  2.806351e+001
      vertex  1.500000e+001  3.984583e+000  3.035086e+001
    endloop
  endfacet
  facet normal  1.000000e+000  0.000000e+000  0.000000e+000
    outer loop
      vertex  1.500000e+001  3.500000e+000  3.000000e+001
      vertex  1.500000e+001  3.984583e+000  3.035086e+001
      vertex  1.500000e+001  2.831559e+000  3.205725e+001
    endloop
  endfacet
  facet normal  1.000000e+000  -0.000000e+000  0.000000e+000
    outer loop
      vertex  1.500000e+001  2.831559e+000  3.205725e+001
      vertex  1.500000e+001  3.984583e+000  3.035086e+001
      vertex  1.500000e+001  3.107737e+000  3.251833e+001
    endloop
  endfacet
  facet normal  1.000000e+000  0.000000e+000  0.000000e+000
    outer loop
      vertex  1.500000e+001  2.831559e+000  3.205725e+001
      vertex  1.500000e+001  3.107737e+000  3.251833e+001
      vertex  1.500000e+001  1.081560e+000  3.332870e+001
    endloop
  endfacet
  facet normal  1.000000e+000  -0.000000e+000  0.000000e+000
    outer loop
      vertex  1.500000e+001  1.081560e+000  3.332870e+001
      vertex  1.500000e+001  3.107737e+000  3.251833e+001
      vertex  1.500000e+001  1.169058e+000  3.382535e+001
    endloop
  endfacet
  facet normal  1.000000e+000  0.000000e+000  0.000000e+000
    outer loop
      vertex  1.500000e+001  1.081560e+000  3.332870e+001
      vertex  1.500000e+001  1.169058e+000  3.382535e+001
      vertex  1.500000e+001 -1.081560e+000  3.332870e+001
    endloop
  endfacet
  facet normal  1.000000e+000  0.000000e+000  -0.000000e+000
    outer loop
      vertex  1.500000e+001 -1.081560e+000  3.332870e+001
      vertex  1.500000e+001  1.169058e+000  3.382535e+001
      vertex  1.500000e+001 -1.169058e+000  3.382535e+001
    endloop
  endfacet
  facet normal  1.000000e+000  0.000000e+000  0.000000e+000
    outer loop
      vertex  1.500000e+001 -1.081560e+000  3.332870e+001
      vertex  1.500000e+001 -1.169058e+000  3.382535e+001
      vertex  1.500000e+001 -3.107737e+000  3.251833e+001
    endloop
  endfacet
  facet normal  1.000000e+000  0.000000e+000  0.000000e+000
    outer loop
      vertex  1.500000e+001 -3.500000e+000  2.806351e+001
      vertex  1.500000e+001 -2.831559e+000  2.794275e+001
      vertex  1.500000e+001 -3.984583e+000  3.035086e+001
    endloop
  endfacet
  facet normal  9.999999e-001  0.000000e+000  0.000000e+000
    outer loop
      vertex  1.500000e+001 -3.984583e+000  3.035086e+001
      vertex  1.500000e+001 -2.831559e+000  2.794275e+001
      vertex  1.500000e+001 -3.500000e+000  3.000000e+001
    endloop
  endfacet
  facet normal  1.000000e+000  0.000000e+000  -0.000000e+000
    outer loop
      vertex  1.500000e+001 -3.984583e+000  3.035086e+001
      vertex  1.500000e+001 -3.500000e+000  3.000000e+001
      vertex  1.500000e+001 -3.107737e+000  3.251833e+001
    endloop
  endfacet
  facet normal  1.000000e+000  0.000000e+000  0.000000e+000
    outer loop
      vertex  1.500000e+001 -3.107737e+000  3.251833e+001
      vertex  1.500000e+001 -3.500000e+000  3.000000e+001
      vertex  1.500000e+001 -2.831559e+000  3.205725e+001
    endloop
  endfacet
  facet normal  1.000000e+000  0.000000e+000  -0.000000e+000
    outer loop
      vertex  1.500000e+001 -3.107737e+000  3.251833e+001
      vertex  1.500000e+001 -2.831559e+000  3.205725e+001
      vertex  1.500000e+001 -1.081560e+000  3.332870e+001
    endloop
  endfacet
  facet normal  0.000000e+000 -9.009866e-001  4.338470e-001
    outer loop
      vertex  1.400000e+001 -5.849632e+000  3.133484e+001
      vertex  1.600000e+001 -5.849632e+000  3.133484e+001
      vertex  1.400000e+001 -4.691110e+000  3.374079e+001
    endloop
  endfacet
  facet normal  0.000000e+000 -9.009866e-001  4.338470e-001
    outer loop
      vertex  1.400000e+001 -4.691110e+000  3.374079e+001
      vertex  1.600000e+001 -5.849632e+000  3.133484e+001
      vertex  1.600000e+001 -4.691110e+000  3.374079e+001
    endloop
  endfacet
  facet normal  0.000000e+000 -6.235083e-001  7.818167e-001
    outer loop
      vertex  1.400000e+001 -4.691110e+000  3.374079e+001
      vertex  1.600000e+001 -4.691110e+000  3.374079e+001
      vertex  1.400000e+001 -2.603390e+000  3.540577e+001
    endloop
  endfacet
  facet normal  0.000000e+000 -6.235083e-001  7.818167e-001
    outer loop
      vertex  1.400000e+001 -2.603390e+000  3.540577e+001
      vertex  1.600000e+001 -4.691110e+000  3.374079e+001
      vertex  1.600000e+001 -2.603390e+000  3.540577e+001
    endloop
  endfacet
  facet normal  0.000000e+000 -2.225294e-001  9.749260e-001
    outer loop
      vertex  1.400000e+001 -2.603390e+000  3.540577e+001
      vertex  1.600000e+001 -2.603390e+000  3.540577e+001
      vertex  1.400000e+001  3.673819e-016  3.600000e+001
    endloop
  endfacet
  facet normal  0.000000e+000 -2.225294e-001  9.749260e-001
    outer loop
      vertex  1.400000e+001  3.673819e-016  3.600000e+001
      vertex  1.600000e+001 -2.603390e+000  3.540577e+001
      vertex  1.600000e+001  3.673819e-016  3.600000e+001
    endloop
  endfacet
  facet normal  0.000000e+000  2.225294e-001  9.749260e-001
    outer loop
      vertex  1.400000e+001  3.673819e-016  3.600000e+001
      vertex  1.600000e+001  3.673819e-016  3.600000e+001
      vertex  1.400000e+001  2.603390e+000  3.540577e+001
    endloop
  endfacet
  facet normal  -0.000000e+000  2.225294e-001  9.749260e-001
    outer loop
      vertex  1.400000e+001  2.603390e+000  3.540577e+001
      vertex  1.600000e+001  3.673819e-016  3.600000e+001
      vertex  1.600000e+001  2.603390e+000  3.540577e+001
    endloop
  endfacet
  facet normal  0.000000e+000  6.235083e-001  7.818167e-001
    outer loop
      vertex  1.400000e+001  2.603390e+000  3.540577e+001
      vertex  1.600000e+001  2.603390e+000  3.540577e+001
      vertex  1.400000e+001  4.691110e+000  3.374079e+001
    endloop
  endfacet
  facet normal  -0.000000e+000  6.235083e-001  7.818167e-001
    outer loop
      vertex  1.400000e+001  4.691110e+000  3.374079e+001
      vertex  1.600000e+001  2.603390e+000  3.540577e+001
      vertex  1.600000e+001  4.691110e+000  3.374079e+001
    endloop
  endfacet
  facet normal  0.000000e+000  9.009866e-001  4.338470e-001
    outer loop
      vertex  1.400000e+001  4.691110e+000  3.374079e+001
      vertex  1.600000e+001  4.691110e+000  3.374079e+001
      vertex  1.400000e+001  5.849632e+000  3.133484e+001
    endloop
  endfacet
  facet normal  -0.000000e+000  9.009866e-001  4.338470e-001
    outer loop
      vertex  1.400000e+001  5.849632e+000  3.133484e+001
      vertex  1.600000e+001  4.691110e+000  3.374079e+001
      vertex  1.600000e+001  5.849632e+000  3.133484e+001
    endloop
  endfacet
  facet normal -1.000000e+000  -0.000000e+000  0.000000e+000
    outer loop
      vertex -2.100000e+001 -2.200000e+001  2.000000e+000
      vertex -2.100000e+001  2.200000e+001  2.000000e+000
      vertex -2.100000e+001 -2.200000e+001  0.000000e+000
    endloop
  endfacet
  facet normal -1.000000e+000  0.000000e+000  0.000000e+000
    outer loop
      vertex -2.100000e+001 -2.200000e+001  0.000000e+000
      vertex -2.100000e+001  2.200000e+001  2.000000e+000
      vertex -2.100000e+001  2.200000e+001  0.000000e+000
    endloop
  endfacet
  facet normal  7.787679e-001 -6.273122e-001  0.000000e+000
    outer loop
      vertex  1.603086e+001 -1.543363e+001  0.000000e+000
      vertex  1.531068e+001 -1.632769e+001  2.000000e+000
      vertex  1.531068e+001 -1.632769e+001  0.000000e+000
    endloop
  endfacet
  facet normal  9.942489e-001  1.070950e-001  -0.000000e+000
    outer loop
      vertex  1.531068e+001 -1.632769e+001  0.000000e+000
      vertex  1.531068e+001 -1.632769e+001  2.000000e+000
      vertex  1.543363e+001 -1.746914e+001  2.000000e+000
    endloop
  endfacet
  facet normal  9.942489e-001  1.070950e-001  0.000000e+000
    outer loop
      vertex  1.531068e+001 -1.632769e+001  0.000000e+000
      vertex  1.543363e+001 -1.746914e+001  2.000000e+000
      vertex  1.543363e+001 -1.746914e+001  0.000000e+000
    endloop
  endfacet
  facet normal  7.787679e-001 -6.273122e-001  0.000000e+000
    outer loop
      vertex  1.531068e+001 -1.632769e+001  2.000000e+000
      vertex  1.603086e+001 -1.543363e+001  0.000000e+000
      vertex  1.603086e+001 -1.543363e+001  2.000000e+000
    endloop
  endfacet
  facet normal  1.070950e-001 -9.942489e-001  0.000000e+000
    outer loop
      vertex  1.603086e+001 -1.543363e+001  2.000000e+000
      vertex  1.603086e+001 -1.543363e+001  0.000000e+000
      vertex  1.717231e+001 -1.531068e+001  0.000000e+000
    endloop
  endfacet
  facet normal  1.070950e-001 -9.942489e-001  0.000000e+000
    outer loop
      vertex  1.603086e+001 -1.543363e+001  2.000000e+000
      vertex  1.717231e+001 -1.531068e+001  0.000000e+000
      vertex  1.717231e+001 -1.531068e+001  2.000000e+000
    endloop
  endfacet
  facet normal -6.273122e-001 -7.787679e-001  -0.000000e+000
    outer loop
      vertex  1.717231e+001 -1.531068e+001  2.000000e+000
      vertex  1.717231e+001 -1.531068e+001  0.000000e+000
      vertex  1.806637e+001 -1.603086e+001  0.000000e+000
    endloop
  endfacet
  facet normal -6.273122e-001 -7.787679e-001  0.000000e+000
    outer loop
      vertex  1.717231e+001 -1.531068e+001  2.000000e+000
      vertex  1.806637e+001 -1.603086e+001  0.000000e+000
      vertex  1.806637e+001 -1.603086e+001  2.000000e+000
    endloop
  endfacet
  facet normal -7.787675e-001  6.273127e-001  0.000000e+000
    outer loop
      vertex  1.746914e+001 -1.806637e+001  0.000000e+000
      vertex  1.818933e+001 -1.717231e+001  2.000000e+000
      vertex  1.818933e+001 -1.717231e+001  0.000000e+000
    endloop
  endfacet
  facet normal -9.942487e-001 -1.070958e-001  0.000000e+000
    outer loop
      vertex  1.818933e+001 -1.717231e+001  0.000000e+000
      vertex  1.818933e+001 -1.717231e+001  2.000000e+000
      vertex  1.806637e+001 -1.603086e+001  2.000000e+000
    endloop
  endfacet
  facet normal -9.942487e-001 -1.070958e-001  -0.000000e+000
    outer loop
      vertex  1.818933e+001 -1.717231e+001  0.000000e+000
      vertex  1.806637e+001 -1.603086e+001  2.000000e+000
      vertex  1.806637e+001 -1.603086e+001  0.000000e+000
    endloop
  endfacet
  facet normal -7.787675e-001  6.273127e-001  0.000000e+000
    outer loop
      vertex  1.818933e+001 -1.717231e+001  2.000000e+000
      vertex  1.746914e+001 -1.806637e+001  0.000000e+000
      vertex  1.746914e+001 -1.806637e+001  2.000000e+000
    endloop
  endfacet
  facet normal -1.070958e-001  9.942487e-001  0.000000e+000
    outer loop
      vertex  1.746914e+001 -1.806637e+001  2.000000e+000
      vertex  1.746914e+001 -1.806637e+001  0.000000e+000
      vertex  1.632769e+001 -1.818933e+001  0.000000e+000
    endloop
  endfacet
  facet normal -1.070958e-001  9.942487e-001  0.000000e+000
    outer loop
      vertex  1.746914e+001 -1.806637e+001  2.000000e+000
      vertex  1.632769e+001 -1.818933e+001  0.000000e+000
      vertex  1.632769e+001 -1.818933e+001  2.000000e+000
    endloop
  endfacet
  facet normal  6.273127e-001  7.787675e-001  0.000000e+000
    outer loop
      vertex  1.632769e+001 -1.818933e+001  2.000000e+000
      vertex  1.632769e+001 -1.818933e+001  0.000000e+000
      vertex  1.543363e+001 -1.746914e+001  0.000000e+000
    endloop
  endfacet
  facet normal  6.273127e-001  7.787675e-001  -0.000000e+000
    outer loop
      vertex  1.632769e+001 -1.818933e+001  2.000000e+000
      vertex  1.543363e+001 -1.746914e+001  0.000000e+000
      vertex  1.543363e+001 -1.746914e+001  2.000000e+000
    endloop
  endfacet
  facet normal  7.787675e-001 -6.273127e-001  0.000000e+000
    outer loop
      vertex -1.746914e+001 -1.543363e+001  0.000000e+000
      vertex -1.818933e+001 -1.632769e+001  2.000000e+000
      vertex -1.818933e+001 -1.632769e+001  0.000000e+000
    endloop
  endfacet
  facet normal  9.942487e-001  1.070958e-001  -0.000000e+000
    outer loop
      vertex -1.818933e+001 -1.632769e+001  0.000000e+000
      vertex -1.818933e+001 -1.632769e+001  2.000000e+000
      vertex -1.806637e+001 -1.746914e+001  2.000000e+000
    endloop
  endfacet
  facet normal  9.942487e-001  1.070958e-001  0.000000e+000
    outer loop
      vertex -1.818933e+001 -1.632769e+001  0.000000e+000
      vertex -1.806637e+001 -1.746914e+001  2.000000e+000
      vertex -1.806637e+001 -1.746914e+001  0.000000e+000
    endloop
  endfacet
  facet normal  7.787675e-001 -6.273127e-001  0.000000e+000
    outer loop
      vertex -1.818933e+001 -1.632769e+001  2.000000e+000
      vertex -1.746914e+001 -1.543363e+001  0.000000e+000
      vertex -1.746914e+001 -1.543363e+001  2.000000e+000
    endloop
  endfacet
  facet normal  1.070950e-001 -9.942489e-001  0.000000e+000
    outer loop
      vertex -1.746914e+001 -1.543363e+001  2.000000e+000
      vertex -1.746914e+001 -1.543363e+001  0.000000e+000
      vertex -1.632769e+001 -1.531068e+001  0.000000e+000
    endloop
  endfacet
  facet normal  1.070950e-001 -9.942489e-001  0.000000e+000
    outer loop
      vertex -1.746914e+001 -1.543363e+001  2.000000e+000
      vertex -1.632769e+001 -1.531068e+001  0.000000e+000
      vertex -1.632769e+001 -1.531068e+001  2.000000e+000
    endloop
  endfacet
  facet normal -6.273122e-001 -7.787679e-001  -0.000000e+000
    outer loop
      vertex -1.632769e+001 -1.531068e+001  2.000000e+000
      vertex -1.632769e+001 -1.531068e+001  0.000000e+000
      vertex -1.543363e+001 -1.603086e+001  0.000000e+000
    endloop
  endfacet
  facet normal -6.273122e-001 -7.787679e-001  0.000000e+000
    outer loop
      vertex -1.632769e+001 -1.531068e+001  2.000000e+000
      vertex -1.543363e+001 -1.603086e+001  0.000000e+000
      vertex -1.543363e+001 -1.603086e+001  2.000000e+000
    endloop
  endfacet
  facet normal -7.787679e-001  6.273122e-001  0.000000e+000
    outer loop
      vertex -1.603086e+001 -1.806637e+001  0.000000e+000
      vertex -1.531068e+001 -1.717231e+001  2.000000e+000
      vertex -1.531068e+001 -1.717231e+001  0.000000e+000
    endloop
  endfacet
  facet normal -9.942489e-001 -1.070950e-001  0.000000e+000
    outer loop
      vertex -1.531068e+001 -1.717231e+001  0.000000e+000
      vertex -1.531068e+001 -1.717231e+001  2.000000e+000
      vertex -1.543363e+001 -1.603086e+001  2.000000e+000
    endloop
  endfacet
  facet normal -9.942489e-001 -1.070950e-001  -0.000000e+000
    outer loop
      vertex -1.531068e+001 -1.717231e+001  0.000000e+000
      vertex -1.543363e+001 -1.603086e+001  2.000000e+000
      vertex -1.543363e+001 -1.603086e+001  0.000000e+000
    endloop
  endfacet
  facet normal -7.787679e-001  6.273122e-001  0.000000e+000
    outer loop
      vertex -1.531068e+001 -1.717231e+001  2.000000e+000
      vertex -1.603086e+001 -1.806637e+001  0.000000e+000
      vertex -1.603086e+001 -1.806637e+001  2.000000e+000
    endloop
  endfacet
  facet normal -1.070958e-001  9.942487e-001  0.000000e+000
    outer loop
      vertex -1.603086e+001 -1.806637e+001  2.000000e+000
      vertex -1.603086e+001 -1.806637e+001  0.000000e+000
      vertex -1.717231e+001 -1.818933e+001  0.000000e+000
    endloop
  endfacet
  facet normal -1.070958e-001  9.942487e-001  0.000000e+000
    outer loop
      vertex -1.603086e+001 -1.806637e+001  2.000000e+000
      vertex -1.717231e+001 -1.818933e+001  0.000000e+000
      vertex -1.717231e+001 -1.818933e+001  2.000000e+000
    endloop
  endfacet
  facet normal  6.273127e-001  7.787675e-001  0.000000e+000
    outer loop
      vertex -1.717231e+001 -1.818933e+001  2.000000e+000
      vertex -1.717231e+001 -1.818933e+001  0.000000e+000
      vertex -1.806637e+001 -1.746914e+001  0.000000e+000
    endloop
  endfacet
  facet normal  6.273127e-001  7.787675e-001  -0.000000e+000
    outer loop
      vertex -1.717231e+001 -1.818933e+001  2.000000e+000
      vertex -1.806637e+001 -1.746914e+001  0.000000e+000
      vertex -1.806637e+001 -1.746914e+001  2.000000e+000
    endloop
  endfacet
  facet normal  7.787679e-001  6.273122e-001  -0.000000e+000
    outer loop
      vertex  1.603086e+001  1.543363e+001  2.000000e+000
      vertex  1.531068e+001  1.632769e+001  0.000000e+000
      vertex  1.531068e+001  1.632769e+001  2.000000e+000
    endloop
  endfacet
  facet normal  9.942489e-001 -1.070950e-001  0.000000e+000
    outer loop
      vertex  1.531068e+001  1.632769e+001  2.000000e+000
      vertex  1.531068e+001  1.632769e+001  0.000000e+000
      vertex  1.543363e+001  1.746914e+001  0.000000e+000
    endloop
  endfacet
  facet normal  9.942489e-001 -1.070950e-001  0.000000e+000
    outer loop
      vertex  1.531068e+001  1.632769e+001  2.000000e+000
      vertex  1.543363e+001  1.746914e+001  0.000000e+000
      vertex  1.543363e+001  1.746914e+001  2.000000e+000
    endloop
  endfacet
  facet normal  7.787679e-001  6.273122e-001  0.000000e+000
    outer loop
      vertex  1.531068e+001  1.632769e+001  0.000000e+000
      vertex  1.603086e+001  1.543363e+001  2.000000e+000
      vertex  1.603086e+001  1.543363e+001  0.000000e+000
    endloop
  endfacet
  facet normal  1.070950e-001  9.942489e-001  -0.000000e+000
    outer loop
      vertex  1.603086e+001  1.543363e+001  0.000000e+000
      vertex  1.603086e+001  1.543363e+001  2.000000e+000
      vertex  1.717231e+001  1.531068e+001  2.000000e+000
    endloop
  endfacet
  facet normal  1.070950e-001  9.942489e-001  0.000000e+000
    outer loop
      vertex  1.603086e+001  1.543363e+001  0.000000e+000
      vertex  1.717231e+001  1.531068e+001  2.000000e+000
      vertex  1.717231e+001  1.531068e+001  0.000000e+000
    endloop
  endfacet
  facet normal -6.273122e-001  7.787679e-001  0.000000e+000
    outer loop
      vertex  1.717231e+001  1.531068e+001  0.000000e+000
      vertex  1.717231e+001  1.531068e+001  2.000000e+000
      vertex  1.806637e+001  1.603086e+001  2.000000e+000
    endloop
  endfacet
  facet normal -6.273122e-001  7.787679e-001  0.000000e+000
    outer loop
      vertex  1.717231e+001  1.531068e+001  0.000000e+000
      vertex  1.806637e+001  1.603086e+001  2.000000e+000
      vertex  1.806637e+001  1.603086e+001  0.000000e+000
    endloop
  endfacet
  facet normal -7.787675e-001 -6.273127e-001  0.000000e+000
    outer loop
      vertex  1.746914e+001  1.806637e+001  2.000000e+000
      vertex  1.818933e+001  1.717231e+001  0.000000e+000
      vertex  1.818933e+001  1.717231e+001  2.000000e+000
    endloop
  endfacet
  facet normal -9.942487e-001  1.070958e-001  0.000000e+000
    outer loop
      vertex  1.818933e+001  1.717231e+001  2.000000e+000
      vertex  1.818933e+001  1.717231e+001  0.000000e+000
      vertex  1.806637e+001  1.603086e+001  0.000000e+000
    endloop
  endfacet
  facet normal -9.942487e-001  1.070958e-001  0.000000e+000
    outer loop
      vertex  1.818933e+001  1.717231e+001  2.000000e+000
      vertex  1.806637e+001  1.603086e+001  0.000000e+000
      vertex  1.806637e+001  1.603086e+001  2.000000e+000
    endloop
  endfacet
  facet normal -7.787675e-001 -6.273127e-001  -0.000000e+000
    outer loop
      vertex  1.818933e+001  1.717231e+001  0.000000e+000
      vertex  1.746914e+001  1.806637e+001  2.000000e+000
      vertex  1.746914e+001  1.806637e+001  0.000000e+000
    endloop
  endfacet
  facet normal -1.070958e-001 -9.942487e-001  0.000000e+000
    outer loop
      vertex  1.746914e+001  1.806637e+001  0.000000e+000
      vertex  1.746914e+001  1.806637e+001  2.000000e+000
      vertex  1.632769e+001  1.818933e+001  2.000000e+000
    endloop
  endfacet
  facet normal -1.070958e-001 -9.942487e-001  -0.000000e+000
    outer loop
      vertex  1.746914e+001  1.806637e+001  0.000000e+000
      vertex  1.632769e+001  1.818933e+001  2.000000e+000
      vertex  1.632769e+001  1.818933e+001  0.000000e+000
    endloop
  endfacet
  facet normal  6.273127e-001 -7.787675e-001  0.000000e+000
    outer loop
      vertex  1.632769e+001  1.818933e+001  0.000000e+000
      vertex  1.632769e+001  1.818933e+001  2.000000e+000
      vertex  1.543363e+001  1.746914e+001  2.000000e+000
    endloop
  endfacet
  facet normal  6.273127e-001 -7.787675e-001  0.000000e+000
    outer loop
      vertex  1.632769e+001  1.818933e+001  0.000000e+000
      vertex  1.543363e+001  1.746914e+001  2.000000e+000
      vertex  1.543363e+001  1.746914e+001  0.000000e+000
    endloop
  endfacet
  facet normal  7.787675e-001  6.273127e-001  -0.000000e+000
    outer loop
      vertex -1.746914e+001  1.543363e+001  2.000000e+000
      vertex -1.818933e+001  1.632769e+001  0.000000e+000
      vertex -1.818933e+001  1.632769e+001  2.000000e+000
    endloop
  endfacet
  facet normal  9.942487e-001 -1.070958e-001  0.000000e+000
    outer loop
      vertex -1.818933e+001  1.632769e+001  2.000000e+000
      vertex -1.818933e+001  1.632769e+001  0.000000e+000
      vertex -1.806637e+001  1.746914e+001  0.000000e+000
    endloop
  endfacet
  facet normal  9.942487e-001 -1.070958e-001  0.000000e+000
    outer loop
      vertex -1.818933e+001  1.632769e+001  2.000000e+000
      vertex -1.806637e+001  1.746914e+001  0.000000e+000
      vertex -1.806637e+001  1.746914e+001  2.000000e+000
    endloop
  endfacet
  facet normal  7.787675e-001  6.273127e-001  0.000000e+000
    outer loop
      vertex -1.818933e+001  1.632769e+001  0.000000e+000
      vertex -1.746914e+001  1.543363e+001  2.000000e+000
      vertex -1.746914e+001  1.543363e+001  0.000000e+000
    endloop
  endfacet
  facet normal  1.070950e-001  9.942489e-001  -0.000000e+000
    outer loop
      vertex -1.746914e+001  1.543363e+001  0.000000e+000
      vertex -1.746914e+001  1.543363e+001  2.000000e+000
      vertex -1.632769e+001  1.531068e+001  2.000000e+000
    endloop
  endfacet
  facet normal  1.070950e-001  9.942489e-001  0.000000e+000
    outer loop
      vertex -1.746914e+001  1.543363e+001  0.000000e+000
      vertex -1.632769e+001  1.531068e+001  2.000000e+000
      vertex -1.632769e+001  1.531068e+001  0.000000e+000
    endloop
  endfacet
  facet normal -6.273122e-001  7.787679e-001  0.000000e+000
    outer loop
      vertex -1.632769e+001  1.531068e+001  0.000000e+000
      vertex -1.632769e+001  1.531068e+001  2.000000e+000
      vertex -1.543363e+001  1.603086e+001  2.000000e+000
    endloop
  endfacet
  facet normal -6.273122e-001  7.787679e-001  0.000000e+000
    outer loop
      vertex -1.632769e+001  1.531068e+001  0.000000e+000
      vertex -1.543363e+001  1.603086e+001  2.000000e+000
      vertex -1.543363e+001  1.603086e+001  0.000000e+000
    endloop
  endfacet
  facet normal -7.787679e-001 -6.273122e-001  0.000000e+000
    outer loop
      vertex -1.603086e+001  1.806637e+001  2.000000e+000
      vertex -1.531068e+001  1.717231e+001  0.000000e+000
      vertex -1.531068e+001  1.717231e+001  2.000000e+000
    endloop
  endfacet
  facet normal -9.942489e-001  1.070950e-001  0.000000e+000
    outer loop
      vertex -1.531068e+001  1.717231e+001  2.000000e+000
      vertex -1.531068e+001  1.717231e+001  0.000000e+000
      vertex -1.543363e+001  1.603086e+001  0.000000e+000
    endloop
  endfacet
  facet normal -9.942489e-001  1.070950e-001  0.000000e+000
    outer loop
      vertex -1.531068e+001  1.717231e+001  2.000000e+000
      vertex -1.543363e+001  1.603086e+001  0.000000e+000
      vertex -1.543363e+001  1.603086e+001  2.000000e+000
    endloop
  endfacet
  facet normal -7.787679e-001 -6.273122e-001  -0.000000e+000
    outer loop
      vertex -1.531068e+001  1.717231e+001  0.000000e+000
      vertex -1.603086e+001  1.806637e+001  2.000000e+000
      vertex -1.603086e+001  1.806637e+001  0.000000e+000
    endloop
  endfacet
  facet normal -1.070958e-001 -9.942487e-001  0.000000e+000
    outer loop
      vertex -1.603086e+001  1.806637e+001  0.000000e+000
      vertex -1.603086e+001  1.806637e+001  2.000000e+000
      vertex -1.717231e+001  1.818933e+001  2.000000e+000
    endloop
  endfacet
  facet normal -1.070958e-001 -9.942487e-001  -0.000000e+000
    outer loop
      vertex -1.603086e+001  1.806637e+001  0.000000e+000
      vertex -1.717231e+001  1.818933e+001  2.000000e+000
      vertex -1.717231e+001  1.818933e+001  0.000000e+000
    endloop
  endfacet
  facet normal  6.273127e-001 -7.787675e-001  0.000000e+000
    outer loop
      vertex -1.717231e+001  1.818933e+001  0.000000e+000
      vertex -1.717231e+001  1.818933e+001  2.000000e+000
      vertex -1.806637e+001  1.746914e+001  2.000000e+000
    endloop
  endfacet
  facet normal  6.273127e-001 -7.787675e-001  0.000000e+000
    outer loop
      vertex -1.717231e+001  1.818933e+001  0.000000e+000
      vertex -1.806637e+001  1.746914e+001  2.000000e+000
      vertex -1.806637e+001  1.746914e+001  0.000000e+000
    endloop
  endfacet
endsolid CATIA STL
