solid CATIA STL
  facet normal  0.000000e+000  0.000000e+000  9.999999e-001
    outer loop
      vertex  5.699437e+000 -6.648076e+000  2.000000e+000
      vertex  4.851924e+000  5.800563e+000  2.000000e+000
      vertex  5.099282e+000 -5.903022e+000  2.000000e+000
    endloop
  endfacet
  facet normal  -0.000000e+000  0.000000e+000  9.999999e-001
    outer loop
      vertex  7.500000e+000  1.000000e+001  2.000000e+000
      vertex -7.500000e+000  1.000000e+001  2.000000e+000
      vertex  4.148076e+000  8.199437e+000  2.000000e+000
    endloop
  endfacet
  facet normal  -0.000000e+000  0.000000e+000  1.000000e+000
    outer loop
      vertex  7.500000e+000  1.000000e+001  2.000000e+000
      vertex  4.148076e+000  8.199437e+000  2.000000e+000
      vertex  5.099282e+000  8.096978e+000  2.000000e+000
    endloop
  endfacet
  facet normal  -0.000000e+000  0.000000e+000  1.000000e+000
    outer loop
      vertex  7.500000e+000  1.000000e+001  2.000000e+000
      vertex  5.099282e+000  8.096978e+000  2.000000e+000
      vertex  5.699437e+000  7.351924e+000  2.000000e+000
    endloop
  endfacet
  facet normal  -0.000000e+000  0.000000e+000  1.000000e+000
    outer loop
      vertex  7.500000e+000  1.000000e+001  2.000000e+000
      vertex  5.699437e+000  7.351924e+000  2.000000e+000
      vertex  7.500000e+000 -1.000000e+001  2.000000e+000
    endloop
  endfacet
  facet normal  0.000000e+000  0.000000e+000  9.999999e-001
    outer loop
      vertex  7.500000e+000 -1.000000e+001  2.000000e+000
      vertex  5.699437e+000  7.351924e+000  2.000000e+000
      vertex  5.596978e+000  6.400718e+000  2.000000e+000
    endloop
  endfacet
  facet normal  0.000000e+000  0.000000e+000  1.000000e+000
    outer loop
      vertex  7.500000e+000 -1.000000e+001  2.000000e+000
      vertex  5.596978e+000  6.400718e+000  2.000000e+000
      vertex  4.851924e+000  5.800563e+000  2.000000e+000
    endloop
  endfacet
  facet normal  0.000000e+000  0.000000e+000  1.000000e+000
    outer loop
      vertex  7.500000e+000 -1.000000e+001  2.000000e+000
      vertex  4.851924e+000  5.800563e+000  2.000000e+000
      vertex  5.699437e+000 -6.648076e+000  2.000000e+000
    endloop
  endfacet
  facet normal  0.000000e+000  0.000000e+000  1.000000e+000
    outer loop
      vertex  7.500000e+000 -1.000000e+001  2.000000e+000
      vertex  5.699437e+000 -6.648076e+000  2.000000e+000
      vertex  5.596978e+000 -7.599282e+000  2.000000e+000
    endloop
  endfacet
  facet normal  0.000000e+000  0.000000e+000  1.000000e+000
    outer loop
      vertex  7.500000e+000 -1.000000e+001  2.000000e+000
      vertex  5.596978e+000 -7.599282e+000  2.000000e+000
      vertex  4.851924e+000 -8.199437e+000  2.000000e+000
    endloop
  endfacet
  facet normal  0.000000e+000  0.000000e+000  1.000000e+000
    outer loop
      vertex  7.500000e+000 -1.000000e+001  2.000000e+000
      vertex  4.851924e+000 -8.199437e+000  2.000000e+000
      vertex  3.900718e+000 -8.096978e+000  2.000000e+000
    endloop
  endfacet
  facet normal  0.000000e+000  0.000000e+000  1.000000e+000
    outer loop
      vertex  7.500000e+000 -1.000000e+001  2.000000e+000
      vertex  3.900718e+000 -8.096978e+000  2.000000e+000
      vertex -7.500000e+000 -1.000000e+001  2.000000e+000
    endloop
  endfacet
  facet normal  0.000000e+000  0.000000e+000  1.000000e+000
    outer loop
      vertex -7.500000e+000 -1.000000e+001  2.000000e+000
      vertex  3.900718e+000 -8.096978e+000  2.000000e+000
      vertex -4.148076e+000 -8.199437e+000  2.000000e+000
    endloop
  endfacet
  facet normal  0.000000e+000  0.000000e+000  1.000000e+000
    outer loop
      vertex -7.500000e+000 -1.000000e+001  2.000000e+000
      vertex -4.148076e+000 -8.199437e+000  2.000000e+000
      vertex -5.099282e+000 -8.096978e+000  2.000000e+000
    endloop
  endfacet
  facet normal  0.000000e+000  0.000000e+000  1.000000e+000
    outer loop
      vertex -7.500000e+000 -1.000000e+001  2.000000e+000
      vertex -5.099282e+000 -8.096978e+000  2.000000e+000
      vertex -5.699437e+000 -7.351924e+000  2.000000e+000
    endloop
  endfacet
  facet normal  0.000000e+000  -0.000000e+000  1.000000e+000
    outer loop
      vertex -7.500000e+000 -1.000000e+001  2.000000e+000
      vertex -5.699437e+000 -7.351924e+000  2.000000e+000
      vertex -5.596978e+000 -6.400718e+000  2.000000e+000
    endloop
  endfacet
  facet normal  0.000000e+000  -0.000000e+000  1.000000e+000
    outer loop
      vertex -7.500000e+000 -1.000000e+001  2.000000e+000
      vertex -5.596978e+000 -6.400718e+000  2.000000e+000
      vertex -5.099282e+000  5.903022e+000  2.000000e+000
    endloop
  endfacet
  facet normal  0.000000e+000  0.000000e+000  1.000000e+000
    outer loop
      vertex -7.500000e+000 -1.000000e+001  2.000000e+000
      vertex -5.099282e+000  5.903022e+000  2.000000e+000
      vertex -5.699437e+000  6.648076e+000  2.000000e+000
    endloop
  endfacet
  facet normal  0.000000e+000  0.000000e+000  1.000000e+000
    outer loop
      vertex -7.500000e+000  1.000000e+001  2.000000e+000
      vertex -7.500000e+000 -1.000000e+001  2.000000e+000
      vertex -5.699437e+000  6.648076e+000  2.000000e+000
    endloop
  endfacet
  facet normal  0.000000e+000  -0.000000e+000  1.000000e+000
    outer loop
      vertex -7.500000e+000  1.000000e+001  2.000000e+000
      vertex -5.699437e+000  6.648076e+000  2.000000e+000
      vertex -5.596978e+000  7.599282e+000  2.000000e+000
    endloop
  endfacet
  facet normal  0.000000e+000  -0.000000e+000  1.000000e+000
    outer loop
      vertex -7.500000e+000  1.000000e+001  2.000000e+000
      vertex -5.596978e+000  7.599282e+000  2.000000e+000
      vertex -4.851924e+000  8.199437e+000  2.000000e+000
    endloop
  endfacet
  facet normal  -0.000000e+000  -0.000000e+000  1.000000e+000
    outer loop
      vertex -7.500000e+000  1.000000e+001  2.000000e+000
      vertex -4.851924e+000  8.199437e+000  2.000000e+000
      vertex -3.900718e+000  8.096978e+000  2.000000e+000
    endloop
  endfacet
  facet normal  -0.000000e+000  -0.000000e+000  9.999999e-001
    outer loop
      vertex -7.500000e+000  1.000000e+001  2.000000e+000
      vertex -3.900718e+000  8.096978e+000  2.000000e+000
      vertex  3.403022e+000  7.599282e+000  2.000000e+000
    endloop
  endfacet
  facet normal  0.000000e+000  -0.000000e+000  1.000000e+000
    outer loop
      vertex -7.500000e+000  1.000000e+001  2.000000e+000
      vertex  3.403022e+000  7.599282e+000  2.000000e+000
      vertex  4.148076e+000  8.199437e+000  2.000000e+000
    endloop
  endfacet
  facet normal  0.000000e+000  0.000000e+000  1.000000e+000
    outer loop
      vertex  3.403022e+000 -6.400718e+000  2.000000e+000
      vertex  4.148076e+000 -5.800563e+000  2.000000e+000
      vertex -3.900718e+000 -5.903022e+000  2.000000e+000
    endloop
  endfacet
  facet normal  0.000000e+000  -0.000000e+000  1.000000e+000
    outer loop
      vertex -3.900718e+000 -5.903022e+000  2.000000e+000
      vertex  4.148076e+000 -5.800563e+000  2.000000e+000
      vertex -4.148076e+000  5.800563e+000  2.000000e+000
    endloop
  endfacet
  facet normal  0.000000e+000  0.000000e+000  1.000000e+000
    outer loop
      vertex -3.900718e+000 -5.903022e+000  2.000000e+000
      vertex -4.148076e+000  5.800563e+000  2.000000e+000
      vertex -4.851924e+000 -5.800563e+000  2.000000e+000
    endloop
  endfacet
  facet normal  0.000000e+000  -0.000000e+000  1.000000e+000
    outer loop
      vertex -4.851924e+000 -5.800563e+000  2.000000e+000
      vertex -4.148076e+000  5.800563e+000  2.000000e+000
      vertex -5.099282e+000  5.903022e+000  2.000000e+000
    endloop
  endfacet
  facet normal  0.000000e+000  0.000000e+000  1.000000e+000
    outer loop
      vertex -4.851924e+000 -5.800563e+000  2.000000e+000
      vertex -5.099282e+000  5.903022e+000  2.000000e+000
      vertex -5.596978e+000 -6.400718e+000  2.000000e+000
    endloop
  endfacet
  facet normal  0.000000e+000  0.000000e+000  1.000000e+000
    outer loop
      vertex  5.099282e+000 -5.903022e+000  2.000000e+000
      vertex  4.851924e+000  5.800563e+000  2.000000e+000
      vertex  4.148076e+000 -5.800563e+000  2.000000e+000
    endloop
  endfacet
  facet normal  0.000000e+000  -0.000000e+000  1.000000e+000
    outer loop
      vertex  4.148076e+000 -5.800563e+000  2.000000e+000
      vertex  4.851924e+000  5.800563e+000  2.000000e+000
      vertex  3.900718e+000  5.903022e+000  2.000000e+000
    endloop
  endfacet
  facet normal  0.000000e+000  0.000000e+000  1.000000e+000
    outer loop
      vertex  4.148076e+000 -5.800563e+000  2.000000e+000
      vertex  3.900718e+000  5.903022e+000  2.000000e+000
      vertex -4.148076e+000  5.800563e+000  2.000000e+000
    endloop
  endfacet
  facet normal  0.000000e+000  0.000000e+000  1.000000e+000
    outer loop
      vertex -4.148076e+000  5.800563e+000  2.000000e+000
      vertex  3.900718e+000  5.903022e+000  2.000000e+000
      vertex -3.403022e+000  6.400718e+000  2.000000e+000
    endloop
  endfacet
  facet normal  -0.000000e+000  0.000000e+000  1.000000e+000
    outer loop
      vertex -3.403022e+000  6.400718e+000  2.000000e+000
      vertex  3.900718e+000  5.903022e+000  2.000000e+000
      vertex  3.300563e+000  6.648076e+000  2.000000e+000
    endloop
  endfacet
  facet normal  0.000000e+000  0.000000e+000  1.000000e+000
    outer loop
      vertex -3.403022e+000  6.400718e+000  2.000000e+000
      vertex  3.300563e+000  6.648076e+000  2.000000e+000
      vertex -3.300563e+000  7.351924e+000  2.000000e+000
    endloop
  endfacet
  facet normal  -0.000000e+000  0.000000e+000  1.000000e+000
    outer loop
      vertex -3.300563e+000  7.351924e+000  2.000000e+000
      vertex  3.300563e+000  6.648076e+000  2.000000e+000
      vertex  3.403022e+000  7.599282e+000  2.000000e+000
    endloop
  endfacet
  facet normal  0.000000e+000  0.000000e+000  1.000000e+000
    outer loop
      vertex -3.300563e+000  7.351924e+000  2.000000e+000
      vertex  3.403022e+000  7.599282e+000  2.000000e+000
      vertex -3.900718e+000  8.096978e+000  2.000000e+000
    endloop
  endfacet
  facet normal  0.000000e+000  0.000000e+000  1.000000e+000
    outer loop
      vertex -4.148076e+000 -8.199437e+000  2.000000e+000
      vertex  3.900718e+000 -8.096978e+000  2.000000e+000
      vertex -3.403022e+000 -7.599282e+000  2.000000e+000
    endloop
  endfacet
  facet normal  -0.000000e+000  0.000000e+000  1.000000e+000
    outer loop
      vertex -3.403022e+000 -7.599282e+000  2.000000e+000
      vertex  3.900718e+000 -8.096978e+000  2.000000e+000
      vertex  3.300563e+000 -7.351924e+000  2.000000e+000
    endloop
  endfacet
  facet normal  0.000000e+000  0.000000e+000  1.000000e+000
    outer loop
      vertex -3.403022e+000 -7.599282e+000  2.000000e+000
      vertex  3.300563e+000 -7.351924e+000  2.000000e+000
      vertex -3.300563e+000 -6.648076e+000  2.000000e+000
    endloop
  endfacet
  facet normal  -0.000000e+000  0.000000e+000  1.000000e+000
    outer loop
      vertex -3.300563e+000 -6.648076e+000  2.000000e+000
      vertex  3.300563e+000 -7.351924e+000  2.000000e+000
      vertex  3.403022e+000 -6.400718e+000  2.000000e+000
    endloop
  endfacet
  facet normal  0.000000e+000  0.000000e+000  1.000000e+000
    outer loop
      vertex -3.300563e+000 -6.648076e+000  2.000000e+000
      vertex  3.403022e+000 -6.400718e+000  2.000000e+000
      vertex -3.900718e+000 -5.903022e+000  2.000000e+000
    endloop
  endfacet
  facet normal  0.000000e+000  0.000000e+000 -9.999999e-001
    outer loop
      vertex  5.099282e+000 -5.903022e+000  0.000000e+000
      vertex  4.851924e+000  5.800563e+000  0.000000e+000
      vertex  5.699437e+000 -6.648076e+000  0.000000e+000
    endloop
  endfacet
  facet normal  0.000000e+000  0.000000e+000 -1.000000e+000
    outer loop
      vertex  7.500000e+000  1.000000e+001  0.000000e+000
      vertex  7.500000e+000 -1.000000e+001  0.000000e+000
      vertex  5.699437e+000  7.351924e+000  0.000000e+000
    endloop
  endfacet
  facet normal  0.000000e+000  0.000000e+000 -1.000000e+000
    outer loop
      vertex  7.500000e+000  1.000000e+001  0.000000e+000
      vertex  5.699437e+000  7.351924e+000  0.000000e+000
      vertex  5.099282e+000  8.096978e+000  0.000000e+000
    endloop
  endfacet
  facet normal  0.000000e+000  0.000000e+000 -1.000000e+000
    outer loop
      vertex  7.500000e+000  1.000000e+001  0.000000e+000
      vertex  5.099282e+000  8.096978e+000  0.000000e+000
      vertex  4.148076e+000  8.199437e+000  0.000000e+000
    endloop
  endfacet
  facet normal  0.000000e+000  0.000000e+000 -9.999999e-001
    outer loop
      vertex  7.500000e+000  1.000000e+001  0.000000e+000
      vertex  4.148076e+000  8.199437e+000  0.000000e+000
      vertex -7.500000e+000  1.000000e+001  0.000000e+000
    endloop
  endfacet
  facet normal  0.000000e+000  0.000000e+000 -1.000000e+000
    outer loop
      vertex  7.500000e+000 -1.000000e+001  0.000000e+000
      vertex -7.500000e+000 -1.000000e+001  0.000000e+000
      vertex  3.900718e+000 -8.096978e+000  0.000000e+000
    endloop
  endfacet
  facet normal  0.000000e+000  0.000000e+000 -1.000000e+000
    outer loop
      vertex  7.500000e+000 -1.000000e+001  0.000000e+000
      vertex  3.900718e+000 -8.096978e+000  0.000000e+000
      vertex  4.851924e+000 -8.199437e+000  0.000000e+000
    endloop
  endfacet
  facet normal  0.000000e+000  0.000000e+000 -1.000000e+000
    outer loop
      vertex  7.500000e+000 -1.000000e+001  0.000000e+000
      vertex  4.851924e+000 -8.199437e+000  0.000000e+000
      vertex  5.596978e+000 -7.599282e+000  0.000000e+000
    endloop
  endfacet
  facet normal  0.000000e+000  0.000000e+000 -1.000000e+000
    outer loop
      vertex  7.500000e+000 -1.000000e+001  0.000000e+000
      vertex  5.596978e+000 -7.599282e+000  0.000000e+000
      vertex  5.699437e+000 -6.648076e+000  0.000000e+000
    endloop
  endfacet
  facet normal  0.000000e+000  0.000000e+000 -1.000000e+000
    outer loop
      vertex  7.500000e+000 -1.000000e+001  0.000000e+000
      vertex  5.699437e+000 -6.648076e+000  0.000000e+000
      vertex  4.851924e+000  5.800563e+000  0.000000e+000
    endloop
  endfacet
  facet normal  0.000000e+000  0.000000e+000 -1.000000e+000
    outer loop
      vertex  7.500000e+000 -1.000000e+001  0.000000e+000
      vertex  4.851924e+000  5.800563e+000  0.000000e+000
      vertex  5.596978e+000  6.400718e+000  0.000000e+000
    endloop
  endfacet
  facet normal  0.000000e+000  0.000000e+000 -9.999999e-001
    outer loop
      vertex  7.500000e+000 -1.000000e+001  0.000000e+000
      vertex  5.596978e+000  6.400718e+000  0.000000e+000
      vertex  5.699437e+000  7.351924e+000  0.000000e+000
    endloop
  endfacet
  facet normal  0.000000e+000  -0.000000e+000 -1.000000e+000
    outer loop
      vertex -7.500000e+000 -1.000000e+001  0.000000e+000
      vertex -5.699437e+000  6.648076e+000  0.000000e+000
      vertex -5.099282e+000  5.903022e+000  0.000000e+000
    endloop
  endfacet
  facet normal  0.000000e+000  0.000000e+000 -1.000000e+000
    outer loop
      vertex -7.500000e+000 -1.000000e+001  0.000000e+000
      vertex -5.099282e+000  5.903022e+000  0.000000e+000
      vertex -5.596978e+000 -6.400718e+000  0.000000e+000
    endloop
  endfacet
  facet normal  0.000000e+000  0.000000e+000 -1.000000e+000
    outer loop
      vertex -7.500000e+000 -1.000000e+001  0.000000e+000
      vertex -5.596978e+000 -6.400718e+000  0.000000e+000
      vertex -5.699437e+000 -7.351924e+000  0.000000e+000
    endloop
  endfacet
  facet normal  0.000000e+000  -0.000000e+000 -1.000000e+000
    outer loop
      vertex -7.500000e+000 -1.000000e+001  0.000000e+000
      vertex -5.699437e+000 -7.351924e+000  0.000000e+000
      vertex -5.099282e+000 -8.096978e+000  0.000000e+000
    endloop
  endfacet
  facet normal  0.000000e+000  -0.000000e+000 -1.000000e+000
    outer loop
      vertex -7.500000e+000 -1.000000e+001  0.000000e+000
      vertex -5.099282e+000 -8.096978e+000  0.000000e+000
      vertex -4.148076e+000 -8.199437e+000  0.000000e+000
    endloop
  endfacet
  facet normal  0.000000e+000  -0.000000e+000 -1.000000e+000
    outer loop
      vertex -7.500000e+000 -1.000000e+001  0.000000e+000
      vertex -4.148076e+000 -8.199437e+000  0.000000e+000
      vertex  3.900718e+000 -8.096978e+000  0.000000e+000
    endloop
  endfacet
  facet normal  -0.000000e+000  0.000000e+000 -1.000000e+000
    outer loop
      vertex -7.500000e+000  1.000000e+001  0.000000e+000
      vertex  4.148076e+000  8.199437e+000  0.000000e+000
      vertex  3.403022e+000  7.599282e+000  0.000000e+000
    endloop
  endfacet
  facet normal  0.000000e+000  0.000000e+000 -9.999999e-001
    outer loop
      vertex -7.500000e+000  1.000000e+001  0.000000e+000
      vertex  3.403022e+000  7.599282e+000  0.000000e+000
      vertex -3.900718e+000  8.096978e+000  0.000000e+000
    endloop
  endfacet
  facet normal  0.000000e+000  0.000000e+000 -1.000000e+000
    outer loop
      vertex -7.500000e+000  1.000000e+001  0.000000e+000
      vertex -3.900718e+000  8.096978e+000  0.000000e+000
      vertex -4.851924e+000  8.199437e+000  0.000000e+000
    endloop
  endfacet
  facet normal  -0.000000e+000  0.000000e+000 -1.000000e+000
    outer loop
      vertex -7.500000e+000  1.000000e+001  0.000000e+000
      vertex -4.851924e+000  8.199437e+000  0.000000e+000
      vertex -5.596978e+000  7.599282e+000  0.000000e+000
    endloop
  endfacet
  facet normal  -0.000000e+000  0.000000e+000 -1.000000e+000
    outer loop
      vertex -7.500000e+000  1.000000e+001  0.000000e+000
      vertex -5.596978e+000  7.599282e+000  0.000000e+000
      vertex -5.699437e+000  6.648076e+000  0.000000e+000
    endloop
  endfacet
  facet normal  -0.000000e+000  0.000000e+000 -1.000000e+000
    outer loop
      vertex -7.500000e+000  1.000000e+001  0.000000e+000
      vertex -5.699437e+000  6.648076e+000  0.000000e+000
      vertex -7.500000e+000 -1.000000e+001  0.000000e+000
    endloop
  endfacet
  facet normal  0.000000e+000  -0.000000e+000 -1.000000e+000
    outer loop
      vertex -5.596978e+000 -6.400718e+000  0.000000e+000
      vertex -5.099282e+000  5.903022e+000  0.000000e+000
      vertex -4.851924e+000 -5.800563e+000  0.000000e+000
    endloop
  endfacet
  facet normal  0.000000e+000  0.000000e+000 -1.000000e+000
    outer loop
      vertex -4.851924e+000 -5.800563e+000  0.000000e+000
      vertex -5.099282e+000  5.903022e+000  0.000000e+000
      vertex -4.148076e+000  5.800563e+000  0.000000e+000
    endloop
  endfacet
  facet normal  0.000000e+000  -0.000000e+000 -1.000000e+000
    outer loop
      vertex -4.851924e+000 -5.800563e+000  0.000000e+000
      vertex -4.148076e+000  5.800563e+000  0.000000e+000
      vertex -3.900718e+000 -5.903022e+000  0.000000e+000
    endloop
  endfacet
  facet normal  0.000000e+000  0.000000e+000 -1.000000e+000
    outer loop
      vertex -3.900718e+000 -5.903022e+000  0.000000e+000
      vertex -4.148076e+000  5.800563e+000  0.000000e+000
      vertex  4.148076e+000 -5.800563e+000  0.000000e+000
    endloop
  endfacet
  facet normal  0.000000e+000  0.000000e+000 -1.000000e+000
    outer loop
      vertex -3.900718e+000 -5.903022e+000  0.000000e+000
      vertex  4.148076e+000 -5.800563e+000  0.000000e+000
      vertex  3.403022e+000 -6.400718e+000  0.000000e+000
    endloop
  endfacet
  facet normal  0.000000e+000  -0.000000e+000 -1.000000e+000
    outer loop
      vertex -4.148076e+000  5.800563e+000  0.000000e+000
      vertex  3.900718e+000  5.903022e+000  0.000000e+000
      vertex  4.148076e+000 -5.800563e+000  0.000000e+000
    endloop
  endfacet
  facet normal  0.000000e+000  0.000000e+000 -1.000000e+000
    outer loop
      vertex  4.148076e+000 -5.800563e+000  0.000000e+000
      vertex  3.900718e+000  5.903022e+000  0.000000e+000
      vertex  4.851924e+000  5.800563e+000  0.000000e+000
    endloop
  endfacet
  facet normal  0.000000e+000  -0.000000e+000 -1.000000e+000
    outer loop
      vertex  4.148076e+000 -5.800563e+000  0.000000e+000
      vertex  4.851924e+000  5.800563e+000  0.000000e+000
      vertex  5.099282e+000 -5.903022e+000  0.000000e+000
    endloop
  endfacet
  facet normal  -0.000000e+000  0.000000e+000 -1.000000e+000
    outer loop
      vertex -3.900718e+000  8.096978e+000  0.000000e+000
      vertex  3.403022e+000  7.599282e+000  0.000000e+000
      vertex -3.300563e+000  7.351924e+000  0.000000e+000
    endloop
  endfacet
  facet normal  0.000000e+000  0.000000e+000 -1.000000e+000
    outer loop
      vertex -3.300563e+000  7.351924e+000  0.000000e+000
      vertex  3.403022e+000  7.599282e+000  0.000000e+000
      vertex  3.300563e+000  6.648076e+000  0.000000e+000
    endloop
  endfacet
  facet normal  -0.000000e+000  0.000000e+000 -1.000000e+000
    outer loop
      vertex -3.300563e+000  7.351924e+000  0.000000e+000
      vertex  3.300563e+000  6.648076e+000  0.000000e+000
      vertex -3.403022e+000  6.400718e+000  0.000000e+000
    endloop
  endfacet
  facet normal  0.000000e+000  0.000000e+000 -1.000000e+000
    outer loop
      vertex -3.403022e+000  6.400718e+000  0.000000e+000
      vertex  3.300563e+000  6.648076e+000  0.000000e+000
      vertex  3.900718e+000  5.903022e+000  0.000000e+000
    endloop
  endfacet
  facet normal  -0.000000e+000  0.000000e+000 -1.000000e+000
    outer loop
      vertex -3.403022e+000  6.400718e+000  0.000000e+000
      vertex  3.900718e+000  5.903022e+000  0.000000e+000
      vertex -4.148076e+000  5.800563e+000  0.000000e+000
    endloop
  endfacet
  facet normal  -0.000000e+000  0.000000e+000 -1.000000e+000
    outer loop
      vertex -3.900718e+000 -5.903022e+000  0.000000e+000
      vertex  3.403022e+000 -6.400718e+000  0.000000e+000
      vertex -3.300563e+000 -6.648076e+000  0.000000e+000
    endloop
  endfacet
  facet normal  0.000000e+000  0.000000e+000 -1.000000e+000
    outer loop
      vertex -3.300563e+000 -6.648076e+000  0.000000e+000
      vertex  3.403022e+000 -6.400718e+000  0.000000e+000
      vertex  3.300563e+000 -7.351924e+000  0.000000e+000
    endloop
  endfacet
  facet normal  -0.000000e+000  0.000000e+000 -1.000000e+000
    outer loop
      vertex -3.300563e+000 -6.648076e+000  0.000000e+000
      vertex  3.300563e+000 -7.351924e+000  0.000000e+000
      vertex -3.403022e+000 -7.599282e+000  0.000000e+000
    endloop
  endfacet
  facet normal  0.000000e+000  0.000000e+000 -1.000000e+000
    outer loop
      vertex -3.403022e+000 -7.599282e+000  0.000000e+000
      vertex  3.300563e+000 -7.351924e+000  0.000000e+000
      vertex  3.900718e+000 -8.096978e+000  0.000000e+000
    endloop
  endfacet
  facet normal  -0.000000e+000  0.000000e+000 -1.000000e+000
    outer loop
      vertex -3.403022e+000 -7.599282e+000  0.000000e+000
      vertex  3.900718e+000 -8.096978e+000  0.000000e+000
      vertex -4.148076e+000 -8.199437e+000  0.000000e+000
    endloop
  endfacet
  facet normal  7.787676e-001  6.273125e-001  -0.000000e+000
    outer loop
      vertex -5.099282e+000  5.903022e+000  2.000000e+000
      vertex -5.699437e+000  6.648076e+000  0.000000e+000
      vertex -5.699437e+000  6.648076e+000  2.000000e+000
    endloop
  endfacet
  facet normal  9.942488e-001 -1.070953e-001  0.000000e+000
    outer loop
      vertex -5.699437e+000  6.648076e+000  2.000000e+000
      vertex -5.699437e+000  6.648076e+000  0.000000e+000
      vertex -5.596978e+000  7.599282e+000  0.000000e+000
    endloop
  endfacet
  facet normal  9.942488e-001 -1.070953e-001  0.000000e+000
    outer loop
      vertex -5.699437e+000  6.648076e+000  2.000000e+000
      vertex -5.596978e+000  7.599282e+000  0.000000e+000
      vertex -5.596978e+000  7.599282e+000  2.000000e+000
    endloop
  endfacet
  facet normal  7.787676e-001  6.273125e-001  0.000000e+000
    outer loop
      vertex -5.699437e+000  6.648076e+000  0.000000e+000
      vertex -5.099282e+000  5.903022e+000  2.000000e+000
      vertex -5.099282e+000  5.903022e+000  0.000000e+000
    endloop
  endfacet
  facet normal  1.070953e-001  9.942488e-001  -0.000000e+000
    outer loop
      vertex -5.099282e+000  5.903022e+000  0.000000e+000
      vertex -5.099282e+000  5.903022e+000  2.000000e+000
      vertex -4.148076e+000  5.800563e+000  2.000000e+000
    endloop
  endfacet
  facet normal  1.070953e-001  9.942488e-001  0.000000e+000
    outer loop
      vertex -5.099282e+000  5.903022e+000  0.000000e+000
      vertex -4.148076e+000  5.800563e+000  2.000000e+000
      vertex -4.148076e+000  5.800563e+000  0.000000e+000
    endloop
  endfacet
  facet normal -6.273125e-001  7.787676e-001  0.000000e+000
    outer loop
      vertex -4.148076e+000  5.800563e+000  0.000000e+000
      vertex -4.148076e+000  5.800563e+000  2.000000e+000
      vertex -3.403022e+000  6.400718e+000  2.000000e+000
    endloop
  endfacet
  facet normal -6.273125e-001  7.787676e-001  0.000000e+000
    outer loop
      vertex -4.148076e+000  5.800563e+000  0.000000e+000
      vertex -3.403022e+000  6.400718e+000  2.000000e+000
      vertex -3.403022e+000  6.400718e+000  0.000000e+000
    endloop
  endfacet
  facet normal -7.787676e-001 -6.273123e-001  0.000000e+000
    outer loop
      vertex -3.900718e+000  8.096978e+000  2.000000e+000
      vertex -3.300563e+000  7.351924e+000  0.000000e+000
      vertex -3.300563e+000  7.351924e+000  2.000000e+000
    endloop
  endfacet
  facet normal -9.942488e-001  1.070953e-001  0.000000e+000
    outer loop
      vertex -3.300563e+000  7.351924e+000  2.000000e+000
      vertex -3.300563e+000  7.351924e+000  0.000000e+000
      vertex -3.403022e+000  6.400718e+000  0.000000e+000
    endloop
  endfacet
  facet normal -9.942488e-001  1.070953e-001  0.000000e+000
    outer loop
      vertex -3.300563e+000  7.351924e+000  2.000000e+000
      vertex -3.403022e+000  6.400718e+000  0.000000e+000
      vertex -3.403022e+000  6.400718e+000  2.000000e+000
    endloop
  endfacet
  facet normal -7.787676e-001 -6.273123e-001  -0.000000e+000
    outer loop
      vertex -3.300563e+000  7.351924e+000  0.000000e+000
      vertex -3.900718e+000  8.096978e+000  2.000000e+000
      vertex -3.900718e+000  8.096978e+000  0.000000e+000
    endloop
  endfacet
  facet normal -1.070952e-001 -9.942487e-001  0.000000e+000
    outer loop
      vertex -3.900718e+000  8.096978e+000  0.000000e+000
      vertex -3.900718e+000  8.096978e+000  2.000000e+000
      vertex -4.851924e+000  8.199437e+000  2.000000e+000
    endloop
  endfacet
  facet normal -1.070952e-001 -9.942487e-001  -0.000000e+000
    outer loop
      vertex -3.900718e+000  8.096978e+000  0.000000e+000
      vertex -4.851924e+000  8.199437e+000  2.000000e+000
      vertex -4.851924e+000  8.199437e+000  0.000000e+000
    endloop
  endfacet
  facet normal  6.273125e-001 -7.787676e-001  0.000000e+000
    outer loop
      vertex -4.851924e+000  8.199437e+000  0.000000e+000
      vertex -4.851924e+000  8.199437e+000  2.000000e+000
      vertex -5.596978e+000  7.599282e+000  2.000000e+000
    endloop
  endfacet
  facet normal  6.273125e-001 -7.787676e-001  0.000000e+000
    outer loop
      vertex -4.851924e+000  8.199437e+000  0.000000e+000
      vertex -5.596978e+000  7.599282e+000  2.000000e+000
      vertex -5.596978e+000  7.599282e+000  0.000000e+000
    endloop
  endfacet
  facet normal  7.787676e-001  6.273123e-001  -0.000000e+000
    outer loop
      vertex  3.900718e+000  5.903022e+000  2.000000e+000
      vertex  3.300563e+000  6.648076e+000  0.000000e+000
      vertex  3.300563e+000  6.648076e+000  2.000000e+000
    endloop
  endfacet
  facet normal  9.942488e-001 -1.070953e-001  0.000000e+000
    outer loop
      vertex  3.300563e+000  6.648076e+000  2.000000e+000
      vertex  3.300563e+000  6.648076e+000  0.000000e+000
      vertex  3.403022e+000  7.599282e+000  0.000000e+000
    endloop
  endfacet
  facet normal  9.942488e-001 -1.070953e-001  0.000000e+000
    outer loop
      vertex  3.300563e+000  6.648076e+000  2.000000e+000
      vertex  3.403022e+000  7.599282e+000  0.000000e+000
      vertex  3.403022e+000  7.599282e+000  2.000000e+000
    endloop
  endfacet
  facet normal  7.787676e-001  6.273123e-001  0.000000e+000
    outer loop
      vertex  3.300563e+000  6.648076e+000  0.000000e+000
      vertex  3.900718e+000  5.903022e+000  2.000000e+000
      vertex  3.900718e+000  5.903022e+000  0.000000e+000
    endloop
  endfacet
  facet normal  1.070952e-001  9.942487e-001  -0.000000e+000
    outer loop
      vertex  3.900718e+000  5.903022e+000  0.000000e+000
      vertex  3.900718e+000  5.903022e+000  2.000000e+000
      vertex  4.851924e+000  5.800563e+000  2.000000e+000
    endloop
  endfacet
  facet normal  1.070952e-001  9.942487e-001  0.000000e+000
    outer loop
      vertex  3.900718e+000  5.903022e+000  0.000000e+000
      vertex  4.851924e+000  5.800563e+000  2.000000e+000
      vertex  4.851924e+000  5.800563e+000  0.000000e+000
    endloop
  endfacet
  facet normal -6.273125e-001  7.787676e-001  0.000000e+000
    outer loop
      vertex  4.851924e+000  5.800563e+000  0.000000e+000
      vertex  4.851924e+000  5.800563e+000  2.000000e+000
      vertex  5.596978e+000  6.400718e+000  2.000000e+000
    endloop
  endfacet
  facet normal -6.273125e-001  7.787676e-001  0.000000e+000
    outer loop
      vertex  4.851924e+000  5.800563e+000  0.000000e+000
      vertex  5.596978e+000  6.400718e+000  2.000000e+000
      vertex  5.596978e+000  6.400718e+000  0.000000e+000
    endloop
  endfacet
  facet normal -7.787676e-001 -6.273125e-001  0.000000e+000
    outer loop
      vertex  5.099282e+000  8.096978e+000  2.000000e+000
      vertex  5.699437e+000  7.351924e+000  0.000000e+000
      vertex  5.699437e+000  7.351924e+000  2.000000e+000
    endloop
  endfacet
  facet normal -9.942488e-001  1.070953e-001  0.000000e+000
    outer loop
      vertex  5.699437e+000  7.351924e+000  2.000000e+000
      vertex  5.699437e+000  7.351924e+000  0.000000e+000
      vertex  5.596978e+000  6.400718e+000  0.000000e+000
    endloop
  endfacet
  facet normal -9.942488e-001  1.070953e-001  0.000000e+000
    outer loop
      vertex  5.699437e+000  7.351924e+000  2.000000e+000
      vertex  5.596978e+000  6.400718e+000  0.000000e+000
      vertex  5.596978e+000  6.400718e+000  2.000000e+000
    endloop
  endfacet
  facet normal -7.787676e-001 -6.273125e-001  -0.000000e+000
    outer loop
      vertex  5.699437e+000  7.351924e+000  0.000000e+000
      vertex  5.099282e+000  8.096978e+000  2.000000e+000
      vertex  5.099282e+000  8.096978e+000  0.000000e+000
    endloop
  endfacet
  facet normal -1.070953e-001 -9.942488e-001  0.000000e+000
    outer loop
      vertex  5.099282e+000  8.096978e+000  0.000000e+000
      vertex  5.099282e+000  8.096978e+000  2.000000e+000
      vertex  4.148076e+000  8.199437e+000  2.000000e+000
    endloop
  endfacet
  facet normal -1.070953e-001 -9.942488e-001  -0.000000e+000
    outer loop
      vertex  5.099282e+000  8.096978e+000  0.000000e+000
      vertex  4.148076e+000  8.199437e+000  2.000000e+000
      vertex  4.148076e+000  8.199437e+000  0.000000e+000
    endloop
  endfacet
  facet normal  6.273125e-001 -7.787676e-001  0.000000e+000
    outer loop
      vertex  4.148076e+000  8.199437e+000  0.000000e+000
      vertex  4.148076e+000  8.199437e+000  2.000000e+000
      vertex  3.403022e+000  7.599282e+000  2.000000e+000
    endloop
  endfacet
  facet normal  6.273125e-001 -7.787676e-001  0.000000e+000
    outer loop
      vertex  4.148076e+000  8.199437e+000  0.000000e+000
      vertex  3.403022e+000  7.599282e+000  2.000000e+000
      vertex  3.403022e+000  7.599282e+000  0.000000e+000
    endloop
  endfacet
  facet normal  7.787676e-001  6.273125e-001  -0.000000e+000
    outer loop
      vertex -5.099282e+000 -8.096978e+000  2.000000e+000
      vertex -5.699437e+000 -7.351924e+000  0.000000e+000
      vertex -5.699437e+000 -7.351924e+000  2.000000e+000
    endloop
  endfacet
  facet normal  9.942488e-001 -1.070953e-001  0.000000e+000
    outer loop
      vertex -5.699437e+000 -7.351924e+000  2.000000e+000
      vertex -5.699437e+000 -7.351924e+000  0.000000e+000
      vertex -5.596978e+000 -6.400718e+000  0.000000e+000
    endloop
  endfacet
  facet normal  9.942488e-001 -1.070953e-001  0.000000e+000
    outer loop
      vertex -5.699437e+000 -7.351924e+000  2.000000e+000
      vertex -5.596978e+000 -6.400718e+000  0.000000e+000
      vertex -5.596978e+000 -6.400718e+000  2.000000e+000
    endloop
  endfacet
  facet normal  7.787676e-001  6.273125e-001  0.000000e+000
    outer loop
      vertex -5.699437e+000 -7.351924e+000  0.000000e+000
      vertex -5.099282e+000 -8.096978e+000  2.000000e+000
      vertex -5.099282e+000 -8.096978e+000  0.000000e+000
    endloop
  endfacet
  facet normal  1.070953e-001  9.942488e-001  -0.000000e+000
    outer loop
      vertex -5.099282e+000 -8.096978e+000  0.000000e+000
      vertex -5.099282e+000 -8.096978e+000  2.000000e+000
      vertex -4.148076e+000 -8.199437e+000  2.000000e+000
    endloop
  endfacet
  facet normal  1.070953e-001  9.942488e-001  0.000000e+000
    outer loop
      vertex -5.099282e+000 -8.096978e+000  0.000000e+000
      vertex -4.148076e+000 -8.199437e+000  2.000000e+000
      vertex -4.148076e+000 -8.199437e+000  0.000000e+000
    endloop
  endfacet
  facet normal -6.273125e-001  7.787676e-001  0.000000e+000
    outer loop
      vertex -4.148076e+000 -8.199437e+000  0.000000e+000
      vertex -4.148076e+000 -8.199437e+000  2.000000e+000
      vertex -3.403022e+000 -7.599282e+000  2.000000e+000
    endloop
  endfacet
  facet normal -6.273125e-001  7.787676e-001  0.000000e+000
    outer loop
      vertex -4.148076e+000 -8.199437e+000  0.000000e+000
      vertex -3.403022e+000 -7.599282e+000  2.000000e+000
      vertex -3.403022e+000 -7.599282e+000  0.000000e+000
    endloop
  endfacet
  facet normal -7.787676e-001 -6.273123e-001  0.000000e+000
    outer loop
      vertex -3.900718e+000 -5.903022e+000  2.000000e+000
      vertex -3.300563e+000 -6.648076e+000  0.000000e+000
      vertex -3.300563e+000 -6.648076e+000  2.000000e+000
    endloop
  endfacet
  facet normal -9.942488e-001  1.070953e-001  0.000000e+000
    outer loop
      vertex -3.300563e+000 -6.648076e+000  2.000000e+000
      vertex -3.300563e+000 -6.648076e+000  0.000000e+000
      vertex -3.403022e+000 -7.599282e+000  0.000000e+000
    endloop
  endfacet
  facet normal -9.942488e-001  1.070953e-001  0.000000e+000
    outer loop
      vertex -3.300563e+000 -6.648076e+000  2.000000e+000
      vertex -3.403022e+000 -7.599282e+000  0.000000e+000
      vertex -3.403022e+000 -7.599282e+000  2.000000e+000
    endloop
  endfacet
  facet normal -7.787676e-001 -6.273123e-001  -0.000000e+000
    outer loop
      vertex -3.300563e+000 -6.648076e+000  0.000000e+000
      vertex -3.900718e+000 -5.903022e+000  2.000000e+000
      vertex -3.900718e+000 -5.903022e+000  0.000000e+000
    endloop
  endfacet
  facet normal -1.070952e-001 -9.942487e-001  0.000000e+000
    outer loop
      vertex -3.900718e+000 -5.903022e+000  0.000000e+000
      vertex -3.900718e+000 -5.903022e+000  2.000000e+000
      vertex -4.851924e+000 -5.800563e+000  2.000000e+000
    endloop
  endfacet
  facet normal -1.070952e-001 -9.942487e-001  -0.000000e+000
    outer loop
      vertex -3.900718e+000 -5.903022e+000  0.000000e+000
      vertex -4.851924e+000 -5.800563e+000  2.000000e+000
      vertex -4.851924e+000 -5.800563e+000  0.000000e+000
    endloop
  endfacet
  facet normal  6.273125e-001 -7.787676e-001  0.000000e+000
    outer loop
      vertex -4.851924e+000 -5.800563e+000  0.000000e+000
      vertex -4.851924e+000 -5.800563e+000  2.000000e+000
      vertex -5.596978e+000 -6.400718e+000  2.000000e+000
    endloop
  endfacet
  facet normal  6.273125e-001 -7.787676e-001  0.000000e+000
    outer loop
      vertex -4.851924e+000 -5.800563e+000  0.000000e+000
      vertex -5.596978e+000 -6.400718e+000  2.000000e+000
      vertex -5.596978e+000 -6.400718e+000  0.000000e+000
    endloop
  endfacet
  facet normal  7.787676e-001  6.273123e-001  -0.000000e+000
    outer loop
      vertex  3.900718e+000 -8.096978e+000  2.000000e+000
      vertex  3.300563e+000 -7.351924e+000  0.000000e+000
      vertex  3.300563e+000 -7.351924e+000  2.000000e+000
    endloop
  endfacet
  facet normal  9.942488e-001 -1.070953e-001  0.000000e+000
    outer loop
      vertex  3.300563e+000 -7.351924e+000  2.000000e+000
      vertex  3.300563e+000 -7.351924e+000  0.000000e+000
      vertex  3.403022e+000 -6.400718e+000  0.000000e+000
    endloop
  endfacet
  facet normal  9.942488e-001 -1.070953e-001  0.000000e+000
    outer loop
      vertex  3.300563e+000 -7.351924e+000  2.000000e+000
      vertex  3.403022e+000 -6.400718e+000  0.000000e+000
      vertex  3.403022e+000 -6.400718e+000  2.000000e+000
    endloop
  endfacet
  facet normal  7.787676e-001  6.273123e-001  0.000000e+000
    outer loop
      vertex  3.300563e+000 -7.351924e+000  0.000000e+000
      vertex  3.900718e+000 -8.096978e+000  2.000000e+000
      vertex  3.900718e+000 -8.096978e+000  0.000000e+000
    endloop
  endfacet
  facet normal  1.070952e-001  9.942487e-001  -0.000000e+000
    outer loop
      vertex  3.900718e+000 -8.096978e+000  0.000000e+000
      vertex  3.900718e+000 -8.096978e+000  2.000000e+000
      vertex  4.851924e+000 -8.199437e+000  2.000000e+000
    endloop
  endfacet
  facet normal  1.070952e-001  9.942487e-001  0.000000e+000
    outer loop
      vertex  3.900718e+000 -8.096978e+000  0.000000e+000
      vertex  4.851924e+000 -8.199437e+000  2.000000e+000
      vertex  4.851924e+000 -8.199437e+000  0.000000e+000
    endloop
  endfacet
  facet normal -6.273125e-001  7.787676e-001  0.000000e+000
    outer loop
      vertex  4.851924e+000 -8.199437e+000  0.000000e+000
      vertex  4.851924e+000 -8.199437e+000  2.000000e+000
      vertex  5.596978e+000 -7.599282e+000  2.000000e+000
    endloop
  endfacet
  facet normal -6.273125e-001  7.787676e-001  0.000000e+000
    outer loop
      vertex  4.851924e+000 -8.199437e+000  0.000000e+000
      vertex  5.596978e+000 -7.599282e+000  2.000000e+000
      vertex  5.596978e+000 -7.599282e+000  0.000000e+000
    endloop
  endfacet
  facet normal -7.787676e-001 -6.273125e-001  0.000000e+000
    outer loop
      vertex  5.099282e+000 -5.903022e+000  2.000000e+000
      vertex  5.699437e+000 -6.648076e+000  0.000000e+000
      vertex  5.699437e+000 -6.648076e+000  2.000000e+000
    endloop
  endfacet
  facet normal -9.942488e-001  1.070953e-001  0.000000e+000
    outer loop
      vertex  5.699437e+000 -6.648076e+000  2.000000e+000
      vertex  5.699437e+000 -6.648076e+000  0.000000e+000
      vertex  5.596978e+000 -7.599282e+000  0.000000e+000
    endloop
  endfacet
  facet normal -9.942488e-001  1.070953e-001  0.000000e+000
    outer loop
      vertex  5.699437e+000 -6.648076e+000  2.000000e+000
      vertex  5.596978e+000 -7.599282e+000  0.000000e+000
      vertex  5.596978e+000 -7.599282e+000  2.000000e+000
    endloop
  endfacet
  facet normal -7.787676e-001 -6.273125e-001  -0.000000e+000
    outer loop
      vertex  5.699437e+000 -6.648076e+000  0.000000e+000
      vertex  5.099282e+000 -5.903022e+000  2.000000e+000
      vertex  5.099282e+000 -5.903022e+000  0.000000e+000
    endloop
  endfacet
  facet normal -1.070953e-001 -9.942488e-001  0.000000e+000
    outer loop
      vertex  5.099282e+000 -5.903022e+000  0.000000e+000
      vertex  5.099282e+000 -5.903022e+000  2.000000e+000
      vertex  4.148076e+000 -5.800563e+000  2.000000e+000
    endloop
  endfacet
  facet normal -1.070953e-001 -9.942488e-001  -0.000000e+000
    outer loop
      vertex  5.099282e+000 -5.903022e+000  0.000000e+000
      vertex  4.148076e+000 -5.800563e+000  2.000000e+000
      vertex  4.148076e+000 -5.800563e+000  0.000000e+000
    endloop
  endfacet
  facet normal  6.273125e-001 -7.787676e-001  0.000000e+000
    outer loop
      vertex  4.148076e+000 -5.800563e+000  0.000000e+000
      vertex  4.148076e+000 -5.800563e+000  2.000000e+000
      vertex  3.403022e+000 -6.400718e+000  2.000000e+000
    endloop
  endfacet
  facet normal  6.273125e-001 -7.787676e-001  0.000000e+000
    outer loop
      vertex  4.148076e+000 -5.800563e+000  0.000000e+000
      vertex  3.403022e+000 -6.400718e+000  2.000000e+000
      vertex  3.403022e+000 -6.400718e+000  0.000000e+000
    endloop
  endfacet
  facet normal  1.000000e+000  -0.000000e+000  0.000000e+000
    outer loop
      vertex  7.500000e+000  1.000000e+001  2.000000e+000
      vertex  7.500000e+000 -1.000000e+001  2.000000e+000
      vertex  7.500000e+000  1.000000e+001  0.000000e+000
    endloop
  endfacet
  facet normal  1.000000e+000  0.000000e+000  0.000000e+000
    outer loop
      vertex  7.500000e+000  1.000000e+001  0.000000e+000
      vertex  7.500000e+000 -1.000000e+001  2.000000e+000
      vertex  7.500000e+000 -1.000000e+001  0.000000e+000
    endloop
  endfacet
  facet normal  0.000000e+000 -1.000000e+000  0.000000e+000
    outer loop
      vertex  7.500000e+000 -1.000000e+001  2.000000e+000
      vertex -7.500000e+000 -1.000000e+001  2.000000e+000
      vertex  7.500000e+000 -1.000000e+001  0.000000e+000
    endloop
  endfacet
  facet normal  0.000000e+000 -1.000000e+000  0.000000e+000
    outer loop
      vertex  7.500000e+000 -1.000000e+001  0.000000e+000
      vertex -7.500000e+000 -1.000000e+001  2.000000e+000
      vertex -7.500000e+000 -1.000000e+001  0.000000e+000
    endloop
  endfacet
  facet normal -1.000000e+000  -0.000000e+000  0.000000e+000
    outer loop
      vertex -7.500000e+000 -1.000000e+001  2.000000e+000
      vertex -7.500000e+000  1.000000e+001  2.000000e+000
      vertex -7.500000e+000 -1.000000e+001  0.000000e+000
    endloop
  endfacet
  facet normal -1.000000e+000  0.000000e+000  0.000000e+000
    outer loop
      vertex -7.500000e+000 -1.000000e+001  0.000000e+000
      vertex -7.500000e+000  1.000000e+001  2.000000e+000
      vertex -7.500000e+000  1.000000e+001  0.000000e+000
    endloop
  endfacet
  facet normal  0.000000e+000  1.000000e+000  0.000000e+000
    outer loop
      vertex -7.500000e+000  1.000000e+001  2.000000e+000
      vertex  7.500000e+000  1.000000e+001  2.000000e+000
      vertex -7.500000e+000  1.000000e+001  0.000000e+000
    endloop
  endfacet
  facet normal  0.000000e+000  1.000000e+000  0.000000e+000
    outer loop
      vertex -7.500000e+000  1.000000e+001  0.000000e+000
      vertex  7.500000e+000  1.000000e+001  2.000000e+000
      vertex  7.500000e+000  1.000000e+001  0.000000e+000
    endloop
  endfacet
endsolid CATIA STL
