solid CATIA STL
  facet normal  -0.000000e+000  0.000000e+000  1.000000e+000
    outer loop
      vertex  7.500000e+000  1.000000e+001  2.000000e+000
      vertex  5.099282e+000  8.096978e+000  2.000000e+000
      vertex  5.699437e+000  7.351924e+000  2.000000e+000
    endloop
  endfacet
  facet normal  0.000000e+000  0.000000e+000  1.000000e+000
    outer loop
      vertex -3.300563e+000 -6.648076e+000  2.000000e+000
      vertex -4.148076e+000  5.800563e+000  2.000000e+000
      vertex -3.900718e+000 -5.903022e+000  2.000000e+000
    endloop
  endfacet
  facet normal  0.000000e+000  0.000000e+000  9.999999e-001
    outer loop
      vertex  5.699437e+000 -6.648076e+000  2.000000e+000
      vertex  4.851924e+000  5.800563e+000  2.000000e+000
      vertex  5.099282e+000 -5.903022e+000  2.000000e+000
    endloop
  endfacet
  facet normal  0.000000e+000  0.000000e+000  1.000000e+000
    outer loop
      vertex  1.600000e+000 -1.000000e+001  2.000000e+000
      vertex  7.500000e+000 -1.000000e+001  2.000000e+000
      vertex  4.851924e+000 -8.199437e+000  2.000000e+000
    endloop
  endfacet
  facet normal  0.000000e+000  0.000000e+000  1.000000e+000
    outer loop
      vertex  1.600000e+000 -1.000000e+001  2.000000e+000
      vertex  4.851924e+000 -8.199437e+000  2.000000e+000
      vertex  3.900718e+000 -8.096978e+000  2.000000e+000
    endloop
  endfacet
  facet normal  0.000000e+000  0.000000e+000  1.000000e+000
    outer loop
      vertex  1.600000e+000 -1.000000e+001  2.000000e+000
      vertex  3.900718e+000 -8.096978e+000  2.000000e+000
      vertex  3.300563e+000 -7.351924e+000  2.000000e+000
    endloop
  endfacet
  facet normal  0.000000e+000  -0.000000e+000  9.999999e-001
    outer loop
      vertex  1.600000e+000 -1.000000e+001  2.000000e+000
      vertex  3.300563e+000 -7.351924e+000  2.000000e+000
      vertex  3.403022e+000 -6.400718e+000  2.000000e+000
    endloop
  endfacet
  facet normal  0.000000e+000  -0.000000e+000  1.000000e+000
    outer loop
      vertex  1.600000e+000 -1.000000e+001  2.000000e+000
      vertex  3.403022e+000 -6.400718e+000  2.000000e+000
      vertex  3.900718e+000  5.903022e+000  2.000000e+000
    endloop
  endfacet
  facet normal  0.000000e+000  0.000000e+000  1.000000e+000
    outer loop
      vertex  1.600000e+000 -1.000000e+001  2.000000e+000
      vertex  3.900718e+000  5.903022e+000  2.000000e+000
      vertex  3.300563e+000  6.648076e+000  2.000000e+000
    endloop
  endfacet
  facet normal  0.000000e+000  0.000000e+000  1.000000e+000
    outer loop
      vertex -1.600000e+000  8.000000e+000  2.000000e+000
      vertex  1.600000e+000  8.000000e+000  2.000000e+000
      vertex -3.900718e+000  8.096978e+000  2.000000e+000
    endloop
  endfacet
  facet normal  0.000000e+000  0.000000e+000  1.000000e+000
    outer loop
      vertex -1.600000e+000  8.000000e+000  2.000000e+000
      vertex -3.900718e+000  8.096978e+000  2.000000e+000
      vertex -3.300563e+000  7.351924e+000  2.000000e+000
    endloop
  endfacet
  facet normal  -0.000000e+000  0.000000e+000  1.000000e+000
    outer loop
      vertex -1.600000e+000  8.000000e+000  2.000000e+000
      vertex -3.300563e+000  7.351924e+000  2.000000e+000
      vertex -1.600000e+000 -1.000000e+001  2.000000e+000
    endloop
  endfacet
  facet normal  0.000000e+000  0.000000e+000  1.000000e+000
    outer loop
      vertex -1.600000e+000 -1.000000e+001  2.000000e+000
      vertex -3.300563e+000  7.351924e+000  2.000000e+000
      vertex -3.403022e+000  6.400718e+000  2.000000e+000
    endloop
  endfacet
  facet normal  0.000000e+000  0.000000e+000  1.000000e+000
    outer loop
      vertex -1.600000e+000 -1.000000e+001  2.000000e+000
      vertex -3.403022e+000  6.400718e+000  2.000000e+000
      vertex -4.148076e+000  5.800563e+000  2.000000e+000
    endloop
  endfacet
  facet normal  0.000000e+000  0.000000e+000  1.000000e+000
    outer loop
      vertex -1.600000e+000 -1.000000e+001  2.000000e+000
      vertex -4.148076e+000  5.800563e+000  2.000000e+000
      vertex -3.300563e+000 -6.648076e+000  2.000000e+000
    endloop
  endfacet
  facet normal  0.000000e+000  0.000000e+000  1.000000e+000
    outer loop
      vertex -1.600000e+000 -1.000000e+001  2.000000e+000
      vertex -3.300563e+000 -6.648076e+000  2.000000e+000
      vertex -3.403022e+000 -7.599282e+000  2.000000e+000
    endloop
  endfacet
  facet normal  0.000000e+000  0.000000e+000  9.999999e-001
    outer loop
      vertex -1.600000e+000 -1.000000e+001  2.000000e+000
      vertex -3.403022e+000 -7.599282e+000  2.000000e+000
      vertex -4.148076e+000 -8.199437e+000  2.000000e+000
    endloop
  endfacet
  facet normal  0.000000e+000  0.000000e+000  1.000000e+000
    outer loop
      vertex -1.600000e+000 -1.000000e+001  2.000000e+000
      vertex -4.148076e+000 -8.199437e+000  2.000000e+000
      vertex -5.099282e+000 -8.096978e+000  2.000000e+000
    endloop
  endfacet
  facet normal  0.000000e+000  0.000000e+000  1.000000e+000
    outer loop
      vertex -1.600000e+000 -1.000000e+001  2.000000e+000
      vertex -5.099282e+000 -8.096978e+000  2.000000e+000
      vertex -7.500000e+000 -1.000000e+001  2.000000e+000
    endloop
  endfacet
  facet normal  0.000000e+000  0.000000e+000  1.000000e+000
    outer loop
      vertex -7.500000e+000 -1.000000e+001  2.000000e+000
      vertex -5.099282e+000 -8.096978e+000  2.000000e+000
      vertex -5.699437e+000 -7.351924e+000  2.000000e+000
    endloop
  endfacet
  facet normal  0.000000e+000  -0.000000e+000  1.000000e+000
    outer loop
      vertex -7.500000e+000 -1.000000e+001  2.000000e+000
      vertex -5.699437e+000 -7.351924e+000  2.000000e+000
      vertex -5.596978e+000 -6.400718e+000  2.000000e+000
    endloop
  endfacet
  facet normal  0.000000e+000  -0.000000e+000  1.000000e+000
    outer loop
      vertex -7.500000e+000 -1.000000e+001  2.000000e+000
      vertex -5.596978e+000 -6.400718e+000  2.000000e+000
      vertex -5.099282e+000  5.903022e+000  2.000000e+000
    endloop
  endfacet
  facet normal  0.000000e+000  0.000000e+000  1.000000e+000
    outer loop
      vertex -7.500000e+000 -1.000000e+001  2.000000e+000
      vertex -5.099282e+000  5.903022e+000  2.000000e+000
      vertex -5.699437e+000  6.648076e+000  2.000000e+000
    endloop
  endfacet
  facet normal  0.000000e+000  0.000000e+000  1.000000e+000
    outer loop
      vertex -7.500000e+000  1.000000e+001  2.000000e+000
      vertex -7.500000e+000 -1.000000e+001  2.000000e+000
      vertex -5.699437e+000  6.648076e+000  2.000000e+000
    endloop
  endfacet
  facet normal  0.000000e+000  -0.000000e+000  1.000000e+000
    outer loop
      vertex -7.500000e+000  1.000000e+001  2.000000e+000
      vertex -5.699437e+000  6.648076e+000  2.000000e+000
      vertex -5.596978e+000  7.599282e+000  2.000000e+000
    endloop
  endfacet
  facet normal  0.000000e+000  -0.000000e+000  1.000000e+000
    outer loop
      vertex -7.500000e+000  1.000000e+001  2.000000e+000
      vertex -5.596978e+000  7.599282e+000  2.000000e+000
      vertex -4.851924e+000  8.199437e+000  2.000000e+000
    endloop
  endfacet
  facet normal  -0.000000e+000  -0.000000e+000  1.000000e+000
    outer loop
      vertex -7.500000e+000  1.000000e+001  2.000000e+000
      vertex -4.851924e+000  8.199437e+000  2.000000e+000
      vertex -3.900718e+000  8.096978e+000  2.000000e+000
    endloop
  endfacet
  facet normal  -0.000000e+000  -0.000000e+000  1.000000e+000
    outer loop
      vertex -7.500000e+000  1.000000e+001  2.000000e+000
      vertex -3.900718e+000  8.096978e+000  2.000000e+000
      vertex  1.600000e+000  8.000000e+000  2.000000e+000
    endloop
  endfacet
  facet normal  0.000000e+000  -0.000000e+000  1.000000e+000
    outer loop
      vertex -7.500000e+000  1.000000e+001  2.000000e+000
      vertex  1.600000e+000  8.000000e+000  2.000000e+000
      vertex  4.148076e+000  8.199437e+000  2.000000e+000
    endloop
  endfacet
  facet normal  -0.000000e+000  -0.000000e+000  1.000000e+000
    outer loop
      vertex -7.500000e+000  1.000000e+001  2.000000e+000
      vertex  4.148076e+000  8.199437e+000  2.000000e+000
      vertex  5.099282e+000  8.096978e+000  2.000000e+000
    endloop
  endfacet
  facet normal  0.000000e+000  -0.000000e+000  1.000000e+000
    outer loop
      vertex -7.500000e+000  1.000000e+001  2.000000e+000
      vertex  5.099282e+000  8.096978e+000  2.000000e+000
      vertex  7.500000e+000  1.000000e+001  2.000000e+000
    endloop
  endfacet
  facet normal  0.000000e+000  0.000000e+000  1.000000e+000
    outer loop
      vertex  7.500000e+000 -1.000000e+001  2.000000e+000
      vertex  7.500000e+000  1.000000e+001  2.000000e+000
      vertex  5.699437e+000  7.351924e+000  2.000000e+000
    endloop
  endfacet
  facet normal  0.000000e+000  0.000000e+000  9.999999e-001
    outer loop
      vertex  7.500000e+000 -1.000000e+001  2.000000e+000
      vertex  5.699437e+000  7.351924e+000  2.000000e+000
      vertex  5.596978e+000  6.400718e+000  2.000000e+000
    endloop
  endfacet
  facet normal  0.000000e+000  0.000000e+000  1.000000e+000
    outer loop
      vertex  7.500000e+000 -1.000000e+001  2.000000e+000
      vertex  5.596978e+000  6.400718e+000  2.000000e+000
      vertex  4.851924e+000  5.800563e+000  2.000000e+000
    endloop
  endfacet
  facet normal  0.000000e+000  0.000000e+000  1.000000e+000
    outer loop
      vertex  7.500000e+000 -1.000000e+001  2.000000e+000
      vertex  4.851924e+000  5.800563e+000  2.000000e+000
      vertex  5.699437e+000 -6.648076e+000  2.000000e+000
    endloop
  endfacet
  facet normal  0.000000e+000  0.000000e+000  1.000000e+000
    outer loop
      vertex  7.500000e+000 -1.000000e+001  2.000000e+000
      vertex  5.699437e+000 -6.648076e+000  2.000000e+000
      vertex  5.596978e+000 -7.599282e+000  2.000000e+000
    endloop
  endfacet
  facet normal  0.000000e+000  0.000000e+000  1.000000e+000
    outer loop
      vertex  7.500000e+000 -1.000000e+001  2.000000e+000
      vertex  5.596978e+000 -7.599282e+000  2.000000e+000
      vertex  4.851924e+000 -8.199437e+000  2.000000e+000
    endloop
  endfacet
  facet normal  0.000000e+000  0.000000e+000  9.999999e-001
    outer loop
      vertex  1.600000e+000  8.000000e+000  2.000000e+000
      vertex  1.600000e+000 -1.000000e+001  2.000000e+000
      vertex  3.300563e+000  6.648076e+000  2.000000e+000
    endloop
  endfacet
  facet normal  0.000000e+000  -0.000000e+000  1.000000e+000
    outer loop
      vertex  1.600000e+000  8.000000e+000  2.000000e+000
      vertex  3.300563e+000  6.648076e+000  2.000000e+000
      vertex  3.403022e+000  7.599282e+000  2.000000e+000
    endloop
  endfacet
  facet normal  0.000000e+000  -0.000000e+000  1.000000e+000
    outer loop
      vertex  1.600000e+000  8.000000e+000  2.000000e+000
      vertex  3.403022e+000  7.599282e+000  2.000000e+000
      vertex  4.148076e+000  8.199437e+000  2.000000e+000
    endloop
  endfacet
  facet normal  0.000000e+000  0.000000e+000  1.000000e+000
    outer loop
      vertex -3.900718e+000 -5.903022e+000  2.000000e+000
      vertex -4.148076e+000  5.800563e+000  2.000000e+000
      vertex -4.851924e+000 -5.800563e+000  2.000000e+000
    endloop
  endfacet
  facet normal  0.000000e+000  -0.000000e+000  1.000000e+000
    outer loop
      vertex -4.851924e+000 -5.800563e+000  2.000000e+000
      vertex -4.148076e+000  5.800563e+000  2.000000e+000
      vertex -5.099282e+000  5.903022e+000  2.000000e+000
    endloop
  endfacet
  facet normal  0.000000e+000  0.000000e+000  1.000000e+000
    outer loop
      vertex -4.851924e+000 -5.800563e+000  2.000000e+000
      vertex -5.099282e+000  5.903022e+000  2.000000e+000
      vertex -5.596978e+000 -6.400718e+000  2.000000e+000
    endloop
  endfacet
  facet normal  0.000000e+000  0.000000e+000  1.000000e+000
    outer loop
      vertex  5.099282e+000 -5.903022e+000  2.000000e+000
      vertex  4.851924e+000  5.800563e+000  2.000000e+000
      vertex  4.148076e+000 -5.800563e+000  2.000000e+000
    endloop
  endfacet
  facet normal  0.000000e+000  -0.000000e+000  1.000000e+000
    outer loop
      vertex  4.148076e+000 -5.800563e+000  2.000000e+000
      vertex  4.851924e+000  5.800563e+000  2.000000e+000
      vertex  3.900718e+000  5.903022e+000  2.000000e+000
    endloop
  endfacet
  facet normal  0.000000e+000  0.000000e+000  1.000000e+000
    outer loop
      vertex  4.148076e+000 -5.800563e+000  2.000000e+000
      vertex  3.900718e+000  5.903022e+000  2.000000e+000
      vertex  3.403022e+000 -6.400718e+000  2.000000e+000
    endloop
  endfacet
  facet normal  0.000000e+000  0.000000e+000 -9.999999e-001
    outer loop
      vertex  5.099282e+000 -5.903022e+000  0.000000e+000
      vertex  4.851924e+000  5.800563e+000  0.000000e+000
      vertex  5.699437e+000 -6.648076e+000  0.000000e+000
    endloop
  endfacet
  facet normal  0.000000e+000  0.000000e+000 -1.000000e+000
    outer loop
      vertex  7.500000e+000  1.000000e+001  0.000000e+000
      vertex  7.500000e+000 -1.000000e+001  0.000000e+000
      vertex  5.699437e+000  7.351924e+000  0.000000e+000
    endloop
  endfacet
  facet normal  0.000000e+000  0.000000e+000 -1.000000e+000
    outer loop
      vertex  7.500000e+000  1.000000e+001  0.000000e+000
      vertex  5.699437e+000  7.351924e+000  0.000000e+000
      vertex  5.099282e+000  8.096978e+000  0.000000e+000
    endloop
  endfacet
  facet normal  0.000000e+000  0.000000e+000 -1.000000e+000
    outer loop
      vertex  7.500000e+000  1.000000e+001  0.000000e+000
      vertex  5.099282e+000  8.096978e+000  0.000000e+000
      vertex  4.148076e+000  8.199437e+000  0.000000e+000
    endloop
  endfacet
  facet normal  0.000000e+000  0.000000e+000 -9.999999e-001
    outer loop
      vertex  7.500000e+000  1.000000e+001  0.000000e+000
      vertex  4.148076e+000  8.199437e+000  0.000000e+000
      vertex -7.500000e+000  1.000000e+001  0.000000e+000
    endloop
  endfacet
  facet normal  0.000000e+000  0.000000e+000 -1.000000e+000
    outer loop
      vertex  7.500000e+000 -1.000000e+001  0.000000e+000
      vertex -7.500000e+000 -1.000000e+001  0.000000e+000
      vertex  3.900718e+000 -8.096978e+000  0.000000e+000
    endloop
  endfacet
  facet normal  0.000000e+000  0.000000e+000 -1.000000e+000
    outer loop
      vertex  7.500000e+000 -1.000000e+001  0.000000e+000
      vertex  3.900718e+000 -8.096978e+000  0.000000e+000
      vertex  4.851924e+000 -8.199437e+000  0.000000e+000
    endloop
  endfacet
  facet normal -2.728327e-016 -4.012531e-016 -1.000000e+000
    outer loop
      vertex  7.500000e+000 -1.000000e+001  0.000000e+000
      vertex  4.851924e+000 -8.199437e+000  0.000000e+000
      vertex  5.596978e+000 -7.599282e+000 -4.440892e-016
    endloop
  endfacet
  facet normal  7.239549e-016  3.888889e-016 -1.000000e+000
    outer loop
      vertex  7.500000e+000 -1.000000e+001  0.000000e+000
      vertex  5.596978e+000 -7.599282e+000 -4.440892e-016
      vertex  5.699437e+000 -6.648076e+000  0.000000e+000
    endloop
  endfacet
  facet normal  0.000000e+000  0.000000e+000 -1.000000e+000
    outer loop
      vertex  7.500000e+000 -1.000000e+001  0.000000e+000
      vertex  5.699437e+000 -6.648076e+000  0.000000e+000
      vertex  4.851924e+000  5.800563e+000  0.000000e+000
    endloop
  endfacet
  facet normal  0.000000e+000  0.000000e+000 -1.000000e+000
    outer loop
      vertex  7.500000e+000 -1.000000e+001  0.000000e+000
      vertex  4.851924e+000  5.800563e+000  0.000000e+000
      vertex  5.596978e+000  6.400718e+000  0.000000e+000
    endloop
  endfacet
  facet normal  0.000000e+000  0.000000e+000 -9.999999e-001
    outer loop
      vertex  7.500000e+000 -1.000000e+001  0.000000e+000
      vertex  5.596978e+000  6.400718e+000  0.000000e+000
      vertex  5.699437e+000  7.351924e+000  0.000000e+000
    endloop
  endfacet
  facet normal  0.000000e+000  -0.000000e+000 -1.000000e+000
    outer loop
      vertex -7.500000e+000 -1.000000e+001  0.000000e+000
      vertex -5.699437e+000  6.648076e+000  0.000000e+000
      vertex -5.099282e+000  5.903022e+000  0.000000e+000
    endloop
  endfacet
  facet normal  0.000000e+000  0.000000e+000 -1.000000e+000
    outer loop
      vertex -7.500000e+000 -1.000000e+001  0.000000e+000
      vertex -5.099282e+000  5.903022e+000  0.000000e+000
      vertex -5.596978e+000 -6.400718e+000  0.000000e+000
    endloop
  endfacet
  facet normal  0.000000e+000  0.000000e+000 -1.000000e+000
    outer loop
      vertex -7.500000e+000 -1.000000e+001  0.000000e+000
      vertex -5.596978e+000 -6.400718e+000  0.000000e+000
      vertex -5.699437e+000 -7.351924e+000  0.000000e+000
    endloop
  endfacet
  facet normal  0.000000e+000  -0.000000e+000 -1.000000e+000
    outer loop
      vertex -7.500000e+000 -1.000000e+001  0.000000e+000
      vertex -5.699437e+000 -7.351924e+000  0.000000e+000
      vertex -5.099282e+000 -8.096978e+000  0.000000e+000
    endloop
  endfacet
  facet normal  0.000000e+000  -0.000000e+000 -1.000000e+000
    outer loop
      vertex -7.500000e+000 -1.000000e+001  0.000000e+000
      vertex -5.099282e+000 -8.096978e+000  0.000000e+000
      vertex -4.148076e+000 -8.199437e+000  0.000000e+000
    endloop
  endfacet
  facet normal  0.000000e+000  -0.000000e+000 -1.000000e+000
    outer loop
      vertex -7.500000e+000 -1.000000e+001  0.000000e+000
      vertex -4.148076e+000 -8.199437e+000  0.000000e+000
      vertex  3.900718e+000 -8.096978e+000  0.000000e+000
    endloop
  endfacet
  facet normal  -0.000000e+000  0.000000e+000 -1.000000e+000
    outer loop
      vertex -7.500000e+000  1.000000e+001  0.000000e+000
      vertex  4.148076e+000  8.199437e+000  0.000000e+000
      vertex  3.403022e+000  7.599282e+000  0.000000e+000
    endloop
  endfacet
  facet normal  0.000000e+000  0.000000e+000 -9.999999e-001
    outer loop
      vertex -7.500000e+000  1.000000e+001  0.000000e+000
      vertex  3.403022e+000  7.599282e+000  0.000000e+000
      vertex -3.900718e+000  8.096978e+000  0.000000e+000
    endloop
  endfacet
  facet normal  0.000000e+000  0.000000e+000 -1.000000e+000
    outer loop
      vertex -7.500000e+000  1.000000e+001  0.000000e+000
      vertex -3.900718e+000  8.096978e+000  0.000000e+000
      vertex -4.851924e+000  8.199437e+000  0.000000e+000
    endloop
  endfacet
  facet normal  -0.000000e+000  0.000000e+000 -1.000000e+000
    outer loop
      vertex -7.500000e+000  1.000000e+001  0.000000e+000
      vertex -4.851924e+000  8.199437e+000  0.000000e+000
      vertex -5.596978e+000  7.599282e+000  0.000000e+000
    endloop
  endfacet
  facet normal  -0.000000e+000  0.000000e+000 -1.000000e+000
    outer loop
      vertex -7.500000e+000  1.000000e+001  0.000000e+000
      vertex -5.596978e+000  7.599282e+000  0.000000e+000
      vertex -5.699437e+000  6.648076e+000  0.000000e+000
    endloop
  endfacet
  facet normal  -0.000000e+000  0.000000e+000 -1.000000e+000
    outer loop
      vertex -7.500000e+000  1.000000e+001  0.000000e+000
      vertex -5.699437e+000  6.648076e+000  0.000000e+000
      vertex -7.500000e+000 -1.000000e+001  0.000000e+000
    endloop
  endfacet
  facet normal  0.000000e+000  -0.000000e+000 -1.000000e+000
    outer loop
      vertex -5.596978e+000 -6.400718e+000  0.000000e+000
      vertex -5.099282e+000  5.903022e+000  0.000000e+000
      vertex -4.851924e+000 -5.800563e+000  0.000000e+000
    endloop
  endfacet
  facet normal  0.000000e+000  0.000000e+000 -1.000000e+000
    outer loop
      vertex -4.851924e+000 -5.800563e+000  0.000000e+000
      vertex -5.099282e+000  5.903022e+000  0.000000e+000
      vertex -4.148076e+000  5.800563e+000  0.000000e+000
    endloop
  endfacet
  facet normal  0.000000e+000  -0.000000e+000 -1.000000e+000
    outer loop
      vertex -4.851924e+000 -5.800563e+000  0.000000e+000
      vertex -4.148076e+000  5.800563e+000  0.000000e+000
      vertex -3.900718e+000 -5.903022e+000  0.000000e+000
    endloop
  endfacet
  facet normal  0.000000e+000  0.000000e+000 -1.000000e+000
    outer loop
      vertex -3.900718e+000 -5.903022e+000  0.000000e+000
      vertex -4.148076e+000  5.800563e+000  0.000000e+000
      vertex  4.148076e+000 -5.800563e+000  0.000000e+000
    endloop
  endfacet
  facet normal -9.570699e-018  7.518385e-016 -1.000000e+000
    outer loop
      vertex -3.900718e+000 -5.903022e+000  0.000000e+000
      vertex  4.148076e+000 -5.800563e+000  0.000000e+000
      vertex  3.403022e+000 -6.400718e+000 -4.440892e-016
    endloop
  endfacet
  facet normal  0.000000e+000  -0.000000e+000 -1.000000e+000
    outer loop
      vertex -4.148076e+000  5.800563e+000  0.000000e+000
      vertex  3.900718e+000  5.903022e+000  0.000000e+000
      vertex  4.148076e+000 -5.800563e+000  0.000000e+000
    endloop
  endfacet
  facet normal  0.000000e+000  0.000000e+000 -1.000000e+000
    outer loop
      vertex  4.148076e+000 -5.800563e+000  0.000000e+000
      vertex  3.900718e+000  5.903022e+000  0.000000e+000
      vertex  4.851924e+000  5.800563e+000  0.000000e+000
    endloop
  endfacet
  facet normal  0.000000e+000  -0.000000e+000 -1.000000e+000
    outer loop
      vertex  4.148076e+000 -5.800563e+000  0.000000e+000
      vertex  4.851924e+000  5.800563e+000  0.000000e+000
      vertex  5.099282e+000 -5.903022e+000  0.000000e+000
    endloop
  endfacet
  facet normal  -0.000000e+000  0.000000e+000 -1.000000e+000
    outer loop
      vertex -3.900718e+000  8.096978e+000  0.000000e+000
      vertex  3.403022e+000  7.599282e+000  0.000000e+000
      vertex -3.300563e+000  7.351924e+000  0.000000e+000
    endloop
  endfacet
  facet normal  0.000000e+000  0.000000e+000 -1.000000e+000
    outer loop
      vertex -3.300563e+000  7.351924e+000  0.000000e+000
      vertex  3.403022e+000  7.599282e+000  0.000000e+000
      vertex  3.300563e+000  6.648076e+000  0.000000e+000
    endloop
  endfacet
  facet normal  -0.000000e+000  0.000000e+000 -1.000000e+000
    outer loop
      vertex -3.300563e+000  7.351924e+000  0.000000e+000
      vertex  3.300563e+000  6.648076e+000  0.000000e+000
      vertex -3.403022e+000  6.400718e+000  0.000000e+000
    endloop
  endfacet
  facet normal  0.000000e+000  0.000000e+000 -1.000000e+000
    outer loop
      vertex -3.403022e+000  6.400718e+000  0.000000e+000
      vertex  3.300563e+000  6.648076e+000  0.000000e+000
      vertex  3.900718e+000  5.903022e+000  0.000000e+000
    endloop
  endfacet
  facet normal  -0.000000e+000  0.000000e+000 -1.000000e+000
    outer loop
      vertex -3.403022e+000  6.400718e+000  0.000000e+000
      vertex  3.900718e+000  5.903022e+000  0.000000e+000
      vertex -4.148076e+000  5.800563e+000  0.000000e+000
    endloop
  endfacet
  facet normal -6.433431e-017 -5.182250e-017 -1.000000e+000
    outer loop
      vertex -3.900718e+000 -5.903022e+000  0.000000e+000
      vertex  3.403022e+000 -6.400718e+000 -4.440892e-016
      vertex -3.300563e+000 -6.648076e+000  0.000000e+000
    endloop
  endfacet
  facet normal -4.921499e-017 -4.615684e-016 -1.000000e+000
    outer loop
      vertex -3.300563e+000 -6.648076e+000  0.000000e+000
      vertex  3.403022e+000 -6.400718e+000 -4.440892e-016
      vertex  3.300563e+000 -7.351924e+000  0.000000e+000
    endloop
  endfacet
  facet normal  -0.000000e+000  0.000000e+000 -1.000000e+000
    outer loop
      vertex -3.300563e+000 -6.648076e+000  0.000000e+000
      vertex  3.300563e+000 -7.351924e+000  0.000000e+000
      vertex -3.403022e+000 -7.599282e+000  0.000000e+000
    endloop
  endfacet
  facet normal  0.000000e+000  0.000000e+000 -1.000000e+000
    outer loop
      vertex -3.403022e+000 -7.599282e+000  0.000000e+000
      vertex  3.300563e+000 -7.351924e+000  0.000000e+000
      vertex  3.900718e+000 -8.096978e+000  0.000000e+000
    endloop
  endfacet
  facet normal  -0.000000e+000  0.000000e+000 -1.000000e+000
    outer loop
      vertex -3.403022e+000 -7.599282e+000  0.000000e+000
      vertex  3.900718e+000 -8.096978e+000  0.000000e+000
      vertex -4.148076e+000 -8.199437e+000  0.000000e+000
    endloop
  endfacet
  facet normal  7.787676e-001  6.273125e-001  -0.000000e+000
    outer loop
      vertex -5.099282e+000  5.903022e+000  2.000000e+000
      vertex -5.699437e+000  6.648076e+000  0.000000e+000
      vertex -5.699437e+000  6.648076e+000  2.000000e+000
    endloop
  endfacet
  facet normal  9.942488e-001 -1.070953e-001  0.000000e+000
    outer loop
      vertex -5.699437e+000  6.648076e+000  2.000000e+000
      vertex -5.699437e+000  6.648076e+000  0.000000e+000
      vertex -5.596978e+000  7.599282e+000  0.000000e+000
    endloop
  endfacet
  facet normal  9.942488e-001 -1.070953e-001  0.000000e+000
    outer loop
      vertex -5.699437e+000  6.648076e+000  2.000000e+000
      vertex -5.596978e+000  7.599282e+000  0.000000e+000
      vertex -5.596978e+000  7.599282e+000  2.000000e+000
    endloop
  endfacet
  facet normal  7.787676e-001  6.273125e-001  0.000000e+000
    outer loop
      vertex -5.699437e+000  6.648076e+000  0.000000e+000
      vertex -5.099282e+000  5.903022e+000  2.000000e+000
      vertex -5.099282e+000  5.903022e+000  0.000000e+000
    endloop
  endfacet
  facet normal  1.070953e-001  9.942488e-001  -0.000000e+000
    outer loop
      vertex -5.099282e+000  5.903022e+000  0.000000e+000
      vertex -5.099282e+000  5.903022e+000  2.000000e+000
      vertex -4.148076e+000  5.800563e+000  2.000000e+000
    endloop
  endfacet
  facet normal  1.070953e-001  9.942488e-001  0.000000e+000
    outer loop
      vertex -5.099282e+000  5.903022e+000  0.000000e+000
      vertex -4.148076e+000  5.800563e+000  2.000000e+000
      vertex -4.148076e+000  5.800563e+000  0.000000e+000
    endloop
  endfacet
  facet normal -6.273125e-001  7.787676e-001  0.000000e+000
    outer loop
      vertex -4.148076e+000  5.800563e+000  0.000000e+000
      vertex -4.148076e+000  5.800563e+000  2.000000e+000
      vertex -3.403022e+000  6.400718e+000  2.000000e+000
    endloop
  endfacet
  facet normal -6.273125e-001  7.787676e-001  0.000000e+000
    outer loop
      vertex -4.148076e+000  5.800563e+000  0.000000e+000
      vertex -3.403022e+000  6.400718e+000  2.000000e+000
      vertex -3.403022e+000  6.400718e+000  0.000000e+000
    endloop
  endfacet
  facet normal -7.787676e-001 -6.273123e-001  0.000000e+000
    outer loop
      vertex -3.900718e+000  8.096978e+000  2.000000e+000
      vertex -3.300563e+000  7.351924e+000  0.000000e+000
      vertex -3.300563e+000  7.351924e+000  2.000000e+000
    endloop
  endfacet
  facet normal -9.942488e-001  1.070953e-001  0.000000e+000
    outer loop
      vertex -3.300563e+000  7.351924e+000  2.000000e+000
      vertex -3.300563e+000  7.351924e+000  0.000000e+000
      vertex -3.403022e+000  6.400718e+000  0.000000e+000
    endloop
  endfacet
  facet normal -9.942488e-001  1.070953e-001  0.000000e+000
    outer loop
      vertex -3.300563e+000  7.351924e+000  2.000000e+000
      vertex -3.403022e+000  6.400718e+000  0.000000e+000
      vertex -3.403022e+000  6.400718e+000  2.000000e+000
    endloop
  endfacet
  facet normal -7.787676e-001 -6.273123e-001  -0.000000e+000
    outer loop
      vertex -3.300563e+000  7.351924e+000  0.000000e+000
      vertex -3.900718e+000  8.096978e+000  2.000000e+000
      vertex -3.900718e+000  8.096978e+000  0.000000e+000
    endloop
  endfacet
  facet normal -1.070952e-001 -9.942487e-001  0.000000e+000
    outer loop
      vertex -3.900718e+000  8.096978e+000  0.000000e+000
      vertex -3.900718e+000  8.096978e+000  2.000000e+000
      vertex -4.851924e+000  8.199437e+000  2.000000e+000
    endloop
  endfacet
  facet normal -1.070952e-001 -9.942487e-001  -0.000000e+000
    outer loop
      vertex -3.900718e+000  8.096978e+000  0.000000e+000
      vertex -4.851924e+000  8.199437e+000  2.000000e+000
      vertex -4.851924e+000  8.199437e+000  0.000000e+000
    endloop
  endfacet
  facet normal  6.273125e-001 -7.787676e-001  0.000000e+000
    outer loop
      vertex -4.851924e+000  8.199437e+000  0.000000e+000
      vertex -4.851924e+000  8.199437e+000  2.000000e+000
      vertex -5.596978e+000  7.599282e+000  2.000000e+000
    endloop
  endfacet
  facet normal  6.273125e-001 -7.787676e-001  0.000000e+000
    outer loop
      vertex -4.851924e+000  8.199437e+000  0.000000e+000
      vertex -5.596978e+000  7.599282e+000  2.000000e+000
      vertex -5.596978e+000  7.599282e+000  0.000000e+000
    endloop
  endfacet
  facet normal  7.787676e-001  6.273123e-001  -0.000000e+000
    outer loop
      vertex  3.900718e+000  5.903022e+000  2.000000e+000
      vertex  3.300563e+000  6.648076e+000  0.000000e+000
      vertex  3.300563e+000  6.648076e+000  2.000000e+000
    endloop
  endfacet
  facet normal  9.942488e-001 -1.070953e-001  0.000000e+000
    outer loop
      vertex  3.300563e+000  6.648076e+000  2.000000e+000
      vertex  3.300563e+000  6.648076e+000  0.000000e+000
      vertex  3.403022e+000  7.599282e+000  0.000000e+000
    endloop
  endfacet
  facet normal  9.942488e-001 -1.070953e-001  0.000000e+000
    outer loop
      vertex  3.300563e+000  6.648076e+000  2.000000e+000
      vertex  3.403022e+000  7.599282e+000  0.000000e+000
      vertex  3.403022e+000  7.599282e+000  2.000000e+000
    endloop
  endfacet
  facet normal  7.787676e-001  6.273123e-001  0.000000e+000
    outer loop
      vertex  3.300563e+000  6.648076e+000  0.000000e+000
      vertex  3.900718e+000  5.903022e+000  2.000000e+000
      vertex  3.900718e+000  5.903022e+000  0.000000e+000
    endloop
  endfacet
  facet normal  1.070952e-001  9.942487e-001  -0.000000e+000
    outer loop
      vertex  3.900718e+000  5.903022e+000  0.000000e+000
      vertex  3.900718e+000  5.903022e+000  2.000000e+000
      vertex  4.851924e+000  5.800563e+000  2.000000e+000
    endloop
  endfacet
  facet normal  1.070952e-001  9.942487e-001  0.000000e+000
    outer loop
      vertex  3.900718e+000  5.903022e+000  0.000000e+000
      vertex  4.851924e+000  5.800563e+000  2.000000e+000
      vertex  4.851924e+000  5.800563e+000  0.000000e+000
    endloop
  endfacet
  facet normal -6.273125e-001  7.787676e-001  0.000000e+000
    outer loop
      vertex  4.851924e+000  5.800563e+000  0.000000e+000
      vertex  4.851924e+000  5.800563e+000  2.000000e+000
      vertex  5.596978e+000  6.400718e+000  2.000000e+000
    endloop
  endfacet
  facet normal -6.273125e-001  7.787676e-001  0.000000e+000
    outer loop
      vertex  4.851924e+000  5.800563e+000  0.000000e+000
      vertex  5.596978e+000  6.400718e+000  2.000000e+000
      vertex  5.596978e+000  6.400718e+000  0.000000e+000
    endloop
  endfacet
  facet normal -7.787676e-001 -6.273125e-001  0.000000e+000
    outer loop
      vertex  5.099282e+000  8.096978e+000  2.000000e+000
      vertex  5.699437e+000  7.351924e+000  0.000000e+000
      vertex  5.699437e+000  7.351924e+000  2.000000e+000
    endloop
  endfacet
  facet normal -9.942488e-001  1.070953e-001  0.000000e+000
    outer loop
      vertex  5.699437e+000  7.351924e+000  2.000000e+000
      vertex  5.699437e+000  7.351924e+000  0.000000e+000
      vertex  5.596978e+000  6.400718e+000  0.000000e+000
    endloop
  endfacet
  facet normal -9.942488e-001  1.070953e-001  0.000000e+000
    outer loop
      vertex  5.699437e+000  7.351924e+000  2.000000e+000
      vertex  5.596978e+000  6.400718e+000  0.000000e+000
      vertex  5.596978e+000  6.400718e+000  2.000000e+000
    endloop
  endfacet
  facet normal -7.787676e-001 -6.273125e-001  -0.000000e+000
    outer loop
      vertex  5.699437e+000  7.351924e+000  0.000000e+000
      vertex  5.099282e+000  8.096978e+000  2.000000e+000
      vertex  5.099282e+000  8.096978e+000  0.000000e+000
    endloop
  endfacet
  facet normal -1.070953e-001 -9.942488e-001  0.000000e+000
    outer loop
      vertex  5.099282e+000  8.096978e+000  0.000000e+000
      vertex  5.099282e+000  8.096978e+000  2.000000e+000
      vertex  4.148076e+000  8.199437e+000  2.000000e+000
    endloop
  endfacet
  facet normal -1.070953e-001 -9.942488e-001  -0.000000e+000
    outer loop
      vertex  5.099282e+000  8.096978e+000  0.000000e+000
      vertex  4.148076e+000  8.199437e+000  2.000000e+000
      vertex  4.148076e+000  8.199437e+000  0.000000e+000
    endloop
  endfacet
  facet normal  6.273125e-001 -7.787676e-001  0.000000e+000
    outer loop
      vertex  4.148076e+000  8.199437e+000  0.000000e+000
      vertex  4.148076e+000  8.199437e+000  2.000000e+000
      vertex  3.403022e+000  7.599282e+000  2.000000e+000
    endloop
  endfacet
  facet normal  6.273125e-001 -7.787676e-001  0.000000e+000
    outer loop
      vertex  4.148076e+000  8.199437e+000  0.000000e+000
      vertex  3.403022e+000  7.599282e+000  2.000000e+000
      vertex  3.403022e+000  7.599282e+000  0.000000e+000
    endloop
  endfacet
  facet normal  7.787676e-001  6.273125e-001  -0.000000e+000
    outer loop
      vertex -5.099282e+000 -8.096978e+000  2.000000e+000
      vertex -5.699437e+000 -7.351924e+000  0.000000e+000
      vertex -5.699437e+000 -7.351924e+000  2.000000e+000
    endloop
  endfacet
  facet normal  9.942488e-001 -1.070953e-001  0.000000e+000
    outer loop
      vertex -5.699437e+000 -7.351924e+000  2.000000e+000
      vertex -5.699437e+000 -7.351924e+000  0.000000e+000
      vertex -5.596978e+000 -6.400718e+000  0.000000e+000
    endloop
  endfacet
  facet normal  9.942488e-001 -1.070953e-001  0.000000e+000
    outer loop
      vertex -5.699437e+000 -7.351924e+000  2.000000e+000
      vertex -5.596978e+000 -6.400718e+000  0.000000e+000
      vertex -5.596978e+000 -6.400718e+000  2.000000e+000
    endloop
  endfacet
  facet normal  7.787676e-001  6.273125e-001  0.000000e+000
    outer loop
      vertex -5.699437e+000 -7.351924e+000  0.000000e+000
      vertex -5.099282e+000 -8.096978e+000  2.000000e+000
      vertex -5.099282e+000 -8.096978e+000  0.000000e+000
    endloop
  endfacet
  facet normal  1.070953e-001  9.942488e-001  -0.000000e+000
    outer loop
      vertex -5.099282e+000 -8.096978e+000  0.000000e+000
      vertex -5.099282e+000 -8.096978e+000  2.000000e+000
      vertex -4.148076e+000 -8.199437e+000  2.000000e+000
    endloop
  endfacet
  facet normal  1.070953e-001  9.942488e-001  0.000000e+000
    outer loop
      vertex -5.099282e+000 -8.096978e+000  0.000000e+000
      vertex -4.148076e+000 -8.199437e+000  2.000000e+000
      vertex -4.148076e+000 -8.199437e+000  0.000000e+000
    endloop
  endfacet
  facet normal -6.273125e-001  7.787676e-001  0.000000e+000
    outer loop
      vertex -4.148076e+000 -8.199437e+000  0.000000e+000
      vertex -4.148076e+000 -8.199437e+000  2.000000e+000
      vertex -3.403022e+000 -7.599282e+000  2.000000e+000
    endloop
  endfacet
  facet normal -6.273125e-001  7.787676e-001  0.000000e+000
    outer loop
      vertex -4.148076e+000 -8.199437e+000  0.000000e+000
      vertex -3.403022e+000 -7.599282e+000  2.000000e+000
      vertex -3.403022e+000 -7.599282e+000  0.000000e+000
    endloop
  endfacet
  facet normal -7.787676e-001 -6.273123e-001  0.000000e+000
    outer loop
      vertex -3.900718e+000 -5.903022e+000  2.000000e+000
      vertex -3.300563e+000 -6.648076e+000  0.000000e+000
      vertex -3.300563e+000 -6.648076e+000  2.000000e+000
    endloop
  endfacet
  facet normal -9.942488e-001  1.070953e-001  0.000000e+000
    outer loop
      vertex -3.300563e+000 -6.648076e+000  2.000000e+000
      vertex -3.300563e+000 -6.648076e+000  0.000000e+000
      vertex -3.403022e+000 -7.599282e+000  0.000000e+000
    endloop
  endfacet
  facet normal -9.942488e-001  1.070953e-001  0.000000e+000
    outer loop
      vertex -3.300563e+000 -6.648076e+000  2.000000e+000
      vertex -3.403022e+000 -7.599282e+000  0.000000e+000
      vertex -3.403022e+000 -7.599282e+000  2.000000e+000
    endloop
  endfacet
  facet normal -7.787676e-001 -6.273123e-001  -0.000000e+000
    outer loop
      vertex -3.300563e+000 -6.648076e+000  0.000000e+000
      vertex -3.900718e+000 -5.903022e+000  2.000000e+000
      vertex -3.900718e+000 -5.903022e+000  0.000000e+000
    endloop
  endfacet
  facet normal -1.070952e-001 -9.942487e-001  0.000000e+000
    outer loop
      vertex -3.900718e+000 -5.903022e+000  0.000000e+000
      vertex -3.900718e+000 -5.903022e+000  2.000000e+000
      vertex -4.851924e+000 -5.800563e+000  2.000000e+000
    endloop
  endfacet
  facet normal -1.070952e-001 -9.942487e-001  -0.000000e+000
    outer loop
      vertex -3.900718e+000 -5.903022e+000  0.000000e+000
      vertex -4.851924e+000 -5.800563e+000  2.000000e+000
      vertex -4.851924e+000 -5.800563e+000  0.000000e+000
    endloop
  endfacet
  facet normal  6.273125e-001 -7.787676e-001  0.000000e+000
    outer loop
      vertex -4.851924e+000 -5.800563e+000  0.000000e+000
      vertex -4.851924e+000 -5.800563e+000  2.000000e+000
      vertex -5.596978e+000 -6.400718e+000  2.000000e+000
    endloop
  endfacet
  facet normal  6.273125e-001 -7.787676e-001  0.000000e+000
    outer loop
      vertex -4.851924e+000 -5.800563e+000  0.000000e+000
      vertex -5.596978e+000 -6.400718e+000  2.000000e+000
      vertex -5.596978e+000 -6.400718e+000  0.000000e+000
    endloop
  endfacet
  facet normal  7.787676e-001  6.273123e-001  -0.000000e+000
    outer loop
      vertex  3.900718e+000 -8.096978e+000  2.000000e+000
      vertex  3.300563e+000 -7.351924e+000  0.000000e+000
      vertex  3.300563e+000 -7.351924e+000  2.000000e+000
    endloop
  endfacet
  facet normal  9.942488e-001 -1.070953e-001  0.000000e+000
    outer loop
      vertex  3.300563e+000 -7.351924e+000  2.000000e+000
      vertex  3.300563e+000 -7.351924e+000  0.000000e+000
      vertex  3.403022e+000 -6.400718e+000 -4.440892e-016
    endloop
  endfacet
  facet normal  9.942488e-001 -1.070953e-001  0.000000e+000
    outer loop
      vertex  3.300563e+000 -7.351924e+000  2.000000e+000
      vertex  3.403022e+000 -6.400718e+000 -4.440892e-016
      vertex  3.403022e+000 -6.400718e+000  2.000000e+000
    endloop
  endfacet
  facet normal  7.787676e-001  6.273123e-001  0.000000e+000
    outer loop
      vertex  3.300563e+000 -7.351924e+000  0.000000e+000
      vertex  3.900718e+000 -8.096978e+000  2.000000e+000
      vertex  3.900718e+000 -8.096978e+000  0.000000e+000
    endloop
  endfacet
  facet normal  1.070952e-001  9.942487e-001  -0.000000e+000
    outer loop
      vertex  3.900718e+000 -8.096978e+000  0.000000e+000
      vertex  3.900718e+000 -8.096978e+000  2.000000e+000
      vertex  4.851924e+000 -8.199437e+000  2.000000e+000
    endloop
  endfacet
  facet normal  1.070952e-001  9.942487e-001  0.000000e+000
    outer loop
      vertex  3.900718e+000 -8.096978e+000  0.000000e+000
      vertex  4.851924e+000 -8.199437e+000  2.000000e+000
      vertex  4.851924e+000 -8.199437e+000  0.000000e+000
    endloop
  endfacet
  facet normal -6.273125e-001  7.787676e-001  0.000000e+000
    outer loop
      vertex  4.851924e+000 -8.199437e+000  0.000000e+000
      vertex  4.851924e+000 -8.199437e+000  2.000000e+000
      vertex  5.596978e+000 -7.599282e+000  2.000000e+000
    endloop
  endfacet
  facet normal -6.273125e-001  7.787676e-001  0.000000e+000
    outer loop
      vertex  4.851924e+000 -8.199437e+000  0.000000e+000
      vertex  5.596978e+000 -7.599282e+000  2.000000e+000
      vertex  5.596978e+000 -7.599282e+000 -4.440892e-016
    endloop
  endfacet
  facet normal -7.787676e-001 -6.273125e-001  0.000000e+000
    outer loop
      vertex  5.099282e+000 -5.903022e+000  2.000000e+000
      vertex  5.699437e+000 -6.648076e+000  0.000000e+000
      vertex  5.699437e+000 -6.648076e+000  2.000000e+000
    endloop
  endfacet
  facet normal -9.942488e-001  1.070953e-001  0.000000e+000
    outer loop
      vertex  5.699437e+000 -6.648076e+000  2.000000e+000
      vertex  5.699437e+000 -6.648076e+000  0.000000e+000
      vertex  5.596978e+000 -7.599282e+000 -4.440892e-016
    endloop
  endfacet
  facet normal -9.942488e-001  1.070953e-001  0.000000e+000
    outer loop
      vertex  5.699437e+000 -6.648076e+000  2.000000e+000
      vertex  5.596978e+000 -7.599282e+000 -4.440892e-016
      vertex  5.596978e+000 -7.599282e+000  2.000000e+000
    endloop
  endfacet
  facet normal -7.787676e-001 -6.273125e-001  -0.000000e+000
    outer loop
      vertex  5.699437e+000 -6.648076e+000  0.000000e+000
      vertex  5.099282e+000 -5.903022e+000  2.000000e+000
      vertex  5.099282e+000 -5.903022e+000  0.000000e+000
    endloop
  endfacet
  facet normal -1.070953e-001 -9.942488e-001  0.000000e+000
    outer loop
      vertex  5.099282e+000 -5.903022e+000  0.000000e+000
      vertex  5.099282e+000 -5.903022e+000  2.000000e+000
      vertex  4.148076e+000 -5.800563e+000  2.000000e+000
    endloop
  endfacet
  facet normal -1.070953e-001 -9.942488e-001  -0.000000e+000
    outer loop
      vertex  5.099282e+000 -5.903022e+000  0.000000e+000
      vertex  4.148076e+000 -5.800563e+000  2.000000e+000
      vertex  4.148076e+000 -5.800563e+000  0.000000e+000
    endloop
  endfacet
  facet normal  6.273125e-001 -7.787676e-001  0.000000e+000
    outer loop
      vertex  4.148076e+000 -5.800563e+000  0.000000e+000
      vertex  4.148076e+000 -5.800563e+000  2.000000e+000
      vertex  3.403022e+000 -6.400718e+000  2.000000e+000
    endloop
  endfacet
  facet normal  6.273125e-001 -7.787676e-001  0.000000e+000
    outer loop
      vertex  4.148076e+000 -5.800563e+000  0.000000e+000
      vertex  3.403022e+000 -6.400718e+000  2.000000e+000
      vertex  3.403022e+000 -6.400718e+000 -4.440892e-016
    endloop
  endfacet
  facet normal  1.000000e+000  0.000000e+000  0.000000e+000
    outer loop
      vertex  1.600000e+000 -1.163733e+001  2.162444e+001
      vertex  1.600000e+000 -9.477447e+000  2.240643e+001
      vertex  1.600000e+000 -1.068085e+001  2.235644e+001
    endloop
  endfacet
  facet normal  1.000000e+000  0.000000e+000  0.000000e+000
    outer loop
      vertex  1.600000e+000 -1.200000e+001  2.047590e+001
      vertex  1.600000e+000 -1.200000e+001  4.000000e+000
      vertex  1.600000e+000 -9.880921e+000  1.800805e+001
    endloop
  endfacet
  facet normal  1.000000e+000  0.000000e+000  -0.000000e+000
    outer loop
      vertex  1.600000e+000 -1.200000e+001  2.047590e+001
      vertex  1.600000e+000 -9.880921e+000  1.800805e+001
      vertex  1.600000e+000 -9.225274e+000  1.853618e+001
    endloop
  endfacet
  facet normal  9.999999e-001  0.000000e+000  0.000000e+000
    outer loop
      vertex  1.600000e+000 -1.200000e+001  2.047590e+001
      vertex  1.600000e+000 -9.225274e+000  1.853618e+001
      vertex  1.600000e+000 -9.477447e+000  2.240643e+001
    endloop
  endfacet
  facet normal  1.000000e+000  0.000000e+000  0.000000e+000
    outer loop
      vertex  1.600000e+000 -1.200000e+001  2.047590e+001
      vertex  1.600000e+000 -9.477447e+000  2.240643e+001
      vertex  1.600000e+000 -1.163733e+001  2.162444e+001
    endloop
  endfacet
  facet normal  1.000000e+000  0.000000e+000  0.000000e+000
    outer loop
      vertex  1.600000e+000 -1.200000e+001  4.000000e+000
      vertex  1.600000e+000 -9.442949e+000  4.515339e+000
      vertex  1.600000e+000 -9.971086e+000  5.170987e+000
    endloop
  endfacet
  facet normal  1.000000e+000  0.000000e+000  -0.000000e+000
    outer loop
      vertex  1.600000e+000 -1.200000e+001  4.000000e+000
      vertex  1.600000e+000 -9.971086e+000  5.170987e+000
      vertex  1.600000e+000 -9.880921e+000  6.008048e+000
    endloop
  endfacet
  facet normal  1.000000e+000  0.000000e+000  -0.000000e+000
    outer loop
      vertex  1.600000e+000 -1.200000e+001  4.000000e+000
      vertex  1.600000e+000 -9.880921e+000  6.008048e+000
      vertex  1.600000e+000 -9.442949e+000  8.515339e+000
    endloop
  endfacet
  facet normal  1.000000e+000  0.000000e+000  0.000000e+000
    outer loop
      vertex  1.600000e+000 -1.200000e+001  4.000000e+000
      vertex  1.600000e+000 -9.442949e+000  8.515339e+000
      vertex  1.600000e+000 -9.971086e+000  9.170986e+000
    endloop
  endfacet
  facet normal  1.000000e+000  0.000000e+000  -0.000000e+000
    outer loop
      vertex  1.600000e+000 -1.200000e+001  4.000000e+000
      vertex  1.600000e+000 -9.971086e+000  9.170986e+000
      vertex  1.600000e+000 -9.880921e+000  1.000805e+001
    endloop
  endfacet
  facet normal  1.000000e+000  0.000000e+000  -0.000000e+000
    outer loop
      vertex  1.600000e+000 -1.200000e+001  4.000000e+000
      vertex  1.600000e+000 -9.880921e+000  1.000805e+001
      vertex  1.600000e+000 -9.442949e+000  1.251534e+001
    endloop
  endfacet
  facet normal  1.000000e+000  0.000000e+000  0.000000e+000
    outer loop
      vertex  1.600000e+000 -1.200000e+001  4.000000e+000
      vertex  1.600000e+000 -9.442949e+000  1.251534e+001
      vertex  1.600000e+000 -9.971086e+000  1.317099e+001
    endloop
  endfacet
  facet normal  1.000000e+000  0.000000e+000  -0.000000e+000
    outer loop
      vertex  1.600000e+000 -1.200000e+001  4.000000e+000
      vertex  1.600000e+000 -9.971086e+000  1.317099e+001
      vertex  1.600000e+000 -9.880921e+000  1.400805e+001
    endloop
  endfacet
  facet normal  9.999999e-001  0.000000e+000  -0.000000e+000
    outer loop
      vertex  1.600000e+000 -1.200000e+001  4.000000e+000
      vertex  1.600000e+000 -9.880921e+000  1.400805e+001
      vertex  1.600000e+000 -9.442949e+000  1.651534e+001
    endloop
  endfacet
  facet normal  1.000000e+000  0.000000e+000  0.000000e+000
    outer loop
      vertex  1.600000e+000 -1.200000e+001  4.000000e+000
      vertex  1.600000e+000 -9.442949e+000  1.651534e+001
      vertex  1.600000e+000 -9.971086e+000  1.717099e+001
    endloop
  endfacet
  facet normal  1.000000e+000  0.000000e+000  -0.000000e+000
    outer loop
      vertex  1.600000e+000 -1.200000e+001  4.000000e+000
      vertex  1.600000e+000 -9.971086e+000  1.717099e+001
      vertex  1.600000e+000 -9.880921e+000  1.800805e+001
    endloop
  endfacet
  facet normal  9.999999e-001  0.000000e+000  0.000000e+000
    outer loop
      vertex  1.600000e+000  8.000000e+000  2.000000e+000
      vertex  1.600000e+000 -8.463557e+000  2.175627e+001
      vertex  1.600000e+000 -8.388212e+000  1.844602e+001
    endloop
  endfacet
  facet normal  1.000000e+000  0.000000e+000  0.000000e+000
    outer loop
      vertex  1.600000e+000  8.000000e+000  2.000000e+000
      vertex  1.600000e+000 -8.388212e+000  1.844602e+001
      vertex  1.600000e+000 -7.860076e+000  1.779037e+001
    endloop
  endfacet
  facet normal  1.000000e+000  0.000000e+000  0.000000e+000
    outer loop
      vertex  1.600000e+000  8.000000e+000  2.000000e+000
      vertex  1.600000e+000 -7.860076e+000  1.779037e+001
      vertex  1.600000e+000 -7.950240e+000  1.695331e+001
    endloop
  endfacet
  facet normal  1.000000e+000  0.000000e+000  0.000000e+000
    outer loop
      vertex  1.600000e+000  8.000000e+000  2.000000e+000
      vertex  1.600000e+000 -7.950240e+000  1.695331e+001
      vertex  1.600000e+000 -8.605887e+000  1.642517e+001
    endloop
  endfacet
  facet normal  1.000000e+000  0.000000e+000  0.000000e+000
    outer loop
      vertex  1.600000e+000  8.000000e+000  2.000000e+000
      vertex  1.600000e+000 -8.605887e+000  1.642517e+001
      vertex  1.600000e+000 -8.388212e+000  1.444602e+001
    endloop
  endfacet
  facet normal  1.000000e+000  0.000000e+000  0.000000e+000
    outer loop
      vertex  1.600000e+000  8.000000e+000  2.000000e+000
      vertex  1.600000e+000 -8.388212e+000  1.444602e+001
      vertex  1.600000e+000 -7.860076e+000  1.379037e+001
    endloop
  endfacet
  facet normal  9.999999e-001  0.000000e+000  0.000000e+000
    outer loop
      vertex  1.600000e+000  8.000000e+000  2.000000e+000
      vertex  1.600000e+000 -7.860076e+000  1.379037e+001
      vertex  1.600000e+000 -7.950240e+000  1.295331e+001
    endloop
  endfacet
  facet normal  1.000000e+000  0.000000e+000  0.000000e+000
    outer loop
      vertex  1.600000e+000  8.000000e+000  2.000000e+000
      vertex  1.600000e+000 -7.950240e+000  1.295331e+001
      vertex  1.600000e+000 -8.605887e+000  1.242518e+001
    endloop
  endfacet
  facet normal  9.999999e-001  0.000000e+000  0.000000e+000
    outer loop
      vertex  1.600000e+000  8.000000e+000  2.000000e+000
      vertex  1.600000e+000 -8.605887e+000  1.242518e+001
      vertex  1.600000e+000 -8.388212e+000  1.044602e+001
    endloop
  endfacet
  facet normal  1.000000e+000  0.000000e+000  0.000000e+000
    outer loop
      vertex  1.600000e+000  8.000000e+000  2.000000e+000
      vertex  1.600000e+000 -8.388212e+000  1.044602e+001
      vertex  1.600000e+000 -7.860076e+000  9.790374e+000
    endloop
  endfacet
  facet normal  9.999999e-001  0.000000e+000  0.000000e+000
    outer loop
      vertex  1.600000e+000  8.000000e+000  2.000000e+000
      vertex  1.600000e+000 -7.860076e+000  9.790374e+000
      vertex  1.600000e+000 -7.950240e+000  8.953312e+000
    endloop
  endfacet
  facet normal  9.999999e-001  0.000000e+000  0.000000e+000
    outer loop
      vertex  1.600000e+000  8.000000e+000  2.000000e+000
      vertex  1.600000e+000 -7.950240e+000  8.953312e+000
      vertex  1.600000e+000 -8.605887e+000  8.425176e+000
    endloop
  endfacet
  facet normal  1.000000e+000  0.000000e+000  0.000000e+000
    outer loop
      vertex  1.600000e+000  8.000000e+000  2.000000e+000
      vertex  1.600000e+000 -8.605887e+000  8.425176e+000
      vertex  1.600000e+000 -8.388212e+000  6.446021e+000
    endloop
  endfacet
  facet normal  1.000000e+000  0.000000e+000  0.000000e+000
    outer loop
      vertex  1.600000e+000  8.000000e+000  2.000000e+000
      vertex  1.600000e+000 -8.388212e+000  6.446021e+000
      vertex  1.600000e+000 -7.860076e+000  5.790373e+000
    endloop
  endfacet
  facet normal  1.000000e+000  0.000000e+000  0.000000e+000
    outer loop
      vertex  1.600000e+000  8.000000e+000  2.000000e+000
      vertex  1.600000e+000 -7.860076e+000  5.790373e+000
      vertex  1.600000e+000 -7.950240e+000  4.953312e+000
    endloop
  endfacet
  facet normal  1.000000e+000  0.000000e+000  0.000000e+000
    outer loop
      vertex  1.600000e+000  8.000000e+000  2.000000e+000
      vertex  1.600000e+000 -7.950240e+000  4.953312e+000
      vertex  1.600000e+000 -8.605887e+000  4.425176e+000
    endloop
  endfacet
  facet normal  1.000000e+000  0.000000e+000  0.000000e+000
    outer loop
      vertex  1.600000e+000  8.000000e+000  2.000000e+000
      vertex  1.600000e+000 -8.605887e+000  4.425176e+000
      vertex  1.600000e+000 -1.000000e+001  2.000000e+000
    endloop
  endfacet
  facet normal  1.000000e+000  0.000000e+000  0.000000e+000
    outer loop
      vertex  1.600000e+000 -1.000000e+001  2.000000e+000
      vertex  1.600000e+000 -8.605887e+000  4.425176e+000
      vertex  1.600000e+000 -9.442949e+000  4.515339e+000
    endloop
  endfacet
  facet normal  9.999999e-001  0.000000e+000  0.000000e+000
    outer loop
      vertex  1.600000e+000 -1.000000e+001  2.000000e+000
      vertex  1.600000e+000 -9.442949e+000  4.515339e+000
      vertex  1.600000e+000 -1.141421e+001  2.585786e+000
    endloop
  endfacet
  facet normal  1.000000e+000  0.000000e+000  -0.000000e+000
    outer loop
      vertex  1.600000e+000 -1.141421e+001  2.585786e+000
      vertex  1.600000e+000 -9.442949e+000  4.515339e+000
      vertex  1.600000e+000 -1.200000e+001  4.000000e+000
    endloop
  endfacet
  facet normal  1.000000e+000  0.000000e+000  0.000000e+000
    outer loop
      vertex  1.600000e+000 -8.388212e+000  6.446021e+000
      vertex  1.600000e+000 -8.605887e+000  8.425176e+000
      vertex  1.600000e+000 -9.225274e+000  6.536185e+000
    endloop
  endfacet
  facet normal  1.000000e+000  0.000000e+000  -0.000000e+000
    outer loop
      vertex  1.600000e+000 -9.225274e+000  6.536185e+000
      vertex  1.600000e+000 -8.605887e+000  8.425176e+000
      vertex  1.600000e+000 -9.442949e+000  8.515339e+000
    endloop
  endfacet
  facet normal  1.000000e+000  0.000000e+000  0.000000e+000
    outer loop
      vertex  1.600000e+000 -9.225274e+000  6.536185e+000
      vertex  1.600000e+000 -9.442949e+000  8.515339e+000
      vertex  1.600000e+000 -9.880921e+000  6.008048e+000
    endloop
  endfacet
  facet normal  1.000000e+000  0.000000e+000  0.000000e+000
    outer loop
      vertex  1.600000e+000 -8.388212e+000  1.044602e+001
      vertex  1.600000e+000 -8.605887e+000  1.242518e+001
      vertex  1.600000e+000 -9.225274e+000  1.053618e+001
    endloop
  endfacet
  facet normal  1.000000e+000  0.000000e+000  -0.000000e+000
    outer loop
      vertex  1.600000e+000 -9.225274e+000  1.053618e+001
      vertex  1.600000e+000 -8.605887e+000  1.242518e+001
      vertex  1.600000e+000 -9.442949e+000  1.251534e+001
    endloop
  endfacet
  facet normal  1.000000e+000  0.000000e+000  0.000000e+000
    outer loop
      vertex  1.600000e+000 -9.225274e+000  1.053618e+001
      vertex  1.600000e+000 -9.442949e+000  1.251534e+001
      vertex  1.600000e+000 -9.880921e+000  1.000805e+001
    endloop
  endfacet
  facet normal  9.999999e-001  0.000000e+000  0.000000e+000
    outer loop
      vertex  1.600000e+000 -8.388212e+000  1.444602e+001
      vertex  1.600000e+000 -8.605887e+000  1.642517e+001
      vertex  1.600000e+000 -9.225274e+000  1.453618e+001
    endloop
  endfacet
  facet normal  1.000000e+000  0.000000e+000  -0.000000e+000
    outer loop
      vertex  1.600000e+000 -9.225274e+000  1.453618e+001
      vertex  1.600000e+000 -8.605887e+000  1.642517e+001
      vertex  1.600000e+000 -9.442949e+000  1.651534e+001
    endloop
  endfacet
  facet normal  1.000000e+000  0.000000e+000  0.000000e+000
    outer loop
      vertex  1.600000e+000 -9.225274e+000  1.453618e+001
      vertex  1.600000e+000 -9.442949e+000  1.651534e+001
      vertex  1.600000e+000 -9.880921e+000  1.400805e+001
    endloop
  endfacet
  facet normal  1.000000e+000  0.000000e+000  0.000000e+000
    outer loop
      vertex  1.600000e+000 -8.463557e+000  2.175627e+001
      vertex  1.600000e+000 -9.477447e+000  2.240643e+001
      vertex  1.600000e+000 -8.388212e+000  1.844602e+001
    endloop
  endfacet
  facet normal  1.000000e+000  0.000000e+000  0.000000e+000
    outer loop
      vertex  1.600000e+000 -8.388212e+000  1.844602e+001
      vertex  1.600000e+000 -9.477447e+000  2.240643e+001
      vertex  1.600000e+000 -9.225274e+000  1.853618e+001
    endloop
  endfacet
  facet normal -1.000000e+000  0.000000e+000  0.000000e+000
    outer loop
      vertex -1.600000e+000 -1.068085e+001  2.235644e+001
      vertex -1.600000e+000 -9.477447e+000  2.240643e+001
      vertex -1.600000e+000 -1.163733e+001  2.162444e+001
    endloop
  endfacet
  facet normal -1.000000e+000  0.000000e+000  -0.000000e+000
    outer loop
      vertex -1.600000e+000 -1.200000e+001  2.047590e+001
      vertex -1.600000e+000 -1.163733e+001  2.162444e+001
      vertex -1.600000e+000 -9.477447e+000  2.240643e+001
    endloop
  endfacet
  facet normal -9.999999e-001  0.000000e+000  -0.000000e+000
    outer loop
      vertex -1.600000e+000 -1.200000e+001  2.047590e+001
      vertex -1.600000e+000 -9.477447e+000  2.240643e+001
      vertex -1.600000e+000 -9.225274e+000  1.853618e+001
    endloop
  endfacet
  facet normal -1.000000e+000  -0.000000e+000  0.000000e+000
    outer loop
      vertex -1.600000e+000 -1.200000e+001  2.047590e+001
      vertex -1.600000e+000 -9.225274e+000  1.853618e+001
      vertex -1.600000e+000 -9.880921e+000  1.800805e+001
    endloop
  endfacet
  facet normal -1.000000e+000  -0.000000e+000  0.000000e+000
    outer loop
      vertex -1.600000e+000 -1.200000e+001  2.047590e+001
      vertex -1.600000e+000 -9.880921e+000  1.800805e+001
      vertex -1.600000e+000 -1.200000e+001  4.000000e+000
    endloop
  endfacet
  facet normal -1.000000e+000  0.000000e+000  0.000000e+000
    outer loop
      vertex -1.600000e+000 -1.200000e+001  4.000000e+000
      vertex -1.600000e+000 -9.880921e+000  1.800805e+001
      vertex -1.600000e+000 -9.971086e+000  1.717099e+001
    endloop
  endfacet
  facet normal -1.000000e+000  0.000000e+000  -0.000000e+000
    outer loop
      vertex -1.600000e+000 -1.200000e+001  4.000000e+000
      vertex -1.600000e+000 -9.971086e+000  1.717099e+001
      vertex -1.600000e+000 -9.442949e+000  1.651534e+001
    endloop
  endfacet
  facet normal -9.999999e-001  0.000000e+000  0.000000e+000
    outer loop
      vertex -1.600000e+000 -1.200000e+001  4.000000e+000
      vertex -1.600000e+000 -9.442949e+000  1.651534e+001
      vertex -1.600000e+000 -9.880921e+000  1.400805e+001
    endloop
  endfacet
  facet normal -1.000000e+000  0.000000e+000  0.000000e+000
    outer loop
      vertex -1.600000e+000 -1.200000e+001  4.000000e+000
      vertex -1.600000e+000 -9.880921e+000  1.400805e+001
      vertex -1.600000e+000 -9.971086e+000  1.317099e+001
    endloop
  endfacet
  facet normal -1.000000e+000  0.000000e+000  -0.000000e+000
    outer loop
      vertex -1.600000e+000 -1.200000e+001  4.000000e+000
      vertex -1.600000e+000 -9.971086e+000  1.317099e+001
      vertex -1.600000e+000 -9.442949e+000  1.251534e+001
    endloop
  endfacet
  facet normal -1.000000e+000  0.000000e+000  0.000000e+000
    outer loop
      vertex -1.600000e+000 -1.200000e+001  4.000000e+000
      vertex -1.600000e+000 -9.442949e+000  1.251534e+001
      vertex -1.600000e+000 -9.880921e+000  1.000805e+001
    endloop
  endfacet
  facet normal -1.000000e+000  0.000000e+000  0.000000e+000
    outer loop
      vertex -1.600000e+000 -1.200000e+001  4.000000e+000
      vertex -1.600000e+000 -9.880921e+000  1.000805e+001
      vertex -1.600000e+000 -9.971086e+000  9.170986e+000
    endloop
  endfacet
  facet normal -1.000000e+000  0.000000e+000  -0.000000e+000
    outer loop
      vertex -1.600000e+000 -1.200000e+001  4.000000e+000
      vertex -1.600000e+000 -9.971086e+000  9.170986e+000
      vertex -1.600000e+000 -9.442949e+000  8.515339e+000
    endloop
  endfacet
  facet normal -1.000000e+000  0.000000e+000  0.000000e+000
    outer loop
      vertex -1.600000e+000 -1.200000e+001  4.000000e+000
      vertex -1.600000e+000 -9.442949e+000  8.515339e+000
      vertex -1.600000e+000 -9.880921e+000  6.008048e+000
    endloop
  endfacet
  facet normal -1.000000e+000  0.000000e+000  0.000000e+000
    outer loop
      vertex -1.600000e+000 -1.200000e+001  4.000000e+000
      vertex -1.600000e+000 -9.880921e+000  6.008048e+000
      vertex -1.600000e+000 -9.971086e+000  5.170987e+000
    endloop
  endfacet
  facet normal -1.000000e+000  0.000000e+000  -0.000000e+000
    outer loop
      vertex -1.600000e+000 -1.200000e+001  4.000000e+000
      vertex -1.600000e+000 -9.971086e+000  5.170987e+000
      vertex -1.600000e+000 -9.442949e+000  4.515339e+000
    endloop
  endfacet
  facet normal -1.000000e+000  0.000000e+000  0.000000e+000
    outer loop
      vertex -1.600000e+000  8.000000e+000  2.000000e+000
      vertex -1.600000e+000 -8.605887e+000  4.425176e+000
      vertex -1.600000e+000 -7.950240e+000  4.953312e+000
    endloop
  endfacet
  facet normal -1.000000e+000  0.000000e+000  0.000000e+000
    outer loop
      vertex -1.600000e+000  8.000000e+000  2.000000e+000
      vertex -1.600000e+000 -7.950240e+000  4.953312e+000
      vertex -1.600000e+000 -7.860076e+000  5.790373e+000
    endloop
  endfacet
  facet normal -1.000000e+000  0.000000e+000  0.000000e+000
    outer loop
      vertex -1.600000e+000  8.000000e+000  2.000000e+000
      vertex -1.600000e+000 -7.860076e+000  5.790373e+000
      vertex -1.600000e+000 -8.388212e+000  6.446021e+000
    endloop
  endfacet
  facet normal -1.000000e+000  0.000000e+000  0.000000e+000
    outer loop
      vertex -1.600000e+000  8.000000e+000  2.000000e+000
      vertex -1.600000e+000 -8.388212e+000  6.446021e+000
      vertex -1.600000e+000 -8.605887e+000  8.425176e+000
    endloop
  endfacet
  facet normal -9.999999e-001  0.000000e+000  0.000000e+000
    outer loop
      vertex -1.600000e+000  8.000000e+000  2.000000e+000
      vertex -1.600000e+000 -8.605887e+000  8.425176e+000
      vertex -1.600000e+000 -7.950240e+000  8.953312e+000
    endloop
  endfacet
  facet normal -9.999999e-001  0.000000e+000  0.000000e+000
    outer loop
      vertex -1.600000e+000  8.000000e+000  2.000000e+000
      vertex -1.600000e+000 -7.950240e+000  8.953312e+000
      vertex -1.600000e+000 -7.860076e+000  9.790374e+000
    endloop
  endfacet
  facet normal -1.000000e+000  0.000000e+000  0.000000e+000
    outer loop
      vertex -1.600000e+000  8.000000e+000  2.000000e+000
      vertex -1.600000e+000 -7.860076e+000  9.790374e+000
      vertex -1.600000e+000 -8.388212e+000  1.044602e+001
    endloop
  endfacet
  facet normal -1.000000e+000  0.000000e+000  0.000000e+000
    outer loop
      vertex -1.600000e+000  8.000000e+000  2.000000e+000
      vertex -1.600000e+000 -8.388212e+000  1.044602e+001
      vertex -1.600000e+000 -8.605887e+000  1.242518e+001
    endloop
  endfacet
  facet normal -1.000000e+000  0.000000e+000  0.000000e+000
    outer loop
      vertex -1.600000e+000  8.000000e+000  2.000000e+000
      vertex -1.600000e+000 -8.605887e+000  1.242518e+001
      vertex -1.600000e+000 -7.950240e+000  1.295331e+001
    endloop
  endfacet
  facet normal -9.999999e-001  0.000000e+000  0.000000e+000
    outer loop
      vertex -1.600000e+000  8.000000e+000  2.000000e+000
      vertex -1.600000e+000 -7.950240e+000  1.295331e+001
      vertex -1.600000e+000 -7.860076e+000  1.379037e+001
    endloop
  endfacet
  facet normal -1.000000e+000  0.000000e+000  0.000000e+000
    outer loop
      vertex -1.600000e+000  8.000000e+000  2.000000e+000
      vertex -1.600000e+000 -7.860076e+000  1.379037e+001
      vertex -1.600000e+000 -8.388212e+000  1.444602e+001
    endloop
  endfacet
  facet normal -1.000000e+000  0.000000e+000  0.000000e+000
    outer loop
      vertex -1.600000e+000  8.000000e+000  2.000000e+000
      vertex -1.600000e+000 -8.388212e+000  1.444602e+001
      vertex -1.600000e+000 -8.605887e+000  1.642517e+001
    endloop
  endfacet
  facet normal -1.000000e+000  0.000000e+000  0.000000e+000
    outer loop
      vertex -1.600000e+000  8.000000e+000  2.000000e+000
      vertex -1.600000e+000 -8.605887e+000  1.642517e+001
      vertex -1.600000e+000 -7.950240e+000  1.695331e+001
    endloop
  endfacet
  facet normal -1.000000e+000  0.000000e+000  0.000000e+000
    outer loop
      vertex -1.600000e+000  8.000000e+000  2.000000e+000
      vertex -1.600000e+000 -7.950240e+000  1.695331e+001
      vertex -1.600000e+000 -7.860076e+000  1.779037e+001
    endloop
  endfacet
  facet normal -1.000000e+000  0.000000e+000  0.000000e+000
    outer loop
      vertex -1.600000e+000  8.000000e+000  2.000000e+000
      vertex -1.600000e+000 -7.860076e+000  1.779037e+001
      vertex -1.600000e+000 -8.388212e+000  1.844602e+001
    endloop
  endfacet
  facet normal -1.000000e+000  0.000000e+000  0.000000e+000
    outer loop
      vertex -1.600000e+000  8.000000e+000  2.000000e+000
      vertex -1.600000e+000 -8.388212e+000  1.844602e+001
      vertex -1.600000e+000 -8.463557e+000  2.175627e+001
    endloop
  endfacet
  facet normal -1.000000e+000  0.000000e+000  0.000000e+000
    outer loop
      vertex -1.600000e+000  8.000000e+000  2.000000e+000
      vertex -1.600000e+000 -1.000000e+001  2.000000e+000
      vertex -1.600000e+000 -8.605887e+000  4.425176e+000
    endloop
  endfacet
  facet normal -1.000000e+000  -0.000000e+000  0.000000e+000
    outer loop
      vertex -1.600000e+000 -8.605887e+000  4.425176e+000
      vertex -1.600000e+000 -1.000000e+001  2.000000e+000
      vertex -1.600000e+000 -9.442949e+000  4.515339e+000
    endloop
  endfacet
  facet normal -9.999999e-001  0.000000e+000  0.000000e+000
    outer loop
      vertex -1.600000e+000 -1.000000e+001  2.000000e+000
      vertex -1.600000e+000 -1.141421e+001  2.585786e+000
      vertex -1.600000e+000 -9.442949e+000  4.515339e+000
    endloop
  endfacet
  facet normal -1.000000e+000  0.000000e+000  0.000000e+000
    outer loop
      vertex -1.600000e+000 -9.442949e+000  4.515339e+000
      vertex -1.600000e+000 -1.141421e+001  2.585786e+000
      vertex -1.600000e+000 -1.200000e+001  4.000000e+000
    endloop
  endfacet
  facet normal -1.000000e+000  0.000000e+000  -0.000000e+000
    outer loop
      vertex -1.600000e+000 -9.880921e+000  6.008048e+000
      vertex -1.600000e+000 -9.442949e+000  8.515339e+000
      vertex -1.600000e+000 -9.225274e+000  6.536185e+000
    endloop
  endfacet
  facet normal -1.000000e+000  0.000000e+000  0.000000e+000
    outer loop
      vertex -1.600000e+000 -9.225274e+000  6.536185e+000
      vertex -1.600000e+000 -9.442949e+000  8.515339e+000
      vertex -1.600000e+000 -8.605887e+000  8.425176e+000
    endloop
  endfacet
  facet normal -1.000000e+000  0.000000e+000  -0.000000e+000
    outer loop
      vertex -1.600000e+000 -9.225274e+000  6.536185e+000
      vertex -1.600000e+000 -8.605887e+000  8.425176e+000
      vertex -1.600000e+000 -8.388212e+000  6.446021e+000
    endloop
  endfacet
  facet normal -1.000000e+000  0.000000e+000  -0.000000e+000
    outer loop
      vertex -1.600000e+000 -9.880921e+000  1.000805e+001
      vertex -1.600000e+000 -9.442949e+000  1.251534e+001
      vertex -1.600000e+000 -9.225274e+000  1.053618e+001
    endloop
  endfacet
  facet normal -1.000000e+000  0.000000e+000  0.000000e+000
    outer loop
      vertex -1.600000e+000 -9.225274e+000  1.053618e+001
      vertex -1.600000e+000 -9.442949e+000  1.251534e+001
      vertex -1.600000e+000 -8.605887e+000  1.242518e+001
    endloop
  endfacet
  facet normal -1.000000e+000  0.000000e+000  -0.000000e+000
    outer loop
      vertex -1.600000e+000 -9.225274e+000  1.053618e+001
      vertex -1.600000e+000 -8.605887e+000  1.242518e+001
      vertex -1.600000e+000 -8.388212e+000  1.044602e+001
    endloop
  endfacet
  facet normal -1.000000e+000  0.000000e+000  -0.000000e+000
    outer loop
      vertex -1.600000e+000 -9.880921e+000  1.400805e+001
      vertex -1.600000e+000 -9.442949e+000  1.651534e+001
      vertex -1.600000e+000 -9.225274e+000  1.453618e+001
    endloop
  endfacet
  facet normal -1.000000e+000  0.000000e+000  0.000000e+000
    outer loop
      vertex -1.600000e+000 -9.225274e+000  1.453618e+001
      vertex -1.600000e+000 -9.442949e+000  1.651534e+001
      vertex -1.600000e+000 -8.605887e+000  1.642517e+001
    endloop
  endfacet
  facet normal -9.999999e-001  0.000000e+000  -0.000000e+000
    outer loop
      vertex -1.600000e+000 -9.225274e+000  1.453618e+001
      vertex -1.600000e+000 -8.605887e+000  1.642517e+001
      vertex -1.600000e+000 -8.388212e+000  1.444602e+001
    endloop
  endfacet
  facet normal -1.000000e+000  0.000000e+000  0.000000e+000
    outer loop
      vertex -1.600000e+000 -8.463557e+000  2.175627e+001
      vertex -1.600000e+000 -8.388212e+000  1.844602e+001
      vertex -1.600000e+000 -9.477447e+000  2.240643e+001
    endloop
  endfacet
  facet normal -1.000000e+000  0.000000e+000  0.000000e+000
    outer loop
      vertex -1.600000e+000 -9.477447e+000  2.240643e+001
      vertex -1.600000e+000 -8.388212e+000  1.844602e+001
      vertex -1.600000e+000 -9.225274e+000  1.853618e+001
    endloop
  endfacet
  facet normal  -0.000000e+000  7.787679e-001  6.273122e-001
    outer loop
      vertex  1.600000e+000 -9.442949e+000  4.515339e+000
      vertex -1.600000e+000 -9.971086e+000  5.170987e+000
      vertex  1.600000e+000 -9.971086e+000  5.170987e+000
    endloop
  endfacet
  facet normal  0.000000e+000  9.942487e-001 -1.070956e-001
    outer loop
      vertex  1.600000e+000 -9.971086e+000  5.170987e+000
      vertex -1.600000e+000 -9.971086e+000  5.170987e+000
      vertex -1.600000e+000 -9.880921e+000  6.008048e+000
    endloop
  endfacet
  facet normal  0.000000e+000  9.942487e-001 -1.070956e-001
    outer loop
      vertex  1.600000e+000 -9.971086e+000  5.170987e+000
      vertex -1.600000e+000 -9.880921e+000  6.008048e+000
      vertex  1.600000e+000 -9.880921e+000  6.008048e+000
    endloop
  endfacet
  facet normal  0.000000e+000  7.787679e-001  6.273122e-001
    outer loop
      vertex -1.600000e+000 -9.971086e+000  5.170987e+000
      vertex  1.600000e+000 -9.442949e+000  4.515339e+000
      vertex -1.600000e+000 -9.442949e+000  4.515339e+000
    endloop
  endfacet
  facet normal  -0.000000e+000  1.070950e-001  9.942487e-001
    outer loop
      vertex -1.600000e+000 -9.442949e+000  4.515339e+000
      vertex  1.600000e+000 -9.442949e+000  4.515339e+000
      vertex  1.600000e+000 -8.605887e+000  4.425176e+000
    endloop
  endfacet
  facet normal  0.000000e+000  1.070950e-001  9.942487e-001
    outer loop
      vertex -1.600000e+000 -9.442949e+000  4.515339e+000
      vertex  1.600000e+000 -8.605887e+000  4.425176e+000
      vertex -1.600000e+000 -8.605887e+000  4.425176e+000
    endloop
  endfacet
  facet normal  0.000000e+000 -6.273122e-001  7.787679e-001
    outer loop
      vertex -1.600000e+000 -8.605887e+000  4.425176e+000
      vertex  1.600000e+000 -8.605887e+000  4.425176e+000
      vertex  1.600000e+000 -7.950240e+000  4.953312e+000
    endloop
  endfacet
  facet normal  0.000000e+000 -6.273122e-001  7.787679e-001
    outer loop
      vertex -1.600000e+000 -8.605887e+000  4.425176e+000
      vertex  1.600000e+000 -7.950240e+000  4.953312e+000
      vertex -1.600000e+000 -7.950240e+000  4.953312e+000
    endloop
  endfacet
  facet normal  0.000000e+000 -7.787681e-001 -6.273119e-001
    outer loop
      vertex  1.600000e+000 -8.388212e+000  6.446021e+000
      vertex -1.600000e+000 -7.860076e+000  5.790373e+000
      vertex  1.600000e+000 -7.860076e+000  5.790373e+000
    endloop
  endfacet
  facet normal  0.000000e+000 -9.942487e-001  1.070956e-001
    outer loop
      vertex  1.600000e+000 -7.860076e+000  5.790373e+000
      vertex -1.600000e+000 -7.860076e+000  5.790373e+000
      vertex -1.600000e+000 -7.950240e+000  4.953312e+000
    endloop
  endfacet
  facet normal  0.000000e+000 -9.942487e-001  1.070956e-001
    outer loop
      vertex  1.600000e+000 -7.860076e+000  5.790373e+000
      vertex -1.600000e+000 -7.950240e+000  4.953312e+000
      vertex  1.600000e+000 -7.950240e+000  4.953312e+000
    endloop
  endfacet
  facet normal  -0.000000e+000 -7.787681e-001 -6.273119e-001
    outer loop
      vertex -1.600000e+000 -7.860076e+000  5.790373e+000
      vertex  1.600000e+000 -8.388212e+000  6.446021e+000
      vertex -1.600000e+000 -8.388212e+000  6.446021e+000
    endloop
  endfacet
  facet normal  0.000000e+000 -1.070950e-001 -9.942487e-001
    outer loop
      vertex -1.600000e+000 -8.388212e+000  6.446021e+000
      vertex  1.600000e+000 -8.388212e+000  6.446021e+000
      vertex  1.600000e+000 -9.225274e+000  6.536185e+000
    endloop
  endfacet
  facet normal  -0.000000e+000 -1.070950e-001 -9.942487e-001
    outer loop
      vertex -1.600000e+000 -8.388212e+000  6.446021e+000
      vertex  1.600000e+000 -9.225274e+000  6.536185e+000
      vertex -1.600000e+000 -9.225274e+000  6.536185e+000
    endloop
  endfacet
  facet normal  0.000000e+000  6.273125e-001 -7.787675e-001
    outer loop
      vertex -1.600000e+000 -9.225274e+000  6.536185e+000
      vertex  1.600000e+000 -9.225274e+000  6.536185e+000
      vertex  1.600000e+000 -9.880921e+000  6.008048e+000
    endloop
  endfacet
  facet normal  0.000000e+000  6.273125e-001 -7.787675e-001
    outer loop
      vertex -1.600000e+000 -9.225274e+000  6.536185e+000
      vertex  1.600000e+000 -9.880921e+000  6.008048e+000
      vertex -1.600000e+000 -9.880921e+000  6.008048e+000
    endloop
  endfacet
  facet normal  -0.000000e+000  7.787679e-001  6.273122e-001
    outer loop
      vertex  1.600000e+000 -9.442949e+000  8.515339e+000
      vertex -1.600000e+000 -9.971086e+000  9.170986e+000
      vertex  1.600000e+000 -9.971086e+000  9.170986e+000
    endloop
  endfacet
  facet normal  0.000000e+000  9.942487e-001 -1.070956e-001
    outer loop
      vertex  1.600000e+000 -9.971086e+000  9.170986e+000
      vertex -1.600000e+000 -9.971086e+000  9.170986e+000
      vertex -1.600000e+000 -9.880921e+000  1.000805e+001
    endloop
  endfacet
  facet normal  0.000000e+000  9.942487e-001 -1.070956e-001
    outer loop
      vertex  1.600000e+000 -9.971086e+000  9.170986e+000
      vertex -1.600000e+000 -9.880921e+000  1.000805e+001
      vertex  1.600000e+000 -9.880921e+000  1.000805e+001
    endloop
  endfacet
  facet normal  0.000000e+000  7.787679e-001  6.273122e-001
    outer loop
      vertex -1.600000e+000 -9.971086e+000  9.170986e+000
      vertex  1.600000e+000 -9.442949e+000  8.515339e+000
      vertex -1.600000e+000 -9.442949e+000  8.515339e+000
    endloop
  endfacet
  facet normal  -0.000000e+000  1.070945e-001  9.942489e-001
    outer loop
      vertex -1.600000e+000 -9.442949e+000  8.515339e+000
      vertex  1.600000e+000 -9.442949e+000  8.515339e+000
      vertex  1.600000e+000 -8.605887e+000  8.425176e+000
    endloop
  endfacet
  facet normal  0.000000e+000  1.070945e-001  9.942489e-001
    outer loop
      vertex -1.600000e+000 -9.442949e+000  8.515339e+000
      vertex  1.600000e+000 -8.605887e+000  8.425176e+000
      vertex -1.600000e+000 -8.605887e+000  8.425176e+000
    endloop
  endfacet
  facet normal  0.000000e+000 -6.273122e-001  7.787679e-001
    outer loop
      vertex -1.600000e+000 -8.605887e+000  8.425176e+000
      vertex  1.600000e+000 -8.605887e+000  8.425176e+000
      vertex  1.600000e+000 -7.950240e+000  8.953312e+000
    endloop
  endfacet
  facet normal  0.000000e+000 -6.273122e-001  7.787679e-001
    outer loop
      vertex -1.600000e+000 -8.605887e+000  8.425176e+000
      vertex  1.600000e+000 -7.950240e+000  8.953312e+000
      vertex -1.600000e+000 -7.950240e+000  8.953312e+000
    endloop
  endfacet
  facet normal  0.000000e+000 -7.787679e-001 -6.273122e-001
    outer loop
      vertex  1.600000e+000 -8.388212e+000  1.044602e+001
      vertex -1.600000e+000 -7.860076e+000  9.790374e+000
      vertex  1.600000e+000 -7.860076e+000  9.790374e+000
    endloop
  endfacet
  facet normal  0.000000e+000 -9.942487e-001  1.070956e-001
    outer loop
      vertex  1.600000e+000 -7.860076e+000  9.790374e+000
      vertex -1.600000e+000 -7.860076e+000  9.790374e+000
      vertex -1.600000e+000 -7.950240e+000  8.953312e+000
    endloop
  endfacet
  facet normal  0.000000e+000 -9.942487e-001  1.070956e-001
    outer loop
      vertex  1.600000e+000 -7.860076e+000  9.790374e+000
      vertex -1.600000e+000 -7.950240e+000  8.953312e+000
      vertex  1.600000e+000 -7.950240e+000  8.953312e+000
    endloop
  endfacet
  facet normal  -0.000000e+000 -7.787679e-001 -6.273122e-001
    outer loop
      vertex -1.600000e+000 -7.860076e+000  9.790374e+000
      vertex  1.600000e+000 -8.388212e+000  1.044602e+001
      vertex -1.600000e+000 -8.388212e+000  1.044602e+001
    endloop
  endfacet
  facet normal  0.000000e+000 -1.070945e-001 -9.942489e-001
    outer loop
      vertex -1.600000e+000 -8.388212e+000  1.044602e+001
      vertex  1.600000e+000 -8.388212e+000  1.044602e+001
      vertex  1.600000e+000 -9.225274e+000  1.053618e+001
    endloop
  endfacet
  facet normal  -0.000000e+000 -1.070945e-001 -9.942489e-001
    outer loop
      vertex -1.600000e+000 -8.388212e+000  1.044602e+001
      vertex  1.600000e+000 -9.225274e+000  1.053618e+001
      vertex -1.600000e+000 -9.225274e+000  1.053618e+001
    endloop
  endfacet
  facet normal  0.000000e+000  6.273122e-001 -7.787679e-001
    outer loop
      vertex -1.600000e+000 -9.225274e+000  1.053618e+001
      vertex  1.600000e+000 -9.225274e+000  1.053618e+001
      vertex  1.600000e+000 -9.880921e+000  1.000805e+001
    endloop
  endfacet
  facet normal  0.000000e+000  6.273122e-001 -7.787679e-001
    outer loop
      vertex -1.600000e+000 -9.225274e+000  1.053618e+001
      vertex  1.600000e+000 -9.880921e+000  1.000805e+001
      vertex -1.600000e+000 -9.880921e+000  1.000805e+001
    endloop
  endfacet
  facet normal  -0.000000e+000  7.787679e-001  6.273122e-001
    outer loop
      vertex  1.600000e+000 -9.442949e+000  1.251534e+001
      vertex -1.600000e+000 -9.971086e+000  1.317099e+001
      vertex  1.600000e+000 -9.971086e+000  1.317099e+001
    endloop
  endfacet
  facet normal  0.000000e+000  9.942487e-001 -1.070956e-001
    outer loop
      vertex  1.600000e+000 -9.971086e+000  1.317099e+001
      vertex -1.600000e+000 -9.971086e+000  1.317099e+001
      vertex -1.600000e+000 -9.880921e+000  1.400805e+001
    endloop
  endfacet
  facet normal  0.000000e+000  9.942487e-001 -1.070956e-001
    outer loop
      vertex  1.600000e+000 -9.971086e+000  1.317099e+001
      vertex -1.600000e+000 -9.880921e+000  1.400805e+001
      vertex  1.600000e+000 -9.880921e+000  1.400805e+001
    endloop
  endfacet
  facet normal  0.000000e+000  7.787679e-001  6.273122e-001
    outer loop
      vertex -1.600000e+000 -9.971086e+000  1.317099e+001
      vertex  1.600000e+000 -9.442949e+000  1.251534e+001
      vertex -1.600000e+000 -9.442949e+000  1.251534e+001
    endloop
  endfacet
  facet normal  -0.000000e+000  1.070945e-001  9.942489e-001
    outer loop
      vertex -1.600000e+000 -9.442949e+000  1.251534e+001
      vertex  1.600000e+000 -9.442949e+000  1.251534e+001
      vertex  1.600000e+000 -8.605887e+000  1.242518e+001
    endloop
  endfacet
  facet normal  0.000000e+000  1.070945e-001  9.942489e-001
    outer loop
      vertex -1.600000e+000 -9.442949e+000  1.251534e+001
      vertex  1.600000e+000 -8.605887e+000  1.242518e+001
      vertex -1.600000e+000 -8.605887e+000  1.242518e+001
    endloop
  endfacet
  facet normal  0.000000e+000 -6.273122e-001  7.787679e-001
    outer loop
      vertex -1.600000e+000 -8.605887e+000  1.242518e+001
      vertex  1.600000e+000 -8.605887e+000  1.242518e+001
      vertex  1.600000e+000 -7.950240e+000  1.295331e+001
    endloop
  endfacet
  facet normal  0.000000e+000 -6.273122e-001  7.787679e-001
    outer loop
      vertex -1.600000e+000 -8.605887e+000  1.242518e+001
      vertex  1.600000e+000 -7.950240e+000  1.295331e+001
      vertex -1.600000e+000 -7.950240e+000  1.295331e+001
    endloop
  endfacet
  facet normal  0.000000e+000 -7.787679e-001 -6.273122e-001
    outer loop
      vertex  1.600000e+000 -8.388212e+000  1.444602e+001
      vertex -1.600000e+000 -7.860076e+000  1.379037e+001
      vertex  1.600000e+000 -7.860076e+000  1.379037e+001
    endloop
  endfacet
  facet normal  0.000000e+000 -9.942487e-001  1.070956e-001
    outer loop
      vertex  1.600000e+000 -7.860076e+000  1.379037e+001
      vertex -1.600000e+000 -7.860076e+000  1.379037e+001
      vertex -1.600000e+000 -7.950240e+000  1.295331e+001
    endloop
  endfacet
  facet normal  0.000000e+000 -9.942487e-001  1.070956e-001
    outer loop
      vertex  1.600000e+000 -7.860076e+000  1.379037e+001
      vertex -1.600000e+000 -7.950240e+000  1.295331e+001
      vertex  1.600000e+000 -7.950240e+000  1.295331e+001
    endloop
  endfacet
  facet normal  -0.000000e+000 -7.787679e-001 -6.273122e-001
    outer loop
      vertex -1.600000e+000 -7.860076e+000  1.379037e+001
      vertex  1.600000e+000 -8.388212e+000  1.444602e+001
      vertex -1.600000e+000 -8.388212e+000  1.444602e+001
    endloop
  endfacet
  facet normal  0.000000e+000 -1.070945e-001 -9.942489e-001
    outer loop
      vertex -1.600000e+000 -8.388212e+000  1.444602e+001
      vertex  1.600000e+000 -8.388212e+000  1.444602e+001
      vertex  1.600000e+000 -9.225274e+000  1.453618e+001
    endloop
  endfacet
  facet normal  -0.000000e+000 -1.070945e-001 -9.942489e-001
    outer loop
      vertex -1.600000e+000 -8.388212e+000  1.444602e+001
      vertex  1.600000e+000 -9.225274e+000  1.453618e+001
      vertex -1.600000e+000 -9.225274e+000  1.453618e+001
    endloop
  endfacet
  facet normal  0.000000e+000  6.273122e-001 -7.787679e-001
    outer loop
      vertex -1.600000e+000 -9.225274e+000  1.453618e+001
      vertex  1.600000e+000 -9.225274e+000  1.453618e+001
      vertex  1.600000e+000 -9.880921e+000  1.400805e+001
    endloop
  endfacet
  facet normal  0.000000e+000  6.273122e-001 -7.787679e-001
    outer loop
      vertex -1.600000e+000 -9.225274e+000  1.453618e+001
      vertex  1.600000e+000 -9.880921e+000  1.400805e+001
      vertex -1.600000e+000 -9.880921e+000  1.400805e+001
    endloop
  endfacet
  facet normal  -0.000000e+000  7.787679e-001  6.273122e-001
    outer loop
      vertex  1.600000e+000 -9.442949e+000  1.651534e+001
      vertex -1.600000e+000 -9.971086e+000  1.717099e+001
      vertex  1.600000e+000 -9.971086e+000  1.717099e+001
    endloop
  endfacet
  facet normal  0.000000e+000  9.942487e-001 -1.070955e-001
    outer loop
      vertex  1.600000e+000 -9.971086e+000  1.717099e+001
      vertex -1.600000e+000 -9.971086e+000  1.717099e+001
      vertex -1.600000e+000 -9.880921e+000  1.800805e+001
    endloop
  endfacet
  facet normal  0.000000e+000  9.942487e-001 -1.070955e-001
    outer loop
      vertex  1.600000e+000 -9.971086e+000  1.717099e+001
      vertex -1.600000e+000 -9.880921e+000  1.800805e+001
      vertex  1.600000e+000 -9.880921e+000  1.800805e+001
    endloop
  endfacet
  facet normal  0.000000e+000  7.787679e-001  6.273122e-001
    outer loop
      vertex -1.600000e+000 -9.971086e+000  1.717099e+001
      vertex  1.600000e+000 -9.442949e+000  1.651534e+001
      vertex -1.600000e+000 -9.442949e+000  1.651534e+001
    endloop
  endfacet
  facet normal  -0.000000e+000  1.070956e-001  9.942487e-001
    outer loop
      vertex -1.600000e+000 -9.442949e+000  1.651534e+001
      vertex  1.600000e+000 -9.442949e+000  1.651534e+001
      vertex  1.600000e+000 -8.605887e+000  1.642517e+001
    endloop
  endfacet
  facet normal  0.000000e+000  1.070956e-001  9.942487e-001
    outer loop
      vertex -1.600000e+000 -9.442949e+000  1.651534e+001
      vertex  1.600000e+000 -8.605887e+000  1.642517e+001
      vertex -1.600000e+000 -8.605887e+000  1.642517e+001
    endloop
  endfacet
  facet normal  0.000000e+000 -6.273128e-001  7.787673e-001
    outer loop
      vertex -1.600000e+000 -8.605887e+000  1.642517e+001
      vertex  1.600000e+000 -8.605887e+000  1.642517e+001
      vertex  1.600000e+000 -7.950240e+000  1.695331e+001
    endloop
  endfacet
  facet normal  0.000000e+000 -6.273128e-001  7.787673e-001
    outer loop
      vertex -1.600000e+000 -8.605887e+000  1.642517e+001
      vertex  1.600000e+000 -7.950240e+000  1.695331e+001
      vertex -1.600000e+000 -7.950240e+000  1.695331e+001
    endloop
  endfacet
  facet normal  0.000000e+000 -7.787679e-001 -6.273122e-001
    outer loop
      vertex  1.600000e+000 -8.388212e+000  1.844602e+001
      vertex -1.600000e+000 -7.860076e+000  1.779037e+001
      vertex  1.600000e+000 -7.860076e+000  1.779037e+001
    endloop
  endfacet
  facet normal  0.000000e+000 -9.942486e-001  1.070957e-001
    outer loop
      vertex  1.600000e+000 -7.860076e+000  1.779037e+001
      vertex -1.600000e+000 -7.860076e+000  1.779037e+001
      vertex -1.600000e+000 -7.950240e+000  1.695331e+001
    endloop
  endfacet
  facet normal  0.000000e+000 -9.942486e-001  1.070957e-001
    outer loop
      vertex  1.600000e+000 -7.860076e+000  1.779037e+001
      vertex -1.600000e+000 -7.950240e+000  1.695331e+001
      vertex  1.600000e+000 -7.950240e+000  1.695331e+001
    endloop
  endfacet
  facet normal  -0.000000e+000 -7.787679e-001 -6.273122e-001
    outer loop
      vertex -1.600000e+000 -7.860076e+000  1.779037e+001
      vertex  1.600000e+000 -8.388212e+000  1.844602e+001
      vertex -1.600000e+000 -8.388212e+000  1.844602e+001
    endloop
  endfacet
  facet normal  0.000000e+000 -1.070956e-001 -9.942487e-001
    outer loop
      vertex -1.600000e+000 -8.388212e+000  1.844602e+001
      vertex  1.600000e+000 -8.388212e+000  1.844602e+001
      vertex  1.600000e+000 -9.225274e+000  1.853618e+001
    endloop
  endfacet
  facet normal  -0.000000e+000 -1.070956e-001 -9.942487e-001
    outer loop
      vertex -1.600000e+000 -8.388212e+000  1.844602e+001
      vertex  1.600000e+000 -9.225274e+000  1.853618e+001
      vertex -1.600000e+000 -9.225274e+000  1.853618e+001
    endloop
  endfacet
  facet normal  0.000000e+000  6.273115e-001 -7.787684e-001
    outer loop
      vertex -1.600000e+000 -9.225274e+000  1.853618e+001
      vertex  1.600000e+000 -9.225274e+000  1.853618e+001
      vertex  1.600000e+000 -9.880921e+000  1.800805e+001
    endloop
  endfacet
  facet normal  0.000000e+000  6.273115e-001 -7.787684e-001
    outer loop
      vertex -1.600000e+000 -9.225274e+000  1.853618e+001
      vertex  1.600000e+000 -9.880921e+000  1.800805e+001
      vertex -1.600000e+000 -9.880921e+000  1.800805e+001
    endloop
  endfacet
  facet normal  0.000000e+000 -1.000000e+000  0.000000e+000
    outer loop
      vertex  1.600000e+000 -1.200000e+001  2.047590e+001
      vertex -1.600000e+000 -1.200000e+001  2.047590e+001
      vertex  1.600000e+000 -1.200000e+001  4.000000e+000
    endloop
  endfacet
  facet normal  0.000000e+000 -1.000000e+000  0.000000e+000
    outer loop
      vertex  1.600000e+000 -1.200000e+001  4.000000e+000
      vertex -1.600000e+000 -1.200000e+001  2.047590e+001
      vertex -1.600000e+000 -1.200000e+001  4.000000e+000
    endloop
  endfacet
  facet normal  -0.000000e+000  7.682213e-001  6.401844e-001
    outer loop
      vertex  1.600000e+000  8.000000e+000  2.000000e+000
      vertex -1.600000e+000  8.000000e+000  2.000000e+000
      vertex  1.600000e+000 -8.463557e+000  2.175627e+001
    endloop
  endfacet
  facet normal  0.000000e+000  7.682213e-001  6.401844e-001
    outer loop
      vertex  1.600000e+000 -8.463557e+000  2.175627e+001
      vertex -1.600000e+000  8.000000e+000  2.000000e+000
      vertex -1.600000e+000 -8.463557e+000  2.175627e+001
    endloop
  endfacet
  facet normal  0.000000e+000 -9.535893e-001  3.011105e-001
    outer loop
      vertex -1.600000e+000 -1.200000e+001  2.047590e+001
      vertex  1.600000e+000 -1.200000e+001  2.047590e+001
      vertex -1.600000e+000 -1.163733e+001  2.162444e+001
    endloop
  endfacet
  facet normal  0.000000e+000 -9.535893e-001  3.011105e-001
    outer loop
      vertex -1.600000e+000 -1.163733e+001  2.162444e+001
      vertex  1.600000e+000 -1.200000e+001  2.047590e+001
      vertex  1.600000e+000 -1.163733e+001  2.162444e+001
    endloop
  endfacet
  facet normal  0.000000e+000 -6.077514e-001  7.941273e-001
    outer loop
      vertex -1.600000e+000 -1.163733e+001  2.162444e+001
      vertex  1.600000e+000 -1.163733e+001  2.162444e+001
      vertex -1.600000e+000 -1.068085e+001  2.235644e+001
    endloop
  endfacet
  facet normal  0.000000e+000 -6.077514e-001  7.941273e-001
    outer loop
      vertex -1.600000e+000 -1.068085e+001  2.235644e+001
      vertex  1.600000e+000 -1.163733e+001  2.162444e+001
      vertex  1.600000e+000 -1.068085e+001  2.235644e+001
    endloop
  endfacet
  facet normal  0.000000e+000 -4.149969e-002  9.991385e-001
    outer loop
      vertex -1.600000e+000 -1.068085e+001  2.235644e+001
      vertex  1.600000e+000 -1.068085e+001  2.235644e+001
      vertex -1.600000e+000 -9.477447e+000  2.240643e+001
    endloop
  endfacet
  facet normal  0.000000e+000 -4.149969e-002  9.991385e-001
    outer loop
      vertex -1.600000e+000 -9.477447e+000  2.240643e+001
      vertex  1.600000e+000 -1.068085e+001  2.235644e+001
      vertex  1.600000e+000 -9.477447e+000  2.240643e+001
    endloop
  endfacet
  facet normal  0.000000e+000  5.398008e-001  8.417928e-001
    outer loop
      vertex -1.600000e+000 -9.477447e+000  2.240643e+001
      vertex  1.600000e+000 -9.477447e+000  2.240643e+001
      vertex -1.600000e+000 -8.463557e+000  2.175627e+001
    endloop
  endfacet
  facet normal  -0.000000e+000  5.398008e-001  8.417928e-001
    outer loop
      vertex -1.600000e+000 -8.463557e+000  2.175627e+001
      vertex  1.600000e+000 -9.477447e+000  2.240643e+001
      vertex  1.600000e+000 -8.463557e+000  2.175627e+001
    endloop
  endfacet
  facet normal  -0.000000e+000 -1.000000e+000  -0.000000e+000
    outer loop
      vertex  7.500000e+000 -1.000000e+001  0.000000e+000
      vertex  7.500000e+000 -1.000000e+001  2.000000e+000
      vertex  1.600000e+000 -1.000000e+001  2.000000e+000
    endloop
  endfacet
  facet normal  0.000000e+000 -1.000000e+000  0.000000e+000
    outer loop
      vertex  1.600000e+000 -1.000000e+001  2.000000e+000
      vertex -1.600000e+000 -1.000000e+001  2.000000e+000
      vertex  7.500000e+000 -1.000000e+001  0.000000e+000
    endloop
  endfacet
  facet normal  0.000000e+000 -9.999999e-001  0.000000e+000
    outer loop
      vertex  7.500000e+000 -1.000000e+001  0.000000e+000
      vertex -1.600000e+000 -1.000000e+001  2.000000e+000
      vertex -7.500000e+000 -1.000000e+001  2.000000e+000
    endloop
  endfacet
  facet normal  0.000000e+000 -1.000000e+000  0.000000e+000
    outer loop
      vertex  7.500000e+000 -1.000000e+001  0.000000e+000
      vertex -7.500000e+000 -1.000000e+001  2.000000e+000
      vertex -7.500000e+000 -1.000000e+001  0.000000e+000
    endloop
  endfacet
  facet normal  -0.000000e+000 -3.826835e-001 -9.238795e-001
    outer loop
      vertex -1.600000e+000 -1.000000e+001  2.000000e+000
      vertex  1.600000e+000 -1.000000e+001  2.000000e+000
      vertex -1.600000e+000 -1.141421e+001  2.585786e+000
    endloop
  endfacet
  facet normal  0.000000e+000 -3.826835e-001 -9.238795e-001
    outer loop
      vertex -1.600000e+000 -1.141421e+001  2.585786e+000
      vertex  1.600000e+000 -1.000000e+001  2.000000e+000
      vertex  1.600000e+000 -1.141421e+001  2.585786e+000
    endloop
  endfacet
  facet normal  -0.000000e+000 -9.238795e-001 -3.826837e-001
    outer loop
      vertex -1.600000e+000 -1.141421e+001  2.585786e+000
      vertex  1.600000e+000 -1.141421e+001  2.585786e+000
      vertex -1.600000e+000 -1.200000e+001  4.000000e+000
    endloop
  endfacet
  facet normal  0.000000e+000 -9.238795e-001 -3.826837e-001
    outer loop
      vertex -1.600000e+000 -1.200000e+001  4.000000e+000
      vertex  1.600000e+000 -1.141421e+001  2.585786e+000
      vertex  1.600000e+000 -1.200000e+001  4.000000e+000
    endloop
  endfacet
  facet normal  1.000000e+000  -0.000000e+000  0.000000e+000
    outer loop
      vertex  7.500000e+000  1.000000e+001  2.000000e+000
      vertex  7.500000e+000 -1.000000e+001  2.000000e+000
      vertex  7.500000e+000  1.000000e+001  0.000000e+000
    endloop
  endfacet
  facet normal  1.000000e+000  0.000000e+000  0.000000e+000
    outer loop
      vertex  7.500000e+000  1.000000e+001  0.000000e+000
      vertex  7.500000e+000 -1.000000e+001  2.000000e+000
      vertex  7.500000e+000 -1.000000e+001  0.000000e+000
    endloop
  endfacet
  facet normal -1.000000e+000  -0.000000e+000  0.000000e+000
    outer loop
      vertex -7.500000e+000 -1.000000e+001  2.000000e+000
      vertex -7.500000e+000  1.000000e+001  2.000000e+000
      vertex -7.500000e+000 -1.000000e+001  0.000000e+000
    endloop
  endfacet
  facet normal -1.000000e+000  0.000000e+000  0.000000e+000
    outer loop
      vertex -7.500000e+000 -1.000000e+001  0.000000e+000
      vertex -7.500000e+000  1.000000e+001  2.000000e+000
      vertex -7.500000e+000  1.000000e+001  0.000000e+000
    endloop
  endfacet
  facet normal  0.000000e+000  1.000000e+000  0.000000e+000
    outer loop
      vertex -7.500000e+000  1.000000e+001  2.000000e+000
      vertex  7.500000e+000  1.000000e+001  2.000000e+000
      vertex -7.500000e+000  1.000000e+001  0.000000e+000
    endloop
  endfacet
  facet normal  0.000000e+000  1.000000e+000  0.000000e+000
    outer loop
      vertex -7.500000e+000  1.000000e+001  0.000000e+000
      vertex  7.500000e+000  1.000000e+001  2.000000e+000
      vertex  7.500000e+000  1.000000e+001  0.000000e+000
    endloop
  endfacet
endsolid CATIA STL
